<?xml version="1.0" encoding="UTF-8" standalone="no"?>
<!-- Generator: Adobe Illustrator 13.0.2, SVG Export Plug-In  -->

<svg
   xmlns:dc="http://purl.org/dc/elements/1.1/"
   xmlns:cc="http://creativecommons.org/ns#"
   xmlns:rdf="http://www.w3.org/1999/02/22-rdf-syntax-ns#"
   xmlns:svg="http://www.w3.org/2000/svg"
   xmlns="http://www.w3.org/2000/svg"
   xmlns:sodipodi="http://sodipodi.sourceforge.net/DTD/sodipodi-0.dtd"
   xmlns:inkscape="http://www.inkscape.org/namespaces/inkscape"
   version="1.1"
   x="0px"
   y="0px"
   width="1000"
   height="381.091"
   viewBox="-0.948 -0.872 1000 381.091"
   enable-background="new -0.948 -0.872 179 69"
   xml:space="preserve"
   id="svg5009"
   inkscape:version="0.91 r13725"
   sodipodi:docname="Standard_Chartered.svg"><metadata
   id="metadata5067"><rdf:RDF><cc:Work
       rdf:about=""><dc:format>image/svg+xml</dc:format><dc:type
         rdf:resource="http://purl.org/dc/dcmitype/StillImage" /><dc:title></dc:title></cc:Work></rdf:RDF></metadata><sodipodi:namedview
   pagecolor="#ffffff"
   bordercolor="#666666"
   borderopacity="1"
   objecttolerance="10"
   gridtolerance="10"
   guidetolerance="10"
   inkscape:pageopacity="0"
   inkscape:pageshadow="2"
   inkscape:window-width="1366"
   inkscape:window-height="705"
   id="namedview5065"
   showgrid="false"
   inkscape:zoom="0.6201998"
   inkscape:cx="669.05974"
   inkscape:cy="30.378947"
   inkscape:window-x="-8"
   inkscape:window-y="-8"
   inkscape:window-maximized="1"
   inkscape:current-layer="svg5009" />
<defs
   id="defs5011">

	
</defs>
<g
   id="g5015"
   transform="matrix(5.6253727,0,0,5.6253727,-0.94800001,-0.87187)">
		<path
   style="fill:#0072aa"
   inkscape:connector-curvature="0"
   id="path5017"
   d="m 34.854,29.421 -1.851,0 c -1.237,0 -1.75,-0.79 -1.75,-1.931 l 0,-8.169 3.601,0 0,-2.306 -3.601,0 0,-4.345 -2.595,0 0,14.783 c 0,3.116 1.563,4.447 4.341,4.447 l 1.854,0 0,-2.479" />
		<path
   style="fill:#0072aa"
   inkscape:connector-curvature="0"
   id="path5019"
   d="m 9.891,24.866 0,0.105 c 0,5.292 4.323,7.188 8.37,7.188 3.954,0 7.934,-1.894 7.934,-6.08 0,-4.068 -3.342,-5.168 -6.475,-5.881 L 18.626,19.96 c -2.811,-0.614 -5.243,-1.131 -5.243,-3.222 0,-2.979 3.063,-3.319 4.376,-3.319 2.894,0 4.576,1.395 4.857,4.002 l 0.01,0.096 2.732,0 -0.002,-0.112 c -0.156,-4.098 -2.885,-6.438 -7.484,-6.438 -3.666,0 -7.368,1.839 -7.368,5.967 0,3.68 3.077,4.655 6.505,5.404 l 0.675,0.149 c 2.896,0.615 5.63,1.2 5.63,3.675 0,3.07 -3.11,3.526 -4.969,3.526 -1.566,0 -2.98,-0.399 -3.985,-1.125 -1.132,-0.821 -1.729,-2.059 -1.729,-3.593 l 0,-0.105 -2.74,0" />
		<path
   style="fill:#0072aa"
   inkscape:connector-curvature="0"
   id="path5021"
   d="m 50.466,29.504 -0.145,0.053 c -0.323,0.118 -0.536,0.133 -0.689,0.133 -0.625,0 -0.654,-0.339 -0.654,-1.512 l 0,-7.453 c 0,-2.758 -1.81,-4.094 -5.54,-4.094 -2.261,0 -6.079,0.64 -6.247,4.956 l -0.002,0.112 2.588,0 0.007,-0.102 c 0.096,-1.801 1.217,-2.653 3.515,-2.653 2.12,0 3.116,0.729 3.116,2.312 0,1.315 -1.334,1.502 -3.171,1.761 -0.526,0.074 -1.059,0.151 -1.624,0.26 -2.525,0.484 -4.994,1.237 -4.994,4.566 0,2.605 1.836,4.177 4.903,4.177 2.061,0 3.736,-0.729 5.018,-2.112 0.101,1.71 1.18,2.112 2.101,2.112 0.746,0 1.308,-0.146 1.768,-0.423 l 0.052,-0.032 0,-2.061 m -8.408,0.185 c -0.808,0 -2.695,-0.195 -2.695,-2.016 0,-1.754 1.434,-2.263 2.826,-2.511 0.426,-0.072 0.88,-0.133 1.313,-0.187 1.115,-0.145 2.17,-0.283 2.883,-0.704 0,0 0.059,-0.035 0,0 l 0,2.256 c -10e-4,1.224 -1.178,3.162 -4.327,3.162 z" />
		<path
   style="fill:#0072aa"
   inkscape:connector-curvature="0"
   id="path5023"
   d="m 52.76,17.016 0,14.701 2.6,0 0,-8.287 c 0,-2.768 1.559,-4.436 4.179,-4.436 1.744,0 2.834,1.09 2.834,2.813 l 0,9.909 2.6,0 0,-9.628 c 0,-3.644 -1.672,-5.409 -5.1,-5.409 -2.087,0 -3.646,0.817 -4.66,2.442 l 0,-2.106 -2.453,0" />
		<path
   style="fill:#0072aa"
   inkscape:connector-curvature="0"
   id="path5025"
   d="m 78.761,11.492 0,7.313 C 77.663,17.252 75.676,16.68 74.14,16.68 c -4.092,0 -6.729,2.994 -6.729,7.645 0,2.135 0.605,4.054 1.69,5.416 1.204,1.512 2.967,2.329 5.094,2.329 2.125,0 3.769,-0.784 4.566,-2.122 l 0,1.77 2.602,0 0,-20.226 -2.602,0 m -4.233,18.247 c -3.021,0 -4.381,-2.626 -4.381,-5.247 0,-1.649 0.413,-5.498 4.245,-5.498 4.13,0 4.453,4.126 4.453,5.385 0.001,2.6 -1.129,5.36 -4.317,5.36 z" />
		<path
   style="fill:#0072aa"
   inkscape:connector-curvature="0"
   id="path5027"
   d="m 97.819,29.553 -0.142,0.053 c -0.326,0.118 -0.54,0.134 -0.691,0.134 -0.637,0 -0.663,-0.338 -0.663,-1.512 l 0,-7.452 c 0,-2.76 -1.81,-4.096 -5.527,-4.096 -2.272,0 -6.085,0.64 -6.254,4.956 l -0.005,0.112 2.598,0 0.005,-0.102 c 0.096,-1.801 1.208,-2.652 3.511,-2.652 2.123,0 3.109,0.747 3.109,2.311 0,1.315 -1.326,1.503 -3.163,1.762 -0.529,0.073 -1.062,0.15 -1.627,0.259 -2.518,0.485 -4.986,1.237 -4.986,4.566 0,2.605 1.825,4.178 4.896,4.178 2.063,0 3.74,-0.729 5.012,-2.113 0.103,1.71 1.18,2.113 2.102,2.113 0.757,0 1.317,-0.146 1.775,-0.424 l 0.051,-0.03 0,-2.063 m -8.408,0.186 c -0.81,0 -2.687,-0.196 -2.687,-2.016 0,-1.755 1.421,-2.263 2.814,-2.512 0.425,-0.072 0.869,-0.133 1.315,-0.186 1.117,-0.146 2.17,-0.284 2.876,-0.704 0,0 0.06,-0.036 0,0 l 0,2.255 c 10e-4,1.224 -1.167,3.163 -4.318,3.163 z" />
		<path
   style="fill:#0072aa"
   inkscape:connector-curvature="0"
   id="path5029"
   d="m 107.919,16.683 -0.104,-0.002 c -2.428,-0.079 -4.058,0.893 -5.279,3.173 l 0,-2.838 -2.45,0 0,14.701 2.589,0 0,-6.554 c 0,-3.913 1.645,-5.752 5.136,-5.752 l 0.108,0 0,-2.728" />
		<path
   style="fill:#0072aa"
   inkscape:connector-curvature="0"
   id="path5031"
   d="m 119.629,11.492 0,7.313 c -1.101,-1.553 -3.079,-2.125 -4.637,-2.125 -4.071,0 -6.721,2.994 -6.721,7.645 0,2.135 0.6,4.054 1.703,5.416 1.203,1.512 2.957,2.329 5.086,2.329 2.131,0 3.771,-0.786 4.568,-2.123 l 0,1.771 2.607,0 0,-20.226 -2.606,0 m -4.228,18.247 c -3.03,0 -4.382,-2.626 -4.382,-5.247 0,-1.649 0.412,-5.498 4.245,-5.498 4.124,0 4.446,4.126 4.446,5.385 0.001,2.6 -1.131,5.36 -4.309,5.36 z" />
		<path
   style="fill:#0072aa"
   inkscape:connector-curvature="0"
   id="path5033"
   d="m 15.255,52.151 -0.009,0.098 c -0.268,3.49 -2.433,5.674 -5.659,5.674 -2.229,0 -3.954,-0.812 -5.117,-2.442 -1.039,-1.428 -1.595,-3.442 -1.595,-5.839 0,-2.18 0.571,-4.146 1.589,-5.555 1.166,-1.593 2.93,-2.432 5.094,-2.432 2.928,0 4.976,1.555 5.493,4.178 l 0.016,0.087 2.88,0 -0.02,-0.122 C 17.633,43.727 16.655,42.031 15.101,40.873 13.639,39.78 11.727,39.202 9.587,39.202 6.634,39.202 4.168,40.281 2.448,42.326 0.874,44.207 0,46.887 0,49.838 c 0,6.499 3.59,10.54 9.362,10.54 2.481,0 4.595,-0.749 6.106,-2.161 1.486,-1.392 2.404,-3.461 2.654,-5.95 l 0.012,-0.115 -2.879,0" />
		<path
   style="fill:#0072aa"
   inkscape:connector-curvature="0"
   id="path5035"
   d="m 20.626,39.657 0,20.26 2.598,0 0,-8.302 c 0,-2.785 1.569,-4.438 4.178,-4.438 1.754,0 2.838,1.073 2.838,2.8 l 0,9.94 2.599,0 0,-9.662 c 0,-3.626 -1.663,-5.39 -5.09,-5.39 -1.545,0 -3.597,0.584 -4.524,2.228 l 0,-7.436 -2.599,0" />
		<path
   style="fill:#0072aa"
   inkscape:connector-curvature="0"
   id="path5037"
   d="m 38.276,49.917 0.002,-0.104 c 0.097,-1.798 1.208,-2.636 3.51,-2.636 2.129,0 3.112,0.73 3.112,2.298 0,1.33 -1.324,1.52 -3.168,1.777 -0.518,0.073 -1.052,0.15 -1.614,0.259 -2.528,0.485 -4.997,1.237 -4.997,4.55 0,2.619 1.836,4.178 4.903,4.178 2.053,0 3.74,-0.713 5.01,-2.097 0.1,1.709 1.188,2.097 2.109,2.097 0.742,0 1.301,-0.13 1.76,-0.407 l 0.053,-0.03 0,-2.06 -0.146,0.05 c -0.325,0.12 -0.538,0.132 -0.689,0.132 -0.618,0 -0.646,-0.336 -0.646,-1.527 l 0,-7.453 c 0,-2.743 -1.816,-4.077 -5.548,-4.077 -2.262,0 -6.078,0.642 -6.247,4.939 l -10e-4,0.112 2.597,0 m 2.282,8.005 c -0.815,0 -2.697,-0.195 -2.697,-2.032 0,-1.754 1.425,-2.245 2.828,-2.49 0.423,-0.076 0.868,-0.133 1.297,-0.188 1.129,-0.144 2.185,-0.284 2.889,-0.706 0,0 0.058,-0.034 0,0 l 0,2.238 c -10e-4,1.224 -1.17,3.178 -4.317,3.178 z" />
		<path
   style="fill:#0072aa"
   inkscape:connector-curvature="0"
   id="path5039"
   d="m 122.236,59.905 0,-20.228 -2.607,0 0,7.313 c -1.101,-1.555 -3.079,-2.125 -4.637,-2.125 -4.071,0 -6.721,2.993 -6.721,7.644 0,2.118 0.6,4.052 1.703,5.417 1.203,1.51 2.957,2.313 5.086,2.313 2.131,0 3.771,-0.771 4.568,-2.108 l 0,1.775 2.608,0 m -6.835,-1.983 c -3.03,0 -4.382,-2.642 -4.382,-5.244 0,-1.648 0.412,-5.502 4.245,-5.502 4.124,0 4.446,4.129 4.446,5.388 0.001,2.584 -1.131,5.358 -4.309,5.358 z" />
		<path
   style="fill:#0072aa"
   inkscape:connector-curvature="0"
   id="path5041"
   d="m 79.483,55.341 c -0.443,1.67 -1.703,2.582 -3.596,2.582 -1.339,0 -2.462,-0.417 -3.229,-1.214 -0.779,-0.824 -1.193,-2 -1.171,-3.337 l 10.836,0 0.009,-0.104 c 0.104,-2.613 -0.7,-5.095 -2.149,-6.602 -1.156,-1.196 -2.67,-1.801 -4.518,-1.801 -4.008,0 -6.919,3.208 -6.919,7.644 0.155,4.919 2.731,7.729 7.059,7.729 3.313,0 5.591,-1.78 6.271,-4.897 l -2.593,0 m -3.961,-8.164 c 2.172,0 3.889,1.656 4.054,3.883 l -8.076,0 c 0.189,-1.961 1.492,-3.883 4.022,-3.883 z" />
		<path
   style="fill:#0072aa"
   inkscape:connector-curvature="0"
   id="path5043"
   d="m 103.728,55.375 c -0.45,1.649 -1.724,2.548 -3.595,2.548 -1.339,0 -2.451,-0.417 -3.219,-1.214 -0.8,-0.824 -1.209,-2 -1.188,-3.337 l 10.844,0 0.007,-0.104 c 0.103,-2.613 -0.698,-5.095 -2.148,-6.602 -1.147,-1.196 -2.678,-1.801 -4.517,-1.801 -4.019,0 -6.915,3.208 -6.915,7.644 0.15,4.919 2.721,7.729 7.056,7.729 3.309,0 5.574,-1.767 6.261,-4.863 l -2.586,0 m -3.959,-8.198 c 2.164,0 3.896,1.656 4.061,3.883 l -8.093,0 c 0.192,-1.961 1.511,-3.883 4.032,-3.883 z" />
		<path
   style="fill:#0072aa"
   inkscape:connector-curvature="0"
   id="path5045"
   d="m 53.84,59.916 0,-6.569 c 0,-3.929 1.635,-5.751 5.137,-5.751 l 0.108,0 0,-2.728 -0.104,-0.002 c -2.437,-0.079 -4.076,0.892 -5.279,3.153 l 0,-2.838 -2.458,0 0,14.734 2.596,0" />
		<path
   style="fill:#0072aa"
   inkscape:connector-curvature="0"
   id="path5047"
   d="m 87.487,59.905 0,-6.559 c 0,-3.929 1.625,-5.751 5.135,-5.751 l 0.107,0 0,-2.728 -0.103,-0.002 c -2.446,-0.079 -4.076,0.892 -5.28,3.153 l 0,-2.83 -2.456,0 0,14.716 2.597,0" />
		<path
   style="fill:#0072aa"
   inkscape:connector-curvature="0"
   id="path5049"
   d="m 67.437,57.606 -1.844,0 c -1.245,0 -1.757,-0.79 -1.757,-1.948 l 0,-8.152 3.601,0 0,-2.305 -3.601,0 0,-4.343 -2.597,0 0,14.764 c 0,3.133 1.571,4.465 4.351,4.465 l 1.847,0 0,-2.481" />
		<path
   style="fill:#78add2"
   inkscape:connector-curvature="0"
   id="path5051"
   d="m 147.104,65.425 c -1.774,1.057 -3.385,1.688 -5.074,1.688 -4.375,0 -8.03,-3.583 -8.241,-7.89 l 8.522,-5.078 13.249,5.924 -8.456,5.356" />
		<path
   style="fill:#a4d0a0"
   inkscape:connector-curvature="0"
   id="path5053"
   d="m 152.171,43.61 -6.329,-2.788 c -2.829,-1.265 -5.499,-2.317 -5.499,-5.431 0,-1.612 0.49,-2.458 1.263,-3.3 l 13.39,5.902 -3.32,1.916 c -0.914,0.562 -1.547,1.054 -1.547,1.758 -0.001,0.763 0.868,1.411 2.042,1.943" />
		<path
   style="fill:#78add2"
   inkscape:connector-curvature="0"
   id="path5055"
   d="m 158.39,14.397 -6.491,3.938 c -0.575,0.348 -1.346,0.91 -1.346,1.774 0,0.982 1.498,1.735 2.829,2.369 l -8.12,-3.583 c -2.393,-1.053 -4.779,-2.249 -4.779,-5.133 0,-1.212 0.351,-2.193 0.913,-3.035 L 158.95,0 c 2.104,1.193 4.145,3.605 4.145,6.841 0,3.462 -1.754,5.781 -4.705,7.556" />
		<path
   style="fill:#a4d0a0"
   inkscape:connector-curvature="0"
   id="path5057"
   d="m 172.194,27.083 -1.612,0.912 -13.409,-5.919 15.587,-9.383 c 2.104,1.214 4.165,3.602 4.165,6.835 0,3.463 -1.706,5.85 -4.731,7.555" />
		<path
   style="fill:#78add2"
   inkscape:connector-curvature="0"
   id="path5059"
   d="m 160.875,38.467 7.932,3.484 c 2.972,1.332 3.885,2.894 3.885,4.868 0,1.122 -0.633,2.248 -1.544,3.021 l -13.338,-5.924 2.257,-1.265 c 1.908,-1.055 2.542,-1.688 2.542,-2.391 -0.001,-0.728 -0.446,-1.209 -1.734,-1.793" />
		<path
   style="fill:#21aa47"
   inkscape:connector-curvature="0"
   id="path5061"
   d="m 175.011,67.745 c -3.374,-2.6 -6.974,-4.357 -11.35,-6.343 l -20.226,-8.948 c -5.082,-2.266 -8.452,-5.284 -8.452,-10.364 0,-4.938 2.392,-7.33 5.499,-9.294 l 1.123,-0.704 c -0.772,0.842 -1.263,1.688 -1.263,3.3 0,3.113 2.67,4.166 5.499,5.431 l 23.53,10.369 c 4.094,1.758 7.839,4.78 7.839,9.929 0.001,2.829 -1.076,5.36 -2.199,6.624" />
		<path
   style="fill:#0072aa"
   inkscape:connector-curvature="0"
   id="path5063"
   d="m 172.623,48.924 -1.476,0.917 c 0.911,-0.773 1.544,-1.899 1.544,-3.023 0,-1.971 -0.916,-3.534 -3.885,-4.866 L 143.645,30.878 c -5.079,-2.246 -8.242,-5.146 -8.242,-10.205 0,-4.657 2.319,-7.699 5.992,-9.944 -0.563,0.842 -0.913,1.823 -0.913,3.035 0,2.884 2.387,4.08 4.779,5.133 l 24.458,10.788 c 4.446,1.97 8.047,4.938 8.047,10.368 0.001,4.233 -1.98,6.903 -5.143,8.871" />
	</g>
</svg>