<svg xmlns="http://www.w3.org/2000/svg" width="480" height="112" style="fill:currentcolor" viewBox="0 0 480 112" enable-background="new 0 0 480 112">
            <g>
              <polygon points="480,109 480,81 421,81 480,22 460,2 401,61 401,2 373,2 373,109   "></polygon>
              <path d="M38,0c25,0,39,15,39,37v3H52v-2c0-11-5-17-15-17s-11,3-11,9s3,8,8,10l16,5c18,6,27,14,27,32s-16,34-38,34S0,97,0,74v-3h24
                v2c0,11,6,17,16,17s12-3,12-10s-3-8-9-10l-17-5C12,60,1,52,1,33S15,0,38,0z"></path>
              <path d="M133,53l31,55h-28l-18-32l-17,33H73l31-55L75,2h29l16,30l16-30h27L133,53z"></path>
              <path d="M199,0c25,0,39,15,39,37v3h-24v-2c0-11-5-17-15-17s-11,4-11,10s3,8,8,10l16,5c18,6,27,14,27,32s-16,34-38,34s-40-14-40-37
                v-4h24v2c0,11,6,17,16,17s12-3,12-10s-3-8-9-10l-16-5c-15-5-25-13-25-32S176,0,199,0z"></path>
              <path d="M313,2l10,69h1l11-69h25l-20,106h-30l-10-68h-1l-10,68h-29L240,2h27l11,69h1l10-69H313z"></path>
              <path d="M351,108c-2.2,0-4-1.8-4-4s1.8-4,4-4s4,1.8,4,4S353.2,108,351,108z M351,101c-1.7,0-3,1.3-3,3s1.3,3,3,3s3-1.3,3-3
                S352.7,101,351,101z M352,106h-2v-4h2V106z M351,104L351,104z"></path>
            </g>
          </svg>
