<?xml version="1.0" encoding="utf-8"?>
<!-- Generator: Adobe Illustrator 23.1.1, SVG Export Plug-In . SVG Version: 6.00 Build 0)  -->
<svg version="1.1" id="Capa_1" xmlns="http://www.w3.org/2000/svg" xmlns:xlink="http://www.w3.org/1999/xlink" x="0px" y="0px"
	 viewBox="0 0 512 512" style="enable-background:new 0 0 512 512;" xml:space="preserve">
<style type="text/css">
	.st0{fill:#FFFFFF;}
</style>
<g>
	<g>
		<path class="st0" d="M453,361.3c-2.8-1.2-6-0.5-8.2,1.6l-82.1,82.1c-2.1,2.1-2.8,5.4-1.6,8.2c1.2,2.8,3.9,4.6,6.9,4.6h82.1
			c4.2,0,7.5-3.4,7.5-7.5v-82.1C457.7,365.2,455.8,362.5,453,361.3z M386.2,442.9l56.5-56.5v56.5H386.2z"/>
	</g>
</g>
<g>
	<g>
		<path class="st0" d="M507.4,240.9c-2.8-1.2-6-0.5-8.2,1.6L476.7,265V112c0-4.2-3.4-7.5-7.5-7.5h-57.7l21-21c0,0,0,0,0,0l20.2-20.2
			c4.3-4.3,6.7-10.1,6.7-16.2s-2.4-11.9-6.7-16.2L429.2,7.5c-4.3-4.3-10.1-6.7-16.2-6.7s-11.9,2.4-16.2,6.7l-20.2,20.2l-24.4,24.4
			l-52.3,52.3H66.6V30.1c0-4.2-3.4-7.5-7.5-7.5C26.5,22.6,0,49.1,0,81.7v319.2c0,0.6,0.1,1.1,0.2,1.6c1,13.8,7,26.7,17,36.4
			c10.7,10.4,24.8,16.2,39.7,16.2h229.6l-43.2,43.2c-2.1,2.1-2.8,5.4-1.6,8.2c1.2,2.8,3.9,4.6,6.9,4.6h255.9c4.1,0,7.5-3.4,7.5-7.5
			V247.8C512,244.8,510.2,242,507.4,240.9z M407.4,18.2c3.1-3.1,8.1-3.1,11.1,0l23.4,23.4c3.1,3.1,3.1,8.1,0,11.2l-14.9,14.9
			l-34.5-34.5L407.4,18.2z M381.9,43.7l34.5,34.5L402.6,92l-34.5-34.5L381.9,43.7z M497,332.3h-13.9c-4.2,0-7.5,3.4-7.5,7.5
			s3.4,7.5,7.5,7.5H497v22.6h-13.9c-4.2,0-7.5,3.4-7.5,7.5s3.4,7.5,7.5,7.5H497v22.6h-13.9c-4.2,0-7.5,3.4-7.5,7.5s3.4,7.5,7.5,7.5
			H497v22.6h-13.9c-4.2,0-7.5,3.4-7.5,7.5c0,4.2,3.4,7.5,7.5,7.5H497v35.8H266.8l75.9-75.9c2.9-2.9,2.9-7.7,0-10.6
			c-0.3-0.3-0.7-0.6-1.1-0.9c-2.9-2-7-1.7-9.6,0.9l-30.5,30.5H56.9c-22.8,0-41.1-17.8-41.9-40.5c0-1.4,0.2-2.8,0.3-4.2c0,0,0,0,0,0
			c0.1-0.7,0.2-1.3,0.3-2c0-0.1,0-0.1,0-0.2c0.1-0.6,0.2-1.2,0.4-1.8c0-0.2,0.1-0.3,0.1-0.5c0.1-0.5,0.2-1,0.4-1.5
			c0.1-0.3,0.1-0.5,0.2-0.8c0.1-0.4,0.2-0.8,0.3-1.1c0.1-0.4,0.2-0.8,0.4-1.1c0.1-0.3,0.2-0.5,0.3-0.8c0.2-0.5,0.4-1,0.6-1.5
			c0.1-0.1,0.1-0.3,0.2-0.4c0.3-0.6,0.5-1.2,0.8-1.8c0,0,0,0,0-0.1c5.9-12.2,17.2-21.2,30.8-24c0,0,0.1,0,0.1,0
			c0.6-0.1,1.2-0.2,1.9-0.3c0.1,0,0.2,0,0.3-0.1c0.6-0.1,1.1-0.2,1.7-0.2c0.2,0,0.3,0,0.5-0.1c0.6-0.1,1.1-0.1,1.7-0.1
			c0.2,0,0.4,0,0.5,0c0.7,0,1.5-0.1,2.2-0.1c4.2,0,7.5-3.4,7.5-7.5v-54.5c0-4.2-3.4-7.5-7.5-7.5s-7.5,3.4-7.5,7.5v47.4
			c-12.7,1.6-24.5,7.3-33.8,16.3c-1,1-1.9,1.9-2.8,3V81.7C15,60,30.9,41.8,51.6,38.3V112v152.8v0c0,4.1,3.4,7.5,7.5,7.5
			s7.5-3.4,7.5-7.5v0V119.5h218.2L243.3,161c-2.9,2.9-2.9,7.7,0,10.6c2.9,2.9,7.7,2.9,10.6,0l54.4-54.4c0,0,0,0,0,0l49.2-49.2
			l34.5,34.5l-4,4c0,0,0,0,0,0L236.4,258.2l-34.5-34.5l29.9-29.9c2.9-2.9,2.9-7.7,0-10.6c-2.9-2.9-7.7-2.9-10.6,0L186,218.4
			c-0.2,0.2-0.4,0.4-0.5,0.6c-0.1,0.1-0.1,0.1-0.2,0.2c-0.1,0.1-0.2,0.3-0.3,0.4c-0.1,0.1-0.1,0.2-0.2,0.3c-0.1,0.1-0.2,0.3-0.2,0.4
			c0,0.1-0.1,0.2-0.1,0.3c-0.1,0.1-0.1,0.3-0.2,0.4c0,0.1,0,0.1-0.1,0.2l-14.6,41.5l-10,28.3c-0.1,0.4-0.2,0.8-0.3,1.1h-25
			c-4.1,0-7.5,3.4-7.5,7.5s3.4,7.5,7.5,7.5h208.1c4.2,0,7.5-3.4,7.5-7.5s-3.4-7.5-7.5-7.5H193.1l45.8-16.2c0,0,0.1,0,0.1,0
			c0.2-0.1,0.4-0.1,0.5-0.2c0.1,0,0.1-0.1,0.2-0.1c0.2-0.1,0.4-0.2,0.5-0.3c0.1,0,0.1-0.1,0.2-0.1c0.2-0.1,0.4-0.2,0.5-0.4
			c0,0,0.1-0.1,0.1-0.1c0.2-0.2,0.4-0.3,0.6-0.5l154.6-154.6h65.3V280L354.1,387.5c-2.9,2.9-2.9,7.7,0,10.6c0.2,0.2,0.4,0.4,0.6,0.5
			c1.4,1.1,3.1,1.7,4.7,1.7s3.4-0.6,4.7-1.7c0.2-0.2,0.4-0.3,0.6-0.5c0,0,0,0,0,0L497,266V332.3z M222.7,265.7l-21.5,7.6L186.8,259
			l7.6-21.5L222.7,265.7z"/>
	</g>
</g>
</svg>
