<svg version="1.1" id="Capa_1" xmlns="http://www.w3.org/2000/svg" x="0" y="0" viewBox="0 0 512 512" xml:space="preserve"><style>.st0{fill:#fff}</style><path class="st0" d="M453 361.3c-2.8-1.2-6-.5-8.2 1.6L362.7 445c-2.1 2.1-2.8 5.4-1.6 8.2 1.2 2.8 3.9 4.6 6.9 4.6h82.1c4.2 0 7.5-3.4 7.5-7.5v-82.1c.1-3-1.8-5.7-4.6-6.9zm-66.8 81.6l56.5-56.5v56.5h-56.5z"/><path class="st0" d="M507.4 240.9c-2.8-1.2-6-.5-8.2 1.6L476.7 265V112c0-4.2-3.4-7.5-7.5-7.5h-57.7l21-21 20.2-20.2c4.3-4.3 6.7-10.1 6.7-16.2s-2.4-11.9-6.7-16.2L429.2 7.5C424.9 3.2 419.1.8 413 .8s-11.9 2.4-16.2 6.7l-20.2 20.2-24.4 24.4-52.3 52.3H66.6V30.1c0-4.2-3.4-7.5-7.5-7.5C26.5 22.6 0 49.1 0 81.7v319.2c0 .6.1 1.1.2 1.6 1 13.8 7 26.7 17 36.4 10.7 10.4 24.8 16.2 39.7 16.2h229.6l-43.2 43.2c-2.1 2.1-2.8 5.4-1.6 8.2 1.2 2.8 3.9 4.6 6.9 4.6h255.9c4.1 0 7.5-3.4 7.5-7.5V247.8c0-3-1.8-5.8-4.6-6.9zm-100-222.7c3.1-3.1 8.1-3.1 11.1 0l23.4 23.4c3.1 3.1 3.1 8.1 0 11.2L427 67.7l-34.5-34.5 14.9-15zm-25.5 25.5l34.5 34.5L402.6 92l-34.5-34.5 13.8-13.8zM497 332.3h-13.9c-4.2 0-7.5 3.4-7.5 7.5s3.4 7.5 7.5 7.5H497v22.6h-13.9c-4.2 0-7.5 3.4-7.5 7.5s3.4 7.5 7.5 7.5H497v22.6h-13.9c-4.2 0-7.5 3.4-7.5 7.5s3.4 7.5 7.5 7.5H497v22.6h-13.9c-4.2 0-7.5 3.4-7.5 7.5 0 4.2 3.4 7.5 7.5 7.5H497v35.8H266.8l75.9-75.9c2.9-2.9 2.9-7.7 0-10.6-.3-.3-.7-.6-1.1-.9-2.9-2-7-1.7-9.6.9l-30.5 30.5H56.9c-22.8 0-41.1-17.8-41.9-40.5 0-1.4.2-2.8.3-4.2.1-.7.2-1.3.3-2v-.2c.1-.6.2-1.2.4-1.8 0-.2.1-.3.1-.5.1-.5.2-1 .4-1.5.1-.3.1-.5.2-.8.1-.4.2-.8.3-1.1.1-.4.2-.8.4-1.1.1-.3.2-.5.3-.8l.6-1.5c.1-.1.1-.3.2-.4.3-.6.5-1.2.8-1.8v-.1c5.9-12.2 17.2-21.2 30.8-24h.1c.6-.1 1.2-.2 1.9-.3.1 0 .2 0 .3-.1.6-.1 1.1-.2 1.7-.2.2 0 .3 0 .5-.1.6-.1 1.1-.1 1.7-.1h.5c.7 0 1.5-.1 2.2-.1 4.2 0 7.5-3.4 7.5-7.5v-54.5c0-4.2-3.4-7.5-7.5-7.5s-7.5 3.4-7.5 7.5v47.4c-12.7 1.6-24.5 7.3-33.8 16.3-1 1-1.9 1.9-2.8 3V81.7c.1-21.7 16-39.9 36.7-43.4v226.5c0 4.1 3.4 7.5 7.5 7.5s7.5-3.4 7.5-7.5V119.5h218.2L243.3 161c-2.9 2.9-2.9 7.7 0 10.6 2.9 2.9 7.7 2.9 10.6 0l54.4-54.4L357.5 68l34.5 34.5-4 4-151.6 151.7-34.5-34.5 29.9-29.9c2.9-2.9 2.9-7.7 0-10.6-2.9-2.9-7.7-2.9-10.6 0L186 218.4c-.2.2-.4.4-.5.6l-.2.2c-.1.1-.2.3-.3.4-.1.1-.1.2-.2.3-.1.1-.2.3-.2.4 0 .1-.1.2-.1.3-.1.1-.1.3-.2.4 0 .1 0 .1-.1.2l-14.6 41.5-10 28.3c-.1.4-.2.8-.3 1.1h-25c-4.1 0-7.5 3.4-7.5 7.5s3.4 7.5 7.5 7.5h208.1c4.2 0 7.5-3.4 7.5-7.5s-3.4-7.5-7.5-7.5H193.1l45.8-16.2h.1c.2-.1.4-.1.5-.2.1 0 .1-.1.2-.1.2-.1.4-.2.5-.3.1 0 .1-.1.2-.1.2-.1.4-.2.5-.4l.1-.1c.2-.2.4-.3.6-.5l154.6-154.6h65.3V280L354.1 387.5c-2.9 2.9-2.9 7.7 0 10.6.2.2.4.4.6.5 1.4 1.1 3.1 1.7 4.7 1.7s3.4-.6 4.7-1.7c.2-.2.4-.3.6-.5L497 266v66.3zm-274.3-66.6l-21.5 7.6-14.4-14.3 7.6-21.5 28.3 28.2z"/></svg>