<svg id="Layer_1" data-name="Layer 1" xmlns="http://www.w3.org/2000/svg" viewBox="0 0 69.27 62.92"><defs><style>.cls-1{fill:#fff}</style></defs><path class="cls-1" d="M68.87 45l-3.3-3.27a1.35 1.35 0 1 0-1.91 1.92L67 46.89a1.37 1.37 0 0 0 1 .39 1.35 1.35 0 0 0 1-2.31zM62.2 38.34a1.36 1.36 0 0 0-1.91 0 1.35 1.35 0 1 0 1.91 0z"/><path class="cls-1" d="M50.67 44.58l13.12-13.12a5.1 5.1 0 0 0 0-7.21 5 5 0 0 0-2.46-1.37 5.1 5.1 0 0 0-3.76-7.17 5.09 5.09 0 0 0-1.23-5.2 5 5 0 0 0-2.74-1.42 5.1 5.1 0 0 0-4.84-6.7 5.14 5.14 0 0 0-2.44.61l-.13-.14A9 9 0 0 0 39.61 0H29a1.35 1.35 0 0 0-1.35 1.35v1.78A6.13 6.13 0 0 0 28 5.18a5 5 0 0 0-2-.39 5.09 5.09 0 0 0-4.84 6.7 5.09 5.09 0 0 0-4.23 5 5.35 5.35 0 0 0 .25 1.6 5 5 0 0 0-2.73 1.42 5.08 5.08 0 0 0-1 5.75A5 5 0 0 0 11 26.64a5.11 5.11 0 0 0 0 7.22l2.7 2.7L.4 49.85a1.35 1.35 0 0 0 0 1.91 1.36 1.36 0 0 0 1 .4 1.36 1.36 0 0 0 1-.4l13.33-13.42a5.1 5.1 0 0 0 2.52.67 5.11 5.11 0 0 0 5.09-5.31h.21a5.12 5.12 0 0 0 5.1-5.1v-.21h.2a5.09 5.09 0 0 0 5.1-5.1v-.2h.2a5.1 5.1 0 0 0 4-8.33l9-9a2.39 2.39 0 0 1 3.38 3.38l-1.32 1.33-4.81 4.8a1.35 1.35 0 0 0 1 2.31 1.39 1.39 0 0 0 1-.39l4.6-4.77a2.39 2.39 0 1 1 3.38 3.39l-1.28 1.32-3.48 3.48a1.35 1.35 0 0 0 0 1.91 1.34 1.34 0 0 0 1.91 0L55 19a2.4 2.4 0 0 1 3.39 3.39l-1.82 1.82-1.66 1.66a1.35 1.35 0 0 0 0 1.91 1.34 1.34 0 0 0 1.91 0l1.66-1.66a2.39 2.39 0 0 1 3.39 3.38L48.75 42.67A18.28 18.28 0 0 1 36.41 48a1.38 1.38 0 0 0-.9.4L23.38 60.61a1.35 1.35 0 1 0 1.92 1.91l8.92-9a12.58 12.58 0 0 0 7.63 2l7 7a1.35 1.35 0 0 0 .95.39 1.35 1.35 0 0 0 1-2.31l-7.42-7.42a1.36 1.36 0 0 0-1.07-.39h-.43a9.81 9.81 0 0 1-5.65-1.23l.87-.87a21 21 0 0 0 13.57-6.11zm-30.73-9a2.39 2.39 0 0 1-3.38 0l-3.66-3.64a2.39 2.39 0 0 1 3.38-3.38l3.66 3.65a2.41 2.41 0 0 1 0 3.39zm5.3-5.3a2.41 2.41 0 0 1-3.39 0l-3.65-3.64-1.82-1.81a2.41 2.41 0 0 1 0-3.39 2.39 2.39 0 0 1 3.38 0l5.48 5.48a2.39 2.39 0 0 1 0 3.38zm5.3-5.3a2.39 2.39 0 0 1-3.39 0l-6.8-6.8a2.39 2.39 0 0 1 3.39-3.38l3.09 3.1 3.71 3.7a2.39 2.39 0 0 1 0 3.38zm5.29-5.29a2.4 2.4 0 0 1-3.38 0l-6.8-6.8-1.32-1.32a2.39 2.39 0 0 1 3.38-3.37l8.12 8.12a2.33 2.33 0 0 1 .7 1.69 2.37 2.37 0 0 1-.7 1.7zm.36-6.86l-3.72-3.7a6.24 6.24 0 0 0 1.3.14h3.71a1.35 1.35 0 1 0 0-2.7h-3.71a3.43 3.43 0 0 1-3.44-3.43v-.43h9.27a6.31 6.31 0 0 1 4.61 2l.06.06z"/></svg>