<svg id="Layer_1" data-name="Layer 1" xmlns="http://www.w3.org/2000/svg" viewBox="0 0 16 16"><title>link-icon</title><path d="M10.05,11.89c-.19.23-.08.12-2.56,2.59a4.22,4.22,0,0,1-6-6L3.43,6.6a.36.36,0,0,1,.62.24A5.56,5.56,0,0,0,4.19,8a.34.34,0,0,1-.1.33L2.71,9.71a2.53,2.53,0,0,0,3.58,3.58L8.56,11a2.53,2.53,0,0,0,0-3.58A2.79,2.79,0,0,0,7.87,7a.36.36,0,0,1-.19-.37,1.59,1.59,0,0,1,.44-.92l.13-.13a.37.37,0,0,1,.42-.07,4.28,4.28,0,0,1,1.09.78A4.23,4.23,0,0,1,10.05,11.89Zm4.43-4.4L12.57,9.4A.36.36,0,0,1,12,9.16,5.56,5.56,0,0,0,11.81,8a.34.34,0,0,1,.1-.33l1.38-1.39A2.53,2.53,0,0,0,9.71,2.71L7.44,5a2.53,2.53,0,0,0,0,3.58,2.79,2.79,0,0,0,.69.49.36.36,0,0,1,.19.37,1.59,1.59,0,0,1-.44.92l-.13.13a.37.37,0,0,1-.42.07,4.28,4.28,0,0,1-1.09-.78A4.23,4.23,0,0,1,6,4.11C6.14,3.88,6,4,8.51,1.52a4.22,4.22,0,0,1,6,6Z"/></svg>