<?xml version="1.0" encoding="utf-8"?>
<!-- Generator: Adobe Illustrator 23.1.1, SVG Export Plug-In . SVG Version: 6.00 Build 0)  -->
<svg version="1.1" id="Layer_1" xmlns="http://www.w3.org/2000/svg" xmlns:xlink="http://www.w3.org/1999/xlink" x="0px" y="0px"
	 viewBox="0 0 496 496" style="enable-background:new 0 0 496 496;" xml:space="preserve">
<style type="text/css">
	.st0{fill:#FFFFFF;}
</style>
<path class="st0" d="M306.4,130c-5,6.9-9,14.3-12.1,22H256v-33.1c13.8-3.6,24-16,24-30.9c0-17.6-14.4-32-32-32s-32,14.4-32,32
	c0,14.9,10.2,27.3,24,30.9V152h-38.6c-3.1-7.8-7.2-15.4-12.2-22.5c-10.6-14.9-15-33.3-12.5-51.7c4.4-31.8,30.8-57.6,62.8-61.2
	c2.5-0.3,5.1-0.4,7.6-0.5c0.1,0,0.2,0,0.3,0c18-0.1,35,6.2,48.5,18.3C311.2,47.9,320,67.5,320,88C320,103.2,315.3,117.7,306.4,130z
	 M296,184h-96c-4.4,0-8-3.6-8-8s3.6-8,8-8h96c4.4,0,8,3.6,8,8S300.4,184,296,184z M287.2,200c-3.7,18.2-19.9,32-39.2,32
	s-35.5-13.8-39.2-32H287.2z M248,104c-8.8,0-16-7.2-16-16s7.2-16,16-16c8.8,0,16,7.2,16,16S256.8,104,248,104z M208,476.5V424h8
	c39.7,0,72-32.3,72-72v-8h-16v8c0,30.9-25.1,56-56,56h-72.7l-7.8-85.9l-23.5-7.8V240c0-44.4,22-86.1,58.1-111.4
	c1.8,3.5,3.8,6.9,6.1,10.1c4,5.7,7.3,11.7,9.9,17.8c-6.1,4.4-10,11.4-10,19.4c0,10.6,6.9,19.5,16.4,22.7
	c3.3,27.7,26.9,49.3,55.6,49.3s52.3-21.6,55.6-49.3c9.5-3.2,16.4-12.1,16.4-22.7c0-8.1-4.1-15.2-10.2-19.6
	c2.5-5.9,5.7-11.7,9.6-17.1c2.4-3.3,4.4-6.7,6.3-10.2c36.2,26,58.3,68.8,58.3,114.3V272c0,45.5-22.6,87.7-60.5,113.1l-3.5,2.4v81.1
	c-22.7,7.4-46.9,11.5-72,11.5C234.4,480,221,478.8,208,476.5z"/>
<path class="st0" d="M408,0h16v16h-16V0z"/>
<path class="st0" d="M408,32h16v16h-16V32z"/>
<path class="st0" d="M424,16h16v16h-16V16z"/>
<path class="st0" d="M392,16h16v16h-16V16z"/>
<path class="st0" d="M368,80h16v16h-16V80z"/>
<path class="st0" d="M368,112h16v16h-16V112z"/>
<path class="st0" d="M384,96h16v16h-16V96z"/>
<path class="st0" d="M352,96h16v16h-16V96z"/>
<path class="st0" d="M120,56h16v16h-16V56z"/>
<path class="st0" d="M120,88h16v16h-16V88z"/>
<path class="st0" d="M136,72h16v16h-16V72z"/>
<path class="st0" d="M104,72h16v16h-16V72z"/>
<path class="st0" d="M144,192h16v16h-16V192z"/>
<path class="st0" d="M144,224h16v16h-16V224z"/>
<path class="st0" d="M160,208h16v16h-16V208z"/>
<path class="st0" d="M128,208h16v16h-16V208z"/>
<path class="st0" d="M424,152h16v16h-16V152z"/>
<path class="st0" d="M424,184h16v16h-16V184z"/>
<path class="st0" d="M440,168h16v16h-16V168z"/>
<path class="st0" d="M408,168h16v16h-16V168z"/>
<path class="st0" d="M72,120h16v16H72V120z"/>
<path class="st0" d="M72,152h16v16H72V152z"/>
<path class="st0" d="M88,136h16v16H88V136z"/>
<path class="st0" d="M56,136h16v16H56V136z"/>
</svg>
