<svg version="1.1" id="Layer_1" xmlns="http://www.w3.org/2000/svg" x="0" y="0" viewBox="0 0 496 496" xml:space="preserve"><style>.st0{fill:#fff}</style><path class="st0" d="M306.4 130c-5 6.9-9 14.3-12.1 22H256v-33.1c13.8-3.6 24-16 24-30.9 0-17.6-14.4-32-32-32s-32 14.4-32 32c0 14.9 10.2 27.3 24 30.9V152h-38.6c-3.1-7.8-7.2-15.4-12.2-22.5-10.6-14.9-15-33.3-12.5-51.7 4.4-31.8 30.8-57.6 62.8-61.2 2.5-.3 5.1-.4 7.6-.5h.3c18-.1 35 6.2 48.5 18.3C311.2 47.9 320 67.5 320 88c0 15.2-4.7 29.7-13.6 42zM296 184h-96c-4.4 0-8-3.6-8-8s3.6-8 8-8h96c4.4 0 8 3.6 8 8s-3.6 8-8 8zm-8.8 16c-3.7 18.2-19.9 32-39.2 32s-35.5-13.8-39.2-32h78.4zM248 104c-8.8 0-16-7.2-16-16s7.2-16 16-16 16 7.2 16 16-7.2 16-16 16zm-40 372.5V424h8c39.7 0 72-32.3 72-72v-8h-16v8c0 30.9-25.1 56-56 56h-72.7l-7.8-85.9-23.5-7.8V240c0-44.4 22-86.1 58.1-111.4 1.8 3.5 3.8 6.9 6.1 10.1 4 5.7 7.3 11.7 9.9 17.8-6.1 4.4-10 11.4-10 19.4 0 10.6 6.9 19.5 16.4 22.7 3.3 27.7 26.9 49.3 55.6 49.3s52.3-21.6 55.6-49.3c9.5-3.2 16.4-12.1 16.4-22.7 0-8.1-4.1-15.2-10.2-19.6 2.5-5.9 5.7-11.7 9.6-17.1 2.4-3.3 4.4-6.7 6.3-10.2 36.2 26 58.3 68.8 58.3 114.3V272c0 45.5-22.6 87.7-60.5 113.1l-3.5 2.4v81.1c-22.7 7.4-46.9 11.5-72 11.5-13.7-.1-27.1-1.3-40.1-3.6zM408 0h16v16h-16V0zM408 32h16v16h-16V32zM424 16h16v16h-16V16zM392 16h16v16h-16V16zM368 80h16v16h-16V80zM368 112h16v16h-16v-16zM384 96h16v16h-16V96zM352 96h16v16h-16V96zM120 56h16v16h-16V56zM120 88h16v16h-16V88zM136 72h16v16h-16V72zM104 72h16v16h-16V72z"/><path class="st0" d="M144 192h16v16h-16v-16zM144 224h16v16h-16v-16zM160 208h16v16h-16v-16zM128 208h16v16h-16v-16zM424 152h16v16h-16v-16zM424 184h16v16h-16v-16zM440 168h16v16h-16v-16zM408 168h16v16h-16v-16zM72 120h16v16H72v-16zM72 152h16v16H72v-16zM88 136h16v16H88v-16zM56 136h16v16H56v-16z"/></svg>