<?xml version="1.0" encoding="utf-8"?>
<!-- Generator: Adobe Illustrator 21.1.0, SVG Export Plug-In . SVG Version: 6.00 Build 0)  -->
<svg version="1.1" id="Layer_1" xmlns="http://www.w3.org/2000/svg" xmlns:xlink="http://www.w3.org/1999/xlink" x="0px" y="0px"
	 viewBox="0 0 851.9 350" style="enable-background:new 0 0 851.9 350;" xml:space="preserve">
<style type="text/css">
	.st0{fill:#2789D8;}
</style>
<title>AltSchool</title>
<g id="Page-1">
	<g id="blue_full">
		<g id="Group">
			<path id="Combined-Shape" class="st0" d="M0,29.8C0,13.3,13.3,0,29.8,0h290.5C336.7,0,350,13.3,350,29.8v290.5
				c0,16.4-13.3,29.8-29.8,29.8H29.8C13.3,350,0,336.7,0,320.2V29.8z M148,288.9c0-3.8,1.6-6.8,4.7-8.9c3.1-2.2,7.6-3.3,13.2-3.3
				c3.5,0,6.8,0.3,10,0.9c3.1,0.6,5.8,1.3,8.1,2.2v4.5c0,2.5-0.5,4.7-1.5,6.8c-1,2-2.5,3.8-4.4,5.2c-1.9,1.5-4.1,2.6-6.6,3.4
				s-5.3,1.2-8.3,1.2c-4.3,0-7.9-1-10.8-3c-2.9-2-4.4-4.9-4.4-8.7V288.9z M138.5,308.3c2.5,2,5.5,3.6,8.9,4.6s6.9,1.5,10.7,1.5
				c6,0,11.1-1.1,15.2-3.3c4.1-2.2,7.6-4.9,10.3-8.1v9.7h17.9v-46.6c0-10.5-2.8-18.7-8.5-24.5c-5.7-5.8-14.4-8.7-26.1-8.7
				c-6.5,0-12,0.6-16.6,1.7c-4.6,1.2-9.1,2.8-13.5,4.7l4.9,14.5c3.6-1.5,7.1-2.8,10.5-3.6c3.5-0.9,7.5-1.3,11.9-1.3
				c6.3,0,11.1,1.5,14.4,4.4c3.3,2.9,5,7.1,5,12.6v1.5c-3.1-0.9-6.3-1.7-9.6-2.3c-3.3-0.6-7.4-0.9-12.1-0.9c-4.6,0-8.8,0.5-12.7,1.5
				c-3.9,1-7.3,2.6-10.1,4.7c-2.8,2.1-5.1,4.8-6.7,8.1s-2.4,7.1-2.4,11.4v0.3c0,4,0.8,7.5,2.3,10.5c1.5,3.1,3.6,5.6,6.1,7.6H138.5z
				 M241.9,312.8V204h-18v108.7H241.9z M269.1,249.6V291c0,4.4,0.6,8,1.7,10.9c1.1,2.9,2.7,5.3,4.7,7.1s4.4,3.1,7.2,3.9
				s5.8,1.2,9.1,1.2c3.4,0,6.4-0.4,8.9-1c2.5-0.7,4.9-1.7,7.2-3v-14.8c-1.7,0.9-3.6,1.5-5.5,2c-1.9,0.4-3.8,0.7-5.7,0.7
				c-3.1,0-5.5-0.8-7.2-2.3c-1.7-1.5-2.5-4.1-2.5-7.6v-38.5h21.1v-15.5H287v-21.6h-18v21.6h-10v15.5L269.1,249.6z"/>
			<path id="school" class="st0" d="M412.5,316.8c4,0,7.9-0.5,11.4-1.6s6.6-2.7,9.2-4.7c2.5-2.1,4.6-4.6,6.1-7.6
				c1.5-3,2.3-6.4,2.3-10.3v-0.3c0-3.7-0.8-6.7-2.3-9.2c-1.5-2.5-3.5-4.7-6-6.4c-2.5-1.8-5.3-3.2-8.4-4.4s-6.2-2.2-9.3-3.1
				c-2.7-0.8-5.3-1.7-7.8-2.5c-2.5-0.8-4.7-1.8-6.6-2.8c-1.9-1-3.4-2.2-4.6-3.6s-1.8-3.1-1.8-5v-0.4c0-3.3,1.5-6,4.3-8.2
				c2.8-2.2,6.6-3.4,11.5-3.4c3.9,0,7.9,0.7,12.1,2.1s8.1,3.3,11.8,5.7l5.5-9.1c-4.2-2.7-8.9-4.8-14-6.4c-5.1-1.6-10.2-2.4-15.1-2.4
				c-4,0-7.6,0.5-11,1.6c-3.4,1.1-6.3,2.7-8.7,4.7s-4.4,4.5-5.7,7.3c-1.4,2.8-2.1,6-2.1,9.4v0.3c0,3.7,0.8,6.9,2.4,9.4
				c1.6,2.5,3.7,4.6,6.2,6.3c2.5,1.7,5.4,3.1,8.6,4.1c3.2,1.1,6.3,2.1,9.5,3c2.7,0.7,5.2,1.5,7.6,2.3c2.4,0.8,4.6,1.8,6.5,2.9
				c1.9,1.1,3.4,2.4,4.5,3.9c1.1,1.5,1.6,3.2,1.6,5.2v0.3c0,4-1.6,7.1-4.7,9.4c-3.1,2.3-7.2,3.4-12.1,3.4c-4.8,0-9.6-0.9-14.4-2.7
				s-9.3-4.4-13.7-7.7l-6.1,8.6c4.6,3.7,9.9,6.6,15.8,8.7s11.8,3.2,17.7,3.2L412.5,316.8z M468,304.7c3.7,3.8,8,6.9,13.1,9.1
				c5,2.2,10.5,3.4,16.5,3.4c7.6,0,14.1-1.5,19.2-4.4c5.1-2.9,9.7-6.6,13.7-11.2l-7.6-7.2c-3.2,3.4-6.8,6.3-10.8,8.6
				c-4,2.3-8.6,3.4-13.8,3.4c-4.3,0-8.2-0.8-11.8-2.4s-6.7-3.9-9.4-6.8c-2.7-2.8-4.7-6.2-6.3-10c-1.5-3.8-2.3-7.9-2.3-12.3v-0.3
				c0-4.4,0.8-8.5,2.2-12.3c1.5-3.8,3.5-7.2,6.1-10c2.6-2.8,5.7-5,9.2-6.6s7.3-2.4,11.4-2.4c5.6,0,10.2,1.2,14.1,3.6
				s7.3,5.3,10.5,8.6l7.9-8.5c-1.9-2-4-3.9-6.2-5.7c-2.2-1.8-4.6-3.3-7.2-4.6c-2.6-1.3-5.5-2.3-8.6-3c-3.1-0.7-6.6-1.1-10.5-1.1
				c-5.9,0-11.4,1.1-16.4,3.4c-5,2.2-9.4,5.3-13.1,9.1c-3.7,3.9-6.6,8.4-8.7,13.5c-2.1,5.1-3.1,10.5-3.1,16.3v0.3
				c0,5.6,1.1,10.9,3.1,16c2.1,5.1,5,9.6,8.7,13.4L468,304.7z M560,315.2V269c0-3.7,0.6-7.2,1.8-10.3c1.2-3.1,2.9-5.8,5.1-8
				c2.2-2.2,4.8-4,7.8-5.2c3-1.2,6.2-1.8,9.6-1.8c7.3,0,12.8,2.2,16.6,6.6c3.8,4.4,5.7,10.4,5.7,17.9v47.2h12.1v-50.2
				c0-4.8-0.7-9.2-2.1-13.2s-3.4-7.4-6.1-10.3c-2.7-2.8-6-5-9.8-6.6c-3.8-1.5-8.2-2.3-13.1-2.3c-6.9,0-12.6,1.5-17,4.6
				c-4.4,3.1-7.9,6.8-10.5,11.1v-47.4h-12.1v114.2H560z M649.1,274.7L649,275c0,4.4,0.8,8.5,2.3,12.3c1.5,3.8,3.6,7.1,6.3,9.9
				c2.7,2.8,5.8,5.1,9.5,6.8s7.6,2.5,11.9,2.5c4.4,0,8.4-0.8,12.1-2.5s6.8-4,9.4-6.8c2.6-2.8,4.7-6.1,6.1-9.9
				c1.5-3.7,2.2-7.8,2.2-12.1V275c0-4.4-0.8-8.5-2.3-12.3c-1.5-3.8-3.7-7.2-6.3-10.1c-2.7-2.8-5.9-5.1-9.5-6.8
				c-3.7-1.7-7.6-2.5-11.9-2.5c-4.4,0-8.4,0.8-12.1,2.5c-3.7,1.7-6.8,3.9-9.3,6.7c-2.5,2.8-4.5,6.2-6,10
				C649.9,266.4,649.1,270.4,649.1,274.7z M678.7,317.2c-6,0-11.6-1.1-16.7-3.4c-5.1-2.2-9.5-5.3-13.3-9.1l0.1,0.1
				c-3.7-3.8-6.6-8.2-8.7-13.3c-2.1-5-3.1-10.5-3.1-16.2V275c0-5.7,1.1-11.1,3.1-16.3c2.1-5.1,5-9.6,8.7-13.5
				c3.7-3.8,8.2-6.9,13.4-9.1c5.2-2.2,10.8-3.4,17-3.4c6,0,11.6,1.1,16.7,3.4c5.1,2.2,9.5,5.2,13.3,8.9c3.7,3.8,6.6,8.2,8.7,13.3
				c2.1,5,3.1,10.5,3.1,16.2v0.3c0,5.7-1.1,11.1-3.2,16.3c-2.1,5.1-5,9.6-8.8,13.5c-3.7,3.9-8.2,6.9-13.4,9.2
				C690.3,316,684.7,317.2,678.7,317.2z M747.6,274.7l-0.1,0.3c0,4.4,0.8,8.5,2.3,12.3c1.5,3.8,3.6,7.1,6.3,9.9
				c2.7,2.8,5.8,5.1,9.5,6.8c3.7,1.7,7.6,2.5,11.9,2.5c4.4,0,8.4-0.8,12.1-2.5s6.8-4,9.4-6.8c2.6-2.8,4.7-6.1,6.1-9.9
				c1.5-3.7,2.2-7.8,2.2-12.1V275c0-4.4-0.8-8.5-2.3-12.3c-1.5-3.8-3.7-7.2-6.3-10.1c-2.7-2.8-5.9-5.1-9.5-6.8
				c-3.7-1.7-7.6-2.5-11.9-2.5c-4.4,0-8.4,0.8-12.1,2.5c-3.7,1.7-6.8,3.9-9.3,6.7c-2.5,2.8-4.5,6.2-6,10
				C748.4,266.4,747.6,270.4,747.6,274.7z M777.2,317.2c-6,0-11.6-1.1-16.7-3.4c-5.1-2.2-9.5-5.3-13.3-9.1l0.1,0.1
				c-3.7-3.8-6.6-8.2-8.7-13.3c-2.1-5-3.1-10.5-3.1-16.2V275c0-5.7,1.1-11.1,3.1-16.3c2.1-5.1,5-9.6,8.7-13.5
				c3.7-3.8,8.2-6.9,13.4-9.1c5.2-2.2,10.8-3.4,17-3.4c6,0,11.6,1.1,16.7,3.4c5.1,2.2,9.5,5.2,13.3,8.9c3.7,3.8,6.6,8.2,8.7,13.3
				c2.1,5,3.1,10.5,3.1,16.2v0.3c0,5.7-1.1,11.1-3.2,16.3c-2.1,5.1-5,9.6-8.8,13.5c-3.7,3.9-8.2,6.9-13.4,9.2
				C788.9,316,783.2,317.2,777.2,317.2z M851.9,315.2V201.1h-12.1v114.2H851.9z"/>
		</g>
	</g>
</g>
</svg>
