<?xml version="1.0" encoding="UTF-8" standalone="no"?>
<svg width="102px" height="82px" viewBox="0 0 102 82" version="1.1" xmlns="http://www.w3.org/2000/svg" xmlns:xlink="http://www.w3.org/1999/xlink">
    <!-- Generator: Sketch 3.8.3 (29802) - http://www.bohemiancoding.com/sketch -->
    <title>Group 3</title>
    <desc>Created with Sketch.</desc>
    <defs></defs>
    <g id="Page-1" stroke="none" stroke-width="1" fill="none" fill-rule="evenodd" stroke-linecap="round" stroke-linejoin="round">
        <g id="FS-home-desktop" transform="translate(-136.000000, -1720.000000)" stroke-width="2" stroke="#FFFFFF">
            <g id="//-Body-2" transform="translate(20.000000, 1388.000000)">
                <g id="::-navigation" transform="translate(115.000000, 333.000000)">
                    <g id="Group-3" transform="translate(2.000000, 0.000000)">
                        <g id="**icon_navigation">
                            <polygon id="Rectangle-1679" points="0 0 33.0434783 5.2173913 33.0434783 80 0 74.7826087"></polygon>
                            <polygon id="Rectangle-1679" points="66 0 99.0434783 5.2173913 99.0434783 80 66 74.7826087"></polygon>
                            <polygon id="Rectangle-1679" fill-opacity="0.249999985" fill="#FFFFFF" transform="translate(49.521739, 40.000000) scale(-1, 1) translate(-49.521739, -40.000000) " points="33 0 66.0434783 5.2173913 66.0434783 80 33 74.7826087"></polygon>
                            <path d="M8,12 L15.3382356,19.3382356" id="Path-3738"></path>
                            <path d="M79,41 L86.3382356,48.3382356" id="Path-3738"></path>
                            <path d="M41,63 L48.3382356,70.3382356" id="Path-3738"></path>
                            <path d="M8,12 L15.3382356,19.3382356" id="Path-3739" transform="translate(11.669118, 15.669118) scale(-1, 1) translate(-11.669118, -15.669118) "></path>
                            <path d="M79,41 L86.3382356,48.3382356" id="Path-3739" transform="translate(82.669118, 44.669118) scale(-1, 1) translate(-82.669118, -44.669118) "></path>
                            <path d="M41,63 L48.3382356,70.3382356" id="Path-3739" transform="translate(44.669118, 66.669118) scale(-1, 1) translate(-44.669118, -66.669118) "></path>
                        </g>
                    </g>
                </g>
            </g>
        </g>
    </g>
</svg>