<svg width="133" height="106" viewBox="909 179 133 106" xmlns="http://www.w3.org/2000/svg">
  <g fill="#7E8BA0" fill-rule="evenodd" fill-opacity=".15">
    <path d="M909.4 248.2c0 23.2 14.8 36.4 31.2 36.4 14.8 0 27.2-12.4 27.2-27.6 0-14.8-10.4-25.2-24-25.2-2.4 0-5.6.8-6.8 1.2 2.8-13.6 16-30 28.8-37.6L947 179.8c-22 15.6-37.6 40.8-37.6 68.4zM983.4 248.2c0 23.2 14.8 36.4 31.2 36.4 14.8 0 27.2-12.4 27.2-27.6 0-14.8-10.4-25.2-24-25.2-2.4 0-5.6.8-6.8 1.2 2.8-13.6 16-30 28.8-37.6l-18.8-15.6c-22 15.6-37.6 40.8-37.6 68.4z"/>
  </g>
</svg>
