<?xml version="1.0" encoding="UTF-8" standalone="no"?>
<svg width="18px" height="15px" viewBox="0 0 18 15" version="1.1" xmlns="http://www.w3.org/2000/svg" xmlns:xlink="http://www.w3.org/1999/xlink">
    <!-- Generator: Sketch 41.2 (35397) - http://www.bohemiancoding.com/sketch -->
    <title>Fill-4</title>
    <desc>Created with Sketch.</desc>
    <defs></defs>
    <g id="Page-1" stroke="none" stroke-width="1" fill="none" fill-rule="evenodd">
        <path d="M5.5734563,11.7232855 C5.5734563,11.7232855 3.02798062,11.6744934 2.29425761,9.2993299 C2.29425761,9.2993299 3.56653515,9.3978347 3.78655999,9.1529535 C3.78655999,9.1529535 1.04499522,8.4919584 1.02105947,5.627953 C1.02105947,5.627953 1.85328732,6.0440669 2.61186669,6.0689233 C2.61186669,6.0689233 -0.03119323,4.1595864 1.57158187,1.30754886 C1.57158187,1.30754886 4.2404188,4.8445172 8.878432,5.0893985 C8.878432,5.0893985 8.2505787,2.99962275 10.1755659,1.40237128 C12.1014737,-0.19856261 14.4840021,1.15656947 14.9406227,1.76048703 C14.9406227,1.76048703 16.2957548,1.54782704 17.2412172,0.91168827 C17.2412172,0.91168827 16.9318936,2.13333247 15.7894215,2.8688967 C15.7894215,2.8688967 17.1279827,2.69121973 17.7475505,2.33126277 C17.7475505,2.33126277 17.0948408,3.3761506 15.9689397,4.1752367 C15.9689397,4.1752367 16.4421312,8.5895426 12.6483137,12.2369837 C8.8535756,15.8853454 2.61186669,15.1258454 0.36006433,13.2165085 C0.36006433,13.2165085 3.41923819,13.5598946 5.5734563,11.7232855" id="Fill-4" fill="#26ABE8"></path>
    </g>
</svg>