<?xml version="1.0" encoding="utf-8"?>
<!-- Generator: Adobe Illustrator 21.0.2, SVG Export Plug-In . SVG Version: 6.00 Build 0)  -->
<svg version="1.1" id="Layer_1" xmlns="http://www.w3.org/2000/svg" xmlns:xlink="http://www.w3.org/1999/xlink" x="0px" y="0px"
	 viewBox="0 0 88.3 20" style="enable-background:new 0 0 88.3 20;" xml:space="preserve">
<style type="text/css">
	.st0{clip-path:url(#SVGID_2_);}
	.st1{clip-path:url(#SVGID_4_);fill:#002F56;}
</style>
<g id="EBSCO_Logo_-_RGB_-_White">
	<g>
		<defs>
			<rect id="SVGID_1_" x="6.7" y="2" width="75" height="16"/>
		</defs>
		<clipPath id="SVGID_2_">
			<use xlink:href="#SVGID_1_"  style="overflow:visible;"/>
		</clipPath>
		<g class="st0">
			<defs>
				<rect id="SVGID_3_" x="6.7" y="2" width="75" height="16"/>
			</defs>
			<clipPath id="SVGID_4_">
				<use xlink:href="#SVGID_3_"  style="overflow:visible;"/>
			</clipPath>
			<path class="st1" d="M6.6,17.8v-0.9c1.6,0,2.1-0.5,2.1-1.8V5c0-1.3-0.5-1.8-2.1-1.8V2.2h11.9l0.6,2.2c0.1,0.2,0.1,0.5,0.1,0.6
				c0,0.1-0.2,0.4-0.5,0.4c-0.2,0-0.2-0.1-0.5-0.5c-1.1-1.6-2.5-1.9-4.7-1.9c-1.5,0-1.7,0.2-1.7,1.2V9h1.9c1.4,0,2-0.3,2.3-1.7
				c0-0.3,0.1-0.3,0.5-0.3C16.9,6.9,17,7,17,7.4v4.8c0,0.2-0.2,0.3-0.5,0.3c-0.3,0-0.3-0.1-0.3-0.2c-0.7-2.2-1.1-2.3-2.4-2.3h-1.9
				v5.2c0,1.3,0.2,1.6,2.5,1.6c3,0,3.9-0.9,5.1-3c0.1-0.1,0.1-0.2,0.4-0.2c0.3,0,0.4,0.1,0.4,0.2c0,0.1,0,0.2,0,0.4l-0.5,3.5H6.6z"
				/>
			<path class="st1" d="M24.4,5c0-1.3-0.5-1.8-2.3-1.8V2.2h6.3c4,0,6.1,1.3,6.1,3.7c0,2.2-2.1,3.2-3.5,3.6v0
				c2.9,0.4,4.4,2.3,4.4,4.2c0,1.7-1.3,4.1-5.7,4.1h-7.7v-0.9c1.8,0,2.3-0.5,2.3-1.8V5z M27.5,8.2c0,0.7,0.3,1,1.3,1
				c1.5,0,2.7-0.7,2.7-3c0-2.3-1.1-3-2.8-3c-1,0-1.2,0.4-1.2,1.3V8.2z M27.5,15.2c0,1.3,0.4,1.7,1.9,1.7c2,0,2.9-1.4,2.9-3.3
				c0-2.4-1.5-3.4-3.6-3.4c-1,0-1.2,0.2-1.2,1.2V15.2z"/>
			<path class="st1" d="M46.7,5.4c0,0.5-0.1,0.6-0.4,0.6c-0.3,0-0.4-0.1-0.7-0.8c-0.6-1.2-1.8-2.3-3.4-2.3c-1.4,0-2.6,1-2.6,2.3
				c0,3.5,7.9,2.6,7.9,8c0,2.2-1.2,4.8-5.7,4.8c-1.3,0-3.5-0.5-4.3-0.9c-0.2-0.2-0.4-2.2-0.4-3.2c0-0.5,0.1-0.7,0.5-0.7
				c0.4,0,0.5,0,0.7,0.7c0.3,1,1.3,3.2,4,3.2c1.6,0,3-0.8,3-2.5c0-3.7-7.9-3.2-7.9-8.1c0-3.1,2.9-4.5,5.3-4.5c2.3,0,3.9,0.7,4,0.9
				c0,0.3,0.1,0.7,0.1,1.6V5.4z"/>
			<path class="st1" d="M63.4,15.1c-0.1,0.6-0.2,0.9-0.4,1.2c-0.4,0.4-2.4,1.7-5.8,1.7c-4.6,0-8.3-3.6-8.3-8s3.7-8,8.3-8
				c2.8,0,6.1,1.2,6.1,2.3c0,1.1-0.2,2-0.2,2.4c0,0.1-0.1,0.5-0.4,0.5c-0.2,0-0.3-0.1-0.7-1c-0.8-2.1-2.6-3.3-4.8-3.3
				c-2.2,0-4.8,1.9-4.8,7.1c0,5.2,2.6,7.1,5.6,7.1c2.7,0,4.3-2.6,4.6-3.3c0.2-0.5,0.3-0.6,0.6-0.6c0.2,0,0.4,0.1,0.4,0.3
				c0,0.1,0,0.4,0,0.8L63.4,15.1z"/>
			<path class="st1" d="M73.4,2c4.6,0,8.3,3.6,8.3,8s-3.7,8-8.3,8c-4.6,0-8.3-3.6-8.3-8S68.8,2,73.4,2 M73.4,17.1
				c2.2,0,4.8-1.9,4.8-7.1c0-5.2-2.6-7.1-4.8-7.1s-4.8,1.9-4.8,7.1C68.6,15.2,71.2,17.1,73.4,17.1"/>
		</g>
	</g>
</g>
</svg>
