<svg xmlns="http://www.w3.org/2000/svg" viewBox="0 0 461.8 98.9"><path d="M73.6 11.6c-1.7 4.6-4.4 9.7-7 13.8-5.3 8.2-13.5 13.5-18.1 11.6-4.4-1.9-3.1-9.9 2.7-18.6 1.2-1.9 2.4-3.4 3.9-4.8-1.9 0-3.4.2-5.3.7-19.1 23.4-27.3 54.1-26.6 81.2C12.1 90.9 4.1 80 3.1 66.5V66C1.7 41.6 21 16.4 46.5 9.9c9.9-2.2 19.3-2 27.1 1.7M51.5 25.4c-1.9 3.9-1.2 7 1.5 7s6.5-3.1 8.2-7c1.9-3.9 1-7-1.7-7s-6 3.1-8 7z" fill="#c50022"/><path d="M66.5 77.4c-1.9 1.5-3.9 2.7-5.8 3.9h-.5c0-6.3-1.5-11.6-3.4-16.7-6-12.3-16.2-13.5-22.7-1.9-4.4 7-6.3 16.9-5.8 26.9 7.3 2.2 15.5 2.2 24.2.2 25.6-6.5 44.8-31.7 43.8-56.1C95.1 11.9 78.2-2.1 56.4-.9c-1.9 2.4-3.9 4.4-5.6 6.8 12.6-1.7 22.7 1 29.3 6C57.3 44 60 62.1 66.5 77.4m209.8-36.6c5.6 0 9.4 1.2 11.1 2.4l-1.5 9.7h-.2c-1.9-1.2-5.8-2.4-9.7-2.4-3.6 0-5.6 1.7-5.6 3.9 0 1.7 1.7 3.1 5.1 5.1 4.6 2.4 9.7 5.6 9.7 11.6 0 4.4-1.2 7.5-3.9 10.2-3.4 3.4-9.2 5.3-16.2 5.3-5.1 0-10.4-1.5-13.1-3.4l1.9-9.7c2.7 1.9 8.5 3.9 12.6 3.9 3.1 0 5.6-1.7 5.6-3.9 0-2.4-1.7-3.9-5.6-5.8-6-3.1-9.2-7-9.2-11.6.1-9 7.9-15.3 19-15.3m-140.8 0c.7 0 1.7 0 2.4.5l-2.4 12.3h-2.1c-9 0-12.1 8.5-13.5 16l-3.1 16.7h-12.6s-.5 0 0 0l8-44.3h11.6l-1.7 7.5v.2h.5c3-5.7 7.6-8.9 12.9-8.9m21.8 45l1-5.3V80h-.2c-2.4 4.4-7 6.5-12.1 6.5-8.7 0-12.6-7.3-12.6-15 0-9 3.4-17.4 9.2-23.2 4.6-4.8 10.9-7.5 17.7-7.5 5.6 0 9.4 1.7 11.6 4.8 3.6 4.1 3.6 10.6 2.4 15.7l-4.6 24.4-12.4.1m-4.9-32.4c-3.4 3.4-6 9.9-6 15.5 0 4.6 1.5 7.3 4.6 7.3 4.6 0 9-5.1 10.2-12.1.2-1.9.7-3.4 1-4.8 0-1.2.5-2.9 0-3.6 0-3.1-1.5-4.6-4.6-4.6-1.5-.1-3.5.6-5.2 2.3zm165.5-12.6c8.7 0 14 6.8 14 16.7 0 10.9-5.1 21.8-14.3 26.9-8.2 4.1-16 2.2-18.1-1.2l-3.1 16.7h-12.6l10.6-58.3H306l-1.2 6c3.7-4.3 8.3-6.8 13.1-6.8m-11.1 36.1c6.5 0 11.6-9.7 11.6-18.1 0-1.9-.5-7-5.1-7-4.8 0-8.7 5.6-10.4 13.5-.7 3.1-2.2 11.6 3.9 11.6z"/><path d="M221.9 26.6h12.8l-6.5 35.3 16.9-19.8h14.3l-17.7 20.1 10.6 23.2v.5h-13.8l-10.4-23.7-4.6 23.2v.5h-12.8v-.5l11.2-58.8m214.6 14.2c9 0 15 5.6 15 13.3 0 3.9-1.2 6.5-3.4 9-4.4 4.1-12.3 6-24.7 5.8v.2c0 1.2.2 3.1 1.2 4.4 1.7 1.9 4.6 3.1 8.5 3.1 5.3 0 9.9-1.2 15-4.4l-1.9 10.9c-6.3 3.1-13.5 3.4-16.2 3.4-12.1 0-18.9-6.5-18.9-18.1 0-7 2.2-13.5 6.5-18.6 5.1-5.8 11.6-9 18.9-9m2.6 13.4c0-1.9-1.5-3.6-4.6-3.6-5.3 0-9 4.4-9.9 8.7v.2h.2c7.3 0 11.6-.7 13.5-2.7.8-.7.8-1.4.8-2.6zm17.4 24.4h-.7v1.5l-.5 1.2h1.4l.5-.5c.5 0 .7-.2 1.2-.7 0-.7-.5-1.2-.7-1.2 0-.2-.5-.2-.5-.2-.4-.1-.4-.1-.7-.1m-1.6-1h2.4c.5 0 .5 0 .7.5.7 0 1.2.7 1.2 1.5v.5c-.5.7-.7 1.5-1.9 1.5l.7 2.9h-.7l-.7-2.4h-1.2l-.7 2.4h-.7l.2-2.4.5-1.9.2-2.6zm-4.2 3.7c.5-3.1 3.1-5.8 6-5.8 3.1 0 5.6 2.7 5.1 5.8 0 3.1-3.1 5.3-6 5.3-3.1 0-5.5-2.2-5.1-5.3zm.8 0c-.2 2.7 1.7 4.6 4.4 4.6s5.3-1.9 5.3-4.6c.5-2.7-1.5-5.1-4.4-5.1-2.7 0-4.8 2.4-5.3 5.1zm-94.6 4.5l1-5.3V80c-2.7 4.4-7.5 6.5-12.3 6.5-8.5 0-12.3-7.3-12.3-15-.5-9 2.9-17.4 8.7-23.2 5.1-4.8 10.9-7.5 17.9-7.5 5.3 0 9.2 1.7 11.4 4.8 3.9 4.1 3.6 10.6 2.9 15.7l-4.6 24.4h-.5l-12.2.1M352 53.4c-3.6 3.4-6.3 9.9-6.3 15.5 0 4.6 1.9 7.3 4.6 7.3 5.1 0 9-5.1 10.4-12.1 0-1.9.5-3.4 1-4.8 0-1.2.2-2.9.2-3.6-.2-3.1-1.9-4.6-4.6-4.6-1.9-.1-3.8.6-5.3 2.3zm52.5-12.1c2.9 0 6.5.2 8.7 1.2v.2l-1.9 10.6c-2.2-1.2-4.6-1.9-7.3-1.9-9.2 0-14.8 8-14.8 15.7 0 6.5 4.8 9 8.7 9 3.6 0 6.8-.7 10.6-2.7l-1.9 10.9c-3.1 1.5-7.7 2.2-12.3 2.2-11.1 0-18.4-7-18.4-17.7.1-15.9 12.4-27.5 28.6-27.5m-199.8 0c3.4 0 6.8.2 9.2 1.2v.2l-2.4 10.7c-1.9-1.2-4.1-1.9-6.8-1.9-9.4 0-14.8 8-14.8 15.7 0 6.5 4.4 9 8.5 9 3.6 0 6.5-.7 10.9-2.7l-1.9 10.9h-.5c-2.7 1.5-7.3 2.2-12.3 2.2-11.1 0-18.1-7-18.1-17.7-.1-16 12-27.6 28.2-27.6"/></svg>