<?xml version="1.0" encoding="utf-8"?>
<!-- Generator: Adobe Illustrator 26.5.0, SVG Export Plug-In . SVG Version: 6.00 Build 0)  -->
<svg version="1.0" id="Layer_1" xmlns="http://www.w3.org/2000/svg" xmlns:xlink="http://www.w3.org/1999/xlink" x="0px" y="0px"
	 viewBox="0 0 658.24 505.56" style="enable-background:new 0 0 658.24 505.56;" xml:space="preserve">
<style type="text/css">
	.st0{fill:#D22730;}
	.st1{fill:#FFFFFF;}
</style>
<path d="M242.86,237.15v44.18h12.42v-38.45c-0.03-1.44,1.1-2.63,2.54-2.66c0.05,0,0.1,0,0.15,0h16v-10.74h-23.35L242.86,237.15z
	 M293.59,242.88c-0.03-1.44,1.1-2.63,2.54-2.66c0.05,0,0.1,0,0.15,0h16.77c1.44-0.05,2.64,1.07,2.69,2.51c0,0.05,0,0.1,0,0.15v7.16
	h-22.15V242.88z M316.47,269.57c-0.53,0.65-1.34,1.02-2.18,1h-18c-1.44,0.05-2.64-1.07-2.69-2.51c0-0.05,0-0.1,0-0.15v-7.88h34.52
	v-22.78l-7.76-7.77h-31.43l-7.81,7.67v36.52l7.77,7.66h31.57l9-8.89l-8.08-7.77L316.47,269.57z M351.77,240.22h16.15
	c0.84-0.02,1.64,0.35,2.17,1l4.35,4.3l8.18-7.74l-8.39-8.29h-29.5l-7.77,7.67v13.71c0,3.37,2,6,6.94,6.85l24.22,4.18
	c1,0.21,1.66,0.72,1.66,1.84v4.2c0.03,1.44-1.1,2.63-2.54,2.66c-0.05,0-0.1,0-0.15,0h-15.84c-0.84,0.02-1.65-0.35-2.18-1l-5-4.7
	l-8.18,7.57l9,8.89h29.23l7.76-7.66v-14.76c0-3.38-2-6-6.94-6.86l-24.22-4.19c-0.96-0.04-1.7-0.86-1.66-1.82c0-0.01,0-0.02,0-0.02
	v-3.17c-0.03-1.44,1.1-2.63,2.54-2.66C351.65,240.22,351.71,240.22,351.77,240.22L351.77,240.22z M394.42,222.02h12.84v-12.07
	h-12.84V222.02z M387.79,229.48h19.26v51.85h-12.42v-38.76c0.14-1.16-0.69-2.22-1.86-2.35c-0.18-0.02-0.36-0.02-0.53,0h-4.45V229.48
	z M450.94,267.94c0.04,1.43-1.09,2.62-2.52,2.66c-0.06,0-0.12,0-0.17,0h-16.77c-1.44,0.05-2.64-1.07-2.69-2.51c0-0.05,0-0.1,0-0.15
	v-25.06c-0.03-1.44,1.1-2.63,2.54-2.66c0.05,0,0.1,0,0.15,0h16.77c1.43-0.06,2.63,1.06,2.69,2.49c0,0.06,0,0.12,0,0.17V267.94z
	 M463.37,209.94h-12.84v19.54h-26.41l-7.77,7.67v36.52l7.77,7.66h31.47l7.77-7.77L463.37,209.94z M485.12,242.88
	c-0.04-1.43,1.09-2.62,2.52-2.66c0.06,0,0.12,0,0.17,0h16.77c1.44-0.05,2.64,1.07,2.69,2.51c0,0.05,0,0.1,0,0.15v7.16h-22.15V242.88
	z M507.99,269.57c-0.53,0.65-1.33,1.02-2.17,1h-18c-1.43,0.06-2.63-1.06-2.69-2.49c0-0.06,0-0.12,0-0.17v-7.88h34.57v-22.78
	l-7.76-7.77h-31.49l-7.77,7.67v36.52l7.77,7.66h31.57l9-8.89l-8.08-7.77L507.99,269.57z M563.58,267.94
	c0.04,1.43-1.09,2.62-2.52,2.66c-0.06,0-0.12,0-0.17,0h-16.77c-1.44,0.05-2.64-1.07-2.69-2.51c0-0.05,0-0.1,0-0.15v-25.06
	c-0.03-1.44,1.1-2.63,2.54-2.66c0.05,0,0.1,0,0.15,0h16.77c1.43-0.06,2.63,1.06,2.69,2.49c0,0.06,0,0.12,0,0.17V267.94z
	 M568.24,229.48h-31.48l-7.76,7.67v36.52l7.76,7.66h31.47l7.77-7.77v-36.31L568.24,229.48z"/>
<path class="st0" d="M82.24,195.67h114.22v114.22H82.24V195.67z"/>
<path class="st1" d="M110.79,252.78h28.56v28.55h-28.56V252.78z M110.79,252.78v-28.55h57.11v28.55H110.79z"/>
</svg>
