<svg id="Layer_1" data-name="Layer 1" xmlns="http://www.w3.org/2000/svg" viewBox="0 0 821.37 44.54"><defs><style>.cls-1{fill:#fff;isolation:isolate;opacity:0.5;}</style></defs><g id="Illustrations"><path class="cls-1" d="M261.88,10.25V28.44h-5.33v-8h-4.49v8h-5.41V10.21h5.41v7.43h4.49V10.25Zm46.67,16.62a9.42,9.42,0,0,1-8.39,1.83,6.39,6.39,0,0,1-4.74-5.4c-.36-3,.44-6,3.14-7.66,3.14-1.46,7.88-1.23,10,1.9a9.26,9.26,0,0,1,1.31,5.31h-9.19c0,2.08,0,3.31.59,3.73.51.77,2,1,3.2.8a3.62,3.62,0,0,0,2.85-2.63h2.11A3,3,0,0,1,308.55,26.87Zm-7.8-6.05c1.32,0,2.11.05,3.45,0V17.61c-.15-1.09-1.25-1.38-2.28-1.24C300.22,17.05,300.82,19.43,300.75,20.82Zm-7.95-4.37c-1.82-2.27-5.69-1.76-7.58-.08l-.29-1h-4.82v13.1h5V19l.29-.43a2.93,2.93,0,0,1,2.55-.88,1.3,1.3,0,0,1,.66.95v9.81h5.18s0-7.34,0-9.11A5.11,5.11,0,0,0,292.8,16.45Zm45.2,5.8-2.24-6.89H331.6l-2,6.78-2.41-6.82h-7.14l-2.62,6-2.48-6h-5.5l5.13,13,.07,1.1c-.58.87-.95,2.41-2.19,2.48a12.05,12.05,0,0,0,0-1.9,2.19,2.19,0,0,0-2.17-1.31c-.8.07-1.31.8-1.67,1.46a2.6,2.6,0,0,0,.73,2.62,2.89,2.89,0,0,0,2.62.88,5.43,5.43,0,0,0,3.5-2L322,15.44l4.33,13h3.85l2.35-7.76,2.21,7.76h3.77l3.36-13.12h-1.75Zm17.69-4.71A9.26,9.26,0,0,1,357,22.85h-9.2c0,2.08,0,3.31.58,3.73.51.77,2,1,3.21.8a3.61,3.61,0,0,0,2.84-2.63h2.12a3.08,3.08,0,0,1-.88,2.12,9.3,9.3,0,0,1-8.38,1.83,6.39,6.39,0,0,1-4.74-5.4c-.37-3,.43-6,3.13-7.66,3.14-1.46,7.88-1.23,10,1.9Zm-4.35,3.24V17.61c-.15-1.09-1.25-1.38-2.27-1.24-1.7.68-1.1,3.06-1.17,4.45,1.29,0,2.1.05,3.42,0Zm7.06,7.66h4.93V10.21H358.4Zm7-18.23V28.44h4.92V10.21Zm-87,11.7a7.18,7.18,0,0,1-2.08,5.28A7.73,7.73,0,0,1,271,29a8,8,0,0,1-4.7-1.29,7.27,7.27,0,0,1-2.65-5.84A7.37,7.37,0,0,1,266,16.43a7.49,7.49,0,0,1,5-1.65,7.76,7.76,0,0,1,4.82,1.44A7.23,7.23,0,0,1,278.35,21.91ZM272.69,18a1.66,1.66,0,0,0-3.32,0v7.7a1.66,1.66,0,0,0,3.32,0ZM616.6,25.92h5.81v5.82H610.06v-6l-11,7.08-11.22-7.59-.22.65-.22.63-.33.62-.32.62-.4.54-.44.55-.47.51-.55.43-.54.44-.66.36L583,31l-.72.29-.77.22-.8.14-.83.11H571V13.54h8.87l.83.07.8.18.77.17.69.3.65.29.62.36.58.4.51.44.51.47.44.51.39.54.33.58.33.58.25.62.22.62L599,12.45l4.1,2.76-8.79,5.67,1.42.94,8.87-5.63,3.81,2.54-8.75,5.78,1.48.9,8.9-5.66V13.54h6.54Zm-34.5-3.33V22l-.14-.62-.25-.55-.33-.5-.47-.44-.55-.33-.62-.22-.76-.07h-1.71v6.7H579l.73-.07.65-.22.55-.33.43-.43.37-.51.25-.54.14-.63Zm48.51,3.33V13.54H624v18.2h12.34V25.92Zm134.81-4L749.11,5.59V38.25Zm-32.62,0L749.11,5.59H716.48Zm-32.66,0,16.34,16.31V5.59Zm32.66,0L716.48,38.25h32.63Zm46.93,6.79h3V15.07h-3v5.61h-5.91V15.07h-3V28.73h3V22.9h5.91Zm15.81-4c0-2.3-1.49-3.1-3.83-3.83l-1.16-.35c-1.91-.61-2.84-.92-2.84-1.92,0-1.23,1.08-1.8,2.19-1.8a2,2,0,0,1,2.22,1.76,1.93,1.93,0,0,1,0,.24h3c0-3-2.34-4-5-4s-5.41,1-5.41,4.07c0,2.46,2.15,3.3,4.3,3.91l1,.27c1.53.46,2.45.77,2.45,1.85,0,1.34-1.38,1.95-2.57,1.95a2.22,2.22,0,0,1-2.48-1.93,2.81,2.81,0,0,1,0-.41h-3c0,3.26,2.46,4.45,5.42,4.45,2.68,0,5.68-1.16,5.71-4.23Zm12.51.2c0,3.1-3.07,3.8-5.44,3.8h-5.38V15.08H802a12.75,12.75,0,0,1,2.69.15,3.37,3.37,0,0,1,2.92,3.3c0,1.77-1.12,2.65-2.73,3.08,1.79.39,3.17,1.29,3.17,3.33Zm-8-4.15h2c1.31,0,2.65-.27,2.65-1.84s-1.23-1.8-2.46-1.8h-2.07Zm5,3.95c0-1.69-1.16-2-2.58-2H800v4h2.19C803.6,26.7,805,26.39,805,24.71Zm16.42,0H818.3a2.35,2.35,0,0,1-2.53,2.11c-2.57,0-3.38-2.54-3.38-4.72s.81-5.1,3.49-5.1a2.18,2.18,0,0,1,2.37,2,.34.34,0,0,1,0,.1h3.07c-.07-3.07-2.72-4.3-5.45-4.3-4.33,0-6.52,3-6.52,7.22s2,7,6.37,7c2.84,0,5.34-1.14,5.64-4.28ZM27.56,28.35h3.3l4.64-12.8H32.2ZM17.19,1.76A20.94,20.94,0,0,0,18,42.3h0l9.37-25.92c.71-2,1.3-3.6,1.3-3.6H37A2.54,2.54,0,0,1,39.81,15a2.62,2.62,0,0,1-.24,1.35l-4.67,13h0a2.79,2.79,0,0,1-2.44,1.71h-5.9L22.28,42.84h.54A20.92,20.92,0,0,0,22.82,1H21.9L17.67,12.8h3.86A2.47,2.47,0,0,1,24.3,15a2.44,2.44,0,0,1-.2,1.33h0L18.72,31.1H14.28L20,15.54H16.63L11,31.15H6.53ZM97.4,15.51V28.05h3.49V17.14a.73.73,0,0,1,.7-.76h4.53v-3H99.58Zm30.6.87h4.54a.79.79,0,0,1,.61.29l1.22,1.22,2.3-2.2-2.36-2.35H126l-2.18,2.17V19.4c0,1,.55,1.72,2,2l6.8,1.19c.29.06.47.2.47.52V24.3a.74.74,0,0,1-.72.76h-4.49a.76.76,0,0,1-.61-.29l-1.39-1.34-2.3,2.15,2.53,2.52h8.2l2.18-2.17V21.7c0-1-.55-1.72-2-1.95l-6.8-1.19c-.29-.06-.47-.2-.47-.52v-.9a.74.74,0,0,1,.72-.76Zm12-5.16h3.61V7.79H140Zm-1.86,5.16h1.25a.6.6,0,0,1,.67.52.38.38,0,0,1,0,.15v11h3.49V13.34h-5.41ZM119.5,23.32l2.26,2.21-2.53,2.52h-8.87l-2.18-2.17V15.51l2.18-2.17h8.84l2.19,2.2V22h-9.72v2.23a.74.74,0,0,0,.72.76h5.1a.76.76,0,0,0,.61-.29Zm-7.83-4.15h6.22v-2a.73.73,0,0,0-.7-.76h-4.76a.74.74,0,0,0-.76.72v2Zm44.1-11.38h3.61V25.85l-2.19,2.2h-8.84l-2.18-2.17V15.51l2.18-2.17h7.42Zm.12,9.35a.74.74,0,0,0-.72-.76H150.4a.74.74,0,0,0-.76.72v7.15a.74.74,0,0,0,.72.76h4.75a.74.74,0,0,0,.76-.72v0Zm17.42,6.18,2.27,2.21L173,28.05h-8.87L162,25.88V15.51l2.19-2.17H173l2.18,2.2V22h-9.72v2.23a.74.74,0,0,0,.72.76h5.1a.73.73,0,0,0,.61-.29Zm-7.83-4.15h6.23v-2a.74.74,0,0,0-.72-.76h-4.75a.74.74,0,0,0-.76.72v2ZM191,15.54V25.85l-2.18,2.2H180l-2.18-2.17V15.51L180,13.34h8.84Zm-3.49,1.6a.73.73,0,0,0-.7-.76h-4.76a.74.74,0,0,0-.76.72v7.15A.74.74,0,0,0,182,25h4.75a.73.73,0,0,0,.75-.71V17.14ZM442.24,19.7h-.92c-.61,0-.87-.39-.87-1v-4h1.79V13.54h-1.79V11.38h-1.29v7.35a1.92,1.92,0,0,0,1.59,2.21,1.82,1.82,0,0,0,.57,0h.92Zm-12.42-2.26v.06c0,2.63,2.15,3.57,4.16,3.57s3.95-.94,3.95-3-1.66-2.58-3.22-2.93l-.55-.12c-1.39-.3-2.6-.56-2.6-1.6,0-1.48,1.52-1.65,2.18-1.65a2.12,2.12,0,0,1,2.4,1.82v.17h1.37V13.7c-.08-2-1.44-3.2-3.73-3.2-1.82,0-3.66.91-3.66,3,0,1.83,1.53,2.31,3.24,2.68l.33.08c1.44.3,2.8.6,2.8,1.83,0,1.52-1.54,1.75-2.47,1.75a3.37,3.37,0,0,1-2-.56,2.08,2.08,0,0,1-.86-1.78v-.06Zm16,2.4c1.57,0,2.15-1,2.15-1.57V17.15h0a4.22,4.22,0,0,1-1.44.35,3.63,3.63,0,0,0-.65.09c-.69.12-1.4.38-1.4,1.25s.93,1,1.34,1m4.17.94h0a1.69,1.69,0,0,1-.88.21H449a1,1,0,0,1-.9-1.06A3.31,3.31,0,0,1,445.56,21c-1.53,0-2.44-.79-2.44-2.08,0-1.66,1.23-2,2.48-2.27.29-.06.55-.1.81-.13.92-.13,1.58-.22,1.58-.88s-.5-1.15-1.55-1.15-1.7.42-1.75,1.32h-1.28v-.06c.08-2.14,2-2.46,3.1-2.46,1.86,0,2.76.67,2.76,2V19c0,.58,0,.75.33.75a1,1,0,0,0,.34-.07H450Zm1.15-7.24v7.31h1.29V16.73a2,2,0,0,1,1.72-2.2h.36a1.31,1.31,0,0,1,1.41,1.2.67.67,0,0,1,0,.2v4.93h1.3v-4.8c0-1.81-.83-2.69-2.54-2.69a2.55,2.55,0,0,0-2.33,1.21v-1ZM462,19.87c1.58,0,2.15-1.38,2.15-2.67,0-.63-.16-2.68-2.22-2.68s-2.11,1.92-2.11,2.74c0,1.3.68,2.61,2.18,2.61m3.4-9.08V20.85h-1.3V20a2.54,2.54,0,0,1-2.29,1,3.12,3.12,0,0,1-2.53-1.16,4.29,4.29,0,0,1-.84-2.7c0-2.31,1.31-3.8,3.35-3.8a2.79,2.79,0,0,1,2.29,1.06V10.79Zm4,9.08c1.57,0,2.15-1,2.15-1.58V17.17h0a3.76,3.76,0,0,1-1.43.35l-.65.09c-.7.13-1.4.38-1.4,1.25s.93,1,1.33,1m4.19.93h0a1.51,1.51,0,0,1-.88.21.38.38,0,0,1-.15,0,1,1,0,0,1-.9-1.05A3.22,3.22,0,0,1,469.12,21c-1.53,0-2.44-.78-2.44-2.07,0-1.66,1.23-2,2.48-2.28l.81-.12c.92-.13,1.58-.23,1.58-.88s-.5-1.15-1.55-1.15-1.7.42-1.75,1.32v0H467v-.06c.08-2.14,2-2.46,3.11-2.46,1.85,0,2.75.66,2.75,2v3.7c0,.59,0,.76.33.76a1,1,0,0,0,.35-.07h.07Zm5-7.43h0A2.62,2.62,0,0,0,475.91,15V13.54h-1.22v7.31H476V17.59c0-1.95.82-2.86,2.56-2.86h0Zm3.72,6.5c1.58,0,2.15-1.38,2.15-2.67,0-.63-.16-2.68-2.22-2.68-1.9,0-2.11,1.92-2.11,2.74,0,1.3.68,2.61,2.18,2.61m3.4-9.08V20.85h-1.29V20a2.56,2.56,0,0,1-2.28,1,3.12,3.12,0,0,1-2.53-1.16,4.3,4.3,0,0,1-.85-2.7c0-2.31,1.32-3.8,3.35-3.8a2.84,2.84,0,0,1,2.31,1.06V10.79ZM432.49,31h0a2.76,2.76,0,0,1-2.69,2.83h-.12a3,3,0,0,1-2.55-1.22,4.87,4.87,0,0,1-.79-2.9,4.75,4.75,0,0,1,.79-2.76,3,3,0,0,1,2.53-1.21,2.56,2.56,0,0,1,2.73,2.08h1.43v-.06a3.59,3.59,0,0,0-1.4-2.45,4.51,4.51,0,0,0-2.75-.83A4.43,4.43,0,0,0,426.12,26a5.77,5.77,0,0,0-1.22,3.73c0,3.23,1.79,5.24,4.66,5.24a4.35,4.35,0,0,0,3-1.08,4.64,4.64,0,0,0,1.32-3V31Zm2.67-6.22V34.87h1.3V30.75a2,2,0,0,1,1.71-2.2,2.16,2.16,0,0,1,.36,0,1.29,1.29,0,0,1,1.41,1.18h0a.81.81,0,0,1,0,.22v4.94h1.29V30.07c0-1.8-.83-2.68-2.53-2.68a2.6,2.6,0,0,0-2.25,1.11V24.8Zm9.92,9.09c1.57,0,2.15-1,2.15-1.58v-1.1h0a3.76,3.76,0,0,1-1.44.35l-.64.1c-.7.12-1.41.36-1.41,1.24s.93,1,1.34,1m-2.43-4h0c.09-2.14,2-2.46,3.11-2.46,1.86,0,2.76.66,2.76,2v3.71c0,.59,0,.76.32.76a1,1,0,0,0,.35-.07h.07v1h0a1.77,1.77,0,0,1-.87.2h-.16a1,1,0,0,1-.89-1,3.24,3.24,0,0,1-2.49,1c-1.53,0-2.44-.78-2.44-2.08,0-1.65,1.22-2,2.48-2.26.28-.06.55-.09.8-.13.92-.13,1.58-.22,1.58-.88s-.49-1.15-1.55-1.15S444,29,444,29.85v.06Zm39.66,4c1.58,0,2.15-1.38,2.15-2.67,0-.62-.16-2.68-2.22-2.68-1.9,0-2.11,1.92-2.11,2.74,0,1.29.68,2.61,2.18,2.61m2.11,1V34a2.53,2.53,0,0,1-2.28,1,3.13,3.13,0,0,1-2.53-1.15,4.29,4.29,0,0,1-.84-2.7c0-2.31,1.31-3.8,3.34-3.8a2.84,2.84,0,0,1,2.31,1.06v-3.6h1.29V34.87Zm-21.95-6.33a2,2,0,0,0-2,1.93h4a2,2,0,0,0-2-1.93m3.26,4.06A3,3,0,0,1,462.61,35c-2.15,0-3.43-1.39-3.51-3.84v-.23a3.5,3.5,0,0,1,3.43-3.57h0a3,3,0,0,1,2.25.89,4.58,4.58,0,0,1,1.07,3.29v.05h-5.39a2.25,2.25,0,0,0,.58,1.66,2.17,2.17,0,0,0,1.61.6,1.67,1.67,0,0,0,1.78-1.29Zm8.81-4.06a2,2,0,0,0-2,1.93h4a2,2,0,0,0-2-1.93m3.25,4.08A2.94,2.94,0,0,1,474.67,35c-2.15,0-3.43-1.4-3.51-3.84v-.24a3.51,3.51,0,0,1,3.45-3.56,3,3,0,0,1,2.25.89,4.51,4.51,0,0,1,1.07,3.28v.06h-5.4a2.31,2.31,0,0,0,.6,1.66,2.17,2.17,0,0,0,1.6.6,1.7,1.7,0,0,0,1.79-1.27Zm-26.1,2.26V31.61c0-1.95.81-2.86,2.55-2.86h.06V27.39h-.06A2.61,2.61,0,0,0,451.62,29V27.55h-1.23v7.33Zm16.74,0V31.61c0-1.95.8-2.86,2.55-2.86h0V27.39h0A2.61,2.61,0,0,0,468.36,29V27.55h-1.23v7.32Zm-10-1.13h-.92c-.62,0-.87-.4-.87-1V28.7h1.79V27.56h-1.79V25.4h-1.29v7.34A1.92,1.92,0,0,0,456.9,35l.1,0a1.75,1.75,0,0,0,.56,0h.92ZM502.3,35l-6.6-3-4.24,2.53a4.17,4.17,0,0,0,4.1,3.92,4.83,4.83,0,0,0,2.52-.84Zm-1.69-8.19c-.59-.26-1-.58-1-1s.32-.6.77-.88L502,24l-6.65-3a2.18,2.18,0,0,0-.63,1.64c0,1.55,1.33,2.07,2.74,2.7l3.14,1.39m3.09-14.53A4.19,4.19,0,0,0,506,8.48a4,4,0,0,0-2-3.41l-8.74,5.34a2.62,2.62,0,0,0-.45,1.51c0,1.44,1.19,2,2.38,2.55l4,1.79c-.67-.32-1.41-.69-1.41-1.18s.38-.71.67-.89l3.22-1.95m6.87,6.31a4.1,4.1,0,0,0,2.36-3.76,4,4,0,0,0-2.07-3.4l-7.76,4.67L509.76,19l.8-.45m-5.62,5.66c.64.29.86.55.86.89s-.31.67-1.26,1.19l-1.13.63,6.64,2.95a2.06,2.06,0,0,0,.76-1.51c0-1-.45-1.76-1.93-2.42l-3.95-1.73m7,14.56A5.27,5.27,0,0,0,513,35.48c0-2.56-1.86-4.07-3.9-4.94l-11.71-5.16c-1.4-.63-2.73-1.15-2.73-2.7a2.1,2.1,0,0,1,.63-1.64l-.56.35a5,5,0,0,0-2.7,4.61c0,2.53,1.68,4,4.21,5.16l10.06,4.45A27,27,0,0,1,512,38.77m-1.2-9.36A4.86,4.86,0,0,0,513.33,25c0-2.7-1.79-4.18-4-5.16l-12.17-5.37c-1.18-.52-2.37-1.11-2.37-2.55a2.62,2.62,0,0,1,.45-1.51,5.49,5.49,0,0,0-3,4.95c0,2.51,1.57,4,4.1,5.07l12.52,5.51c1.48.67,1.94,1.45,1.94,2.42a2.07,2.07,0,0,1-.77,1.51l.73-.45"/></g></svg>