<svg id="Layer_1" data-name="Layer 1" xmlns="http://www.w3.org/2000/svg" viewBox="0 0 50.27 135.73"><defs><style>.cls-1{fill:#e9fffb;stroke:#44378a;stroke-linejoin:round;stroke-width:0.5px;}</style></defs><path class="cls-1" d="M14.47.25s6.54,2.17,9,7.44-.16,11.66-.16,11.66Z"/><path class="cls-1" d="M23.29,19.35s-6.55-2.17-9-7.44S14.47.25,14.47.25Z"/><path class="cls-1" d="M42.41,10.67S36.05,8,30.76,10.41s-7.52,8.92-7.52,8.92Z"/><path class="cls-1" d="M23.24,19.33s6.37,2.65,11.66.26,7.51-8.92,7.51-8.92Z"/><path class="cls-1" d="M3.92,28.53s6.54,2.16,9,7.44-.16,11.66-.16,11.66Z"/><path class="cls-1" d="M12.74,47.63s-6.55-2.17-9-7.44.16-11.66.16-11.66Z"/><path class="cls-1" d="M31.86,39s-6.36-2.65-11.65-.26-7.52,8.92-7.52,8.92Z"/><path class="cls-1" d="M12.69,47.61s6.36,2.65,11.66.26S31.86,39,31.86,39Z"/><path class="cls-1" d="M50,112.69s-6.89-.26-11,3.83-3.92,11-3.92,11Z"/><path class="cls-1" d="M35.08,127.5s6.89.26,11-3.83,3.93-11,3.93-11Z"/><path class="cls-1" d="M14.83,133s3.21-6.1,8.81-7.63,11.48,2.08,11.48,2.08Z"/><path class="cls-1" d="M35.12,127.47s-3.22,6.1-8.82,7.63S14.83,133,14.83,133Z"/><path class="cls-1" d="M5.44,118.92s4.69-5,10.5-5.08,10.54,5,10.54,5Z"/><path class="cls-1" d="M26.48,118.83s-4.69,5.06-10.5,5.08-10.54-5-10.54-5Z"/><path class="cls-1" d="M41.38,104.05s-6.89-.25-11,3.84-3.93,11-3.93,11Z"/><path class="cls-1" d="M26.44,118.86s6.89.26,11-3.83,3.92-11,3.92-11Z"/><path class="cls-1" d="M9.19,14.39s6.55,2.16,9,7.44S18,33.49,18,33.49Z"/><path class="cls-1" d="M18,33.49s-6.54-2.17-9-7.44.16-11.66.16-11.66Z"/><path class="cls-1" d="M37.14,24.81s-6.36-2.65-11.66-.26S18,33.47,18,33.47Z"/><path class="cls-1" d="M18,33.47s6.36,2.65,11.65.26,7.52-8.92,7.52-8.92Z"/><path class="cls-1" d="M2.58,96.56S9.44,96,13.77,99.82s4.49,10.77,4.49,10.77Z"/><path class="cls-1" d="M18.26,110.59s-6.87.61-11.2-3.26S2.58,96.56,2.58,96.56Z"/><path class="cls-1" d="M32.36,95s-6.89.09-10.8,4.39-3.35,11.17-3.35,11.17Z"/><path class="cls-1" d="M18.21,110.59s6.89-.1,10.8-4.39S32.36,95,32.36,95Z"/><path class="cls-1" d="M.25,51.35s6.87-.61,11.19,3.26,4.49,10.76,4.49,10.76Z"/><path class="cls-1" d="M15.93,65.37S9.06,66,4.73,62.11.25,51.35.25,51.35Z"/><path class="cls-1" d="M30,49.81s-6.9.1-10.81,4.4-3.35,11.16-3.35,11.16Z"/><path class="cls-1" d="M15.88,65.37s6.89-.09,10.8-4.39S30,49.81,30,49.81Z"/><path class="cls-1" d="M1.8,81.49s6.87-.61,11.2,3.26,4.48,10.77,4.48,10.77Z"/><path class="cls-1" d="M17.48,95.52s-6.87.61-11.19-3.26S1.8,81.49,1.8,81.49Z"/><path class="cls-1" d="M31.59,80s-6.89.09-10.8,4.39-3.36,11.17-3.36,11.17Z"/><path class="cls-1" d="M17.43,95.52s6.89-.1,10.8-4.4S31.59,80,31.59,80Z"/><path class="cls-1" d="M1,66.42s6.86-.61,11.19,3.26S16.7,80.44,16.7,80.44Z"/><path class="cls-1" d="M16.7,80.44s-6.86.62-11.19-3.26S1,66.42,1,66.42Z"/><path class="cls-1" d="M30.81,64.89S23.92,65,20,69.28s-3.35,11.16-3.35,11.16Z"/><path class="cls-1" d="M16.66,80.44s6.89-.09,10.8-4.39,3.35-11.16,3.35-11.16Z"/></svg>