<svg id="Layer_1" data-name="Layer 1" xmlns="http://www.w3.org/2000/svg" viewBox="0 0 336.22 116.28"><defs><style>.cls-1,.cls-12{fill:#e9fffb;}.cls-1,.cls-13{stroke:#44378a;}.cls-1,.cls-11,.cls-13,.cls-3,.cls-5,.cls-7,.cls-9{stroke-miterlimit:10;}.cls-1,.cls-11,.cls-14,.cls-3,.cls-5,.cls-7,.cls-9{stroke-width:0.5px;}.cls-11,.cls-14,.cls-2{fill:#44378a;}.cls-10,.cls-3{fill:#c8d7e4;}.cls-3{stroke:#655fa1;}.cls-4,.cls-9{fill:#655fa1;}.cls-5,.cls-8{fill:#a7afce;}.cls-5{stroke:#8687b7;}.cls-6,.cls-7{fill:#8687b7;}.cls-7{stroke:#a7afce;}.cls-9{stroke:#c8d7e4;}.cls-11,.cls-14{stroke:#e9fffb;}.cls-13{fill:none;}.cls-14{stroke-linejoin:round;}</style></defs><path class="cls-1" d="M308.72.25H284.24a10,10,0,0,0-7,2.91L259.89,20.47a10,10,0,0,0-2.91,7V52a10,10,0,0,0,2.91,7L277.2,76.33a9.94,9.94,0,0,0,7,2.91h24.48a9.94,9.94,0,0,0,7-2.91L333.06,59A9.9,9.9,0,0,0,336,52V27.51a9.94,9.94,0,0,0-2.91-7L315.75,3.16A10,10,0,0,0,308.72.25Z"/><path class="cls-2" d="M269.91,53.77C282.49,43.86,289.3,38,289.3,32c0-4.46-3.67-6.4-7.29-6.4A11.68,11.68,0,0,0,272.53,30l-2.67-2.78A15.13,15.13,0,0,1,282,21.75c5.82,0,11.74,3.3,11.74,10.27s-7.23,13.62-17,21.33h17.14v3.88h-24Z"/><path class="cls-2" d="M301.4,50.36a9,9,0,0,0,7.49,3.56c7.08,0,9.86-7.07,9.86-13.67a11.16,11.16,0,0,0-.06-1.42,12.53,12.53,0,0,1-9.85,5.45c-6.29,0-11.48-3.72-11.48-11.16,0-6,4.62-11.43,12.21-11.43,9.81,0,13.53,8.55,13.53,18.08s-4.41,18-14.21,18a12.16,12.16,0,0,1-9.69-4.19Zm8.38-24.79a7.62,7.62,0,0,0-8,7.39c0,5.14,3.56,7.55,8.07,7.55a10.47,10.47,0,0,0,8.7-5.19C318.17,31,315.86,25.57,309.78,25.57Z"/><path class="cls-3" d="M259.19.25H234.71a10,10,0,0,0-7,2.91L210.37,20.47a10,10,0,0,0-2.92,7V52a9.91,9.91,0,0,0,2.92,7l17.31,17.31a9.9,9.9,0,0,0,7,2.91h24.48a9.94,9.94,0,0,0,7-2.91L283.53,59a9.91,9.91,0,0,0,2.92-7V27.51a10,10,0,0,0-2.92-7L266.23,3.16A10,10,0,0,0,259.19.25Z"/><path class="cls-4" d="M222.07,49.31a12.12,12.12,0,0,0,9.75,4.61c5.08,0,8.17-2.51,8.17-6.55,0-4.35-3.56-6.18-8.7-6.18-1.46,0-3.09,0-3.61.05v-4c.57.05,2.2.05,3.61.05,4.4,0,8.13-1.73,8.13-5.76s-3.57-6-7.81-6a11.85,11.85,0,0,0-9.23,4.25L220,27.09a15.15,15.15,0,0,1,11.95-5.4c6.71,0,11.85,3.41,11.85,9.33,0,5-4.25,7.55-7.55,8.12,3.2.27,8.07,3,8.07,8.6,0,5.82-4.66,10.06-12.37,10.06-5.92,0-10.27-2.62-12.42-5.76Z"/><path class="cls-4" d="M261,21.69c9.54,0,13.36,9.49,13.36,18S270.58,57.8,261,57.8s-13.37-9.59-13.37-18.08S251.45,21.69,261,21.69Zm0,3.88c-6.66,0-8.91,7.18-8.91,14.15s2.25,14.2,8.91,14.2S270,46.69,270,39.72,267.69,25.57,261,25.57Z"/><path class="cls-5" d="M209.67.25H185.19a10,10,0,0,0-7,2.91L160.84,20.47a10,10,0,0,0-2.91,7V52a10,10,0,0,0,2.91,7l17.31,17.31a9.94,9.94,0,0,0,7,2.91h24.48a9.94,9.94,0,0,0,7-2.91L234,59a9.9,9.9,0,0,0,2.91-7V27.51a9.94,9.94,0,0,0-2.91-7L216.7,3.16A10,10,0,0,0,209.67.25Z"/><path class="cls-6" d="M180.27,49.31A12.1,12.1,0,0,0,190,53.92c5.09,0,8.18-2.51,8.18-6.55,0-4.35-3.56-6.18-8.7-6.18-1.47,0-3.09,0-3.62.05v-4c.58.05,2.2.05,3.62.05,4.4,0,8.12-1.73,8.12-5.76s-3.56-6-7.81-6a11.84,11.84,0,0,0-9.22,4.25l-2.41-2.73a15.15,15.15,0,0,1,12-5.4C196.83,21.69,202,25.1,202,31c0,5-4.24,7.55-7.54,8.12,3.19.27,8.07,3,8.07,8.6,0,5.82-4.67,10.06-12.37,10.06-5.92,0-10.27-2.62-12.42-5.76Z"/><path class="cls-6" d="M212.8,28l-5.6,5.92-2.62-2.67,8.75-9h3.82v35H212.8Z"/><path class="cls-7" d="M160.14.25H135.66a10,10,0,0,0-7,2.91L111.32,20.47a10,10,0,0,0-2.92,7V52a9.91,9.91,0,0,0,2.92,7l17.31,17.31a9.9,9.9,0,0,0,7,2.91h24.48a9.94,9.94,0,0,0,7-2.91L184.48,59a9.91,9.91,0,0,0,2.92-7V27.51a10,10,0,0,0-2.92-7L167.18,3.16A10,10,0,0,0,160.14.25Z"/><path class="cls-8" d="M124.75,49.31a12.14,12.14,0,0,0,9.75,4.61c5.08,0,8.18-2.51,8.18-6.55,0-4.35-3.57-6.18-8.7-6.18-1.47,0-3.1,0-3.62.05v-4c.58.05,2.2.05,3.62.05,4.4,0,8.12-1.73,8.12-5.76s-3.56-6-7.81-6a11.84,11.84,0,0,0-9.22,4.25l-2.41-2.73a15.13,15.13,0,0,1,12-5.4c6.7,0,11.84,3.41,11.84,9.33,0,5-4.25,7.55-7.55,8.12,3.2.27,8.07,3,8.07,8.6,0,5.82-4.66,10.06-12.36,10.06-5.93,0-10.28-2.62-12.42-5.76Z"/><path class="cls-8" d="M149.61,53.71C162.19,43.81,169,38,169,32c0-4.45-3.67-6.39-7.29-6.39a11.67,11.67,0,0,0-9.48,4.4l-2.68-2.77a15.13,15.13,0,0,1,12.16-5.51c5.82,0,11.74,3.3,11.74,10.27,0,7.13-7.23,13.63-17,21.33h17.14v3.88h-24Z"/><path class="cls-9" d="M110.62.25H86.14a10,10,0,0,0-7,2.91L61.79,20.47a10,10,0,0,0-2.91,7V52a10,10,0,0,0,2.91,7L79.1,76.33a9.94,9.94,0,0,0,7,2.91h24.48a9.94,9.94,0,0,0,7-2.91L135,59a9.9,9.9,0,0,0,2.91-7V27.51a9.94,9.94,0,0,0-2.91-7L117.65,3.16A10,10,0,0,0,110.62.25Z"/><path class="cls-10" d="M75,49.31a12.12,12.12,0,0,0,9.75,4.61c5.08,0,8.17-2.51,8.17-6.55,0-4.35-3.56-6.18-8.7-6.18-1.46,0-3.09,0-3.61.05v-4c.57.05,2.2.05,3.61.05,4.4,0,8.13-1.73,8.13-5.76s-3.57-6-7.81-6a11.85,11.85,0,0,0-9.23,4.25l-2.41-2.73a15.15,15.15,0,0,1,11.95-5.4c6.71,0,11.85,3.41,11.85,9.33,0,5-4.25,7.55-7.55,8.12,3.2.27,8.07,3,8.07,8.6,0,5.82-4.66,10.06-12.37,10.06C79,57.8,74.61,55.18,72.46,52Z"/><path class="cls-10" d="M102.07,49.31a12.12,12.12,0,0,0,9.75,4.61c5.08,0,8.17-2.51,8.17-6.55,0-4.35-3.56-6.18-8.7-6.18-1.46,0-3.09,0-3.61.05v-4c.57.05,2.2.05,3.61.05,4.41,0,8.13-1.73,8.13-5.76s-3.57-6-7.81-6a11.81,11.81,0,0,0-9.22,4.25L100,27.09a15.17,15.17,0,0,1,12-5.4c6.71,0,11.85,3.41,11.85,9.33,0,5-4.25,7.55-7.55,8.12,3.2.27,8.07,3,8.07,8.6,0,5.82-4.66,10.06-12.37,10.06C106,57.8,101.65,55.18,99.5,52Z"/><path class="cls-11" d="M61.09.25H36.61a10,10,0,0,0-7,2.91L12.27,20.47a10,10,0,0,0-2.92,7V52a9.91,9.91,0,0,0,2.92,7L29.58,76.33a9.9,9.9,0,0,0,7,2.91H61.09a9.94,9.94,0,0,0,7-2.91L85.43,59a9.91,9.91,0,0,0,2.92-7V27.51a10,10,0,0,0-2.92-7L68.13,3.16A10,10,0,0,0,61.09.25Z"/><path class="cls-12" d="M27.37,48.27A10.78,10.78,0,0,0,36,52.37c4.52,0,7.26-2.24,7.26-5.82,0-3.87-3.16-5.5-7.73-5.5-1.3,0-2.74,0-3.21.05V37.56c.51,0,2,0,3.21,0,3.91,0,7.22-1.53,7.22-5.12,0-3.44-3.17-5.31-6.94-5.31A10.51,10.51,0,0,0,27.65,31L25.5,28.52a13.48,13.48,0,0,1,10.62-4.79c6,0,10.53,3,10.53,8.29,0,4.47-3.78,6.7-6.71,7.21,2.84.24,7.17,2.66,7.17,7.64,0,5.17-4.14,8.94-11,8.94-5.26,0-9.13-2.33-11-5.12Z"/><path class="cls-12" d="M64.22,47.38H49.46V44.17l13.92-20h4.7V44h4.38v3.4H68.08v7.87H64.22ZM53.32,44h10.9V27.78Z"/><path class="cls-13" d="M48.85,79.24V90a4.72,4.72,0,0,0,4.72,4.72H291.76A4.73,4.73,0,0,0,296.48,90V79.24"/><path class="cls-14" d="M.25,44.88S4.47,44.73,7,47.23,9.39,54,9.39,54Z"/><path class="cls-14" d="M9.39,54s-4.21.15-6.74-2.35S.25,44.88.25,44.88Z"/><path class="cls-14" d="M.25,17.19S4.47,17,7,19.53s2.4,6.72,2.4,6.72Z"/><path class="cls-14" d="M9.39,26.25s-4.21.15-6.74-2.35S.25,17.19.25,17.19Z"/><path class="cls-14" d="M18.5,17.18s-4.22-.15-6.74,2.35-2.4,6.72-2.4,6.72Z"/><path class="cls-14" d="M9.36,26.25s4.21.15,6.74-2.35,2.4-6.72,2.4-6.72Z"/><path class="cls-14" d="M.25,35.65S4.47,35.49,7,38s2.4,6.71,2.4,6.71Z"/><path class="cls-14" d="M9.39,44.71s-4.21.16-6.74-2.34S.25,35.65.25,35.65Z"/><path class="cls-14" d="M18.5,35.65s-4.22-.16-6.74,2.34-2.4,6.72-2.4,6.72Z"/><path class="cls-14" d="M9.36,44.71s4.21.16,6.74-2.34,2.4-6.72,2.4-6.72Z"/><path class="cls-14" d="M65.72,88.29S61.51,88.45,59,86s-2.4-6.72-2.4-6.72Z"/><path class="cls-14" d="M56.58,79.23s4.22-.16,6.74,2.34,2.4,6.72,2.4,6.72Z"/><path class="cls-14" d="M56.64,66.39s-3.1,2.87-3.11,6.42,3,6.45,3,6.45Z"/><path class="cls-14" d="M56.58,79.26s3.09-2.87,3.11-6.42-3-6.45-3-6.45Z"/><path class="cls-14" d="M55.56,90.37s-4.11-1-5.89-4-.56-7.11-.56-7.11Z"/><path class="cls-14" d="M49.11,79.23s4.11,1,5.89,4,.56,7.12.56,7.12Z"/><path class="cls-14" d="M49.16,66.39s-3.09,2.87-3.1,6.42,3,6.45,3,6.45Z"/><path class="cls-14" d="M49.11,79.26s3.09-2.87,3.11-6.42-3.06-6.45-3.06-6.45Z"/><path class="cls-14" d="M42.74,90.41s-1.25-4,.51-7.12,5.86-4.06,5.86-4.06Z"/><path class="cls-14" d="M49.11,79.23s1.25,4-.51,7.12-5.86,4.06-5.86,4.06Z"/><path class="cls-14" d="M32.58,88.37s-.16-4.22,2.34-6.74,6.72-2.4,6.72-2.4Z"/><path class="cls-14" d="M41.64,79.23s.16,4.21-2.35,6.74-6.71,2.4-6.71,2.4Z"/><path class="cls-14" d="M41.69,66.39s-3.09,2.87-3.11,6.42,3.06,6.45,3.06,6.45Z"/><path class="cls-14" d="M41.64,79.26s3.09-2.87,3.1-6.42-3.05-6.45-3.05-6.45Z"/><path class="cls-14" d="M.25,26.42S4.47,26.26,7,28.76s2.4,6.72,2.4,6.72Z"/><path class="cls-14" d="M9.39,35.48s-4.21.16-6.74-2.34S.25,26.42.25,26.42Z"/><path class="cls-14" d="M18.5,26.42s-4.22-.16-6.74,2.34-2.4,6.72-2.4,6.72Z"/><path class="cls-14" d="M9.36,35.48s4.21.16,6.74-2.35,2.4-6.71,2.4-6.71Z"/><path class="cls-14" d="M21.66,79.94s2.71-3.24,6.26-3.44,6.59,2.72,6.59,2.72Z"/><path class="cls-14" d="M34.51,79.22s-2.7,3.24-6.25,3.43-6.6-2.71-6.6-2.71Z"/><path class="cls-14" d="M33.89,66.39S31,69.41,31.11,73s3.38,6.28,3.38,6.28Z"/><path class="cls-14" d="M34.49,79.24s2.94-3,2.78-6.57-3.38-6.28-3.38-6.28Z"/><path class="cls-14" d="M1.1,61.38S3.8,58.15,7.35,58,14,60.67,14,60.67Z"/><path class="cls-14" d="M14,60.67S11.24,63.9,7.69,64.1,1.1,61.38,1.1,61.38Z"/><path class="cls-14" d="M13.32,47.83s-2.94,3-2.77,6.58,3.38,6.28,3.38,6.28Z"/><path class="cls-14" d="M13.93,60.69s2.94-3,2.77-6.57-3.38-6.29-3.38-6.29Z"/><path class="cls-14" d="M14.81,73.75s2.7-3.23,6.25-3.43S27.66,73,27.66,73Z"/><path class="cls-14" d="M27.66,73S25,76.27,21.4,76.47s-6.59-2.72-6.59-2.72Z"/><path class="cls-14" d="M27,60.2s-2.94,3-2.77,6.58,3.38,6.28,3.38,6.28Z"/><path class="cls-14" d="M27.64,73.06s2.94-3,2.77-6.58S27,60.2,27,60.2Z"/><path class="cls-14" d="M8,67.57s2.71-3.24,6.26-3.43,6.59,2.71,6.59,2.71Z"/><path class="cls-14" d="M20.8,66.85s-2.7,3.24-6.25,3.43S8,67.57,8,67.57Z"/><path class="cls-14" d="M20.17,54s-2.94,3-2.77,6.57,3.38,6.28,3.38,6.28Z"/><path class="cls-14" d="M20.78,66.87s2.94-3,2.77-6.57S20.17,54,20.17,54Z"/><path class="cls-14" d="M76.61,79.94S73.9,76.7,70.36,76.5s-6.6,2.72-6.6,2.72Z"/><path class="cls-14" d="M63.76,79.22s2.71,3.24,6.25,3.43,6.6-2.71,6.6-2.71Z"/><path class="cls-14" d="M64.39,66.39s2.94,3,2.77,6.57-3.38,6.28-3.38,6.28Z"/><path class="cls-14" d="M63.78,79.24s-2.94-3-2.77-6.57,3.38-6.28,3.38-6.28Z"/><path class="cls-14" d="M97.18,61.38S94.47,58.15,90.92,58s-6.59,2.72-6.59,2.72Z"/><path class="cls-14" d="M84.33,60.67S87,63.9,90.58,64.1s6.6-2.72,6.6-2.72Z"/><path class="cls-14" d="M85,47.83s2.94,3,2.77,6.58-3.38,6.28-3.38,6.28Z"/><path class="cls-14" d="M84.35,60.69s-2.94-3-2.77-6.57S85,47.83,85,47.83Z"/><path class="cls-14" d="M83.47,73.75s-2.71-3.23-6.26-3.43S70.62,73,70.62,73Z"/><path class="cls-14" d="M70.62,73s2.7,3.23,6.25,3.43,6.6-2.72,6.6-2.72Z"/><path class="cls-14" d="M71.24,60.2s2.94,3,2.78,6.58-3.38,6.28-3.38,6.28Z"/><path class="cls-14" d="M70.64,73.06s-2.94-3-2.78-6.58,3.38-6.28,3.38-6.28Z"/><path class="cls-14" d="M90.32,67.57s-2.7-3.24-6.25-3.43-6.6,2.71-6.6,2.71Z"/><path class="cls-14" d="M77.47,66.85s2.71,3.24,6.26,3.43,6.59-2.71,6.59-2.71Z"/><path class="cls-14" d="M78.1,54s2.94,3,2.77,6.57-3.38,6.28-3.38,6.28Z"/><path class="cls-14" d="M77.49,66.87s-2.94-3-2.77-6.57S78.1,54,78.1,54Z"/><path class="cls-14" d="M79.09,44.88s4.21-.15,6.74,2.35S88.23,54,88.23,54Z"/><path class="cls-14" d="M88.23,54S84,54.1,81.49,51.6s-2.4-6.72-2.4-6.72Z"/><path class="cls-14" d="M97.34,44.88s-4.22-.16-6.74,2.35-2.4,6.71-2.4,6.71Z"/><path class="cls-14" d="M88.2,53.94s4.21.16,6.74-2.34,2.4-6.72,2.4-6.72Z"/><path class="cls-14" d="M79.09,17.19s4.21-.16,6.74,2.34,2.4,6.72,2.4,6.72Z"/><path class="cls-14" d="M88.23,26.25S84,26.4,81.49,23.9s-2.4-6.71-2.4-6.71Z"/><path class="cls-14" d="M97.34,17.18S93.12,17,90.6,19.53s-2.4,6.72-2.4,6.72Z"/><path class="cls-14" d="M88.2,26.25s4.21.15,6.74-2.35,2.4-6.72,2.4-6.72Z"/><path class="cls-14" d="M79.09,35.65s4.21-.16,6.74,2.35,2.4,6.71,2.4,6.71Z"/><path class="cls-14" d="M88.23,44.71s-4.22.16-6.74-2.34-2.4-6.72-2.4-6.72Z"/><path class="cls-14" d="M97.34,35.65S93.12,35.49,90.6,38s-2.4,6.72-2.4,6.72Z"/><path class="cls-14" d="M88.2,44.71s4.21.16,6.74-2.34,2.4-6.72,2.4-6.72Z"/><path class="cls-14" d="M79.09,26.42s4.21-.16,6.74,2.34,2.4,6.72,2.4,6.72Z"/><path class="cls-14" d="M88.23,35.48s-4.22.16-6.74-2.34-2.4-6.72-2.4-6.72Z"/><path class="cls-14" d="M97.34,26.42s-4.22-.16-6.74,2.34-2.4,6.72-2.4,6.72Z"/><path class="cls-14" d="M88.2,35.48s4.21.16,6.74-2.35,2.4-6.71,2.4-6.71Z"/><path class="cls-1" d="M283.91,115.64l13-13.2L309,115.64V72a4,4,0,0,0-4-4H287.88a4,4,0,0,0-4,4Z"/><path class="cls-2" d="M299.89,91.27a5.06,5.06,0,0,1-3.53,1.37,5.86,5.86,0,0,1-3-.86l-4.82-2.92V90l5.12,3.11a5.28,5.28,0,0,0,2.72.77,4.47,4.47,0,0,0,3.13-1.21,2.67,2.67,0,0,0,.93-2v-.09A3.79,3.79,0,0,1,299.89,91.27Z"/><path class="cls-2" d="M299.89,89.43a5,5,0,0,1-3.53,1.37,5.85,5.85,0,0,1-3-.85L288.52,87v1.17l5.12,3.1a5.28,5.28,0,0,0,2.72.77,4.47,4.47,0,0,0,3.13-1.21,2.65,2.65,0,0,0,.93-1.95v-.09A3.42,3.42,0,0,1,299.89,89.43Z"/><path class="cls-2" d="M299.89,87.6A5.06,5.06,0,0,1,296.36,89a5.86,5.86,0,0,1-3-.86l-4.82-2.92v1.16l5.12,3.1a5.2,5.2,0,0,0,2.72.78A4.51,4.51,0,0,0,299.49,89a2.67,2.67,0,0,0,.93-2V87A4.26,4.26,0,0,1,299.89,87.6Z"/><path class="cls-2" d="M303.84,88.81A4.45,4.45,0,0,1,301,90h0v1.25a3.82,3.82,0,0,0,2.44-1,2.81,2.81,0,0,0,1-2v-.1A4.7,4.7,0,0,1,303.84,88.81Z"/><path class="cls-2" d="M299.89,93.11a5.06,5.06,0,0,1-3.53,1.37,5.86,5.86,0,0,1-3-.86l-4.82-2.92v1.16L293.64,95a5.28,5.28,0,0,0,2.72.77,4.51,4.51,0,0,0,3.13-1.21,2.67,2.67,0,0,0,.93-2v-.08A4.26,4.26,0,0,1,299.89,93.11Z"/><path class="cls-2" d="M303.93,83.2l-.09.1a6.4,6.4,0,0,1-.5.41,6.16,6.16,0,0,1-.55.33,4.75,4.75,0,0,1-1.24.41,4.93,4.93,0,0,1-.66.07c0,.08,0,.16.05.23a2.76,2.76,0,0,1,.06.57v.45h0a3.73,3.73,0,0,0,1.19-.26,3.45,3.45,0,0,0,.61-.3,3.75,3.75,0,0,0,.64-.49l.11-.11a4.8,4.8,0,0,0,.37-.44,2.65,2.65,0,0,0,.29-.51,2.27,2.27,0,0,0,.21-.78s0-.11,0-.17v-.1l-.11.15A3.16,3.16,0,0,1,303.93,83.2Z"/><path class="cls-2" d="M303.93,86.87l-.09.1A4.45,4.45,0,0,1,301,88.19h0v1.26h0a3.83,3.83,0,0,0,2.44-1.06,3.36,3.36,0,0,0,.77-1.06,2.16,2.16,0,0,0,.21-.77c0-.06,0-.12,0-.18v-.1l-.11.15A4,4,0,0,1,303.93,86.87Z"/><path class="cls-2" d="M303.93,85l-.09.1a4.61,4.61,0,0,1-.5.4,3.48,3.48,0,0,1-.55.33,4.42,4.42,0,0,1-1.79.48h0v1.26h0a3.87,3.87,0,0,0,2.44-1,1.14,1.14,0,0,1,.11-.11,4.88,4.88,0,0,0,.37-.45,2.32,2.32,0,0,0,.29-.5,2.27,2.27,0,0,0,.21-.78c0-.06,0-.12,0-.17v-.11l-.11.16A5.13,5.13,0,0,1,303.93,85Z"/><path class="cls-2" d="M302.74,78.5l-4.86-3L292.21,81l-3.69,3.53,5.12,3.11a5.28,5.28,0,0,0,2.72.77,4.47,4.47,0,0,0,3.13-1.21,2.32,2.32,0,0,0,.65-2.92,2.4,2.4,0,0,0-.32-.41,4.61,4.61,0,0,0,.91.1h0a4,4,0,0,0,1.45-.27,4.37,4.37,0,0,0,.61-.31,3.75,3.75,0,0,0,.64-.49,1.14,1.14,0,0,0,.11-.11,3.75,3.75,0,0,0,.37-.44,2.62,2.62,0,0,0,.3-.51,2.37,2.37,0,0,0,.2-.77A2.84,2.84,0,0,0,302.74,78.5Zm-4.68,7.69a2.94,2.94,0,0,1-3.56.28L291,84.32l3.18-3,3.6,2.19A1.56,1.56,0,0,1,298.06,86.19ZM302,82a2.85,2.85,0,0,1-3.47.36l-3.33-2,3-2.91,3.27,2C302.68,80.11,302.84,81.11,302,82Z"/><path class="cls-2" d="M299.89,91.27a5.06,5.06,0,0,1-3.53,1.37,5.86,5.86,0,0,1-3-.86l-4.82-2.92V90l5.12,3.11a5.28,5.28,0,0,0,2.72.77,4.47,4.47,0,0,0,3.13-1.21,2.67,2.67,0,0,0,.93-2v-.09A3.79,3.79,0,0,1,299.89,91.27Z"/><path class="cls-2" d="M299.89,89.43a5,5,0,0,1-3.53,1.37,5.85,5.85,0,0,1-3-.85L288.52,87v1.17l5.12,3.1a5.28,5.28,0,0,0,2.72.77,4.47,4.47,0,0,0,3.13-1.21,2.65,2.65,0,0,0,.93-1.95v-.09A3.42,3.42,0,0,1,299.89,89.43Z"/><path class="cls-2" d="M299.89,87.6A5.06,5.06,0,0,1,296.36,89a5.86,5.86,0,0,1-3-.86l-4.82-2.92v1.16l5.12,3.1a5.2,5.2,0,0,0,2.72.78A4.51,4.51,0,0,0,299.49,89a2.67,2.67,0,0,0,.93-2V87A4.26,4.26,0,0,1,299.89,87.6Z"/><path class="cls-2" d="M303.84,88.81A4.45,4.45,0,0,1,301,90h0v1.25a3.82,3.82,0,0,0,2.44-1,2.81,2.81,0,0,0,1-2v-.1A4.7,4.7,0,0,1,303.84,88.81Z"/><path class="cls-2" d="M299.89,93.11a5.06,5.06,0,0,1-3.53,1.37,5.86,5.86,0,0,1-3-.86l-4.82-2.92v1.16L293.64,95a5.28,5.28,0,0,0,2.72.77,4.51,4.51,0,0,0,3.13-1.21,2.67,2.67,0,0,0,.93-2v-.08A4.26,4.26,0,0,1,299.89,93.11Z"/><path class="cls-2" d="M303.93,83.2l-.09.1a6.4,6.4,0,0,1-.5.41,6.16,6.16,0,0,1-.55.33,4.75,4.75,0,0,1-1.24.41,4.93,4.93,0,0,1-.66.07c0,.08,0,.16.05.23a2.76,2.76,0,0,1,.06.57v.45h0a3.73,3.73,0,0,0,1.19-.26,3.45,3.45,0,0,0,.61-.3,3.75,3.75,0,0,0,.64-.49l.11-.11a4.8,4.8,0,0,0,.37-.44,2.65,2.65,0,0,0,.29-.51,2.27,2.27,0,0,0,.21-.78s0-.11,0-.17v-.1l-.11.15A3.16,3.16,0,0,1,303.93,83.2Z"/><path class="cls-2" d="M303.93,86.87l-.09.1A4.45,4.45,0,0,1,301,88.19h0v1.26h0a3.83,3.83,0,0,0,2.44-1.06,3.36,3.36,0,0,0,.77-1.06,2.16,2.16,0,0,0,.21-.77c0-.06,0-.12,0-.18v-.1l-.11.15A4,4,0,0,1,303.93,86.87Z"/><path class="cls-2" d="M303.93,85l-.09.1a4.61,4.61,0,0,1-.5.4,3.48,3.48,0,0,1-.55.33,4.42,4.42,0,0,1-1.79.48h0v1.26h0a3.87,3.87,0,0,0,2.44-1,1.14,1.14,0,0,1,.11-.11,4.88,4.88,0,0,0,.37-.45,2.32,2.32,0,0,0,.29-.5,2.27,2.27,0,0,0,.21-.78c0-.06,0-.12,0-.17v-.11l-.11.16A5.13,5.13,0,0,1,303.93,85Z"/></svg>