<svg id="Layer_1" data-name="Layer 1" xmlns="http://www.w3.org/2000/svg" viewBox="0 0 141.11 91.3"><defs><style>.cls-1{fill:#36baa2;opacity:0.15;}.cls-2{fill:#e9fffb;stroke:#44378a;}.cls-2,.cls-3,.cls-4,.cls-5,.cls-6,.cls-7{stroke-miterlimit:10;stroke-width:0.5px;}.cls-3{fill:#c8d7e4;stroke:#655fa1;}.cls-4{fill:#a7afce;stroke:#8687b7;}.cls-5{fill:#8687b7;stroke:#a7afce;}.cls-6{fill:#655fa1;stroke:#c8d7e4;}.cls-7,.cls-8{fill:#44378a;}.cls-7{stroke:#e9fffb;}</style></defs><rect class="cls-1" y="12.87" width="130.06" height="77.76" rx="19.66"/><path class="cls-2" d="M122,13.05H36.29A2.28,2.28,0,0,1,34,10.76V9.4A3.7,3.7,0,0,0,30.08,6H12A3.71,3.71,0,0,0,8.09,9.4V11a2.33,2.33,0,0,1-1.88,2.25C2.8,14,.26,16.7.26,19.94v8a2.3,2.3,0,0,0,2.29,2.29h125A2.29,2.29,0,0,0,129.79,28v-8C129.79,16.13,126.29,13.05,122,13.05Z"/><path class="cls-3" d="M122,25.2H54a2.36,2.36,0,0,1-2.36-2.35v-1.3a3.7,3.7,0,0,0-3.91-3.44H29.6a3.7,3.7,0,0,0-3.91,3.44v1.3a2.36,2.36,0,0,1-2.36,2.35H8.09C3.77,25.2.26,28.29.26,32.09v8a2.36,2.36,0,0,0,2.36,2.36H127.43a2.35,2.35,0,0,0,2.36-2.36v-8C129.79,28.29,126.29,25.2,122,25.2Z"/><path class="cls-4" d="M122,37.36H71.54A2.36,2.36,0,0,1,69.19,35V33.71a3.71,3.71,0,0,0-3.92-3.44H47.19a3.7,3.7,0,0,0-3.91,3.44V35a2.36,2.36,0,0,1-2.36,2.36H8.09c-4.32,0-7.83,3.08-7.83,6.89v8a2.36,2.36,0,0,0,2.36,2.36H127.43a2.36,2.36,0,0,0,2.36-2.36v-8C129.79,40.44,126.29,37.36,122,37.36Z"/><path class="cls-5" d="M122,49.52H89.14a2.36,2.36,0,0,1-2.36-2.36v-1.3a3.71,3.71,0,0,0-3.92-3.44H64.79a3.7,3.7,0,0,0-3.92,3.44v1.3a2.36,2.36,0,0,1-2.36,2.36H8.09C3.77,49.52.26,52.6.26,56.4v8a2.36,2.36,0,0,0,2.36,2.36H127.43a2.35,2.35,0,0,0,2.36-2.36v-8C129.79,52.6,126.29,49.52,122,49.52Z"/><path class="cls-6" d="M122,61.67H106.73a2.36,2.36,0,0,1-2.36-2.36V58a3.7,3.7,0,0,0-3.92-3.44H82.38A3.71,3.71,0,0,0,78.46,58v1.29a2.35,2.35,0,0,1-2.36,2.36h-68c-4.32,0-7.83,3.09-7.83,6.89v8a2.36,2.36,0,0,0,2.36,2.36H127.43a2.36,2.36,0,0,0,2.36-2.36v-8C129.79,64.76,126.29,61.67,122,61.67Z"/><path class="cls-7" d="M123.84,74A2.33,2.33,0,0,1,122,71.78v-1.6a3.7,3.7,0,0,0-3.91-3.45H100a3.7,3.7,0,0,0-3.91,3.45v1.36a2.29,2.29,0,0,1-2.29,2.29H8.09c-4.32,0-7.83,3.08-7.83,6.89v6.67a3.66,3.66,0,0,0,3.66,3.66H126.14a3.65,3.65,0,0,0,3.65-3.66V80.72C129.79,77.48,127.26,74.77,123.84,74Z"/><path class="cls-2" d="M115.72,47.85l13-13.2,12.17,13.2V4.23a4,4,0,0,0-4-4H119.7a4,4,0,0,0-4,4Z"/><path class="cls-8" d="M131.71,23.47a5,5,0,0,1-3.53,1.37,5.74,5.74,0,0,1-3-.86l-4.82-2.92v1.16l5.12,3.11a5.25,5.25,0,0,0,2.72.77,4.48,4.48,0,0,0,3.13-1.21,2.7,2.7,0,0,0,.93-1.95v-.09A3.87,3.87,0,0,1,131.71,23.47Z"/><path class="cls-8" d="M131.71,21.63A5,5,0,0,1,128.18,23a5.83,5.83,0,0,1-3-.86l-4.82-2.93v1.17l5.12,3.1a5.26,5.26,0,0,0,2.72.78,4.53,4.53,0,0,0,3.13-1.21,2.72,2.72,0,0,0,.93-2V21A4.29,4.29,0,0,1,131.71,21.63Z"/><path class="cls-8" d="M131.71,19.8a5.08,5.08,0,0,1-3.53,1.37,5.83,5.83,0,0,1-3-.86l-4.82-2.92v1.16l5.12,3.11a5.25,5.25,0,0,0,2.72.77,4.53,4.53,0,0,0,3.13-1.21,2.71,2.71,0,0,0,.93-2v-.08A5,5,0,0,1,131.71,19.8Z"/><path class="cls-8" d="M135.65,21a4.43,4.43,0,0,1-2.84,1.22h0v1.26a3.88,3.88,0,0,0,2.44-1.06,2.77,2.77,0,0,0,1-2v-.1A4.16,4.16,0,0,1,135.65,21Z"/><path class="cls-8" d="M131.71,25.31a5.08,5.08,0,0,1-3.53,1.37,5.83,5.83,0,0,1-3-.86l-4.82-2.92v1.16l5.12,3.11a5.25,5.25,0,0,0,2.72.77,4.48,4.48,0,0,0,3.13-1.21,2.71,2.71,0,0,0,.93-2v-.08A5,5,0,0,1,131.71,25.31Z"/><path class="cls-8" d="M135.75,15.4l-.1.1a4.4,4.4,0,0,1-1.05.74,4.69,4.69,0,0,1-1.23.41,3.71,3.71,0,0,1-.67.07l.06.23a2.2,2.2,0,0,1,.05.57V18h0a3.93,3.93,0,0,0,1.81-.56,4.11,4.11,0,0,0,.63-.49l.11-.11a3,3,0,0,0,.37-.44,3.39,3.39,0,0,0,.3-.51,2.25,2.25,0,0,0,.2-.77,1.09,1.09,0,0,0,0-.18v-.1l-.1.15A5.34,5.34,0,0,1,135.75,15.4Z"/><path class="cls-8" d="M135.75,19.07l-.1.1a4.43,4.43,0,0,1-2.84,1.22h0v1.26h0a3.83,3.83,0,0,0,2.44-1.06,3.29,3.29,0,0,0,.78-1.06,2.14,2.14,0,0,0,.2-.77,1.09,1.09,0,0,0,0-.18v-.1l-.11.15A3.86,3.86,0,0,1,135.75,19.07Z"/><path class="cls-8" d="M135.75,17.24l-.1.1a3.81,3.81,0,0,1-.5.4,3.87,3.87,0,0,1-.55.34,4.52,4.52,0,0,1-1.79.47h0v1.26h0a3.82,3.82,0,0,0,2.44-1,1.14,1.14,0,0,1,.11-.11,4.55,4.55,0,0,0,.37-.44,3.39,3.39,0,0,0,.3-.51,2.25,2.25,0,0,0,.2-.78,1,1,0,0,0,0-.17v-.11a.91.91,0,0,1-.11.16A5,5,0,0,1,135.75,17.24Z"/><path class="cls-8" d="M134.56,10.7,129.7,7.75,124,13.18l-3.69,3.53,5.12,3.11a5.25,5.25,0,0,0,2.72.77,4.48,4.48,0,0,0,3.13-1.21,2.32,2.32,0,0,0,.64-2.91,1.8,1.8,0,0,0-.32-.42,4.7,4.7,0,0,0,.91.1h0a4.1,4.1,0,0,0,1.46-.27,5,5,0,0,0,.61-.31,4.11,4.11,0,0,0,.63-.49.57.57,0,0,0,.11-.11,3,3,0,0,0,.37-.44,2.88,2.88,0,0,0,.3-.5,2.27,2.27,0,0,0,.21-.78A2.84,2.84,0,0,0,134.56,10.7Zm-4.68,7.69a3,3,0,0,1-3.57.28l-3.54-2.15,3.18-3,3.6,2.19A1.56,1.56,0,0,1,129.88,18.39Zm3.89-4.23a2.85,2.85,0,0,1-3.47.36l-3.33-2,3-2.91,3.27,2C134.5,12.31,134.66,13.31,133.77,14.16Z"/><path class="cls-8" d="M131.71,23.47a5,5,0,0,1-3.53,1.37,5.74,5.74,0,0,1-3-.86l-4.82-2.92v1.16l5.12,3.11a5.25,5.25,0,0,0,2.72.77,4.48,4.48,0,0,0,3.13-1.21,2.7,2.7,0,0,0,.93-1.95v-.09A3.87,3.87,0,0,1,131.71,23.47Z"/><path class="cls-8" d="M131.71,21.63A5,5,0,0,1,128.18,23a5.83,5.83,0,0,1-3-.86l-4.82-2.93v1.17l5.12,3.1a5.26,5.26,0,0,0,2.72.78,4.53,4.53,0,0,0,3.13-1.21,2.72,2.72,0,0,0,.93-2V21A4.29,4.29,0,0,1,131.71,21.63Z"/><path class="cls-8" d="M131.71,19.8a5.08,5.08,0,0,1-3.53,1.37,5.83,5.83,0,0,1-3-.86l-4.82-2.92v1.16l5.12,3.11a5.25,5.25,0,0,0,2.72.77,4.53,4.53,0,0,0,3.13-1.21,2.71,2.71,0,0,0,.93-2v-.08A5,5,0,0,1,131.71,19.8Z"/><path class="cls-8" d="M135.65,21a4.43,4.43,0,0,1-2.84,1.22h0v1.26a3.88,3.88,0,0,0,2.44-1.06,2.77,2.77,0,0,0,1-2v-.1A4.16,4.16,0,0,1,135.65,21Z"/><path class="cls-8" d="M131.71,25.31a5.08,5.08,0,0,1-3.53,1.37,5.83,5.83,0,0,1-3-.86l-4.82-2.92v1.16l5.12,3.11a5.25,5.25,0,0,0,2.72.77,4.48,4.48,0,0,0,3.13-1.21,2.71,2.71,0,0,0,.93-2v-.08A5,5,0,0,1,131.71,25.31Z"/><path class="cls-8" d="M135.75,15.4l-.1.1a4.4,4.4,0,0,1-1.05.74,4.69,4.69,0,0,1-1.23.41,3.71,3.71,0,0,1-.67.07l.06.23a2.2,2.2,0,0,1,.05.57V18h0a3.93,3.93,0,0,0,1.81-.56,4.11,4.11,0,0,0,.63-.49l.11-.11a3,3,0,0,0,.37-.44,3.39,3.39,0,0,0,.3-.51,2.25,2.25,0,0,0,.2-.77,1.09,1.09,0,0,0,0-.18v-.1l-.1.15A5.34,5.34,0,0,1,135.75,15.4Z"/><path class="cls-8" d="M135.75,19.07l-.1.1a4.43,4.43,0,0,1-2.84,1.22h0v1.26h0a3.83,3.83,0,0,0,2.44-1.06,3.29,3.29,0,0,0,.78-1.06,2.14,2.14,0,0,0,.2-.77,1.09,1.09,0,0,0,0-.18v-.1l-.11.15A3.86,3.86,0,0,1,135.75,19.07Z"/><path class="cls-8" d="M135.75,17.24l-.1.1a3.81,3.81,0,0,1-.5.4,3.87,3.87,0,0,1-.55.34,4.52,4.52,0,0,1-1.79.47h0v1.26h0a3.82,3.82,0,0,0,2.44-1,1.14,1.14,0,0,1,.11-.11,4.55,4.55,0,0,0,.37-.44,3.39,3.39,0,0,0,.3-.51,2.25,2.25,0,0,0,.2-.78,1,1,0,0,0,0-.17v-.11a.91.91,0,0,1-.11.16A5,5,0,0,1,135.75,17.24Z"/></svg>