<svg id="Layer_1" data-name="Layer 1" xmlns="http://www.w3.org/2000/svg" viewBox="0 0 73.17 138.11"><defs><style>.cls-1{fill:#e9fffb;stroke:#44378a;stroke-linejoin:round;stroke-width:0.5px;}.cls-2{fill:#44378a;}</style></defs><path class="cls-1" d="M.25,137.86,37.74,99.69l35.18,38.17V11.74A11.49,11.49,0,0,0,61.43.25H11.74A11.5,11.5,0,0,0,.25,11.74Z"/><path class="cls-2" d="M45.11,64.34a12.6,12.6,0,0,1-8.8,3.42,14.57,14.57,0,0,1-7.54-2.14l-12-7.29v2.9L29.52,69a13.08,13.08,0,0,0,6.79,1.92,11.25,11.25,0,0,0,7.81-3A6.74,6.74,0,0,0,46.43,63V62.8A10.38,10.38,0,0,1,45.11,64.34Z"/><path class="cls-2" d="M45.11,59.76a12.64,12.64,0,0,1-8.8,3.42A14.57,14.57,0,0,1,28.77,61l-12-7.3v2.91l12.77,7.74a13.1,13.1,0,0,0,6.79,1.93,11.21,11.21,0,0,0,7.81-3,6.72,6.72,0,0,0,2.31-4.87v-.21A10.38,10.38,0,0,1,45.11,59.76Z"/><path class="cls-2" d="M45.11,55.18a12.64,12.64,0,0,1-8.8,3.42,14.57,14.57,0,0,1-7.54-2.14l-12-7.3v2.9l12.77,7.75a13.1,13.1,0,0,0,6.79,1.93,11.21,11.21,0,0,0,7.81-3,6.72,6.72,0,0,0,2.31-4.88v-.21A10.54,10.54,0,0,1,45.11,55.18Z"/><path class="cls-2" d="M55,58.2a11.09,11.09,0,0,1-7.08,3h0v3.14A9.59,9.59,0,0,0,54,61.75a7,7,0,0,0,2.47-5v-.25A11,11,0,0,1,55,58.2Z"/><path class="cls-2" d="M45.11,68.92a12.6,12.6,0,0,1-8.8,3.42,14.57,14.57,0,0,1-7.54-2.14l-12-7.29v2.9l12.77,7.75a13.1,13.1,0,0,0,6.79,1.93,11.26,11.26,0,0,0,7.81-3,6.72,6.72,0,0,0,2.31-4.88v-.21A9.46,9.46,0,0,1,45.11,68.92Z"/><path class="cls-2" d="M55.19,44.21l-.24.24a10.12,10.12,0,0,1-1.25,1,11.24,11.24,0,0,1-1.36.83,11.11,11.11,0,0,1-3.09,1,11.56,11.56,0,0,1-1.66.19c0,.19.1.38.14.57a6,6,0,0,1,.14,1.41v1.14h0a10.19,10.19,0,0,0,3-.65,9.8,9.8,0,0,0,1.52-.76A9.14,9.14,0,0,0,54,48a3.57,3.57,0,0,0,.27-.28,9.36,9.36,0,0,0,.93-1.1,7.14,7.14,0,0,0,.74-1.26,5.76,5.76,0,0,0,.51-1.94c0-.14,0-.29,0-.43v-.24l-.26.36A12.13,12.13,0,0,1,55.19,44.21Z"/><path class="cls-2" d="M55.19,53.37l-.24.25a11.09,11.09,0,0,1-7.08,3h0v3.13h0A9.59,9.59,0,0,0,54,57.16a8.41,8.41,0,0,0,1.94-2.64,5.77,5.77,0,0,0,.51-1.93c0-.15,0-.29,0-.44v-.26c-.09.13-.17.26-.27.38A10.79,10.79,0,0,1,55.19,53.37Z"/><path class="cls-2" d="M55.19,48.79,55,49a10,10,0,0,1-1.25,1,10.63,10.63,0,0,1-1.37.83,11.29,11.29,0,0,1-4.46,1.2h0v3.13h0A9.59,9.59,0,0,0,54,52.58l.27-.27a9.44,9.44,0,0,0,.93-1.11,7.14,7.14,0,0,0,.74-1.26A5.76,5.76,0,0,0,56.4,48c0-.14,0-.29,0-.43v-.26c-.09.13-.17.25-.27.38A12,12,0,0,1,55.19,48.79Z"/><path class="cls-2" d="M52.22,32.48,40.09,25.12,26,38.66l-9.21,8.82,12.77,7.75a13.1,13.1,0,0,0,6.79,1.93,11.26,11.26,0,0,0,7.81-3c2.25-2.16,3-5,1.61-7.27a6.35,6.35,0,0,0-.8-1,10.1,10.1,0,0,0,2.26.25h0a10,10,0,0,0,3.64-.69,8.94,8.94,0,0,0,1.52-.75A9.67,9.67,0,0,0,54,43.42a3.44,3.44,0,0,0,.27-.27A8.65,8.65,0,0,0,55.16,42a6.74,6.74,0,0,0,.73-1.26,5.72,5.72,0,0,0,.52-1.93C56.58,36.57,55.23,34.3,52.22,32.48ZM40.55,51.67a7.37,7.37,0,0,1-8.9.69L22.82,47l7.93-7.6,9,5.45C43,46.82,42.79,49.52,40.55,51.67Zm9.71-10.55A7.14,7.14,0,0,1,41.6,42l-8.3-5,7.57-7.26L49,34.65C52.07,36.5,52.47,39,50.26,41.12Z"/><path class="cls-2" d="M45.11,64.34a12.6,12.6,0,0,1-8.8,3.42,14.57,14.57,0,0,1-7.54-2.14l-12-7.29v2.9L29.52,69a13.08,13.08,0,0,0,6.79,1.92,11.25,11.25,0,0,0,7.81-3A6.74,6.74,0,0,0,46.43,63V62.8A10.38,10.38,0,0,1,45.11,64.34Z"/><path class="cls-2" d="M45.11,59.76a12.64,12.64,0,0,1-8.8,3.42A14.57,14.57,0,0,1,28.77,61l-12-7.3v2.91l12.77,7.74a13.1,13.1,0,0,0,6.79,1.93,11.21,11.21,0,0,0,7.81-3,6.72,6.72,0,0,0,2.31-4.87v-.21A10.38,10.38,0,0,1,45.11,59.76Z"/><path class="cls-2" d="M45.11,55.18a12.64,12.64,0,0,1-8.8,3.42,14.57,14.57,0,0,1-7.54-2.14l-12-7.3v2.9l12.77,7.75a13.1,13.1,0,0,0,6.79,1.93,11.21,11.21,0,0,0,7.81-3,6.72,6.72,0,0,0,2.31-4.88v-.21A10.54,10.54,0,0,1,45.11,55.18Z"/><path class="cls-2" d="M55,58.2a11.09,11.09,0,0,1-7.08,3h0v3.14A9.59,9.59,0,0,0,54,61.75a7,7,0,0,0,2.47-5v-.25A11,11,0,0,1,55,58.2Z"/><path class="cls-2" d="M45.11,68.92a12.6,12.6,0,0,1-8.8,3.42,14.57,14.57,0,0,1-7.54-2.14l-12-7.29v2.9l12.77,7.75a13.1,13.1,0,0,0,6.79,1.93,11.26,11.26,0,0,0,7.81-3,6.72,6.72,0,0,0,2.31-4.88v-.21A9.46,9.46,0,0,1,45.11,68.92Z"/><path class="cls-2" d="M55.19,44.21l-.24.24a10.12,10.12,0,0,1-1.25,1,11.24,11.24,0,0,1-1.36.83,11.11,11.11,0,0,1-3.09,1,11.56,11.56,0,0,1-1.66.19c0,.19.1.38.14.57a6,6,0,0,1,.14,1.41v1.14h0a10.19,10.19,0,0,0,3-.65,9.8,9.8,0,0,0,1.52-.76A9.14,9.14,0,0,0,54,48a3.57,3.57,0,0,0,.27-.28,9.36,9.36,0,0,0,.93-1.1,7.14,7.14,0,0,0,.74-1.26,5.76,5.76,0,0,0,.51-1.94c0-.14,0-.29,0-.43v-.24l-.26.36A12.13,12.13,0,0,1,55.19,44.21Z"/><path class="cls-2" d="M55.19,53.37l-.24.25a11.09,11.09,0,0,1-7.08,3h0v3.13h0A9.59,9.59,0,0,0,54,57.16a8.41,8.41,0,0,0,1.94-2.64,5.77,5.77,0,0,0,.51-1.93c0-.15,0-.29,0-.44v-.26c-.09.13-.17.26-.27.38A10.79,10.79,0,0,1,55.19,53.37Z"/><path class="cls-2" d="M55.19,48.79,55,49a10,10,0,0,1-1.25,1,10.63,10.63,0,0,1-1.37.83,11.29,11.29,0,0,1-4.46,1.2h0v3.13h0A9.59,9.59,0,0,0,54,52.58l.27-.27a9.44,9.44,0,0,0,.93-1.11,7.14,7.14,0,0,0,.74-1.26A5.76,5.76,0,0,0,56.4,48c0-.14,0-.29,0-.43v-.26c-.09.13-.17.25-.27.38A12,12,0,0,1,55.19,48.79Z"/></svg>