<svg id="Layer_1" data-name="Layer 1" xmlns="http://www.w3.org/2000/svg" viewBox="0 0 130.56 87.17"><defs><style>.cls-1,.cls-7{fill:#e9fffb;}.cls-1{stroke:#44378a;}.cls-1,.cls-2,.cls-3,.cls-4,.cls-5,.cls-6{stroke-miterlimit:10;stroke-width:0.5px;}.cls-2{fill:#c8d7e4;stroke:#655fa1;}.cls-3{fill:#a7afce;stroke:#8687b7;}.cls-4{fill:#8687b7;stroke:#a7afce;}.cls-5{fill:#655fa1;stroke:#c8d7e4;}.cls-6,.cls-8{fill:#44378a;}.cls-6{stroke:#e9fffb;}</style></defs><circle class="cls-1" cx="113.28" cy="47.21" r="17.03"/><circle class="cls-1" cx="17.28" cy="47.21" r="17.03"/><circle class="cls-1" cx="49.79" cy="69.14" r="17.03"/><circle class="cls-1" cx="80.76" cy="69.14" r="17.03"/><circle class="cls-1" cx="49.79" cy="25.34" r="17.03"/><circle class="cls-1" cx="80.76" cy="25.34" r="17.03"/><circle class="cls-2" cx="17.28" cy="62.69" r="17.03"/><circle class="cls-2" cx="17.28" cy="31.72" r="17.03"/><circle class="cls-2" cx="113.02" cy="62.69" r="17.03"/><circle class="cls-2" cx="113.02" cy="31.72" r="17.03"/><circle class="cls-3" cx="104.77" cy="25.34" r="17.03"/><circle class="cls-3" cx="25.78" cy="25.34" r="17.03"/><circle class="cls-3" cx="104.77" cy="69.11" r="17.03"/><circle class="cls-3" cx="25.78" cy="69.11" r="17.03"/><circle class="cls-2" cx="65.28" cy="69.11" r="17.03"/><circle class="cls-2" cx="65.28" cy="25.31" r="17.03"/><circle class="cls-4" cx="104.77" cy="47.21" r="17.03"/><circle class="cls-4" cx="25.78" cy="47.21" r="17.03"/><circle class="cls-5" cx="49.79" cy="62.69" r="17.03"/><circle class="cls-5" cx="80.76" cy="31.72" r="17.03"/><circle class="cls-5" cx="80.76" cy="62.69" r="17.03"/><circle class="cls-5" cx="49.79" cy="31.72" r="17.03"/><circle class="cls-6" cx="65.28" cy="47.25" r="22.47"/><circle class="cls-6" cx="87.75" cy="47.21" r="5.11"/><circle class="cls-6" cx="118.58" cy="16.02" r="5.11"/><circle class="cls-6" cx="37.7" cy="81.81" r="5.11"/><path class="cls-7" d="M58.83,35.66c6.13,0,8.58,6.09,8.58,11.58S65,58.85,58.83,58.85s-8.58-6.16-8.58-11.61S52.68,35.66,58.83,35.66Zm0,2.49c-4.27,0-5.72,4.61-5.72,9.09s1.45,9.12,5.72,9.12,5.72-4.65,5.72-9.12S63.11,38.15,58.83,38.15Z"/><path class="cls-7" d="M73.79,39.7l-3.6,3.8-1.68-1.71L74.13,36h2.46V58.44h-2.8Z"/><path class="cls-1" d="M5.37,47.85l13-13.2,12.17,13.2V4.23a4,4,0,0,0-4-4H9.35a4,4,0,0,0-4,4Z"/><path class="cls-8" d="M21.36,23.47a5.05,5.05,0,0,1-3.53,1.37,5.74,5.74,0,0,1-3-.86L10,21.06v1.16l5.12,3.11a5.25,5.25,0,0,0,2.72.77A4.48,4.48,0,0,0,21,24.89a2.74,2.74,0,0,0,.93-1.95v-.09A3.36,3.36,0,0,1,21.36,23.47Z"/><path class="cls-8" d="M21.36,21.63A5.06,5.06,0,0,1,17.83,23a5.83,5.83,0,0,1-3-.86L10,19.22v1.17l5.12,3.1a5.26,5.26,0,0,0,2.72.78A4.53,4.53,0,0,0,21,23.06a2.76,2.76,0,0,0,.93-2V21A3.66,3.66,0,0,1,21.36,21.63Z"/><path class="cls-8" d="M21.36,19.8a5.1,5.1,0,0,1-3.53,1.37,5.83,5.83,0,0,1-3-.86L10,17.39v1.16l5.12,3.11a5.25,5.25,0,0,0,2.72.77A4.53,4.53,0,0,0,21,21.22a2.74,2.74,0,0,0,.93-2v-.08A4.88,4.88,0,0,1,21.36,19.8Z"/><path class="cls-8" d="M25.3,21a4.43,4.43,0,0,1-2.84,1.22h0v1.26a3.88,3.88,0,0,0,2.44-1.06,2.77,2.77,0,0,0,1-2v-.1A4.16,4.16,0,0,1,25.3,21Z"/><path class="cls-8" d="M21.36,25.31a5.1,5.1,0,0,1-3.53,1.37,5.83,5.83,0,0,1-3-.86L10,22.9v1.16l5.12,3.11a5.25,5.25,0,0,0,2.72.77A4.48,4.48,0,0,0,21,26.73a2.74,2.74,0,0,0,.93-2v-.08A4.17,4.17,0,0,1,21.36,25.31Z"/><path class="cls-8" d="M25.4,15.4a.94.94,0,0,1-.1.1,6.4,6.4,0,0,1-.5.41,6.16,6.16,0,0,1-.55.33,4.69,4.69,0,0,1-1.23.41,3.71,3.71,0,0,1-.67.07l.06.23a2.75,2.75,0,0,1,.05.57V18h0a3.93,3.93,0,0,0,1.81-.56,4.11,4.11,0,0,0,.63-.49l.11-.11a3.75,3.75,0,0,0,.37-.44,3.39,3.39,0,0,0,.3-.51,2.51,2.51,0,0,0,.2-.77,1.09,1.09,0,0,0,0-.18v-.1l-.11.15A3.86,3.86,0,0,1,25.4,15.4Z"/><path class="cls-8" d="M25.4,19.07l-.1.1a4.43,4.43,0,0,1-2.84,1.22h0v1.26h0a3.83,3.83,0,0,0,2.44-1.06,3.29,3.29,0,0,0,.78-1.06,2.37,2.37,0,0,0,.2-.77,1.09,1.09,0,0,0,0-.18v-.1l-.11.15A3.86,3.86,0,0,1,25.4,19.07Z"/><path class="cls-8" d="M25.4,17.24a.47.47,0,0,0-.1.1,4.61,4.61,0,0,1-.5.4,4.23,4.23,0,0,1-2.34.81h0v1.26h0a3.82,3.82,0,0,0,2.44-1,1.14,1.14,0,0,1,.11-.11c.14-.15.26-.3.37-.44a3.39,3.39,0,0,0,.3-.51,2.49,2.49,0,0,0,.2-.78,1,1,0,0,0,0-.17v-.11a.91.91,0,0,1-.11.16A5,5,0,0,1,25.4,17.24Z"/><path class="cls-8" d="M24.21,10.7,19.34,7.75l-5.66,5.43L10,16.71l5.12,3.11a5.25,5.25,0,0,0,2.72.77A4.48,4.48,0,0,0,21,19.38a2.32,2.32,0,0,0,.64-2.91,1.8,1.8,0,0,0-.32-.42,4.7,4.7,0,0,0,.91.1h0a4.1,4.1,0,0,0,1.46-.27,5,5,0,0,0,.61-.31,4.11,4.11,0,0,0,.63-.49A1.14,1.14,0,0,0,25,15a3,3,0,0,0,.37-.44,2.88,2.88,0,0,0,.3-.5,2.25,2.25,0,0,0,.2-.78A2.84,2.84,0,0,0,24.21,10.7Zm-4.68,7.69a3,3,0,0,1-3.57.28l-3.54-2.15,3.18-3,3.6,2.19A1.56,1.56,0,0,1,19.53,18.39Zm3.89-4.23a2.85,2.85,0,0,1-3.47.36l-3.33-2,3-2.91,3.26,2C24.15,12.31,24.31,13.31,23.42,14.16Z"/><path class="cls-8" d="M21.36,23.47a5.05,5.05,0,0,1-3.53,1.37,5.74,5.74,0,0,1-3-.86L10,21.06v1.16l5.12,3.11a5.25,5.25,0,0,0,2.72.77A4.48,4.48,0,0,0,21,24.89a2.74,2.74,0,0,0,.93-1.95v-.09A3.36,3.36,0,0,1,21.36,23.47Z"/><path class="cls-8" d="M21.36,21.63A5.06,5.06,0,0,1,17.83,23a5.83,5.83,0,0,1-3-.86L10,19.22v1.17l5.12,3.1a5.26,5.26,0,0,0,2.72.78A4.53,4.53,0,0,0,21,23.06a2.76,2.76,0,0,0,.93-2V21A3.66,3.66,0,0,1,21.36,21.63Z"/><path class="cls-8" d="M21.36,19.8a5.1,5.1,0,0,1-3.53,1.37,5.83,5.83,0,0,1-3-.86L10,17.39v1.16l5.12,3.11a5.25,5.25,0,0,0,2.72.77A4.53,4.53,0,0,0,21,21.22a2.74,2.74,0,0,0,.93-2v-.08A4.88,4.88,0,0,1,21.36,19.8Z"/><path class="cls-8" d="M25.3,21a4.43,4.43,0,0,1-2.84,1.22h0v1.26a3.88,3.88,0,0,0,2.44-1.06,2.77,2.77,0,0,0,1-2v-.1A4.16,4.16,0,0,1,25.3,21Z"/><path class="cls-8" d="M21.36,25.31a5.1,5.1,0,0,1-3.53,1.37,5.83,5.83,0,0,1-3-.86L10,22.9v1.16l5.12,3.11a5.25,5.25,0,0,0,2.72.77A4.48,4.48,0,0,0,21,26.73a2.74,2.74,0,0,0,.93-2v-.08A4.17,4.17,0,0,1,21.36,25.31Z"/><path class="cls-8" d="M25.4,15.4a.94.94,0,0,1-.1.1,6.4,6.4,0,0,1-.5.41,6.16,6.16,0,0,1-.55.33,4.69,4.69,0,0,1-1.23.41,3.71,3.71,0,0,1-.67.07l.06.23a2.75,2.75,0,0,1,.05.57V18h0a3.93,3.93,0,0,0,1.81-.56,4.11,4.11,0,0,0,.63-.49l.11-.11a3.75,3.75,0,0,0,.37-.44,3.39,3.39,0,0,0,.3-.51,2.51,2.51,0,0,0,.2-.77,1.09,1.09,0,0,0,0-.18v-.1l-.11.15A3.86,3.86,0,0,1,25.4,15.4Z"/><path class="cls-8" d="M25.4,19.07l-.1.1a4.43,4.43,0,0,1-2.84,1.22h0v1.26h0a3.83,3.83,0,0,0,2.44-1.06,3.29,3.29,0,0,0,.78-1.06,2.37,2.37,0,0,0,.2-.77,1.09,1.09,0,0,0,0-.18v-.1l-.11.15A3.86,3.86,0,0,1,25.4,19.07Z"/><path class="cls-8" d="M25.4,17.24a.47.47,0,0,0-.1.1,4.61,4.61,0,0,1-.5.4,4.23,4.23,0,0,1-2.34.81h0v1.26h0a3.82,3.82,0,0,0,2.44-1,1.14,1.14,0,0,1,.11-.11c.14-.15.26-.3.37-.44a3.39,3.39,0,0,0,.3-.51,2.49,2.49,0,0,0,.2-.78,1,1,0,0,0,0-.17v-.11a.91.91,0,0,1-.11.16A5,5,0,0,1,25.4,17.24Z"/></svg>