<svg id="Layer_1" data-name="Layer 1" xmlns="http://www.w3.org/2000/svg" viewBox="0 0 330.12 106.42"><defs><style>.cls-1,.cls-11,.cls-14,.cls-15,.cls-4{fill:#44378a;}.cls-1,.cls-13,.cls-2,.cls-3,.cls-4,.cls-5,.cls-6{stroke:#44378a;}.cls-1,.cls-13,.cls-15,.cls-2,.cls-3{stroke-linejoin:round;}.cls-1,.cls-3,.cls-4{stroke-width:0.5px;}.cls-12,.cls-13,.cls-2,.cls-3,.cls-6{fill:#e9fffb;}.cls-10,.cls-11,.cls-13,.cls-15,.cls-2,.cls-5,.cls-6,.cls-7,.cls-8,.cls-9{stroke-width:0.5px;}.cls-10,.cls-11,.cls-4,.cls-5,.cls-6,.cls-7,.cls-8,.cls-9{stroke-miterlimit:10;}.cls-5{fill:none;}.cls-7{fill:#c8d7e4;stroke:#655fa1;}.cls-8{fill:#a7afce;stroke:#8687b7;}.cls-9{fill:#8687b7;stroke:#a7afce;}.cls-10{fill:#655fa1;stroke:#c8d7e4;}.cls-11,.cls-15{stroke:#e9fffb;}.cls-13{stroke-linecap:round;}.cls-15{opacity:0.25;}</style></defs><polygon class="cls-1" points="104.47 35.43 78.42 50.47 52.36 35.43 78.42 20.39 104.47 35.43"/><polygon class="cls-1" points="78.42 80.56 52.36 65.52 52.36 35.43 78.42 50.47 78.42 80.56"/><polygon class="cls-1" points="78.42 80.56 104.47 65.52 104.47 35.43 78.42 50.47 78.42 80.56"/><path class="cls-2" d="M97.62,39.38,83,47.84a9.15,9.15,0,0,1-9.14,0L59.21,39.38a4.57,4.57,0,0,1,0-7.91L73.85,23A9.13,9.13,0,0,1,83,23l14.64,8.45A4.56,4.56,0,0,1,97.62,39.38Z"/><path class="cls-2" d="M97.62,34.06,83,42.51a9.15,9.15,0,0,1-9.14,0L59.21,34.06a4.57,4.57,0,0,1,0-7.91L73.85,17.7a9.13,9.13,0,0,1,9.13,0l14.64,8.45A4.56,4.56,0,0,1,97.62,34.06Z"/><path class="cls-2" d="M97.62,28,83,36.45a9.1,9.1,0,0,1-9.14,0L59.21,28a4.57,4.57,0,0,1,0-7.91l14.64-8.45a9.13,9.13,0,0,1,9.13,0l14.64,8.45A4.56,4.56,0,0,1,97.62,28Z"/><path class="cls-2" d="M97.62,21.72,83,30.18a9.15,9.15,0,0,1-9.14,0L59.21,21.73a4.57,4.57,0,0,1,0-7.91L73.85,5.36a9.13,9.13,0,0,1,9.13,0l14.64,8.46A4.55,4.55,0,0,1,97.62,21.72Z"/><path class="cls-3" d="M71.57,76.61,56.93,68.15a9.12,9.12,0,0,1-4.57-7.91V43.34a4.57,4.57,0,0,1,6.85-4l14.64,8.46a9.12,9.12,0,0,1,4.57,7.91v16.9A4.57,4.57,0,0,1,71.57,76.61Z"/><path class="cls-2" d="M85.27,76.61l14.64-8.46a9.13,9.13,0,0,0,4.56-7.91V43.34a4.57,4.57,0,0,0-6.85-4L83,47.84a9.13,9.13,0,0,0-4.56,7.91v16.9A4.57,4.57,0,0,0,85.27,76.61Z"/><path class="cls-4" d="M94.38,57.16a5.72,5.72,0,0,1-3.29,4.6c-1.45.65-2.59-.88-2.58-2.93a5.72,5.72,0,0,1,3.29-4.6C93.25,53.58,94.39,55.11,94.38,57.16Z"/><polygon class="cls-1" points="52.36 35.44 26.31 50.48 0.25 35.44 26.31 20.4 52.36 35.44"/><polygon class="cls-1" points="26.31 80.57 0.25 65.53 0.25 35.44 26.31 50.48 26.31 80.57"/><polygon class="cls-1" points="26.3 80.57 52.36 65.53 52.36 35.44 26.31 50.48 26.3 80.57"/><path class="cls-2" d="M45.51,39.39,30.87,47.85a9.13,9.13,0,0,1-9.13,0L7.1,39.39a4.57,4.57,0,0,1,0-7.91L21.74,23a9.13,9.13,0,0,1,9.13,0l14.64,8.45A4.56,4.56,0,0,1,45.51,39.39Z"/><path class="cls-2" d="M45.51,34.07,30.87,42.52a9.09,9.09,0,0,1-9.13,0L7.1,34.07a4.57,4.57,0,0,1,0-7.91l14.64-8.45a9.13,9.13,0,0,1,9.13,0l14.64,8.45A4.56,4.56,0,0,1,45.51,34.07Z"/><path class="cls-2" d="M45.51,28,30.87,36.46a9.11,9.11,0,0,1-9.13,0L7.1,28a4.57,4.57,0,0,1,0-7.91l14.64-8.45a9.13,9.13,0,0,1,9.13,0L45.51,20.1A4.56,4.56,0,0,1,45.51,28Z"/><path class="cls-2" d="M19.46,76.62,4.82,68.16A9.12,9.12,0,0,1,.25,60.25V43.35a4.57,4.57,0,0,1,6.85-4l14.64,8.46a9.12,9.12,0,0,1,4.57,7.91v16.9A4.57,4.57,0,0,1,19.46,76.62Z"/><path class="cls-3" d="M33.16,76.62,47.8,68.16a9.13,9.13,0,0,0,4.56-7.91V43.35a4.57,4.57,0,0,0-6.85-4L30.87,47.85a9.13,9.13,0,0,0-4.56,7.91v16.9A4.57,4.57,0,0,0,33.16,76.62Z"/><path class="cls-4" d="M42.27,57.17A5.72,5.72,0,0,1,39,61.77c-1.45.65-2.59-.87-2.58-2.93a5.7,5.7,0,0,1,3.29-4.6C41.14,53.59,42.28,55.12,42.27,57.17Z"/><polygon class="cls-1" points="78.42 50.47 52.36 65.52 26.31 50.47 52.36 35.43 78.42 50.47"/><polygon class="cls-1" points="52.36 95.6 26.31 80.56 26.31 50.47 52.36 65.52 52.36 95.6"/><polygon class="cls-1" points="52.36 95.6 78.42 80.56 78.42 50.47 52.36 65.52 52.36 95.6"/><path class="cls-2" d="M71.57,54.43,56.93,62.88a9.13,9.13,0,0,1-9.13,0L33.16,54.43a4.56,4.56,0,0,1,0-7.91L47.8,38.07a9.09,9.09,0,0,1,9.13,0l14.64,8.45A4.57,4.57,0,0,1,71.57,54.43Z"/><path class="cls-2" d="M71.57,49.1,56.93,57.56a9.13,9.13,0,0,1-9.13,0L33.16,49.1a4.56,4.56,0,0,1,0-7.91L47.8,32.74a9.13,9.13,0,0,1,9.13,0l14.64,8.45A4.57,4.57,0,0,1,71.57,49.1Z"/><path class="cls-2" d="M45.51,91.65,30.87,83.2a9.14,9.14,0,0,1-4.56-7.91V58.38a4.56,4.56,0,0,1,6.85-4L47.8,62.88a9.14,9.14,0,0,1,4.56,7.91v16.9A4.57,4.57,0,0,1,45.51,91.65Z"/><path class="cls-2" d="M59.21,91.65,73.85,83.2a9.13,9.13,0,0,0,4.57-7.91V58.38a4.57,4.57,0,0,0-6.85-4L56.93,62.88a9.13,9.13,0,0,0-4.57,7.91v16.9A4.57,4.57,0,0,0,59.21,91.65Z"/><path class="cls-4" d="M68.32,72.21A5.72,5.72,0,0,1,65,76.81c-1.45.64-2.6-.88-2.58-2.94a5.71,5.71,0,0,1,3.28-4.6C67.19,68.63,68.34,70.15,68.32,72.21Z"/><line class="cls-5" x1="91.45" y1="56.49" x2="228.4" y2="31.07"/><line class="cls-5" x1="91.45" y1="58" x2="228.4" y2="32.58"/><line class="cls-5" x1="91.45" y1="59.5" x2="228.4" y2="34.08"/><line class="cls-5" x1="91.45" y1="56.49" x2="125.36" y2="30.82"/><line class="cls-5" x1="91.45" y1="58" x2="125.36" y2="32.32"/><line class="cls-5" x1="91.45" y1="59.5" x2="125.36" y2="33.83"/><line class="cls-5" x1="65.35" y1="71.85" x2="125.36" y2="73.79"/><line class="cls-5" x1="65.35" y1="73.35" x2="125.36" y2="75.29"/><line class="cls-5" x1="65.35" y1="74.86" x2="125.36" y2="76.79"/><line class="cls-5" x1="65.35" y1="71.85" x2="228.52" y2="39.09"/><line class="cls-5" x1="65.35" y1="73.35" x2="228.52" y2="40.59"/><line class="cls-5" x1="65.35" y1="74.86" x2="228.52" y2="42.09"/><path class="cls-6" d="M235,80.53l39.29-22.68a8.63,8.63,0,0,0,4.31-7.48V5a4.32,4.32,0,0,0-6.47-3.74L232.81,24a8.65,8.65,0,0,0-4.31,7.48V76.79A4.31,4.31,0,0,0,235,80.53Z"/><path class="cls-7" d="M240.09,83.41l39.29-22.68a8.63,8.63,0,0,0,4.32-7.48V7.89a4.32,4.32,0,0,0-6.48-3.74L237.94,26.83a8.65,8.65,0,0,0-4.32,7.48V79.67A4.32,4.32,0,0,0,240.09,83.41Z"/><path class="cls-8" d="M245.94,86.29l39.28-22.68a8.65,8.65,0,0,0,4.32-7.48V10.77A4.32,4.32,0,0,0,283.07,7L243.78,29.71a8.63,8.63,0,0,0-4.31,7.48V82.55A4.31,4.31,0,0,0,245.94,86.29Z"/><path class="cls-9" d="M251.78,89.17l39.29-22.68A8.65,8.65,0,0,0,295.38,59V13.65a4.31,4.31,0,0,0-6.47-3.74L249.63,32.59a8.61,8.61,0,0,0-4.32,7.48V85.43A4.32,4.32,0,0,0,251.78,89.17Z"/><path class="cls-10" d="M258.35,92.05l39.28-22.68A8.66,8.66,0,0,0,302,61.89V16.53a4.31,4.31,0,0,0-6.47-3.74L256.19,35.47A8.63,8.63,0,0,0,251.87,43V88.31A4.32,4.32,0,0,0,258.35,92.05Z"/><path class="cls-11" d="M264.91,94.93,304.2,72.24a8.62,8.62,0,0,0,4.31-7.47V19.41A4.31,4.31,0,0,0,302,15.67L262.75,38.35a8.63,8.63,0,0,0-4.31,7.48V91.19A4.32,4.32,0,0,0,264.91,94.93Z"/><path class="cls-12" d="M273.44,39.28c6.17-4.06,9.5,5.94,9.52,16.21,0,9.32-1.62,22.06-9.52,27.27-6.18,4.09-9.49-6.08-9.51-16.28C263.91,57.18,265.52,44.49,273.44,39.28Zm0,4.67c-4.74,2.73-6.34,12.31-6.34,20.7s1.6,16.18,6.34,13.44,6.35-12.37,6.35-20.76S278.18,41.21,273.44,44Z"/><path class="cls-12" d="M284.49,71.46C290.07,60.93,297.83,49,298.3,37.3c.21-5.15-2.61-6.2-5.19-4.71-3,1.72-5.29,5.21-6.75,9.2l-1.9-2.24c1.9-5.33,5.15-9.6,8.65-11.63,4.15-2.39,8.56-.64,8.36,7.54-.27,11.33-6.69,22.7-12.09,32.67l12.21-7v4.67l-17.1,9.86Z"/><path class="cls-6" d="M131.83,80l39-22.53a8.6,8.6,0,0,0,4.29-7.43V5a4.29,4.29,0,0,0-6.43-3.72l-39,22.54a8.58,8.58,0,0,0-4.29,7.42V76.29A4.29,4.29,0,0,0,131.83,80Z"/><path class="cls-7" d="M136.92,82.87l39-22.53a8.6,8.6,0,0,0,4.29-7.43V7.85a4.29,4.29,0,0,0-6.43-3.72l-39,22.54a8.58,8.58,0,0,0-4.29,7.42V79.16A4.29,4.29,0,0,0,136.92,82.87Z"/><path class="cls-8" d="M142.73,85.73l39-22.53A8.6,8.6,0,0,0,186,55.77V10.71A4.29,4.29,0,0,0,179.61,7l-39,22.53A8.56,8.56,0,0,0,136.3,37V82A4.29,4.29,0,0,0,142.73,85.73Z"/><path class="cls-9" d="M148.54,88.59l39-22.53a8.6,8.6,0,0,0,4.29-7.43V13.57a4.29,4.29,0,0,0-6.43-3.71l-39,22.53a8.57,8.57,0,0,0-4.28,7.42V84.88A4.29,4.29,0,0,0,148.54,88.59Z"/><path class="cls-10" d="M155.06,91.45l39-22.53a8.57,8.57,0,0,0,4.29-7.43V16.43a4.29,4.29,0,0,0-6.43-3.71l-39,22.53a8.57,8.57,0,0,0-4.28,7.42V87.74A4.29,4.29,0,0,0,155.06,91.45Z"/><path class="cls-11" d="M161.59,95l39-22.53a8.58,8.58,0,0,0,4.29-7.42V20a4.29,4.29,0,0,0-6.43-3.71l-39,22.53a8.58,8.58,0,0,0-4.29,7.43V91.31A4.29,4.29,0,0,0,161.59,95Z"/><path class="cls-12" d="M172.65,39.62c8.13-5.07,12,4.4,12,14.61,0,10.4-3,22.94-12,28.58-8.16,5.11-12-4.52-12-14.67C160.61,57.74,163.6,45.26,172.65,39.62Zm0,4.64c-6,3.46-8,13.22-8,21.56s2,15.82,8,12.35,8-13.28,8-21.62S178.64,40.8,172.65,44.26Z"/><path class="cls-12" d="M194.1,34.76l-5,10-2.36-1.84,7.88-15.33,3.45-2V67.41l-3.92,2.27Z"/><path class="cls-2" d="M198.08,56.13h0c-1-.54-1.88-1.53-1.55-2.65h0c.49-1.53,2.37-1.57,4.29-.47l11.7,6.69c3.6,2.06,5.82,3.86,5.84,8v0l0,5.62a4.53,4.53,0,0,1-6.78,4l-10.7-6.13h0a2.59,2.59,0,0,1,0-4.51h0a2.6,2.6,0,0,1,0-4.52h0l0,0a2.5,2.5,0,0,1,0-4.38Z"/><line class="cls-3" x1="200.85" y1="57.72" x2="206.69" y2="61.06"/><line class="cls-3" x1="200.87" y1="62.13" x2="206.7" y2="65.47"/><line class="cls-3" x1="200.88" y1="66.64" x2="206.72" y2="69.98"/><path class="cls-2" d="M304.71,53l11.7,6.69c3.6,2.06,5.83,3.85,5.84,8l0,5.62a4.53,4.53,0,0,1-6.78,4l-10.7-6.13h0a2.6,2.6,0,0,1,0-4.51h0a2.59,2.59,0,0,1,0-4.52h0l-4.27-2.54c-2.34-1.31-1-4.69,1.48-3.44h0c-1-.54-1.88-1.53-1.55-2.65h0C300.91,52,302.8,51.93,304.71,53Z"/><line class="cls-3" x1="301.97" y1="56.15" x2="310.58" y2="61.06"/><line class="cls-3" x1="304.77" y1="66.64" x2="310.61" y2="69.98"/><line class="cls-3" x1="304.47" y1="61.96" x2="310.61" y2="65.52"/><polygon class="cls-13" points="208.9 10.39 228.94 17.86 229.96 0.62 209.17 5.67 208.9 10.39"/><ellipse class="cls-13" cx="229.45" cy="9.24" rx="8.63" ry="2.61" transform="translate(206.69 237.75) rotate(-86.62)"/><rect class="cls-13" x="202.94" y="4.57" width="4.72" height="18.04" rx="2.36" transform="translate(42.48 -112.19) rotate(33.9)"/><circle class="cls-13" cx="209.03" cy="8.03" r="2.36"/><polygon class="cls-13" points="272.14 99.17 291.07 89.19 294.29 106.15 273.02 103.8 272.14 99.17"/><ellipse class="cls-13" cx="292.68" cy="97.67" rx="2.61" ry="8.63" transform="translate(-13.08 56.28) rotate(-10.75)"/><rect class="cls-13" x="265.8" y="87.43" width="4.72" height="18.04" rx="2.36" transform="translate(2.97 200.8) rotate(-41.26)"/><circle class="cls-13" cx="272.58" cy="101.48" r="2.36"/><path class="cls-6" d="M304.74,47.85l13-13.2,12.17,13.2V4.23a4,4,0,0,0-4-4H308.71a4,4,0,0,0-4,4Z"/><path class="cls-14" d="M320.72,23.47a5,5,0,0,1-3.53,1.37,5.76,5.76,0,0,1-3-.86l-4.82-2.92v1.16l5.12,3.11a5.28,5.28,0,0,0,2.72.77,4.47,4.47,0,0,0,3.13-1.21,2.7,2.7,0,0,0,.93-1.95v-.09A3.87,3.87,0,0,1,320.72,23.47Z"/><path class="cls-14" d="M320.72,21.63A5,5,0,0,1,317.19,23a5.86,5.86,0,0,1-3-.86l-4.82-2.93v1.17l5.12,3.1a5.29,5.29,0,0,0,2.72.78,4.51,4.51,0,0,0,3.13-1.21,2.72,2.72,0,0,0,.93-2V21A4.29,4.29,0,0,1,320.72,21.63Z"/><path class="cls-14" d="M320.72,19.8a5.06,5.06,0,0,1-3.53,1.37,5.86,5.86,0,0,1-3-.86l-4.82-2.92v1.16l5.12,3.11a5.28,5.28,0,0,0,2.72.77,4.51,4.51,0,0,0,3.13-1.21,2.71,2.71,0,0,0,.93-2v-.08A5,5,0,0,1,320.72,19.8Z"/><path class="cls-14" d="M324.66,21a4.43,4.43,0,0,1-2.83,1.22h0v1.26a3.88,3.88,0,0,0,2.44-1.06,2.79,2.79,0,0,0,1-2v-.1A3.73,3.73,0,0,1,324.66,21Z"/><path class="cls-14" d="M320.72,25.31a5.06,5.06,0,0,1-3.53,1.37,5.86,5.86,0,0,1-3-.86l-4.82-2.92v1.16l5.12,3.11a5.28,5.28,0,0,0,2.72.77,4.47,4.47,0,0,0,3.13-1.21,2.71,2.71,0,0,0,.93-2v-.08A5,5,0,0,1,320.72,25.31Z"/><path class="cls-14" d="M324.76,15.4a.47.47,0,0,1-.1.1,4,4,0,0,1-.5.41,4.24,4.24,0,0,1-1.78.74,3.71,3.71,0,0,1-.67.07,1.12,1.12,0,0,1,.06.23,2.76,2.76,0,0,1,.06.57V18h0a3.79,3.79,0,0,0,1.19-.26,3.45,3.45,0,0,0,.61-.3,3.75,3.75,0,0,0,.64-.49l.1-.11a3.86,3.86,0,0,0,.38-.44,3.3,3.3,0,0,0,.29-.51,2.28,2.28,0,0,0,.21-.77,1.08,1.08,0,0,0,0-.18v-.1a1.3,1.3,0,0,1-.1.15A5.34,5.34,0,0,1,324.76,15.4Z"/><path class="cls-14" d="M324.76,19.07a.47.47,0,0,1-.1.1,4.43,4.43,0,0,1-2.83,1.22h0v1.26h0a3.83,3.83,0,0,0,2.44-1.06,3.26,3.26,0,0,0,.77-1.06,2.16,2.16,0,0,0,.21-.77,1.08,1.08,0,0,0,0-.18v-.1a1.3,1.3,0,0,1-.1.15A5.34,5.34,0,0,1,324.76,19.07Z"/><path class="cls-14" d="M324.76,17.24l-.1.1a3.25,3.25,0,0,1-.5.4,3.77,3.77,0,0,1-.54.34,4.57,4.57,0,0,1-1.79.47h0v1.26h0a3.82,3.82,0,0,0,2.44-1l.1-.11c.14-.15.27-.3.38-.44a3.3,3.3,0,0,0,.29-.51,2.27,2.27,0,0,0,.21-.78,1,1,0,0,0,0-.17v-.11a.86.86,0,0,1-.1.16C325,17,324.9,17.09,324.76,17.24Z"/><path class="cls-14" d="M323.57,10.7l-4.86-2.95L313,13.18l-3.69,3.53,5.12,3.11a5.28,5.28,0,0,0,2.72.77,4.47,4.47,0,0,0,3.13-1.21,2.33,2.33,0,0,0,.65-2.91,2.12,2.12,0,0,0-.32-.42,4.53,4.53,0,0,0,.91.1h0a4.06,4.06,0,0,0,1.46-.27,4.37,4.37,0,0,0,.61-.31,3.75,3.75,0,0,0,.64-.49l.1-.11a3.07,3.07,0,0,0,.38-.44A2.32,2.32,0,0,0,325,14a2.27,2.27,0,0,0,.21-.78A2.84,2.84,0,0,0,323.57,10.7Zm-4.68,7.69a2.94,2.94,0,0,1-3.56.28l-3.55-2.15,3.18-3,3.6,2.19A1.56,1.56,0,0,1,318.89,18.39Zm3.9-4.23a2.87,2.87,0,0,1-3.48.36l-3.33-2,3-2.91,3.27,2C323.51,12.31,323.67,13.31,322.79,14.16Z"/><path class="cls-14" d="M320.72,23.47a5,5,0,0,1-3.53,1.37,5.76,5.76,0,0,1-3-.86l-4.82-2.92v1.16l5.12,3.11a5.28,5.28,0,0,0,2.72.77,4.47,4.47,0,0,0,3.13-1.21,2.7,2.7,0,0,0,.93-1.95v-.09A3.87,3.87,0,0,1,320.72,23.47Z"/><path class="cls-14" d="M320.72,21.63A5,5,0,0,1,317.19,23a5.86,5.86,0,0,1-3-.86l-4.82-2.93v1.17l5.12,3.1a5.29,5.29,0,0,0,2.72.78,4.51,4.51,0,0,0,3.13-1.21,2.72,2.72,0,0,0,.93-2V21A4.29,4.29,0,0,1,320.72,21.63Z"/><path class="cls-14" d="M320.72,19.8a5.06,5.06,0,0,1-3.53,1.37,5.86,5.86,0,0,1-3-.86l-4.82-2.92v1.16l5.12,3.11a5.28,5.28,0,0,0,2.72.77,4.51,4.51,0,0,0,3.13-1.21,2.71,2.71,0,0,0,.93-2v-.08A5,5,0,0,1,320.72,19.8Z"/><path class="cls-14" d="M324.66,21a4.43,4.43,0,0,1-2.83,1.22h0v1.26a3.88,3.88,0,0,0,2.44-1.06,2.79,2.79,0,0,0,1-2v-.1A3.73,3.73,0,0,1,324.66,21Z"/><path class="cls-14" d="M320.72,25.31a5.06,5.06,0,0,1-3.53,1.37,5.86,5.86,0,0,1-3-.86l-4.82-2.92v1.16l5.12,3.11a5.28,5.28,0,0,0,2.72.77,4.47,4.47,0,0,0,3.13-1.21,2.71,2.71,0,0,0,.93-2v-.08A5,5,0,0,1,320.72,25.31Z"/><path class="cls-14" d="M324.76,15.4a.47.47,0,0,1-.1.1,4,4,0,0,1-.5.41,4.24,4.24,0,0,1-1.78.74,3.71,3.71,0,0,1-.67.07,1.12,1.12,0,0,1,.06.23,2.76,2.76,0,0,1,.06.57V18h0a3.79,3.79,0,0,0,1.19-.26,3.45,3.45,0,0,0,.61-.3,3.75,3.75,0,0,0,.64-.49l.1-.11a3.86,3.86,0,0,0,.38-.44,3.3,3.3,0,0,0,.29-.51,2.28,2.28,0,0,0,.21-.77,1.08,1.08,0,0,0,0-.18v-.1a1.3,1.3,0,0,1-.1.15A5.34,5.34,0,0,1,324.76,15.4Z"/><path class="cls-14" d="M324.76,19.07a.47.47,0,0,1-.1.1,4.43,4.43,0,0,1-2.83,1.22h0v1.26h0a3.83,3.83,0,0,0,2.44-1.06,3.26,3.26,0,0,0,.77-1.06,2.16,2.16,0,0,0,.21-.77,1.08,1.08,0,0,0,0-.18v-.1a1.3,1.3,0,0,1-.1.15A5.34,5.34,0,0,1,324.76,19.07Z"/><path class="cls-14" d="M324.76,17.24l-.1.1a3.25,3.25,0,0,1-.5.4,3.77,3.77,0,0,1-.54.34,4.57,4.57,0,0,1-1.79.47h0v1.26h0a3.82,3.82,0,0,0,2.44-1l.1-.11c.14-.15.27-.3.38-.44a3.3,3.3,0,0,0,.29-.51,2.27,2.27,0,0,0,.21-.78,1,1,0,0,0,0-.17v-.11a.86.86,0,0,1-.1.16C325,17,324.9,17.09,324.76,17.24Z"/><path class="cls-15" d="M78.42.48h0A26.06,26.06,0,0,0,52.36,26.54v8.89L73.85,47.84a9.15,9.15,0,0,0,9.14,0l21.49-12.41V26.54A26.06,26.06,0,0,0,78.42.48Z"/><path class="cls-15" d="M26.31.49h0A26.06,26.06,0,0,0,.25,26.55v8.89L21.74,47.85a9.15,9.15,0,0,0,9.14,0L52.36,35.44V26.55A26.05,26.05,0,0,0,26.31.49Z"/><path class="cls-15" d="M52.36,15.53h0a26,26,0,0,0-26,26.05v8.89L47.8,62.88a9.13,9.13,0,0,0,9.13,0L78.42,50.47V41.58A26.05,26.05,0,0,0,52.36,15.53Z"/></svg>