<svg id="Layer_1" data-name="Layer 1" xmlns="http://www.w3.org/2000/svg" viewBox="0 0 50.27 135.73"><defs><style>.cls-1{fill:#e9fffb;stroke:#44378a;stroke-linejoin:round;stroke-width:0.5px;}</style></defs><path class="cls-1" d="M35.8.25s-6.55,2.17-9,7.44S27,19.35,27,19.35Z"/><path class="cls-1" d="M27,19.35s6.55-2.17,9-7.44S35.8.25,35.8.25Z"/><path class="cls-1" d="M7.85,10.67S14.22,8,19.51,10.41,27,19.33,27,19.33Z"/><path class="cls-1" d="M27,19.33s-6.37,2.65-11.66.26-7.52-8.92-7.52-8.92Z"/><path class="cls-1" d="M46.35,28.53s-6.54,2.16-9,7.44.16,11.66.16,11.66Z"/><path class="cls-1" d="M37.53,47.63s6.55-2.17,9-7.44-.16-11.66-.16-11.66Z"/><path class="cls-1" d="M18.41,39s6.36-2.65,11.65-.26,7.52,8.92,7.52,8.92Z"/><path class="cls-1" d="M37.58,47.61s-6.37,2.65-11.66.26S18.41,39,18.41,39Z"/><path class="cls-1" d="M.25,112.69s6.89-.26,11,3.83,3.93,11,3.93,11Z"/><path class="cls-1" d="M15.19,127.5s-6.89.26-11-3.83-3.93-11-3.93-11Z"/><path class="cls-1" d="M35.44,133s-3.21-6.1-8.81-7.63-11.48,2.08-11.48,2.08Z"/><path class="cls-1" d="M15.15,127.47s3.22,6.1,8.82,7.63S35.44,133,35.44,133Z"/><path class="cls-1" d="M44.82,118.92s-4.68-5-10.49-5.08-10.54,5-10.54,5Z"/><path class="cls-1" d="M23.79,118.83s4.69,5.06,10.5,5.08,10.53-5,10.53-5Z"/><path class="cls-1" d="M8.89,104.05s6.89-.25,11,3.84,3.92,11,3.92,11Z"/><path class="cls-1" d="M23.82,118.86s-6.88.26-11-3.83-3.92-11-3.92-11Z"/><path class="cls-1" d="M41.07,14.39s-6.54,2.16-9,7.44.16,11.66.16,11.66Z"/><path class="cls-1" d="M32.26,33.49s6.54-2.17,9-7.44-.17-11.66-.17-11.66Z"/><path class="cls-1" d="M13.13,24.81s6.36-2.65,11.66-.26,7.51,8.92,7.51,8.92Z"/><path class="cls-1" d="M32.3,33.47s-6.36,2.65-11.66.26-7.51-8.92-7.51-8.92Z"/><path class="cls-1" d="M47.69,96.56S40.83,96,36.5,99.82,32,110.59,32,110.59Z"/><path class="cls-1" d="M32,110.59s6.87.61,11.2-3.26,4.48-10.77,4.48-10.77Z"/><path class="cls-1" d="M17.91,95s6.89.09,10.8,4.39,3.35,11.17,3.35,11.17Z"/><path class="cls-1" d="M32.06,110.59s-6.89-.1-10.8-4.39S17.91,95,17.91,95Z"/><path class="cls-1" d="M50,51.35s-6.87-.61-11.2,3.26-4.48,10.76-4.48,10.76Z"/><path class="cls-1" d="M34.34,65.37s6.87.62,11.2-3.26S50,51.35,50,51.35Z"/><path class="cls-1" d="M20.23,49.81s6.9.1,10.8,4.4,3.36,11.16,3.36,11.16Z"/><path class="cls-1" d="M34.39,65.37S27.5,65.28,23.59,61s-3.36-11.17-3.36-11.17Z"/><path class="cls-1" d="M48.47,81.49s-6.87-.61-11.2,3.26-4.48,10.77-4.48,10.77Z"/><path class="cls-1" d="M32.79,95.52s6.86.61,11.19-3.26,4.49-10.77,4.49-10.77Z"/><path class="cls-1" d="M18.68,80s6.89.09,10.8,4.39,3.36,11.17,3.36,11.17Z"/><path class="cls-1" d="M32.84,95.52s-6.9-.1-10.8-4.4S18.68,80,18.68,80Z"/><path class="cls-1" d="M49.24,66.42s-6.86-.61-11.19,3.26-4.49,10.76-4.49,10.76Z"/><path class="cls-1" d="M33.56,80.44s6.87.62,11.2-3.26,4.48-10.76,4.48-10.76Z"/><path class="cls-1" d="M19.46,64.89s6.89.09,10.8,4.39,3.35,11.16,3.35,11.16Z"/><path class="cls-1" d="M33.61,80.44s-6.89-.09-10.8-4.39-3.35-11.16-3.35-11.16Z"/></svg>