<svg width="286" height="215" viewBox="0 0 286 215" fill="none" xmlns="http://www.w3.org/2000/svg">
<path d="M186.989 205.294H103.603C97.8267 205.294 93.1388 200.595 93.1388 194.805V27.029C93.1388 21.2387 97.8267 16.54 103.603 16.54H186.989C192.765 16.54 197.453 21.2387 197.453 27.029V194.805C197.453 200.595 192.765 205.294 186.989 205.294Z" fill="#F74D7B"/>
<path d="M198.589 206.931H92.0023C90.6767 206.931 89.6349 205.887 89.6349 204.558V105.364C89.6349 104.035 90.6767 102.991 92.0023 102.991H198.589C199.915 102.991 200.957 104.035 200.957 105.364V204.558C200.957 205.84 199.915 206.931 198.589 206.931Z" fill="#14315D"/>
<path opacity="0.2" d="M120.934 45.729C122.544 43.6406 124.533 40.2709 123.87 38.6573C123.87 38.6573 122.544 40.8879 122.023 40.3185C122.023 40.3185 123.112 38.9895 122.118 37.1383C122.118 37.1383 119.656 39.7964 118.898 39.3693C118.898 39.3693 121.124 36.1891 120.413 32.6296C120.413 32.6296 115.536 35.7146 114.352 35.6197C113.121 35.5248 102.562 38.3251 103.414 42.0744C103.414 42.0744 97.6372 44.6848 99.5788 47.6748C100.1 48.4344 100.857 49.6209 101.709 50.9496C99.6735 53.56 98.4895 56.8348 98.4895 60.3472C98.4895 69.0325 105.829 76.1042 114.921 76.1042C124.012 76.1042 131.351 69.0325 131.351 60.3472C131.398 53.7499 127.042 48.0546 120.934 45.729Z" fill="black"/>
<path d="M116.721 73.1147C124.906 73.1147 131.542 66.4636 131.542 58.2592C131.542 50.0548 124.906 43.4038 116.721 43.4038C108.535 43.4038 101.9 50.0548 101.9 58.2592C101.9 66.4636 108.535 73.1147 116.721 73.1147Z" fill="white"/>
<path d="M167.387 190.486H119.372C116.484 190.486 114.117 188.113 114.117 185.218V182.181C114.117 179.285 116.484 176.912 119.372 176.912H167.387C170.275 176.912 172.642 179.285 172.642 182.181V185.218C172.642 188.161 170.275 190.486 167.387 190.486Z" fill="#F74D7B"/>
<path d="M172.358 56.5504H150.103C148.778 56.5504 147.689 55.4586 147.689 54.1299V51.7094C147.689 50.3803 148.778 49.2888 150.103 49.2888H172.358C173.684 49.2888 174.773 50.3803 174.773 51.7094V54.1299C174.773 55.5063 173.684 56.5504 172.358 56.5504ZM150.103 49.7632C149.014 49.7632 148.162 50.6175 148.162 51.7094V54.1299C148.162 55.2214 149.014 56.0757 150.103 56.0757H172.358C173.447 56.0757 174.3 55.2214 174.3 54.1299V51.7094C174.3 50.6175 173.447 49.7632 172.358 49.7632H150.103Z" fill="#14315D"/>
<path d="M126.191 82.9391H107.25C106.445 82.9391 105.782 82.2747 105.782 81.4677V81.0879C105.782 80.2813 106.445 79.6169 107.25 79.6169H126.191C126.996 79.6169 127.659 80.2813 127.659 81.0879V81.4677C127.659 82.322 126.996 82.9391 126.191 82.9391Z" fill="#14315D"/>
<path d="M170.607 59.8251H151.429C151.051 59.8251 150.719 59.493 150.719 59.1131C150.719 58.7337 151.051 58.4011 151.429 58.4011H170.607C170.985 58.4011 171.317 58.7337 171.317 59.1131C171.317 59.5403 170.985 59.8251 170.607 59.8251Z" fill="#14315D"/>
<path d="M170.607 61.9372H151.429C151.051 61.9372 150.719 61.6047 150.719 61.2252C150.719 60.8454 151.051 60.5132 151.429 60.5132H170.607C170.985 60.5132 171.317 60.8454 171.317 61.2252C171.317 61.6047 170.985 61.9372 170.607 61.9372Z" fill="#14315D"/>
<path d="M131.588 113.599H94.6067C93.8016 113.599 93.1388 112.934 93.1388 112.127V110.751C93.1388 109.944 93.8016 109.28 94.6067 109.28H131.588C132.393 109.28 133.055 109.944 133.055 110.751V112.127C133.055 112.934 132.393 113.599 131.588 113.599Z" fill="#26ABE8"/>
<path d="M138.881 114.833H94.6081C93.6611 114.833 92.9032 114.074 92.9032 113.125V108.948C92.9032 107.999 93.6611 107.24 94.6081 107.24H138.881C139.828 107.24 140.586 107.999 140.586 108.948V113.125C140.586 114.074 139.828 114.833 138.881 114.833ZM94.6081 107.714C93.9449 107.714 93.3769 108.284 93.3769 108.948V113.125C93.3769 113.789 93.9449 114.359 94.6081 114.359H138.881C139.544 114.359 140.112 113.789 140.112 113.125V108.948C140.112 108.284 139.544 107.714 138.881 107.714H94.6081Z" fill="#F74D7B"/>
<path opacity="0.1" d="M164.355 70.9788H156.116L151.996 78.1454L156.116 85.3121H164.355L168.522 78.1454L164.355 70.9788Z" fill="black"/>
<g opacity="0.1">
<path d="M161.373 89.0612H159.148C155.975 89.0612 152.992 87.3527 151.429 84.5999L150.293 82.6538C148.683 79.9011 148.683 76.484 150.293 73.7313L151.429 71.7852C153.04 69.0325 155.975 67.324 159.148 67.324H161.373C164.546 67.324 167.529 69.0325 169.091 71.7852L170.228 73.7313C171.838 76.484 171.838 79.9011 170.228 82.6538L169.091 84.5999C167.482 87.305 164.546 89.0612 161.373 89.0612ZM159.148 67.7984C156.165 67.7984 153.371 69.4123 151.856 72.0224L150.719 73.9685C149.204 76.579 149.204 79.8062 150.719 82.3693L151.856 84.3151C153.371 86.9255 156.117 88.5391 159.148 88.5391H161.373C164.356 88.5391 167.15 86.9255 168.665 84.3151L169.802 82.3693C171.317 79.7589 171.317 76.5313 169.802 73.9685L168.665 72.0224C167.15 69.4123 164.404 67.7984 161.373 67.7984H159.148Z" fill="black"/>
<path d="M163.219 85.7387H161.184C158.295 85.7387 155.596 84.1728 154.128 81.6573L153.134 79.9011C151.666 77.3856 151.666 74.253 153.134 71.7379L154.128 69.9817C155.596 67.4662 158.248 65.8999 161.184 65.8999H163.219C166.108 65.8999 168.807 67.4662 170.275 69.9817L171.269 71.7379C172.737 74.253 172.737 77.3856 171.269 79.9011L170.275 81.6573C168.807 84.1728 166.155 85.7387 163.219 85.7387ZM161.231 66.3747C158.484 66.3747 155.975 67.846 154.602 70.2189L153.607 71.9751C152.234 74.348 152.234 77.2906 153.607 79.6638L154.602 81.4197C155.975 83.7929 158.484 85.2642 161.231 85.2642H163.267C166.013 85.2642 168.523 83.7929 169.896 81.4197L170.89 79.6638C172.264 77.2906 172.264 74.348 170.89 71.9751L169.896 70.2189C168.523 67.846 166.013 66.3747 163.267 66.3747H161.231Z" fill="black"/>
</g>
<path d="M126.191 88.9194H107.25C106.445 88.9194 105.782 88.2547 105.782 87.4481V87.0682C105.782 86.2613 106.445 85.5969 107.25 85.5969H126.191C126.996 85.5969 127.659 86.2613 127.659 87.0682V87.4481C127.659 88.2547 126.996 88.9194 126.191 88.9194Z" fill="#14315D"/>
<path d="M136.228 162.674H94.6067C93.8016 162.674 93.1388 162.009 93.1388 161.203V160.823C93.1388 160.016 93.8016 159.352 94.6067 159.352H136.228C137.033 159.352 137.696 160.016 137.696 160.823V161.203C137.696 162.009 137.033 162.674 136.228 162.674Z" fill="#26ABE8"/>
<path d="M136.228 168.891H94.6067C93.8016 168.891 93.1388 168.227 93.1388 167.42V167.041C93.1388 166.234 93.8016 165.569 94.6067 165.569H136.228C137.033 165.569 137.696 166.234 137.696 167.041V167.42C137.696 168.227 137.033 168.891 136.228 168.891Z" fill="#26ABE8"/>
<path d="M201.004 209.376H89.6345C88.2142 209.376 87.0302 208.189 87.0302 206.765V103.157C87.0302 101.733 88.2142 100.547 89.6345 100.547H200.957C202.378 100.547 203.561 101.733 203.561 103.157V206.813C203.608 208.237 202.425 209.376 201.004 209.376ZM89.6345 101.021C88.4509 101.021 87.5038 101.971 87.5038 103.157V206.813C87.5038 207.999 88.4509 208.948 89.6345 208.948H200.957C202.141 208.948 203.088 207.999 203.088 206.813V103.157C203.088 101.971 202.141 101.021 200.957 101.021H89.6345Z" fill="#1B2D34"/>
<path d="M205.646 99.0276H201.101V103.584H205.646V99.0276Z" fill="#14315D"/>
<path d="M205.646 206.86H201.101V211.417H205.646V206.86Z" fill="#14315D"/>
<path d="M89.5888 99.0276H85.0432V103.584H89.5888V99.0276Z" fill="#14315D"/>
<path d="M89.5888 206.86H85.0432V211.416H89.5888V206.86Z" fill="#14315D"/>
<path d="M229.795 99.2655H229.322V96.8926H229.795V99.2655ZM229.795 94.5194H229.322V92.1465H229.795V94.5194ZM229.795 89.7732H229.322V87.4004H229.795V89.7732ZM229.795 85.0271H229.322V82.6542H229.795V85.0271ZM229.795 80.281H229.322V77.9081H229.795V80.281ZM229.274 76.057H226.907V75.5825H229.274V76.057ZM224.539 76.057H222.172V75.5825H224.539V76.057ZM219.804 76.057H217.437V75.5825H219.804V76.057ZM215.069 76.057H212.701V75.5825H215.069V76.057ZM210.334 76.057H207.966V75.5825H210.334V76.057ZM205.599 76.057H203.231V75.5825H205.599V76.057ZM200.864 76.057H198.496V75.5825H200.864V76.057ZM196.128 76.057H193.761V75.5825H196.128V76.057ZM191.393 76.057H189.026V75.5825H191.393V76.057ZM186.658 76.057H184.291V75.5825H186.658V76.057ZM181.923 76.057H179.556V75.5825H181.923V76.057ZM177.188 76.057H174.82V75.5825H177.188V76.057ZM172.453 76.057H170.085V75.5825H172.453V76.057ZM167.718 76.057H165.35V75.5825H167.718V76.057Z" fill="#1B2D34"/>
<path d="M165.398 70.314H159.053L155.928 75.8194L159.053 81.2775H165.398L168.523 75.8194L165.398 70.314Z" fill="#14315D"/>
<path d="M56.6316 117.396H56.1579V115.023H56.6316V117.396ZM56.6316 112.65H56.1579V110.277H56.6316V112.65ZM56.6316 107.904H56.1579V105.531H56.6316V107.904ZM56.6316 103.158H56.1579V100.784H56.6316V103.158ZM56.6316 98.4116H56.1579V96.0383H56.6316V98.4116ZM56.6316 93.6654H56.1579V91.2922H56.6316V93.6654ZM56.6316 88.919H56.1579V86.5461H56.6316V88.919ZM56.6316 84.1728H56.1579V81.8H56.6316V84.1728ZM56.6316 79.4267H56.1579V77.0538H56.6316V79.4267ZM56.6316 74.6806H56.1579V72.3077H56.6316V74.6806ZM56.6316 69.9345H56.1579V67.5616H56.6316V69.9345ZM56.6316 65.1883H56.1579V62.8155H56.6316V65.1883ZM56.6316 60.4422H56.1579V58.0693H56.6316V60.4422ZM56.6316 55.6961H56.1579V53.3232H56.6316V55.6961ZM56.6316 50.95H56.1579V48.5771H56.6316V50.95ZM56.6316 46.2038H56.1579V43.831H56.6316V46.2038ZM113.974 43.4038H113.5V42.929H113.974V43.4038ZM56.6316 41.4577H56.1579V39.0848H56.6316V41.4577ZM113.974 40.5562H113.5V38.1829H113.974V40.5562ZM56.6316 36.7116H56.1579V34.3386H56.6316V36.7116ZM113.974 35.8099H113.5V33.4368H113.974V35.8099ZM56.6316 31.9655H56.1579V29.5924H56.6316V31.9655ZM113.974 31.0637H113.5V28.6907H113.974V31.0637ZM56.6316 27.2193H56.1579V24.8463H56.6316V27.2193ZM113.974 26.3176H113.5V23.9445H113.974V26.3176ZM56.6316 22.4732H56.1579V20.1001H56.6316V22.4732ZM113.974 21.5714H113.5V19.1984H113.974V21.5714ZM56.6316 17.7271H56.1579V15.354H56.6316V17.7271ZM113.974 16.8253H113.5V14.4523H113.974V16.8253ZM56.6316 12.9809H56.1579V10.6079H56.6316V12.9809ZM113.974 12.0792H113.5V9.70609H113.974V12.0792ZM56.6316 8.23481H56.1579V6.62109H57.3891V7.09571H56.6316V8.23481ZM113.974 7.33303H113.5V7.09571H111.843V6.62109H113.974V7.33303ZM109.475 7.09571H107.108V6.62109H109.475V7.09571ZM104.74 7.09571H102.373V6.62109H104.74V7.09571ZM100.005 7.09571H97.6375V6.62109H100.005V7.09571ZM95.2698 7.09571H92.9025V6.62109H95.2698V7.09571ZM90.5347 7.09571H88.1674V6.62109H90.5347V7.09571ZM85.7996 7.09571H83.4323V6.62109H85.7996V7.09571ZM81.0646 7.09571H78.6972V6.62109H81.0646V7.09571ZM76.3295 7.09571H73.9621V6.62109H76.3295V7.09571ZM71.5944 7.09571H69.227V6.62109H71.5944V7.09571ZM66.8593 7.09571H64.4919V6.62109H66.8593V7.09571ZM62.1242 7.09571H59.7568V6.62109H62.1242V7.09571Z" fill="#1B2D34"/>
<path d="M113.737 8.5198C114.652 8.5198 115.394 7.77608 115.394 6.85864C115.394 5.94123 114.652 5.19751 113.737 5.19751C112.821 5.19751 112.079 5.94123 112.079 6.85864C112.079 7.77608 112.821 8.5198 113.737 8.5198Z" fill="#26ABE8"/>
<path d="M56.3971 8.5191C57.3123 8.5191 58.0541 7.77538 58.0541 6.85794C58.0541 5.9405 57.3123 5.19678 56.3971 5.19678C55.4815 5.19678 54.7397 5.9405 54.7397 6.85794C54.7397 7.77538 55.4815 8.5191 56.3971 8.5191Z" fill="#26ABE8"/>
<path d="M56.3971 119.057C57.3123 119.057 58.0541 118.313 58.0541 117.395C58.0541 116.478 57.3123 115.734 56.3971 115.734C55.4815 115.734 54.7397 116.478 54.7397 117.395C54.7397 118.313 55.4815 119.057 56.3971 119.057Z" fill="#14315D"/>
<path d="M107.912 62.293L104.029 66.1372C104.029 66.1372 105.355 68.1306 107.391 69.7918C108.669 70.836 110.421 71.548 111.653 72.2123C113.736 73.3515 118.187 73.4937 121.501 72.3073C124.816 71.1209 127.231 68.8899 127.136 68.6527L118.755 65.6151C118.803 65.6151 108.148 64.9034 107.912 62.293Z" fill="#543629"/>
<path d="M111.606 54.7464L109.096 63.8115C109.096 63.8115 117.241 69.2224 119.845 68.7003L122.118 60.6317L116.057 50.2852H113.736L111.606 54.7464Z" fill="#E29771"/>
<path d="M114.067 55.0786L115.582 60.2046C115.724 60.6317 118.755 61.2011 118.755 61.2011L120.365 66.7065L122.116 60.6317L114.067 55.0786Z" fill="#661F00"/>
<path d="M113.737 54.984L115.536 59.303C115.726 59.7302 116.105 60.0623 116.578 60.1573L126.617 61.9608C127.327 62.103 127.99 61.6286 128.132 60.9166C128.227 60.5371 128.227 60.0623 128.132 59.5402C127.99 58.8759 127.043 58.0689 126.806 57.2147C126.569 56.4077 126.096 54.6519 126.096 54.6519L128.179 53.56C128.179 52.7534 124.249 48.5767 124.249 48.5767C124.249 48.5767 122.545 44.4476 121.503 43.4507C121.503 43.4507 116.626 41.6472 114.684 43.4507C112.743 45.2546 112.412 50.8073 112.412 50.8073L113.737 54.984Z" fill="#E5B093"/>
<path d="M116.721 73.3515C108.434 73.3515 101.663 66.5647 101.663 58.2589C101.663 49.9531 108.434 43.1663 116.721 43.1663C125.007 43.1663 131.778 49.9531 131.778 58.2589C131.778 66.5647 125.054 73.3515 116.721 73.3515ZM116.721 43.6407C108.671 43.6407 102.136 50.1907 102.136 58.2589C102.136 66.3275 108.671 72.8771 116.721 72.8771C124.77 72.8771 131.305 66.3275 131.305 58.2589C131.305 50.1907 124.77 43.6407 116.721 43.6407Z" fill="#1B2D34"/>
<path d="M114.635 54.9837C114.635 54.9837 114.019 55.7907 112.74 55.4108C110.846 54.8887 109.52 50.0004 110.799 49.9054C112.504 49.7628 115.582 52.3259 115.582 52.3259L114.635 54.9837Z" fill="#E5B093"/>
<path d="M112.504 50.3326C112.504 50.3326 114.161 52.1838 114.824 53.1803C114.824 53.1803 116.245 53.3702 116.387 52.7532C116.529 52.1365 115.582 50.0004 116.15 49.4311C116.718 48.8617 118.707 46.6307 118.328 46.1562C118.328 46.1562 121.785 46.2985 123.347 44.2101C124.91 42.1221 127.088 38.5624 126.378 36.8539C126.378 36.8539 125.099 39.0845 124.626 38.5148C124.626 38.5148 125.667 37.1861 124.72 35.335C124.72 35.335 122.353 37.9927 121.643 37.5656C121.643 37.5656 123.773 34.3857 123.11 30.8262C123.11 30.8262 118.47 33.9111 117.286 33.8162C116.102 33.7213 105.969 36.5214 106.822 40.271C106.822 40.271 101.282 42.8814 103.176 45.8714C105.07 48.909 110.61 57.9268 112.172 57.452C113.735 56.9776 114.161 55.8384 114.161 55.8384L113.782 54.9365C113.782 54.9365 111.936 57.1198 110.42 51.2345C110.326 50.6652 110.42 50.0481 110.752 49.9055C111.225 49.7632 112.03 50.1431 112.504 50.3326Z" fill="#543629"/>
<path d="M120.177 50.1908L120.555 48.8621L123.16 47.0582C123.16 47.0582 123.444 46.916 123.444 47.628C123.444 48.34 122.686 48.7671 122.686 48.7671C122.686 48.7671 121.266 49.2892 121.124 49.5737C120.982 49.8586 120.177 50.1908 120.177 50.1908Z" fill="#543629"/>
<path d="M122.734 50.9965C122.917 50.9965 123.065 50.6353 123.065 50.1895C123.065 49.7441 122.917 49.3826 122.734 49.3826C122.551 49.3826 122.402 49.7441 122.402 50.1895C122.402 50.6353 122.551 50.9965 122.734 50.9965Z" fill="black"/>
<path d="M122.307 55.8383C123.491 57.8317 125.859 57.0724 125.859 57.0724L125.48 55.696L122.307 55.8383Z" fill="#FEFFFF"/>
<path d="M109.618 59.8255C109.618 59.8255 106.493 64.0969 106.777 64.9038C107.061 65.7108 120.319 71.4061 120.84 71.074C121.361 70.7891 119.799 68.7007 119.799 68.7007C119.799 68.7007 116.247 68.3685 114.59 66.7073C112.743 64.8565 111.417 59.7306 109.618 59.8255Z" fill="#543629"/>
<path d="M112.65 53.6075C112.508 53.6075 112.366 53.5598 112.177 53.4649C112.129 53.4176 112.129 53.3699 112.129 53.3226C112.129 53.275 112.224 53.275 112.271 53.275C112.461 53.3699 112.603 53.4176 112.745 53.3699C112.934 53.275 113.124 53.0854 113.171 52.8005C113.171 52.7529 113.266 52.7056 113.313 52.7056C113.36 52.7056 113.408 52.8005 113.408 52.8478C113.313 53.18 113.076 53.4649 112.84 53.5598C112.84 53.5598 112.745 53.6075 112.65 53.6075Z" fill="black"/>
<path d="M112.932 53.3701C112.837 53.3701 112.79 53.2751 112.837 53.2275C112.884 52.9903 112.884 52.7531 112.79 52.6104C112.742 52.5155 112.648 52.4682 112.553 52.4682C112.506 52.4682 112.458 52.4209 112.458 52.3259C112.458 52.231 112.506 52.231 112.6 52.231C112.742 52.231 112.884 52.3259 112.979 52.4682C113.121 52.6581 113.168 52.9903 113.074 53.3224C113.026 53.3224 112.979 53.3701 112.932 53.3701Z" fill="black"/>
<path d="M192.956 40.4608C203.051 40.4608 211.234 32.2586 211.234 22.1406C211.234 12.0227 203.051 3.82056 192.956 3.82056C182.862 3.82056 174.679 12.0227 174.679 22.1406C174.679 32.2586 182.862 40.4608 192.956 40.4608Z" fill="#14315D"/>
<path d="M192.955 40.698C182.728 40.698 174.441 32.3923 174.441 22.1407C174.441 11.889 182.728 3.58325 192.955 3.58325C197.264 3.58325 201.431 5.10201 204.746 7.80732L204.462 8.18701C201.242 5.52918 197.17 4.05786 192.955 4.05786C183.012 4.05786 174.915 12.1738 174.915 22.1407C174.915 32.1076 183.012 40.2236 192.955 40.2236C197.833 40.2236 202.426 38.2774 205.835 34.8128L206.166 35.1451C202.662 38.7522 197.975 40.698 192.955 40.698Z" fill="#26ABE8"/>
<path d="M210.476 17.8221C210.192 16.5881 209.766 15.4016 209.198 14.31L209.624 14.1201C210.192 15.2592 210.618 16.4932 210.902 17.7272L210.476 17.8221Z" fill="#26ABE8"/>
<path d="M187.273 30.114H183.627C183.343 30.114 183.059 29.8767 183.059 29.5445V18.3911C183.059 18.1063 183.296 17.8215 183.627 17.8215H187.273C187.557 17.8215 187.842 18.0588 187.842 18.3911V29.497C187.794 29.8292 187.557 30.114 187.273 30.114ZM183.627 18.3436C183.58 18.3436 183.533 18.3911 183.533 18.4385V29.5445C183.533 29.592 183.58 29.6394 183.627 29.6394H187.273C187.321 29.6394 187.368 29.592 187.368 29.5445V18.3911C187.368 18.3436 187.321 18.2961 187.273 18.2961H183.627V18.3436Z" fill="#26ABE8"/>
<path d="M186.989 19.5304H188.978C189.972 19.5304 190.824 18.7235 190.824 17.6794V13.0756C190.824 12.3162 191.677 11.8416 192.34 12.3162L192.955 12.7434C193.902 13.4079 194.423 14.4995 194.423 15.6386V18.0591C194.423 18.8659 195.086 19.4829 195.844 19.4829H200.531C201.668 19.4829 202.567 20.3847 202.567 21.5238V27.9785C202.567 29.4973 201.336 30.7313 199.821 30.7313H192.15C191.535 30.7313 190.919 30.494 190.398 30.1143L186.942 27.314V19.5304H186.989Z" fill="#26ABE8"/>
<path d="M187.984 30.5415H184.337C184.148 30.5415 184.006 30.3991 184.006 30.2093V19.0558C184.006 18.866 184.148 18.7236 184.337 18.7236H187.984C188.173 18.7236 188.315 18.866 188.315 19.0558V30.1618C188.315 30.3991 188.173 30.5415 187.984 30.5415Z" fill="#F74D7B"/>
<path d="M171.268 191.72H119.371C116.341 191.72 113.878 189.252 113.878 186.214V180.804C113.878 177.766 116.341 175.298 119.371 175.298H171.268C174.298 175.298 176.76 177.766 176.76 180.804V186.214C176.76 189.252 174.298 191.72 171.268 191.72ZM119.371 175.82C116.624 175.82 114.352 178.051 114.352 180.851V186.262C114.352 189.014 116.577 191.293 119.371 191.293H171.268C174.014 191.293 176.287 189.062 176.287 186.262V180.851C176.287 178.098 174.061 175.82 171.268 175.82H119.371Z" fill="#1B2D34"/>
<path opacity="0.1" d="M201.998 130.59H90.6759V158.355H201.998V130.59Z" fill="black"/>
<path opacity="0.3" d="M173.022 193.999H117.763C114.165 193.999 113.928 186.215 113.928 186.215L114.401 188.208C114.401 188.208 114.401 188.208 114.401 188.256C115.112 190.392 117.337 191.768 119.563 191.768L172.075 191.483C174.916 190.819 176.147 188.873 176.479 186.215C176.668 186.262 176.053 193.999 173.022 193.999Z" fill="#1B2D34"/>
<path d="M202.854 153.466H83.9081C79.7886 153.466 76.4267 150.096 76.4267 145.967V138.088C76.4267 133.959 79.7886 130.59 83.9081 130.59H202.854C206.974 130.59 210.335 133.959 210.335 138.088V145.967C210.335 150.096 207.021 153.466 202.854 153.466Z" fill="#26ABE8"/>
<path d="M207.634 154.083H83.0058C78.744 154.083 75.2874 150.619 75.2874 146.347V135.573C75.2874 131.302 78.744 127.837 83.0058 127.837H207.586C211.848 127.837 215.304 131.302 215.304 135.573V146.347C215.352 150.619 211.895 154.083 207.634 154.083ZM83.0058 128.312C78.9807 128.312 75.761 131.586 75.761 135.573V146.347C75.761 150.381 79.0282 153.608 83.0058 153.608H207.586C211.611 153.608 214.831 150.334 214.831 146.347V135.573C214.831 131.539 211.563 128.312 207.586 128.312H83.0058Z" fill="#1B2D34"/>
<path d="M92.7598 136.286C92.3812 136.143 92.0494 135.906 92.0023 135.526C92.0023 135.052 92.3337 134.672 92.7598 134.719C93.1859 134.719 93.5649 135.099 93.5173 135.574C93.5173 135.906 93.1859 136.143 92.7598 136.286Z" fill="#F74D7B"/>
<path d="M82.062 135.384C81.9673 135.858 81.683 136.238 81.2569 136.238C80.878 136.238 80.5465 135.905 80.4994 135.478C80.4994 135.004 80.8308 134.672 81.2569 134.624C81.683 134.672 81.9197 135.051 82.062 135.384Z" fill="#F74D7B"/>
<path d="M97.4012 135.384C97.3537 135.811 97.0695 136.143 96.7381 136.191C96.2647 136.286 95.9333 135.859 95.8858 135.479C95.8386 135.004 96.2172 134.672 96.6433 134.672C97.0223 134.672 97.2589 135.052 97.4012 135.384Z" fill="#F74D7B"/>
<path d="M100.527 134.625C100.906 134.862 101.332 135.052 101.238 135.526C101.19 135.906 100.859 136.238 100.48 136.238C100.101 136.238 99.7697 135.906 99.7221 135.479C99.7221 135.004 100.101 134.814 100.527 134.625Z" fill="#F74D7B"/>
<path d="M105.12 135.431C105.025 135.906 104.741 136.286 104.267 136.238C103.888 136.238 103.51 135.906 103.51 135.479C103.51 135.004 103.841 134.672 104.315 134.672C104.741 134.672 104.978 135.052 105.12 135.431Z" fill="#F74D7B"/>
<path d="M97.4506 150.809C97.3083 151.236 97.0716 151.616 96.693 151.616C96.2193 151.664 95.8879 151.236 95.8879 150.809C95.8879 150.382 96.2193 150.002 96.693 150.05C97.1192 150.145 97.3083 150.524 97.4506 150.809Z" fill="#F74D7B"/>
<path d="M93.6146 150.904C93.4251 151.283 93.236 151.71 92.7623 151.663C92.3834 151.615 92.052 151.283 92.052 150.904C92.0995 150.476 92.3834 150.097 92.9043 150.144C93.236 150.144 93.5199 150.476 93.6146 150.904Z" fill="#F74D7B"/>
<path d="M79.4551 142.076C78.9342 141.981 78.65 141.696 78.5553 141.316C78.4605 140.842 78.8395 140.509 79.2656 140.462C79.6917 140.414 79.976 140.794 80.0703 141.174C80.2126 141.696 79.6442 141.791 79.4551 142.076Z" fill="#F74D7B"/>
<path d="M83.2446 140.415C83.576 140.605 83.9549 140.795 83.9549 141.222C83.9074 141.649 83.576 142.076 83.1499 141.981C82.7709 141.934 82.3448 141.602 82.4395 141.079C82.5342 140.747 82.8185 140.462 83.2446 140.415Z" fill="#F74D7B"/>
<path d="M113.833 148.104C114.307 148.151 114.591 148.436 114.686 148.816C114.78 149.29 114.402 149.622 113.976 149.717C113.549 149.812 113.265 149.433 113.171 149.053C113.076 148.531 113.549 148.341 113.833 148.104Z" fill="#F74D7B"/>
<path d="M110.043 149.765C109.664 149.576 109.238 149.338 109.333 148.864C109.38 148.531 109.711 148.104 110.138 148.199C110.564 148.247 110.943 148.579 110.848 149.054C110.753 149.386 110.469 149.67 110.043 149.765Z" fill="#F74D7B"/>
<path d="M107.061 148.958C106.919 149.338 106.682 149.717 106.304 149.717C105.83 149.717 105.499 149.385 105.499 148.911C105.499 148.531 105.83 148.151 106.209 148.151C106.682 148.151 106.919 148.531 107.061 148.958Z" fill="#F74D7B"/>
<path d="M91.6719 149.006C91.53 149.386 91.2933 149.765 90.8672 149.718C90.4411 149.67 90.0621 149.338 90.1093 148.864C90.1568 148.484 90.4883 148.104 90.8672 148.152C91.2933 148.152 91.5772 148.531 91.6719 149.006Z" fill="#F74D7B"/>
<path d="M87.837 149.005C87.6951 149.385 87.4584 149.764 87.0795 149.717C86.6533 149.717 86.2744 149.337 86.3219 148.91C86.3691 148.531 86.7009 148.104 87.1742 148.198C87.5056 148.246 87.7898 148.531 87.837 149.005Z" fill="#F74D7B"/>
<path d="M83.1488 148.104C83.5749 148.246 83.9539 148.483 83.9539 148.958C83.9539 149.338 83.6225 149.67 83.2435 149.717C82.8174 149.765 82.5332 149.385 82.4384 149.053C82.3437 148.531 82.8174 148.341 83.1488 148.104Z" fill="#F74D7B"/>
<path d="M84.0014 145.066C83.8591 145.446 83.6225 145.825 83.2439 145.825C82.8174 145.825 82.4388 145.493 82.486 144.971C82.5335 144.591 82.8649 144.212 83.2439 144.259C83.6225 144.354 83.8591 144.686 84.0014 145.066Z" fill="#F74D7B"/>
<path d="M79.4072 144.259C79.7858 144.496 80.2119 144.686 80.1172 145.161C80.07 145.541 79.7386 145.921 79.3125 145.873C78.8863 145.826 78.5074 145.493 78.6021 145.019C78.6493 144.639 78.9811 144.354 79.4072 144.259Z" fill="#F74D7B"/>
<path d="M80.1662 148.816C80.0239 149.338 79.7872 149.67 79.4086 149.67C78.9349 149.717 78.6035 149.338 78.6035 148.911C78.556 148.483 78.9349 148.199 79.3139 148.151C79.7872 148.056 79.8819 148.626 80.1662 148.816Z" fill="#F74D7B"/>
<path d="M102.467 148.104C102.798 148.293 103.272 148.531 103.177 149.005C103.13 149.385 102.798 149.765 102.419 149.717C101.993 149.67 101.614 149.338 101.709 148.863C101.709 148.483 102.04 148.198 102.467 148.104Z" fill="#F74D7B"/>
<path d="M100.527 151.71C100.054 151.568 99.7221 151.331 99.7221 150.856C99.7221 150.477 100.054 150.144 100.432 150.097C100.859 150.049 101.143 150.382 101.238 150.761C101.332 151.283 100.906 151.473 100.527 151.71Z" fill="#F74D7B"/>
<path d="M108.244 136.285C107.771 136.143 107.439 135.905 107.392 135.478C107.344 135.004 107.723 134.624 108.149 134.624C108.576 134.624 108.955 135.004 108.907 135.478C108.907 135.953 108.528 136.095 108.244 136.285Z" fill="#F74D7B"/>
<path d="M88.9732 136.286C88.5946 136.143 88.2632 135.906 88.2156 135.526C88.1684 135.052 88.547 134.672 88.9732 134.672C89.3993 134.672 89.7783 135.052 89.7311 135.526C89.6835 135.906 89.3521 136.143 88.9732 136.286Z" fill="#F74D7B"/>
<path d="M85.9405 135.432C85.751 135.906 85.5615 136.286 85.1354 136.238C84.6621 136.238 84.3307 135.859 84.3307 135.432C84.3307 135.052 84.6621 134.72 85.0882 134.673C85.5615 134.625 85.751 135.1 85.9405 135.432Z" fill="#F74D7B"/>
<path d="M114.071 134.34C113.55 134.292 113.219 133.96 113.171 133.628C113.077 133.153 113.455 132.821 113.882 132.726C114.308 132.679 114.592 133.058 114.687 133.391C114.829 133.96 114.308 134.103 114.071 134.34Z" fill="#F74D7B"/>
<path d="M103.225 133.532C103.131 133.912 102.894 134.292 102.515 134.339C102.042 134.387 101.71 134.007 101.663 133.58C101.615 133.153 101.947 132.868 102.373 132.773C102.847 132.678 103.036 133.153 103.225 133.532Z" fill="#F74D7B"/>
<path d="M90.914 134.387C90.4404 134.197 90.0614 133.96 90.1561 133.486C90.2037 133.106 90.4879 132.726 90.914 132.774C91.3874 132.821 91.7188 133.153 91.6716 133.628C91.5768 134.007 91.2454 134.245 90.914 134.387Z" fill="#F74D7B"/>
<path d="M89.7772 146.917C89.6353 147.392 89.3986 147.724 89.0196 147.771C88.5463 147.771 88.2146 147.392 88.2146 146.964C88.2146 146.585 88.5463 146.252 88.9725 146.252C89.3986 146.252 89.5405 146.68 89.7772 146.917Z" fill="#F74D7B"/>
<path d="M82.062 139.228C81.9673 139.703 81.7302 140.083 81.2569 140.083C80.8308 140.083 80.5465 139.75 80.4994 139.323C80.4994 138.849 80.8308 138.516 81.2569 138.516C81.683 138.516 81.8725 138.896 82.062 139.228Z" fill="#F74D7B"/>
<path d="M94.7965 138.231C94.2756 138.089 93.9442 137.804 93.9442 137.377C93.9442 136.997 94.2756 136.618 94.6546 136.618C95.1283 136.618 95.4597 136.95 95.4597 137.425C95.4597 137.852 95.0807 137.994 94.7965 138.231Z" fill="#F74D7B"/>
<path d="M80.1665 137.377C79.977 137.757 79.7879 138.184 79.3142 138.137C78.9353 138.089 78.6039 137.757 78.6039 137.377C78.6039 136.903 78.9353 136.57 79.409 136.618C79.7879 136.665 80.0246 136.998 80.1665 137.377Z" fill="#F74D7B"/>
<path d="M83.2442 136.571C83.576 136.713 83.9546 136.951 83.9546 137.378C83.9546 137.805 83.6232 138.232 83.1495 138.137C82.7234 138.089 82.3448 137.757 82.4395 137.283C82.5342 136.903 82.8181 136.618 83.2442 136.571Z" fill="#F74D7B"/>
<path d="M90.9619 138.184C90.4883 138.089 90.1569 137.805 90.1093 137.377C90.0621 136.998 90.4411 136.665 90.8197 136.618C91.2458 136.57 91.53 136.903 91.6248 137.282C91.7195 137.757 91.2933 137.994 90.9619 138.184Z" fill="#F74D7B"/>
<path d="M103.227 137.378C102.991 137.758 102.801 138.232 102.28 138.137C101.901 138.042 101.57 137.758 101.618 137.33C101.665 136.903 101.996 136.524 102.47 136.618C102.896 136.666 103.085 137.046 103.227 137.378Z" fill="#F74D7B"/>
<path d="M107.061 137.33C106.919 137.757 106.682 138.137 106.304 138.184C105.83 138.184 105.499 137.805 105.499 137.378C105.499 136.998 105.83 136.666 106.256 136.666C106.73 136.618 106.872 137.046 107.061 137.33Z" fill="#F74D7B"/>
<path d="M99.3428 133.533C99.2481 133.912 99.0114 134.292 98.5849 134.34C98.1116 134.387 97.8274 134.007 97.7802 133.628C97.7326 133.153 98.0644 132.774 98.5377 132.774C99.0114 132.726 99.2005 133.153 99.3428 133.533Z" fill="#F74D7B"/>
<path d="M85.0882 140.13C84.7093 139.988 84.3779 139.75 84.3307 139.371C84.3307 138.896 84.6621 138.516 85.0882 138.564C85.5144 138.564 85.8933 138.944 85.8458 139.418C85.7986 139.75 85.5144 140.035 85.0882 140.13Z" fill="#F74D7B"/>
<path d="M82.0588 143.167C81.964 143.594 81.7274 143.927 81.3012 143.974C80.8751 144.022 80.5437 143.642 80.4961 143.262C80.4489 142.787 80.7804 142.408 81.2537 142.408C81.7274 142.36 81.9168 142.787 82.0588 143.167Z" fill="#F74D7B"/>
<path d="M82.0588 146.964C81.8693 147.391 81.6802 147.771 81.2537 147.771C80.7804 147.771 80.4489 147.391 80.4961 146.917C80.5437 146.537 80.8751 146.158 81.3012 146.205C81.7274 146.3 81.9168 146.68 82.0588 146.964Z" fill="#F74D7B"/>
<path d="M97.4488 147.06C97.2597 147.44 97.0702 147.867 96.5493 147.772C96.1704 147.677 95.839 147.345 95.8865 146.965C95.9337 146.538 96.2651 146.159 96.7388 146.253C97.1174 146.301 97.3544 146.633 97.4488 147.06Z" fill="#F74D7B"/>
<path d="M105.121 147.012C104.978 147.392 104.789 147.772 104.363 147.772C103.89 147.772 103.558 147.392 103.558 146.917C103.605 146.538 103.89 146.158 104.363 146.205C104.789 146.253 104.978 146.633 105.121 147.012Z" fill="#F74D7B"/>
<path d="M95.5093 148.863C95.4622 149.338 95.1779 149.622 94.799 149.717C94.3257 149.812 93.9943 149.432 93.9467 149.005C93.8995 148.578 94.2781 148.198 94.7046 148.198C95.1307 148.151 95.3674 148.531 95.5093 148.863Z" fill="#F74D7B"/>
<path d="M99.3421 148.958C99.2002 149.338 98.9631 149.717 98.5846 149.717C98.1109 149.717 97.7795 149.385 97.827 148.911C97.827 148.531 98.1584 148.199 98.537 148.151C99.0107 148.151 99.2474 148.531 99.3421 148.958Z" fill="#F74D7B"/>
<path d="M118.567 148.91C118.473 149.338 118.188 149.67 117.809 149.67C117.336 149.67 117.005 149.338 117.005 148.863C117.005 148.483 117.336 148.104 117.715 148.104C118.188 148.104 118.425 148.531 118.567 148.91Z" fill="#F74D7B"/>
<path d="M84.3307 150.998C84.3779 150.429 84.6621 150.144 85.0407 150.097C85.5144 150.002 85.8458 150.382 85.8933 150.856C85.9405 151.283 85.5615 151.568 85.2301 151.663C84.6621 151.758 84.5673 151.188 84.3307 150.998Z" fill="#F74D7B"/>
<path d="M104.362 150.05C104.741 150.192 105.073 150.429 105.073 150.809C105.073 151.284 104.741 151.616 104.268 151.616C103.842 151.569 103.463 151.236 103.558 150.762C103.652 150.382 103.936 150.145 104.362 150.05Z" fill="#F74D7B"/>
<path d="M108.197 151.711C107.771 151.569 107.392 151.331 107.392 150.857C107.392 150.477 107.724 150.145 108.103 150.097C108.529 150.05 108.813 150.382 108.86 150.809C109.002 151.284 108.576 151.474 108.197 151.711Z" fill="#F74D7B"/>
<path d="M112.79 150.904C112.648 151.236 112.411 151.664 112.032 151.616C111.606 151.616 111.227 151.236 111.274 150.762C111.322 150.382 111.606 150.002 112.079 150.05C112.458 150.145 112.695 150.477 112.79 150.904Z" fill="#F74D7B"/>
<path d="M88.9249 151.663C88.5463 151.474 88.2146 151.284 88.2146 150.856C88.2146 150.429 88.5463 150.097 88.9249 150.097C89.3986 150.097 89.73 150.477 89.6824 150.951C89.6824 151.331 89.351 151.568 88.9249 151.663Z" fill="#F74D7B"/>
<path d="M101.285 146.917C101.19 147.392 100.953 147.724 100.527 147.771C100.054 147.819 99.7221 147.439 99.7221 146.965C99.7221 146.585 100.054 146.253 100.48 146.205C100.906 146.205 101.095 146.632 101.285 146.917Z" fill="#F74D7B"/>
<path d="M93.6117 147.06C93.4223 147.439 93.2328 147.866 92.7119 147.819C92.333 147.771 92.0016 147.439 92.0491 147.012C92.0963 146.585 92.3805 146.205 92.9014 146.253C93.28 146.3 93.517 146.633 93.6117 147.06Z" fill="#F74D7B"/>
<path d="M87.0316 134.387C86.6055 134.197 86.1793 133.912 86.2741 133.485C86.3212 133.153 86.6526 132.726 87.0788 132.774C87.5049 132.821 87.8839 133.201 87.7891 133.628C87.7419 134.007 87.4102 134.245 87.0316 134.387Z" fill="#F74D7B"/>
<path d="M110.898 133.581C110.756 133.96 110.519 134.34 110.14 134.293C109.667 134.293 109.335 133.913 109.383 133.438C109.43 133.059 109.761 132.632 110.235 132.727C110.567 132.822 110.803 133.154 110.898 133.581Z" fill="#F74D7B"/>
<path d="M110.138 138.232C109.712 138.089 109.333 137.805 109.333 137.377C109.333 136.998 109.665 136.665 110.043 136.618C110.469 136.57 110.754 136.95 110.801 137.282C110.895 137.805 110.517 137.994 110.138 138.232Z" fill="#F74D7B"/>
<path d="M99.3421 137.377C99.2474 137.757 99.0107 138.137 98.6317 138.184C98.1584 138.231 97.827 137.852 97.827 137.377C97.827 136.997 98.1584 136.665 98.5845 136.618C99.0107 136.618 99.2002 136.997 99.3421 137.377Z" fill="#F74D7B"/>
<path d="M87.8377 137.377C87.6958 137.804 87.5063 138.184 87.0327 138.184C86.6541 138.184 86.3227 137.804 86.2751 137.425C86.2279 136.95 86.6065 136.618 87.0327 136.618C87.4588 136.618 87.6958 136.95 87.8377 137.377Z" fill="#F74D7B"/>
<path d="M85.8933 143.215C85.751 143.594 85.5144 143.974 85.0882 143.974C84.6621 143.974 84.3307 143.642 84.3307 143.215C84.3307 142.787 84.6621 142.36 85.1354 142.408C85.5615 142.408 85.7986 142.787 85.8933 143.215Z" fill="#F74D7B"/>
<path d="M106.257 132.726C106.683 132.868 107.062 133.153 107.015 133.628C106.968 134.007 106.683 134.387 106.257 134.34C105.831 134.292 105.452 133.96 105.5 133.485C105.547 133.105 105.831 132.821 106.257 132.726Z" fill="#F74D7B"/>
<path d="M85.1379 146.205C85.5169 146.348 85.8483 146.585 85.8483 147.012C85.8483 147.392 85.5169 147.771 85.1379 147.771C84.6646 147.771 84.3328 147.392 84.3804 146.917C84.4276 146.585 84.7118 146.3 85.1379 146.205Z" fill="#F74D7B"/>
<path d="M198.022 134.482C198.401 134.34 198.732 134.102 198.78 133.723C198.78 133.248 198.448 132.869 198.022 132.916C197.596 132.916 197.217 133.296 197.265 133.77C197.312 134.15 197.644 134.387 198.022 134.482Z" fill="#F74D7B"/>
<path d="M208.771 133.628C208.866 134.103 209.15 134.482 209.576 134.482C209.955 134.482 210.287 134.15 210.334 133.723C210.334 133.249 210.002 132.916 209.576 132.869C209.15 132.869 208.913 133.248 208.771 133.628Z" fill="#F74D7B"/>
<path d="M197.217 149.1C197.406 149.48 197.596 149.907 198.069 149.86C198.448 149.812 198.779 149.48 198.779 149.1C198.732 148.673 198.448 148.293 197.927 148.341C197.548 148.341 197.311 148.673 197.217 149.1Z" fill="#F74D7B"/>
<path d="M211.329 140.32C211.85 140.225 212.134 139.94 212.228 139.561C212.323 139.086 211.944 138.754 211.518 138.706C211.092 138.659 210.808 139.038 210.713 139.418C210.619 139.893 211.14 139.988 211.329 140.32Z" fill="#F74D7B"/>
<path d="M199.159 147.202C199.301 147.582 199.538 147.962 199.964 147.914C200.39 147.867 200.769 147.534 200.722 147.06C200.674 146.68 200.343 146.3 199.964 146.348C199.49 146.395 199.254 146.728 199.159 147.202Z" fill="#F74D7B"/>
<path d="M202.993 147.202C203.135 147.582 203.372 147.961 203.751 147.914C204.177 147.914 204.556 147.534 204.509 147.107C204.461 146.727 204.13 146.3 203.656 146.395C203.325 146.443 203.041 146.775 202.993 147.202Z" fill="#F74D7B"/>
<path d="M207.681 146.3C207.255 146.443 206.877 146.68 206.877 147.154C206.877 147.534 207.208 147.866 207.587 147.914C208.013 147.961 208.297 147.581 208.392 147.249C208.486 146.727 208.013 146.538 207.681 146.3Z" fill="#F74D7B"/>
<path d="M211.423 142.456C211.044 142.693 210.618 142.883 210.712 143.357C210.759 143.737 211.091 144.117 211.517 144.069C211.944 144.022 212.322 143.69 212.227 143.215C212.18 142.835 211.849 142.598 211.423 142.456Z" fill="#F74D7B"/>
<path d="M210.665 147.06C210.807 147.582 211.044 147.914 211.423 147.914C211.896 147.961 212.227 147.582 212.227 147.155C212.275 146.727 211.896 146.442 211.517 146.395C211.044 146.3 210.949 146.822 210.665 147.06Z" fill="#F74D7B"/>
<path d="M201.858 134.482C202.237 134.34 202.568 134.103 202.616 133.723C202.663 133.249 202.284 132.869 201.858 132.869C201.432 132.869 201.053 133.249 201.101 133.723C201.148 134.15 201.479 134.34 201.858 134.482Z" fill="#F74D7B"/>
<path d="M204.888 133.628C205.077 134.103 205.266 134.482 205.693 134.435C206.166 134.435 206.498 134.055 206.498 133.628C206.498 133.248 206.166 132.916 205.74 132.869C205.219 132.869 205.077 133.343 204.888 133.628Z" fill="#F74D7B"/>
<path d="M199.916 132.584C200.389 132.394 200.768 132.157 200.673 131.682C200.626 131.302 200.342 130.922 199.916 130.97C199.442 131.017 199.111 131.35 199.158 131.824C199.205 132.204 199.584 132.441 199.916 132.584Z" fill="#F74D7B"/>
<path d="M201.053 145.161C201.195 145.636 201.432 145.968 201.81 146.016C202.284 146.016 202.615 145.636 202.615 145.209C202.615 144.829 202.284 144.497 201.858 144.497C201.384 144.449 201.242 144.876 201.053 145.161Z" fill="#F74D7B"/>
<path d="M208.771 137.472C208.866 137.947 209.102 138.326 209.576 138.326C210.002 138.326 210.287 137.994 210.334 137.567C210.334 137.093 210.002 136.76 209.576 136.76C209.15 136.713 208.913 137.14 208.771 137.472Z" fill="#F74D7B"/>
<path d="M210.665 135.621C210.854 136.001 211.044 136.428 211.517 136.381C211.896 136.333 212.227 136.001 212.227 135.621C212.227 135.147 211.896 134.815 211.423 134.862C211.044 134.862 210.807 135.194 210.665 135.621Z" fill="#F74D7B"/>
<path d="M208.771 141.364C208.866 141.791 209.102 142.124 209.529 142.171C209.955 142.219 210.287 141.839 210.334 141.459C210.381 140.984 210.049 140.605 209.576 140.605C209.102 140.605 208.913 140.984 208.771 141.364Z" fill="#F74D7B"/>
<path d="M208.724 145.209C208.914 145.636 209.103 146.016 209.529 146.016C210.003 146.016 210.334 145.636 210.287 145.162C210.24 144.782 209.908 144.402 209.482 144.45C209.056 144.497 208.914 144.877 208.724 145.209Z" fill="#F74D7B"/>
<path d="M206.497 149.243C206.45 148.673 206.166 148.388 205.787 148.341C205.314 148.246 204.982 148.626 204.935 149.1C204.888 149.528 205.266 149.812 205.598 149.907C206.118 149.955 206.213 149.433 206.497 149.243Z" fill="#F74D7B"/>
<path d="M201.905 149.907C202.284 149.717 202.616 149.528 202.616 149.1C202.616 148.673 202.284 148.341 201.905 148.341C201.432 148.341 201.101 148.721 201.148 149.195C201.148 149.528 201.479 149.812 201.905 149.907Z" fill="#F74D7B"/>
<path d="M197.217 145.256C197.406 145.636 197.596 146.063 198.116 146.016C198.495 145.968 198.827 145.636 198.779 145.209C198.732 144.782 198.448 144.402 197.927 144.45C197.548 144.497 197.311 144.829 197.217 145.256Z" fill="#F74D7B"/>
<path d="M203.799 132.584C204.225 132.394 204.652 132.109 204.557 131.682C204.51 131.35 204.178 130.922 203.752 130.97C203.326 131.017 202.947 131.397 203.042 131.824C203.089 132.204 203.421 132.489 203.799 132.584Z" fill="#F74D7B"/>
<path d="M205.646 144.448C205.268 144.591 204.936 144.828 204.936 145.255C204.936 145.635 205.268 146.015 205.646 146.015C206.12 146.015 206.451 145.635 206.404 145.16C206.404 144.781 206.12 144.496 205.646 144.448Z" fill="#F74D7B"/>
<path d="M108.15 146.205C108.576 146.3 108.86 146.585 108.908 146.965C108.955 147.392 108.624 147.724 108.245 147.771C107.771 147.866 107.44 147.439 107.392 147.012C107.392 146.585 107.771 146.348 108.15 146.205Z" fill="#F74D7B"/>
<path d="M95.5068 133.581C95.3649 133.96 95.1754 134.34 94.7021 134.293C94.2756 134.293 93.9442 133.96 93.9442 133.533C93.9442 133.106 94.2756 132.679 94.7493 132.726C95.1754 132.821 95.4121 133.153 95.5068 133.581Z" fill="#F74D7B"/>
<path d="M230.552 110.657H228.563C225.675 110.657 222.976 109.09 221.508 106.575L220.513 104.819C219.046 102.303 219.046 99.1708 220.513 96.6553L221.508 94.8992C222.976 92.3837 225.628 90.8174 228.563 90.8174H230.599C233.488 90.8174 236.187 92.3837 237.655 94.8992L238.649 96.6553C240.117 99.1708 240.117 102.303 238.649 104.819L237.655 106.575C236.139 109.138 233.488 110.657 230.552 110.657ZM228.563 91.3395C225.817 91.3395 223.307 92.8108 221.934 95.184L220.94 96.9399C219.566 99.3131 219.566 102.256 220.94 104.629L221.934 106.385C223.307 108.758 225.817 110.229 228.563 110.229H230.599C233.346 110.229 235.855 108.758 237.228 106.385L238.223 104.629C239.596 102.256 239.596 99.3131 238.223 96.9399L237.228 95.184C235.855 92.8108 233.346 91.3395 230.599 91.3395H228.563Z" fill="#14315D"/>
<path d="M57.4367 127.267H55.4007C52.5121 127.267 49.8133 125.701 48.3454 123.186L47.3509 121.43C45.883 118.914 45.883 115.782 47.3509 113.266L48.3454 111.51C49.8133 108.995 52.4649 107.429 55.4007 107.429H57.4367C60.3253 107.429 63.024 108.995 64.4919 111.51L65.4865 113.266C66.9544 115.782 66.9544 118.914 65.4865 121.43L64.4919 123.186C63.024 125.701 60.3253 127.267 57.4367 127.267ZM55.4007 107.951C52.6544 107.951 50.1447 109.422 48.7716 111.795L47.777 113.551C46.4039 115.924 46.4039 118.867 47.777 121.24L48.7716 122.996C50.1447 125.369 52.6544 126.84 55.4007 126.84H57.4367C60.183 126.84 62.6926 125.369 64.0658 122.996L65.0604 121.24C66.4335 118.867 66.4335 115.924 65.0604 113.551L64.0658 111.795C62.6926 109.422 60.183 107.951 57.4367 107.951H55.4007Z" fill="#14315D"/>
<path d="M162.225 78.1451C163.507 78.1451 164.545 77.1037 164.545 75.8195C164.545 74.5349 163.507 73.4939 162.225 73.4939C160.944 73.4939 159.905 74.5349 159.905 75.8195C159.905 77.1037 160.944 78.1451 162.225 78.1451Z" fill="#F74D7B"/>
<path d="M229.558 103.11C230.84 103.11 231.879 102.069 231.879 100.785C231.879 99.4999 230.84 98.459 229.558 98.459C228.277 98.459 227.238 99.4999 227.238 100.785C227.238 102.069 228.277 103.11 229.558 103.11Z" fill="#14315D"/>
</svg>
