<svg width="253" height="190" viewBox="0 0 253 190" fill="none" xmlns="http://www.w3.org/2000/svg">
<path d="M34.0279 18.7631C35.5345 18.7631 36.7558 17.5402 36.7558 16.0316C36.7558 14.523 35.5345 13.3 34.0279 13.3C32.5213 13.3 31.3 14.523 31.3 16.0316C31.3 17.5402 32.5213 18.7631 34.0279 18.7631Z" fill="#14315D"/>
<path d="M178.168 39.5858L178.121 34.2705L176.712 34.2829L176.759 39.5981L178.168 39.5858Z" fill="#14315D"/>
<path d="M181.102 39.5603L181.011 29.1619L179.602 29.1742L179.694 39.5727L181.102 39.5603Z" fill="#14315D"/>
<path d="M217.028 50.0299L222.336 49.9833L222.324 48.5723L217.016 48.6188L217.028 50.0299Z" fill="#F74D7B"/>
<path d="M217.053 52.9685L227.438 52.8773L227.426 51.4666L217.041 51.5574L217.053 52.9685Z" fill="#F74D7B"/>
<path d="M3.16248 163.284C3.16248 136.061 3.16248 122.605 3.16248 95.3822C6.17707 82.4825 9.87261 71.1781 13.764 71.2778C19.039 71.4127 21.8318 92.4302 24.6212 92.1541C28.3724 91.7823 24.7529 24.4554 32.7189 24.1703C42.0015 23.8381 34.2318 34.034 47.2012 36.6779C54.4348 38.1523 58.0489 29.6373 63.2509 31.8212C72.2871 35.6145 73.7182 88.9637 78.8288 90.173C83.2866 91.2282 85.8909 89.6971 92.3608 90.4321C99.7032 91.2665 100.049 115.877 104.162 116.043C110.645 116.305 111.302 98.4706 130.361 111.308C135.622 114.851 143.69 117.634 148.063 114.967C152.569 112.219 164.58 123.173 170.013 123.576C174.29 123.893 178.253 97.7749 184.411 97.9649C189.801 98.1312 192.83 118.33 195.977 117.98C198.762 117.67 214.207 117.108 220.051 116.043C228.017 114.592 224.994 103.386 232.561 102.263C236.289 101.71 239.061 109.926 242.71 109.366C249.909 108.259 249.334 74.7105 249.679 74.7153C249.85 74.7178 249.927 82.9815 249.679 112.594C249.679 142.041 249.679 133.837 249.679 163.284C167.507 163.284 85.3347 163.284 3.16248 163.284Z" fill="#26ABE8"/>
<path d="M112.975 131.277C111.969 127.989 109.077 132.489 109.077 132.489C109.077 132.489 111.105 121.567 108.087 121.475C105.069 121.383 104.173 124.04 104.173 124.04C104.173 124.04 103.834 116.289 101.571 116.289C100.11 116.289 99.1355 119.504 98.5249 123.996C97.9135 121.039 96.6476 121.053 95.4528 121.053C93.1894 121.053 92.8507 128.123 92.8507 128.123C92.8507 128.123 92.8507 126.113 89.8327 126.196C86.8144 126.28 88.3422 133.855 88.3422 133.855C88.3422 133.855 84.7689 129.791 83.7629 132.791C82.757 135.79 75.7798 151.442 75.7798 151.442H117.046C117.046 151.442 113.982 134.566 112.975 131.277Z" fill="#14315D"/>
<path d="M226.603 146.893L216.218 146.934L216.224 148.344L226.609 148.304L226.603 146.893Z" fill="#231F20"/>
<path d="M226.615 149.832L216.23 149.872L216.235 151.283L226.62 151.243L226.615 149.832Z" fill="#231F20"/>
<path d="M36.1148 58.7997L30.8067 58.7532L30.7944 60.1642L36.1025 60.2108L36.1148 58.7997Z" fill="#F74D7B"/>
<path d="M36.0892 61.7383L25.7045 61.6475L25.6921 63.0582L36.0768 63.1491L36.0892 61.7383Z" fill="#14315D"/>
<path d="M36.0892 55.9872L33.4504 55.9641L33.438 57.3749L36.0768 57.398L36.0892 55.9872Z" fill="#F74D7B"/>
<path d="M100.866 100.912L95.5578 100.865L95.5455 102.276L100.854 102.322L100.866 100.912Z" fill="#14315D"/>
<path d="M100.84 103.85L90.4557 103.759L90.4434 105.17L100.828 105.261L100.84 103.85Z" fill="#14315D"/>
<path d="M100.84 98.0993L98.2017 98.0762L98.1893 99.4869L100.828 99.51L100.84 98.0993Z" fill="#14315D"/>
<path d="M169.031 100.288L163.723 100.241L163.711 101.653L169.019 101.699L169.031 100.288Z" fill="#14315D"/>
<path d="M169.006 103.227L158.621 103.136L158.609 104.546L168.993 104.638L169.006 103.227Z" fill="#14315D"/>
<path d="M169.006 97.476L166.367 97.4529L166.354 98.8636L168.993 98.8867L169.006 97.476Z" fill="#14315D"/>
<path d="M152.066 46.8496V144.358C152.066 147.163 150.433 149.591 148.069 150.739C147.138 151.186 146.094 151.44 144.994 151.44H108.016C104.109 151.44 100.944 148.267 100.944 144.358V46.8496C100.944 42.9404 104.109 39.7683 108.016 39.7683H144.994C148.898 39.7683 152.066 42.9404 152.066 46.8496Z" fill="white"/>
<path fill-rule="evenodd" clip-rule="evenodd" d="M108.016 39.9224C104.194 39.9224 101.098 43.0255 101.098 46.8495V144.358C101.098 148.182 104.194 151.285 108.016 151.285H144.994C146.07 151.285 147.092 151.038 148.002 150.6C150.315 149.477 151.912 147.101 151.912 144.358V46.8495C151.912 43.0255 148.813 39.9224 144.994 39.9224H108.016ZM100.79 46.8495C100.79 42.8551 104.024 39.614 108.016 39.614H144.994C148.983 39.614 152.22 42.8551 152.22 46.8495V144.358C152.22 147.224 150.551 149.705 148.137 150.878L148.136 150.878C147.185 151.335 146.118 151.594 144.994 151.594H108.016C104.024 151.594 100.79 148.353 100.79 144.358V46.8495Z" fill="#414042"/>
<path d="M87.3871 47.426V144.932C87.3871 148.844 84.2227 152.013 80.3155 152.013H43.3408C41.9328 152.013 40.6201 151.599 39.517 150.887C37.5632 149.631 36.2691 147.434 36.2691 144.932V47.426C36.2691 43.5135 39.4335 40.345 43.3408 40.345H80.3155C84.2227 40.345 87.3871 43.5135 87.3871 47.426Z" fill="white"/>
<path fill-rule="evenodd" clip-rule="evenodd" d="M43.3408 40.4992C39.5186 40.4992 36.4232 43.5987 36.4232 47.4259V144.931C36.4232 147.379 37.6888 149.528 39.6002 150.757C40.6792 151.454 41.9632 151.859 43.3408 151.859H80.3155C84.1377 151.859 87.2331 148.759 87.2331 144.931V47.4259C87.2331 43.5987 84.1377 40.4992 80.3155 40.4992H43.3408ZM36.1148 47.4259C36.1148 43.4283 39.3485 40.1904 43.3408 40.1904H80.3155C84.3078 40.1904 87.5415 43.4283 87.5415 47.4259V144.931C87.5415 148.929 84.3078 152.167 80.3155 152.167H43.3408C41.9022 152.167 40.5607 151.744 39.4335 151.016C37.4377 149.733 36.1148 147.489 36.1148 144.931V47.4259Z" fill="#414042"/>
<path d="M217.463 46.6794V144.185C217.463 144.438 217.45 144.688 217.423 144.935C217.05 148.495 214.045 151.266 210.391 151.266H173.413C169.509 151.266 166.341 148.097 166.341 144.185V46.6794C166.341 42.767 169.509 39.5981 173.413 39.5981H210.391C214.298 39.5981 217.463 42.767 217.463 46.6794Z" fill="white"/>
<path fill-rule="evenodd" clip-rule="evenodd" d="M142.841 88.9849C144.927 88.2458 147.216 89.3392 147.954 91.4276C148.419 92.744 148.736 94.1275 148.885 95.562C149.149 98.0922 148.869 100.567 148.138 102.879C147.47 104.991 145.219 106.161 143.11 105.492C141 104.824 139.832 102.57 140.5 100.458C140.91 99.1613 141.063 97.7933 140.917 96.3936C140.834 95.5962 140.659 94.8315 140.401 94.1047C139.663 92.0166 140.755 89.7243 142.841 88.9849Z" fill="#F74D7B"/>
<path d="M217.577 144.75C217.204 148.31 214.199 151.081 210.545 151.081H173.567C169.663 151.081 166.495 147.912 166.495 144V136.329C168.353 138.125 169.916 144.648 171.506 144.552C174.538 144.364 175.028 120.248 177.283 120.167C179.028 120.109 180.328 134.462 183.656 134.586C185.585 134.657 186.429 129.896 188.848 129.859C191.997 129.81 193.483 137.823 195.929 137.659C198.641 137.474 199.402 127.458 201.122 127.495C203.115 127.539 204.286 141.032 205.599 140.967C206.545 140.917 206.077 133.929 208.44 133.167C210.215 132.593 212.844 135.777 214.812 138.603C216.461 140.353 217.382 142.541 217.577 144.75Z" fill="#F74D7B"/>
<path fill-rule="evenodd" clip-rule="evenodd" d="M110.863 81.1904C112.885 82.09 113.796 84.4603 112.897 86.4847C112.264 87.9123 111.722 89.7271 111.492 91.5283C111.257 93.3744 111.392 94.871 111.775 95.8676C112.018 96.4977 112.546 97.1779 113.589 97.9753C114.534 98.6976 115.606 99.3069 116.889 100.037C117.083 100.147 117.282 100.26 117.485 100.376C119.407 101.474 120.075 103.924 118.978 105.848C117.882 107.772 115.435 108.441 113.513 107.343C113.346 107.248 113.17 107.148 112.986 107.043C111.741 106.339 110.143 105.434 108.726 104.351C107.055 103.073 105.277 101.292 104.3 98.7524C103.264 96.0601 103.216 93.091 103.545 90.513C103.879 87.8901 104.646 85.3222 105.576 83.2272C106.474 81.2027 108.842 80.2907 110.863 81.1904Z" fill="#F74D7B"/>
<path d="M113.721 91.0007C113.721 91.0007 115.562 94.4087 116.593 96.6285C118.56 100.863 125.71 103.87 128.709 104.134C131.853 104.411 137.068 103.106 140.873 99.5004C141.189 99.2008 142.621 98.8861 141.278 101.668C139.791 104.749 137.447 108.696 136.167 109.317C133.731 110.499 118.934 111.128 117.935 110.448C116.937 109.768 112.322 96.9854 113.721 91.0007Z" fill="#F74D7B"/>
<path d="M113.721 91.0007C113.721 91.0007 115.562 94.4087 116.593 96.6285C118.56 100.863 125.71 103.87 128.709 104.134C131.853 104.411 137.068 103.106 140.873 99.5004C141.189 99.2011 142.621 98.886 141.278 101.669C139.791 104.749 137.447 108.696 136.167 109.317C133.731 110.499 118.934 111.128 117.935 110.448C116.937 109.768 112.322 96.9854 113.721 91.0007Z" fill="black" fill-opacity="0.3"/>
<path d="M144.864 150.972H131.814L122.474 118.904L121.183 114.477H134.233L134.769 116.319L144.864 150.972Z" fill="#F74D7B"/>
<path d="M134.769 116.319C133.007 117.25 131.087 117.963 129.053 118.417C128.283 118.589 127.506 118.719 126.73 118.809C125.306 118.975 123.88 119.006 122.474 118.904L121.183 114.477H134.233L134.769 116.319Z" fill="black" fill-opacity="0.3"/>
<path d="M126.586 27.3404C126.586 29.0955 125.165 30.5185 123.412 30.5185H92.4196C90.6666 30.5185 89.2457 29.0956 89.2457 27.3404C89.2457 25.5853 90.6666 24.1624 92.4196 24.1624H123.412C125.165 24.1624 126.586 25.5852 126.586 27.3404Z" fill="#14315D"/>
<path fill-rule="evenodd" clip-rule="evenodd" d="M222.827 20.9355H207.879C205.553 20.9355 203.667 22.824 203.667 25.1535C203.667 27.483 205.553 29.3714 207.879 29.3714H222.827C225.154 29.3714 227.04 27.483 227.04 25.1535C227.04 22.824 225.154 20.9355 222.827 20.9355ZM207.879 20.627H222.827C225.324 20.627 227.348 22.6536 227.348 25.1535C227.348 27.6534 225.324 29.68 222.827 29.68H207.879C205.383 29.68 203.359 27.6534 203.359 25.1535C203.359 22.6536 205.383 20.627 207.879 20.627Z" fill="#14315D"/>
<path d="M141.642 76.5054H135.344V97.2888H141.642V76.5054Z" fill="white"/>
<path d="M73.0522 78.8488L80.9727 84.8161L78.0432 77.6553L73.0522 78.8488Z" fill="#F74D7B"/>
<path d="M87.2395 141.998V144.868C87.2395 148.78 84.0748 151.949 80.1675 151.949H43.1931C41.7849 151.949 40.4721 151.535 39.369 150.823C39.5907 148.978 39.9822 146.728 40.4689 143.914C40.9775 140.98 42.17 134.112 44.2437 133.988C46.0928 133.877 46.8847 139.221 49.3189 139.304C51.9042 139.397 53.1616 133.451 55.3371 133.633C57.9503 133.849 58.4708 142.6 60.8838 142.733C62.9176 142.843 63.9312 136.719 66.3132 136.706C68.9172 136.691 69.9156 143.997 72.4516 144.032C75.376 144.072 76.9689 134.392 79.6498 134.578C81.2212 134.689 81.0887 138.046 84.4878 140.607C85.5324 141.39 86.4567 141.761 87.2395 141.998Z" fill="#F74D7B"/>
<path d="M201.996 75.1355L189.336 79.0397L194.309 72.4885L201.996 75.1355Z" fill="#14315D"/>
<path d="M126.825 75.033H119.416V97.2709H126.825V75.033Z" fill="white"/>
<path d="M119.416 97.2708L110.836 92.2745L110.829 70.4185L119.416 76.4874V97.2708Z" fill="white"/>
<path d="M141.591 75.1875H119.416V97.1145H141.591V75.1875Z" fill="#14315D"/>
<path d="M119.262 97.2889L110.905 92.0759V70.1487L119.346 75.0333L119.262 97.2889Z" fill="#26ABE8"/>
<path d="M141.642 75.031H119.507L110.972 69.8984H133.198L141.642 75.031Z" fill="#F74D7B"/>
<path fill-rule="evenodd" clip-rule="evenodd" d="M113.567 93.9768V71.5669H113.876V93.9768H113.567Z" fill="#414042"/>
<path fill-rule="evenodd" clip-rule="evenodd" d="M110.99 92.1865V69.8457H110.682V92.3626L119.273 97.4429L119.43 97.1772L110.99 92.1865Z" fill="#414042"/>
<path fill-rule="evenodd" clip-rule="evenodd" d="M116.452 95.6792V73.3311H116.76V95.6792H116.452Z" fill="#414042"/>
<path fill-rule="evenodd" clip-rule="evenodd" d="M110.915 84.7231L119.494 89.7857L119.338 90.0514L110.758 84.9888L110.915 84.7231Z" fill="#414042"/>
<path fill-rule="evenodd" clip-rule="evenodd" d="M119.338 82.6329L110.758 77.5704L110.915 77.3047L119.494 82.3672L119.338 82.6329Z" fill="#414042"/>
<path fill-rule="evenodd" clip-rule="evenodd" d="M118.793 69.8657L126.898 74.8998L126.736 75.162L118.63 70.1279L118.793 69.8657Z" fill="#414042"/>
<path fill-rule="evenodd" clip-rule="evenodd" d="M126.632 74.8767H134.041V75.1855H126.632V74.8767Z" fill="#414042"/>
<path fill-rule="evenodd" clip-rule="evenodd" d="M134.144 75.162L126.07 70.1276L126.232 69.8657L134.307 74.9001L134.144 75.162Z" fill="#414042"/>
<path fill-rule="evenodd" clip-rule="evenodd" d="M133.41 70.1513H110.682V69.8425H133.41V70.1513Z" fill="#414042"/>
<path fill-rule="evenodd" clip-rule="evenodd" d="M119.458 74.8787L110.966 69.864L110.809 70.1297L119.374 75.1875L126.632 75.1856V74.8768L119.458 74.8787Z" fill="#414042"/>
<path d="M141.666 75.1634L133.214 70.0784L133.372 69.814L141.798 74.8797L141.666 75.1634Z" fill="#414042"/>
<path fill-rule="evenodd" clip-rule="evenodd" d="M134.041 74.8767H141.753V75.1855H134.041V74.8767Z" fill="#414042"/>
<path fill-rule="evenodd" clip-rule="evenodd" d="M116.593 73.1987H138.986V73.5072H116.593V73.1987Z" fill="#414042"/>
<path fill-rule="evenodd" clip-rule="evenodd" d="M136.167 71.8292H113.625V71.5208H136.167V71.8292Z" fill="#414042"/>
<path fill-rule="evenodd" clip-rule="evenodd" d="M126.671 97.2888V75.0332H126.979V97.2888H126.671Z" fill="#414042"/>
<path fill-rule="evenodd" clip-rule="evenodd" d="M119.57 75.0332V97.2888H119.262V75.0332H119.57Z" fill="#414042"/>
<path fill-rule="evenodd" clip-rule="evenodd" d="M134.08 97.2888V75.0332H134.388V97.2888H134.08Z" fill="#414042"/>
<path fill-rule="evenodd" clip-rule="evenodd" d="M141.488 97.2889V74.8796H141.797V97.2889H141.488Z" fill="#414042"/>
<path fill-rule="evenodd" clip-rule="evenodd" d="M119.416 89.7158H141.642V90.0246H119.416V89.7158Z" fill="#414042"/>
<path fill-rule="evenodd" clip-rule="evenodd" d="M141.642 82.6059H119.416V82.2971H141.642V82.6059Z" fill="#414042"/>
<path fill-rule="evenodd" clip-rule="evenodd" d="M119.262 97.1343H141.642V97.443H119.262V97.1343Z" fill="#414042"/>
<path fill-rule="evenodd" clip-rule="evenodd" d="M113.514 82.4717C115.263 83.8277 115.584 86.3471 114.23 88.0989C112.156 90.7817 111.453 94.2758 112.118 97.4314C112.666 100.033 114.43 102.675 116.809 104.3C118.637 105.548 119.108 108.044 117.861 109.874C116.614 111.704 114.122 112.175 112.294 110.927C108.278 108.183 105.269 103.793 104.278 99.0863C103.153 93.7378 104.313 87.8202 107.894 83.1887C109.248 81.4365 111.764 81.1158 113.514 82.4717Z" fill="#F74D7B"/>
<path fill-rule="evenodd" clip-rule="evenodd" d="M116.915 85.4056C118.633 86.8021 118.894 89.3285 117.5 91.048C115.636 93.3457 114.607 96.3946 114.89 99.1097C115.138 101.5 116.227 103.657 117.951 105.373C119.519 106.935 119.526 109.475 117.966 111.046C116.406 112.616 113.869 112.623 112.301 111.061C109.373 108.145 107.376 104.31 106.921 99.9416C106.385 94.7932 108.29 89.6775 111.28 85.9905C112.675 84.2707 115.198 84.0088 116.915 85.4056Z" fill="#F74D7B"/>
<path fill-rule="evenodd" clip-rule="evenodd" d="M145.528 97.8444C147.637 98.5132 148.806 100.767 148.138 102.879C145.733 110.483 138.56 116.134 129.91 117.037C123.125 117.745 116.673 115.416 112.301 111.061C110.732 109.499 110.725 106.959 112.285 105.389C113.845 103.818 116.382 103.811 117.951 105.373C120.555 107.967 124.601 109.525 129.08 109.058C134.839 108.457 139.14 104.757 140.5 100.458C141.168 98.3456 143.419 97.1759 145.528 97.8444Z" fill="#F74D7B"/>
<path d="M146.962 150.972C146.031 151.419 144.795 151.269 143.695 151.269H128.664L124.751 137.153L122.64 129.609L122.264 128.264H140.565L140.941 129.609L143.052 137.153L146.962 150.972Z" fill="#14315D"/>
<path opacity="0.28" d="M143.052 137.153H124.751L122.64 129.609H140.941L143.052 137.153Z" fill="#231F20"/>
<path d="M44.2272 151.401C44.2272 151.401 53.5803 114.838 52.0215 107.852C50.4627 100.866 45.9808 110.426 45.9808 110.426C45.9808 110.426 47.7348 88.1831 43.0581 87.988C38.3814 87.793 38.3814 92.4758 38.3814 92.4758C38.3814 92.4758 38.1865 67.501 34.679 67.501C27.2745 67.501 29.8077 149.059 31.951 151.401H44.2272Z" fill="#14315D"/>
<path d="M78.9284 149.657C77.3411 151.475 74.5825 151.66 72.7669 150.071L51.23 131.217C49.4144 129.628 49.2294 126.866 50.8166 125.048C52.4039 123.23 55.1622 123.044 56.9778 124.634L78.5151 143.488C80.3306 145.077 80.5157 147.839 78.9284 149.657Z" fill="#14315D"/>
<path fill-rule="evenodd" clip-rule="evenodd" d="M66.4046 120.822C63.6219 120.822 61.3661 123.081 61.3661 125.867C61.3661 128.654 63.6219 130.913 66.4046 130.913C69.1873 130.913 71.4431 128.654 71.4431 125.867C71.4431 123.081 69.1873 120.822 66.4046 120.822ZM61.058 125.867C61.058 122.911 63.4517 120.514 66.4046 120.514C69.3577 120.514 71.7514 122.911 71.7514 125.867C71.7514 128.824 69.3577 131.221 66.4046 131.221C63.4517 131.221 61.058 128.824 61.058 125.867Z" fill="#414042"/>
<path d="M142.597 135.278H122.843C122.29 135.278 121.795 134.931 121.606 134.411L119.82 129.502C119.507 128.641 120.143 127.732 121.057 127.732H140.651C141.112 127.732 141.524 128.02 141.682 128.454L143.628 133.803C143.889 134.519 143.359 135.278 142.597 135.278Z" fill="#26ABE8"/>
<path d="M125.642 130.825H122.072C121.893 130.825 121.748 130.679 121.748 130.5C121.748 130.321 121.893 130.175 122.072 130.175H125.642C125.821 130.175 125.967 130.321 125.967 130.5C125.967 130.679 125.821 130.825 125.642 130.825Z" fill="#14315D"/>
<path d="M126.35 132.834H122.78C122.601 132.834 122.456 132.688 122.456 132.509C122.456 132.33 122.601 132.184 122.78 132.184H126.35C126.529 132.184 126.675 132.33 126.675 132.509C126.675 132.688 126.529 132.834 126.35 132.834Z" fill="#14315D"/>
<path fill-rule="evenodd" clip-rule="evenodd" d="M75.2792 107.055L77.3658 108.685L79.4534 107.055L81.5406 108.685L83.6282 107.055L85.7161 108.685L87.803 107.055L89.8918 108.686L91.9819 107.055L94.1669 108.76C94.2339 108.812 94.246 108.909 94.1935 108.976C94.1413 109.043 94.0445 109.055 93.9775 109.003L91.9819 107.446L89.8918 109.077L87.803 107.446L85.7164 109.077L83.6282 107.446L81.5406 109.077L79.4534 107.446L77.3658 109.077L75.2792 107.446L73.1913 109.077L71.1037 107.446L69.0165 109.077L66.8344 107.372C66.7673 107.32 66.7553 107.223 66.8075 107.156C66.86 107.088 66.9567 107.076 67.0238 107.129L69.0165 108.685L71.1037 107.055L73.1913 108.685L75.2792 107.055Z" fill="#414042"/>
<path fill-rule="evenodd" clip-rule="evenodd" d="M70.9127 109.872L72.999 111.503L75.0866 109.872L77.1739 111.503L79.2614 109.872L81.3496 111.503L83.4362 109.872L85.5251 111.503L87.6152 109.872L89.8001 111.577C89.8672 111.629 89.8792 111.726 89.827 111.794C89.7745 111.861 89.6778 111.873 89.6107 111.82L87.6152 110.263L85.5251 111.894L83.4366 110.263L81.3496 111.894L79.2614 110.263L77.1739 111.894L75.0866 110.263L72.999 111.894L70.9124 110.263L68.8245 111.894L66.737 110.263L64.6497 111.894L62.4676 110.19C62.4006 110.137 62.3885 110.04 62.4407 109.973C62.4932 109.906 62.59 109.894 62.657 109.946L64.6497 111.503L66.737 109.872L68.8245 111.503L70.9127 109.872Z" fill="#414042"/>
<path fill-rule="evenodd" clip-rule="evenodd" d="M145.027 55.584L147.114 57.2148L149.201 55.584L151.289 57.2148L153.376 55.584L155.464 57.2148L157.551 55.584L159.64 57.2148L161.73 55.584L163.915 57.2886C163.982 57.3412 163.994 57.4381 163.941 57.5052C163.889 57.5723 163.792 57.5844 163.725 57.5321L161.73 55.9754L159.64 57.6059L157.551 55.9754L155.464 57.6062L153.376 55.9754L151.289 57.6062L149.201 55.9754L147.114 57.6062L145.027 55.9754L142.939 57.6062L140.852 55.9754L138.764 57.6062L136.582 55.9013C136.515 55.849 136.503 55.7518 136.555 55.6847C136.608 55.6175 136.704 55.6055 136.772 55.6581L138.764 57.2148L140.851 55.584L142.939 57.2148L145.027 55.584Z" fill="#F74D7B"/>
<path fill-rule="evenodd" clip-rule="evenodd" d="M140.66 58.4014L142.747 60.0319L144.834 58.4014L146.922 60.0322L149.009 58.4014L151.097 60.0322L153.184 58.4014L155.273 60.0322L157.363 58.4014L159.548 60.106C159.615 60.1582 159.627 60.2555 159.575 60.3226C159.523 60.3897 159.426 60.4017 159.358 60.3495L157.363 58.7925L155.273 60.4233L153.184 58.7928L151.097 60.4233L149.009 58.7928L146.922 60.4233L144.834 58.7928L142.747 60.4233L140.66 58.7928L138.573 60.4233L136.485 58.7928L134.397 60.4233L132.215 58.7187C132.148 58.6661 132.136 58.5692 132.189 58.5021C132.241 58.4349 132.338 58.4229 132.405 58.4755L134.397 60.0319L136.485 58.4014L138.573 60.0322L140.66 58.4014Z" fill="#F74D7B"/>
<path d="M60.9385 160.484C75.9395 160.484 88.0999 159.796 88.0999 158.948C88.0999 158.099 75.9395 157.412 60.9385 157.412C45.9375 157.412 33.7767 158.099 33.7767 158.948C33.7767 159.796 45.9375 160.484 60.9385 160.484Z" fill="black" fill-opacity="0.22"/>
<path d="M126.501 160.484C141.502 160.484 153.663 159.796 153.663 158.948C153.663 158.099 141.502 157.412 126.501 157.412C111.5 157.412 99.3392 158.099 99.3392 158.948C99.3392 159.796 111.5 160.484 126.501 160.484Z" fill="black" fill-opacity="0.22"/>
<path d="M191.902 160.484C206.903 160.484 219.064 159.796 219.064 158.948C219.064 158.099 206.903 157.412 191.902 157.412C176.901 157.412 164.74 158.099 164.74 158.948C164.74 159.796 176.901 160.484 191.902 160.484Z" fill="black" fill-opacity="0.22"/>
<path d="M12.9163 57.4822C14.4229 57.4822 15.6442 56.2592 15.6442 54.7506C15.6442 53.242 14.4229 52.019 12.9163 52.019C11.4097 52.019 10.1884 53.242 10.1884 54.7506C10.1884 56.2592 11.4097 57.4822 12.9163 57.4822Z" fill="#14315D"/>
<path d="M238.315 72.4527C240.957 72.4527 243.099 70.308 243.099 67.6625C243.099 65.0171 240.957 62.8723 238.315 62.8723C235.673 62.8723 233.531 65.0171 233.531 67.6625C233.531 70.308 235.673 72.4527 238.315 72.4527Z" fill="#14315D"/>
<path d="M100.903 144.838C102.41 144.838 103.631 143.615 103.631 142.106C103.631 140.598 102.41 139.375 100.903 139.375C99.3964 139.375 98.175 140.598 98.175 142.106C98.175 143.615 99.3964 144.838 100.903 144.838Z" fill="#F74D7B"/>
<path d="M152.976 115.883C154.483 115.883 155.704 114.66 155.704 113.151C155.704 111.643 154.483 110.42 152.976 110.42C151.47 110.42 150.248 111.643 150.248 113.151C150.248 114.66 151.47 115.883 152.976 115.883Z" fill="#F74D7B"/>
<path fill-rule="evenodd" clip-rule="evenodd" d="M96.3765 173.977C96.3765 173.892 96.4455 173.823 96.5305 173.823C97.8986 173.823 98.5909 174.476 99.2459 175.095L99.2503 175.099C99.9008 175.714 100.516 176.291 101.758 176.291C103.001 176.291 103.616 175.714 104.267 175.099L104.271 175.095C104.926 174.476 105.619 173.823 106.987 173.823C108.355 173.823 109.047 174.476 109.703 175.095L109.707 175.099C110.358 175.714 110.973 176.291 112.216 176.291C113.459 176.291 114.074 175.714 114.724 175.099L114.729 175.095C115.384 174.476 116.076 173.823 117.444 173.823C118.813 173.823 119.505 174.476 120.16 175.095L120.164 175.099C120.815 175.714 121.43 176.291 122.672 176.291C123.915 176.291 124.53 175.714 125.181 175.099L125.185 175.095C125.841 174.476 126.533 173.823 127.901 173.823C129.269 173.823 129.961 174.476 130.616 175.095L130.621 175.099C131.272 175.714 131.886 176.291 133.129 176.291C134.372 176.291 134.987 175.714 135.638 175.099L135.642 175.095C136.297 174.476 136.99 173.823 138.358 173.823C139.727 173.823 140.419 174.476 141.074 175.095L141.078 175.099C141.729 175.714 142.344 176.291 143.587 176.291C144.83 176.291 145.445 175.714 146.096 175.099L146.1 175.095C146.755 174.476 147.447 173.823 148.816 173.823C150.184 173.823 150.877 174.476 151.531 175.095L151.536 175.099C152.187 175.714 152.802 176.291 154.045 176.291C155.287 176.291 155.902 175.714 156.553 175.099L156.557 175.095C157.212 174.476 157.904 173.823 159.272 173.823C160.641 173.823 161.333 174.476 161.988 175.095L161.992 175.099C162.643 175.714 163.258 176.291 164.5 176.291C165.743 176.291 166.358 175.714 167.009 175.099L167.014 175.095C167.668 174.476 168.361 173.823 169.729 173.823C171.098 173.823 171.79 174.476 172.445 175.095L172.449 175.099C173.1 175.714 173.715 176.291 174.958 176.291C176.201 176.291 176.816 175.714 177.467 175.099L177.471 175.095C178.127 174.476 178.818 173.823 180.187 173.823C181.555 173.823 182.248 174.476 182.903 175.095L182.907 175.099C183.558 175.714 184.173 176.291 185.416 176.291C186.659 176.291 187.274 175.714 187.925 175.099L187.929 175.095C188.584 174.476 189.277 173.823 190.645 173.823C192.014 173.823 192.706 174.476 193.361 175.095L193.366 175.099C194.017 175.714 194.632 176.291 195.875 176.291C197.118 176.291 197.733 175.714 198.383 175.099L198.388 175.095C199.043 174.476 199.735 173.823 201.103 173.823C202.472 173.823 203.164 174.476 203.82 175.095L203.824 175.099C204.475 175.714 205.09 176.291 206.333 176.291C207.577 176.291 208.192 175.714 208.843 175.099L208.847 175.095C209.503 174.476 210.195 173.823 211.564 173.823C212.933 173.823 213.625 174.476 214.281 175.095L214.285 175.099C214.936 175.714 215.552 176.291 216.795 176.291C218.039 176.291 218.654 175.714 219.305 175.099L219.309 175.095C219.965 174.476 220.657 173.823 222.026 173.823C222.111 173.823 222.18 173.892 222.18 173.977C222.18 174.062 222.111 174.131 222.026 174.131C220.783 174.131 220.167 174.709 219.516 175.324L219.512 175.328C218.856 175.946 218.164 176.6 216.795 176.6C215.426 176.6 214.734 175.946 214.078 175.328L214.074 175.324C213.423 174.709 212.807 174.131 211.564 174.131C210.32 174.131 209.705 174.709 209.054 175.324L209.05 175.328C208.394 175.946 207.702 176.6 206.333 176.6C204.965 176.6 204.272 175.946 203.617 175.328L203.612 175.324C202.962 174.709 202.347 174.131 201.103 174.131C199.861 174.131 199.245 174.709 198.595 175.324L198.59 175.328C197.935 175.946 197.243 176.6 195.875 176.6C194.506 176.6 193.814 175.946 193.159 175.328L193.154 175.324C192.503 174.709 191.888 174.131 190.645 174.131C189.402 174.131 188.787 174.709 188.136 175.324L188.132 175.328C187.476 175.946 186.785 176.6 185.416 176.6C184.047 176.6 183.355 175.946 182.7 175.328L182.696 175.324C182.045 174.709 181.43 174.131 180.187 174.131C178.944 174.131 178.329 174.709 177.678 175.324L177.674 175.328C177.019 175.946 176.327 176.6 174.958 176.6C173.59 176.6 172.898 175.946 172.242 175.328L172.238 175.324C171.587 174.709 170.972 174.131 169.729 174.131C168.486 174.131 167.871 174.709 167.22 175.324L167.216 175.328C166.561 175.946 165.869 176.6 164.5 176.6C163.132 176.6 162.44 175.946 161.785 175.328L161.781 175.324C161.13 174.709 160.515 174.131 159.272 174.131C158.03 174.131 157.415 174.709 156.764 175.324L156.76 175.328C156.105 175.946 155.413 176.6 154.045 176.6C152.676 176.6 151.984 175.946 151.329 175.328L151.325 175.324C150.674 174.709 150.059 174.131 148.816 174.131C147.573 174.131 146.958 174.709 146.307 175.324L146.303 175.328C145.648 175.946 144.956 176.6 143.587 176.6C142.219 176.6 141.527 175.946 140.871 175.328L140.867 175.324C140.216 174.709 139.601 174.131 138.358 174.131C137.115 174.131 136.5 174.709 135.849 175.324L135.845 175.328C135.19 175.946 134.498 176.6 133.129 176.6C131.761 176.6 131.069 175.946 130.414 175.328L130.409 175.324C129.759 174.709 129.144 174.131 127.901 174.131C126.658 174.131 126.043 174.709 125.392 175.324L125.388 175.328C124.733 175.946 124.041 176.6 122.672 176.6C121.304 176.6 120.612 175.946 119.957 175.328L119.953 175.324C119.302 174.709 118.687 174.131 117.444 174.131C116.201 174.131 115.587 174.709 114.936 175.324L114.931 175.328C114.276 175.946 113.584 176.6 112.216 176.6C110.848 176.6 110.155 175.946 109.5 175.328L109.496 175.324C108.845 174.709 108.23 174.131 106.987 174.131C105.744 174.131 105.129 174.709 104.479 175.324L104.474 175.328C103.819 175.946 103.127 176.6 101.758 176.6C100.39 176.6 99.6984 175.946 99.0431 175.328L99.0387 175.324C98.3882 174.709 97.7734 174.131 96.5305 174.131C96.4455 174.131 96.3765 174.062 96.3765 173.977Z" fill="#14315D"/>
<path d="M199.094 151.102C201.961 151.102 204.286 148.774 204.286 145.902C204.286 143.031 201.961 140.703 199.094 140.703C196.226 140.703 193.901 143.031 193.901 145.902C193.901 148.774 196.226 151.102 199.094 151.102Z" fill="#14315D"/>
<path d="M195.422 96.647L194.202 101.029L192.983 105.411L189.803 102.162L186.623 98.9134L191.023 97.7803L195.422 96.647Z" fill="#F74D7B"/>
<path fill-rule="evenodd" clip-rule="evenodd" d="M199.459 96.7441L195.322 111.607L184.536 100.588L199.459 96.7441ZM199.019 97.1761L185.129 100.753L195.168 111.01L199.019 97.1761Z" fill="#414042"/>
<path d="M81.0172 78.8488H47.6348C46.7674 78.8488 46.064 78.1445 46.064 77.2756V71.9806C46.064 71.112 46.7674 70.4077 47.6348 70.4077H81.0172C81.885 70.4077 82.5884 71.112 82.5884 71.9806V77.2756C82.5884 78.1445 81.885 78.8488 81.0172 78.8488Z" fill="#14315D"/>
<path d="M50.8754 63.1918L42.955 69.1594L45.8844 61.9983L50.8754 63.1918Z" fill="#14315D"/>
<path d="M42.9101 63.1918H76.2924C77.1602 63.1918 77.8633 62.4875 77.8633 61.6189V56.3236C77.8633 55.455 77.1602 54.7507 76.2924 54.7507H42.9101C42.0426 54.7507 41.3392 55.455 41.3392 56.3236V61.6189C41.3392 62.4875 42.0426 63.1918 42.9101 63.1918Z" fill="#F74D7B"/>
<path d="M59.1179 60.2869C59.48 60.3192 59.363 59.8224 59.3067 59.5637C59.1931 59.0418 60.2403 59.2093 60.6783 58.5326C60.9433 58.1228 61.0125 57.2479 60.6957 56.8128C60.3702 56.3653 59.702 56.27 59.3522 56.3378C58.5357 56.4961 58.3367 57.1554 58.2988 57.67C58.2786 57.942 58.3861 57.9537 58.622 57.9284C58.9281 57.8955 58.7007 57.0449 59.4155 56.8733C59.6555 56.8156 60.2384 56.9515 60.3604 57.1633C60.5638 57.5167 60.2763 58.2308 60.1628 58.3622C59.8993 58.6669 58.7406 58.9246 58.832 59.5295C58.8911 59.9206 58.6511 60.2451 59.1179 60.2869Z" fill="#14315D"/>
<path d="M59.129 61.6243C59.3197 61.6243 59.474 61.4695 59.474 61.2788C59.474 61.0879 59.3197 60.9333 59.129 60.9333C58.9386 60.9333 58.7839 61.0879 58.7839 61.2788C58.7839 61.4695 58.9386 61.6243 59.129 61.6243Z" fill="#14315D"/>
<path fill-rule="evenodd" clip-rule="evenodd" d="M177.764 131.937C174.981 131.937 172.725 134.196 172.725 136.982C172.725 139.768 174.981 142.027 177.764 142.027C180.546 142.027 182.802 139.768 182.802 136.982C182.802 134.196 180.546 131.937 177.764 131.937ZM172.417 136.982C172.417 134.025 174.811 131.628 177.764 131.628C180.716 131.628 183.11 134.025 183.11 136.982C183.11 139.939 180.716 142.336 177.764 142.336C174.811 142.336 172.417 139.939 172.417 136.982Z" fill="#414042"/>
<path d="M61.8281 75.3075C62.2029 75.3075 62.5068 75.0035 62.5068 74.6283C62.5068 74.253 62.2029 73.9487 61.8281 73.9487C61.4534 73.9487 61.1495 74.253 61.1495 74.6283C61.1495 75.0035 61.4534 75.3075 61.8281 75.3075Z" fill="#F74D7B"/>
<path d="M64.3262 75.3075C64.7009 75.3075 65.0049 75.0035 65.0049 74.6283C65.0049 74.253 64.7009 73.9487 64.3262 73.9487C63.9514 73.9487 63.6475 74.253 63.6475 74.6283C63.6475 75.0035 63.9514 75.3075 64.3262 75.3075Z" fill="#F74D7B"/>
<path d="M66.8242 75.3075C67.199 75.3075 67.5029 75.0035 67.5029 74.6283C67.5029 74.253 67.199 73.9487 66.8242 73.9487C66.4495 73.9487 66.1456 74.253 66.1456 74.6283C66.1456 75.0035 66.4495 75.3075 66.8242 75.3075Z" fill="#F74D7B"/>
<path d="M69.9906 43.8149H51.8862C50.5159 43.8149 49.4049 42.7024 49.4049 41.33V39.3242H72.4719V41.33C72.4719 42.7024 71.3609 43.8149 69.9906 43.8149Z" fill="#14315D"/>
<path d="M135.359 43.8149H117.255C115.885 43.8149 114.774 42.7024 114.774 41.33V39.3242H137.841V41.33C137.841 42.7024 136.73 43.8149 135.359 43.8149Z" fill="#14315D"/>
<path d="M200.954 43.8149H182.85C181.479 43.8149 180.368 42.7024 180.368 41.33V39.3242H203.435V41.33C203.435 42.7024 202.324 43.8149 200.954 43.8149Z" fill="#F74D7B"/>
<path d="M108.782 89.9985C108.782 89.9985 111.044 91.446 112.508 89.2034C114.926 85.4996 112.019 85.2976 112.019 85.2976C112.019 85.2976 109.913 86.5668 108.782 89.9985Z" fill="#14315D"/>
<path fill-rule="evenodd" clip-rule="evenodd" d="M173.531 39.609C169.709 39.609 166.613 42.7117 166.613 46.5361V144.044C166.613 147.869 169.709 150.971 173.531 150.971H210.508C211.585 150.971 212.606 150.724 213.517 150.286C215.829 149.163 217.426 146.788 217.426 144.044V46.5361C217.426 42.712 214.327 39.609 210.508 39.609H173.531ZM166.305 46.5361C166.305 42.5416 169.538 39.3005 173.531 39.3005H210.508C214.498 39.3005 217.734 42.5413 217.734 46.5361V144.044C217.734 146.911 216.065 149.392 213.651 150.564L213.65 150.565C212.7 151.021 211.632 151.28 210.508 151.28H173.531C169.538 151.28 166.305 148.039 166.305 144.044V46.5361Z" fill="#414042"/>
<path d="M166.181 75.2463C167.688 75.2463 168.909 74.0233 168.909 72.515C168.909 71.0064 167.688 69.7834 166.181 69.7834C164.675 69.7834 163.453 71.0064 163.453 72.515C163.453 74.0233 164.675 75.2463 166.181 75.2463Z" fill="#14315D"/>
<path d="M192.294 71.6931L219.142 80.7976C221.281 81.5231 223.602 80.3748 224.327 78.2329L228.631 65.5067C229.355 63.3648 228.209 61.0408 226.069 60.3153L199.221 51.2108C197.082 50.4856 194.761 51.6339 194.036 53.7755L189.732 66.502C189.008 68.6436 190.154 70.9676 192.294 71.6931Z" fill="#F74D7B"/>
<path fill-rule="evenodd" clip-rule="evenodd" d="M193.891 53.7261C194.642 51.5037 197.051 50.3121 199.27 51.0648L226.119 60.1693C228.339 60.922 229.528 63.3337 228.777 65.5561L224.472 78.2826C223.721 80.505 221.312 81.6963 219.093 80.9439L192.244 71.8391C190.025 71.0867 188.835 68.6749 189.586 66.4523L193.891 53.7261ZM199.171 51.3571C197.113 50.6591 194.88 51.764 194.183 53.8249L189.878 66.5514C189.181 68.6122 190.285 70.8489 192.343 71.5468L219.192 80.6516C221.25 81.3495 223.483 80.2444 224.18 78.1835L228.485 65.457C229.182 63.3961 228.078 61.1595 226.02 60.4616L199.171 51.3571Z" fill="#26ABE8"/>
<path d="M206.894 66.3034C207.269 66.3034 207.572 65.9994 207.572 65.6241C207.572 65.2489 207.269 64.9446 206.894 64.9446C206.519 64.9446 206.215 65.2489 206.215 65.6241C206.215 65.9994 206.519 66.3034 206.894 66.3034Z" fill="#14315D"/>
<path d="M209.372 66.9828C209.747 66.9828 210.051 66.6785 210.051 66.3033C210.051 65.928 209.747 65.624 209.372 65.624C208.997 65.624 208.693 65.928 208.693 66.3033C208.693 66.6785 208.997 66.9828 209.372 66.9828Z" fill="#14315D"/>
<path d="M211.85 67.6626C212.225 67.6626 212.529 67.3583 212.529 66.983C212.529 66.6078 212.225 66.3035 211.85 66.3035C211.475 66.3035 211.172 66.6078 211.172 66.983C211.172 67.3583 211.475 67.6626 211.85 67.6626Z" fill="#14315D"/>
<path d="M220.058 151.401C220.058 151.401 228.668 117.68 227.234 111.249C225.798 104.818 221.673 113.619 221.673 113.619C221.673 113.619 223.287 93.142 218.982 92.9625C214.677 92.7829 214.676 97.0937 214.676 97.0937C214.676 97.0937 214.194 81.9346 210.965 81.9346C204.148 81.9346 204.743 149.246 206.716 151.401H220.058Z" fill="#14315D"/>
<path d="M191.152 147.028C191.152 149.443 189.197 151.4 186.785 151.4H158.178C155.766 151.4 153.811 149.443 153.811 147.028C153.811 144.614 155.766 142.656 158.178 142.656H186.785C189.197 142.656 191.152 144.614 191.152 147.028Z" fill="#14315D"/>
</svg>
