<svg xmlns="http://www.w3.org/2000/svg" width="34" height="34" viewBox="0 0 34 34">
  <defs>
    <style>
      .a {
        fill: #14315d;
      }

      .b {
        fill: #26abe8;
      }

      .c {
        fill: #f74d7b;
        fill-rule: evenodd;
      }
    </style>
  </defs>
  <g>
    <path class="a" d="M17,5.16l10.33,5.95V22.89L17,28.84,6.67,22.89V11.11L17,5.16M17,.28,2.45,8.66V25.34L17,33.72l14.55-8.38V8.66L17,.28Z"/>
    <path class="b" d="M17,7.69l8.12,4.67v9.28L17,26.31,8.88,21.64V12.36L17,7.69m0-3.25L6.06,10.74V23.26L17,29.56l10.94-6.3V10.74L17,4.44Z"/>
    <polygon class="c" points="17 13.88 14.28 15.44 14.28 18.56 17 20.12 19.72 18.56 19.72 15.44 17 13.88"/>
  </g>
</svg>
