<svg id="Layer_1" data-name="Layer 1" xmlns="http://www.w3.org/2000/svg" viewBox="0 0 71.78 63.41"><defs><style>.cls-1{fill:#fff}</style></defs><path class="cls-1" d="M33.4 5.58a12.75 12.75 0 00-6.78 3.61l-2.25 2.24A3.6 3.6 0 0020.7 11l-6.22 2.83a2.36 2.36 0 00-1.37 1.75 2.41 2.41 0 00.66 2.12l3 3a1.2 1.2 0 00.85.36A1 1 0 0018 21l1.31-.44-.81 1.65a3.58 3.58 0 00-2.57 1c-1 1-3.44 5-1.69 6.77a2.23 2.23 0 001.65.61A9.12 9.12 0 0021 28.33a3.55 3.55 0 001-2.57l1.64-.82-.44 1.31a1.21 1.21 0 00.29 1.23l3 3a2.39 2.39 0 001.69.7 2 2 0 00.43 0 2.37 2.37 0 001.75-1.36l2.83-6.22a3.6 3.6 0 00-.43-3.67L35 17.69a12.82 12.82 0 003.61-6.78c.4-2.16.15-3.65-.75-4.54s-2.31-1.18-4.46-.79zM18 18.5L15.47 16l6.22-2.83a1.14 1.14 0 01.94 0l-4.16 4.15a1.2 1.2 0 00-.3 1.1zm1.37 8.14A7.5 7.5 0 0116 28.26 7.35 7.35 0 0117.63 25a1.2 1.2 0 111.69 1.69zM21 23.25l-.22-.25.57-1.13 1 1-1.13.56zm10.07-.67l-2.82 6.22-2.48-2.49.07-.22.25.05a1.23 1.23 0 00.85-.35l4.15-4.16a1.17 1.17 0 01-.01.95zm5.25-12.14A10.52 10.52 0 0133.38 16l-7.29 7.3-1.7-1.69 5.08-5.08-1.69-1.73-5.08 5.07-1.7-1.69 7.3-7.29a10.49 10.49 0 015.51-2.95c1.56-.29 2.26-.08 2.42.09s.38.86.1 2.41z"/><path class="cls-1" d="M33.24 10.27l-2.54-.84-.76 2.27 2 .66.66 2 2.27-.76L34 11a1.2 1.2 0 00-.76-.73z"/><path class="cls-1" d="M52.64 29.91V6a6 6 0 00-6-6H6a6 6 0 00-6 6v23.91a6 6 0 006 6h5.37L17 43.77a1.2 1.2 0 002.17-.7v-7.18h27.49a6 6 0 005.98-5.98zM18 33.5a1.2 1.2 0 00-1.2 1.2v4.64L12.94 34a1.22 1.22 0 00-1-.5H6a3.59 3.59 0 01-3.59-3.59V6A3.59 3.59 0 016 2.39h40.66A3.59 3.59 0 0150.25 6v23.91a3.59 3.59 0 01-3.59 3.59z"/><path class="cls-1" d="M65.8 22.73H55v2.39h10.8a3.59 3.59 0 013.59 3.59v21.54a3.59 3.59 0 01-3.59 3.59H55a1.18 1.18 0 00-.91.43l-3.87 4.64V55a1.19 1.19 0 00-1.2-1.19h-21.5a3.59 3.59 0 01-3.59-3.59v-12h-2.39v12a6 6 0 006 6h20.32v6A1.19 1.19 0 0050 63l5.62-6.75H65.8a6 6 0 006-6V28.71a6 6 0 00-6-5.98z"/><path class="cls-1" d="M29.91 38.29h33.5v2.39h-33.5zm0 7.17h33.5v2.4h-33.5zm26.32-14.35h7.18v2.39h-7.18z"/></svg>