<svg id="Layer_1" data-name="Layer 1" xmlns="http://www.w3.org/2000/svg" viewBox="0 0 58.07 60.08"><defs><style>.cls-1{fill:#fff}</style></defs><path class="cls-1" d="M35 40.05H24.86a3 3 0 00-2.83-2H20V27a1 1 0 011-1h13.6l9.54 9.54a1 1 0 001.41-1.42L37.46 26h9.6a1 1 0 011 1v9.6a1 1 0 002 0V27a3 3 0 00-3-3H21a3 3 0 00-3 3v11H6a3 3 0 00-3 3v11H1a1 1 0 00-1 1v1a4 4 0 004 4h20a4 4 0 004-4v-1a1 1 0 00-1-1h-2v-6h4l-1.81 2.4a1 1 0 00-.09 1 1 1 0 00.9.55h6a1 1 0 000-2h-4l1.5-2H34a1 1 0 000-2h-9v-2h10a1 1 0 100-2zm-11 16H4a2 2 0 01-2-2h24a2 2 0 01-2 2.02zm-19-4v-11a1 1 0 011-1h7.6l5.7 5.72a1 1 0 001.7-.71 1 1 0 00-.29-.71l-4.31-4.3H22a1 1 0 011 1v11z"/><path class="cls-1" d="M34 52.07h-3a1 1 0 000 2h3a1 1 0 000-2zm22.07-5.01h-6v-4a3 3 0 00-3-3h-7a3 3 0 00-3 3v12a3 3 0 003 3h7a2.84 2.84 0 001-.17v1.18a1 1 0 002 0v-9.6l6 6v3.6a1 1 0 002 0v-10a2 2 0 00-2-2.01zm-8-4v9h-9v-9a1 1 0 01.12-.47l5.18 5.19a1 1 0 00.71.3 1 1 0 00.71-.3 1 1 0 000-1.42l-4.31-4.3h5.6a1 1 0 01.98.99zm-1 13h-7a1 1 0 01-1-1v-1h9v1a1 1 0 01-1.01 1.01zm5.42-7h3.59v3.6zM21.14 11a1 1 0 00.1.76l2 3.47a1 1 0 00.6.47 1.05 1.05 0 00.76-.1l1.4-.82a7.52 7.52 0 001 .56V17a1 1 0 001 1h4a1 1 0 001-1v-1.66a6.94 6.94 0 001-.56l1.47.84a1.05 1.05 0 00.76.1 1 1 0 00.6-.47l2-3.46a1 1 0 00-.36-1.38l-1.46-.84V8.45l1.45-.84a1 1 0 00.44-.6 1 1 0 00-.1-.76l-2-3.47a1 1 0 00-1.36-.37L34 3.24a6.94 6.94 0 00-1-.56V1a1 1 0 00-1-1h-4a1 1 0 00-1 1v1.68a7.52 7.52 0 00-1 .56l-1.4-.84a1 1 0 00-1.36.37l-2 3.47a1 1 0 00-.1.76 1 1 0 00.46.61l1.45.84v1.12l-1.45.84a1 1 0 00-.46.59zm4-1.1a4.65 4.65 0 010-1.82A1 1 0 0024.63 7l-1.16-.67 1-1.74 1.16.68a1 1 0 001.15-.11 4.94 4.94 0 011.59-.91 1 1 0 00.63-.9V2h2v1.35a1 1 0 00.67.95 4.9 4.9 0 011.58.91 1 1 0 001.15.11l1.17-.68 1 1.74-1.12.62A1 1 0 0035 8.06a4.65 4.65 0 010 1.82 1 1 0 00.5 1.13l1.16.67-1 1.75-1.17-.68a1 1 0 00-1.15.11 5.29 5.29 0 01-1.58.91 1 1 0 00-.67.94V16H29v-1.33a1 1 0 00-.67-.94 5.34 5.34 0 01-1.59-.91 1 1 0 00-1.15-.11l-1.16.68-1-1.75 1.2-.64a1 1 0 00.49-1.09z"/><path class="cls-1" d="M30 12a3 3 0 10-3-3 3 3 0 003 3zm0-4a1 1 0 11-1 1 1 1 0 011-1zM10.84 21.2a1 1 0 00.71-1.72 5 5 0 00-7.08 0 1 1 0 001.42 1.43 3.08 3.08 0 014.24 0 1.05 1.05 0 00.71.29z"/><path class="cls-1" d="M3.05 18.07a7 7 0 019.92 0 1 1 0 101.41-1.41 9 9 0 00-12.74 0 1 1 0 001.41 1.41zM9 23a1 1 0 11-1-1 1 1 0 011 1zM8 33a1 1 0 001-1v-5a1 1 0 00-2 0v5a1 1 0 001 1zm33.05-23h9a3 3 0 013 3v30a1 1 0 102 0V13a5 5 0 00-5-5h-9a1 1 0 000 2z"/><path class="cls-1" d="M40.6 15.91l.9.45a1 1 0 01.55.9V21a1 1 0 002 0v-3.74a3 3 0 00-1.67-2.69l-.89-.44a1 1 0 00-1 0 1 1 0 00.14 1.78zM8 11a1 1 0 001-1V7a1 1 0 011-1h7a1 1 0 000-2h-7a3 3 0 00-3 3v3a1 1 0 001 1z"/></svg>