<svg version="1.1" id="Layer_1" xmlns="http://www.w3.org/2000/svg" x="0" y="0" viewBox="0 0 511 511" xml:space="preserve"><style>.st0{fill:#fff}</style><path class="st0" d="M477.5 255.6c10.8-21.4 19.2-43 25.1-64.2 18.4-66.5 9.5-122.2-25.1-156.9C442.8-.1 387.1-9 320.6 9.4c-21.2 5.9-42.8 14.3-64.2 25.1-26.7-13.4-53.4-23.2-79.1-28.9C117.5-7.5 67.1 2.8 35.4 34.5 15.1 54.8 3.3 83.4 1.3 117.2c-1.8 30.4 4.4 65.2 17.8 101.1C8.1 227 1 240.4 1 255.5s7.1 28.5 18.1 37.3C5.7 328.6-.5 363.5 1.3 393.8c2 33.7 13.8 62.3 34.1 82.7 22.7 22.7 54.6 34.4 93.1 34.4 7.7 0 15.7-.5 24-1.4 33-3.8 68.3-15.1 103.9-33 21.4 10.7 43 19.2 64.2 25.1 22.6 6.3 44 9.4 63.8 9.4 38.2 0 70.3-11.7 93.1-34.5 31.7-31.7 41.9-82.1 28.8-141.8-5.7-25.8-15.4-52.5-28.8-79.1zM324.6 23.8c61.1-16.9 111.6-9.4 142.2 21.3s38.2 81.2 21.3 142.2c-4.7 17.1-11.2 34.5-19.3 51.8-14.5-26-32.3-51.8-53-76.4 6.3-8.1 10.1-18.2 10.1-29.3 0-10.7-3.5-20.7-10-29.1l-11.8 9.2c4.5 5.7 6.8 12.6 6.8 19.9 0 17.9-14.6 32.5-32.5 32.5s-32.5-14.6-32.5-32.5 14.6-32.5 32.5-32.5c5.8 0 11.6 1.6 16.6 4.5l7.7-12.9c-7.3-4.3-15.7-6.6-24.2-6.6-11 0-21.2 3.8-29.3 10.1-24.6-20.7-50.4-38.5-76.4-53 17.3-7.9 34.7-14.4 51.8-19.2zM46 45.1c40.5-40.5 114.9-39 194-2-38.6 21.5-76.5 50.4-111 84.9-25.6 25.6-48.2 53.1-67.1 81.9-4.3-1.2-8.8-1.9-13.4-1.9-5.7 0-11.1 1-16.2 2.8C6.3 140 11.2 79.9 46 45.1zm82.9 450.8c-33.9 0-62.8-9.9-82.9-30C11.2 431.1 6.3 371 32.3 300.2c5 1.8 10.5 2.8 16.2 2.8 4.6 0 9.1-.7 13.4-1.9 18.9 28.7 41.5 56.3 67.1 81.9 34.5 34.5 72.4 63.4 111 84.9-39.7 18.5-77.8 28-111.1 28zm127.5-36.2c-40.5-21.3-80.5-51-116.8-87.3-24.4-24.4-45.9-50.6-64.1-77.8 12.4-8.6 20.5-22.9 20.5-39 0-1.4-.1-2.8-.2-4.2l-14.9 1.3c.1 1 .1 1.9.1 2.9 0 17.9-14.6 32.5-32.5 32.5S16 273.4 16 255.5 30.6 223 48.5 223c12.4 0 23.5 6.9 29.1 17.9l13.4-6.7c-3.7-7.3-9-13.4-15.4-17.8 18.1-27.3 39.7-53.4 64-77.8 36.3-36.3 76.3-66.1 116.8-87.4 27.6 14.5 55.5 33.2 82.5 55.9-5.1 7.5-8 16.6-8 26.4 0 26.2 21.3 47.5 47.5 47.5 9.8 0 18.8-3 26.4-8 22.7 27 41.4 54.9 55.9 82.5-21.3 40.5-51 80.5-87.4 116.9-4 4-8.1 8-12.2 11.8-8.3-7-19-11.2-30.6-11.2-10.7 0-20.7 3.5-29.1 10l9.2 11.8c5.7-4.5 12.6-6.8 19.9-6.8 17.9 0 32.5 14.6 32.5 32.5S348.4 453 330.5 453 298 438.4 298 420.5c0-5.8 1.6-11.6 4.5-16.6l-12.9-7.7c-4.3 7.3-6.6 15.7-6.6 24.2 0 7.5 1.8 14.6 4.9 21-10.6 6.7-21.1 12.8-31.5 18.3zm210.4 6.2c-30.6 30.6-81.2 38.2-142.2 21.3-17.1-4.7-34.4-11.2-51.8-19.3 7.9-4.4 15.8-9.2 23.7-14.2 8.6 8.8 20.6 14.3 33.9 14.3 26.2 0 47.5-21.3 47.5-47.5 0-9.1-2.6-17.6-7.1-24.9 4.4-4.1 8.8-8.4 13-12.6 34.6-34.6 63.4-72.4 84.9-111 37.2 79 38.7 153.4-1.9 193.9z"/><path class="st0" d="M379.4 333h-15.5v-37.8c0-16.7-11.2-31.5-27.3-36.1l-5.6-1.6-4.1 14.4 5.6 1.6c9.6 2.7 16.4 11.6 16.4 21.6V333h-27v-20.5h-15V333h-67.5v15h140v-15z"/><path class="st0" d="M281.2 259.1l31.3 8.8 4.1-14.4-30.6-8.6V225c13.9-9.5 23-25.4 23-43.4v-22c0-28.9-23.5-52.5-52.5-52.5-28.9 0-52.5 23.5-52.5 52.5v22c0 18 9.1 33.9 23 43.4v19.9l-50.7 14.3c-16.1 4.5-27.3 19.4-27.3 36.1V333h-15.5v15h91v-15H206v-20.5h-15V333h-27v-37.8c0-10 6.7-18.9 16.4-21.6l51.3-14.5c6.3 6.9 15.2 10.9 24.8 10.9s18.4-4 24.7-10.9zM256.4 122c20.7 0 37.5 16.8 37.5 37.5v8.4L278.2 147h-57.1c5.1-14.5 19-25 35.3-25zm-37.5 59.5V162h51.8l22 29.1c-4.2 16.1-18.9 27.9-36.2 27.9-20.7 0-37.6-16.8-37.6-37.5zm23 66.6V232c4.6 1.3 9.5 2.1 14.5 2.1s9.9-.7 14.5-2.1v16.1c-3.5 4.4-8.8 6.9-14.5 6.9s-10.9-2.6-14.5-6.9z"/><path class="st0" d="M296 294.4l-21.1-6L279 274l21.1 6-4.1 14.4zM329 288.1l-4.1 14.4-14.4-4.1 4.1-14.4 14.4 4.1zM370.9 126h15v15h-15v-15zM322.9 413h15v15h-15v-15zM41 248h15v15H41v-15z"/></svg>