<svg viewBox="0 0 156 19" fill="none" xmlns="http://www.w3.org/2000/svg">
<g id="Clip path group">
<mask id="mask0_946_30" style="mask-type:luminance" maskUnits="userSpaceOnUse" x="0" y="0" width="156" height="19">
<g id="clip0_1907_115397">
<path id="Vector" d="M155.766 0H0V19H155.766V0Z" fill="white"/>
</g>
</mask>
<g mask="url(#mask0_946_30)">
<g id="Group">
<path id="Vector_2" fill-rule="evenodd" clip-rule="evenodd" d="M13.3193 0.472049L16.8915 4.01242L13.3193 7.55279L9.747 4.01242L13.3193 0.472049ZM0.697266 6.49069H5.81751C5.81751 10.6211 9.27067 14.0435 13.4383 14.0435C17.606 14.0435 21.0592 10.6211 21.0592 6.49069H26.1794C26.1794 13.4534 20.4638 19 13.5574 19C6.65104 19 0.697266 13.4534 0.697266 6.49069ZM151.566 13.5715H155.258C154.781 16.4037 152.162 18.5279 149.185 18.5279C145.731 18.5279 142.992 15.8137 142.992 12.3913C142.992 8.96895 145.731 6.25466 149.185 6.25466C152.162 6.25466 154.543 8.26088 155.258 10.9752H151.447C150.971 10.267 150.137 9.67702 149.185 9.67702C147.755 9.67702 146.565 10.8572 146.565 12.2733C146.565 13.6894 147.755 14.8696 149.185 14.8696C150.257 14.9876 151.209 14.3975 151.566 13.5715ZM132.752 10.9752H138.23C137.873 9.79505 137.039 8.96895 135.491 8.96895C133.943 8.96895 133.109 9.91301 132.752 10.9752ZM139.182 13.5715H132.752C133.109 14.7515 134.062 15.5776 135.491 15.5776C136.444 15.5776 137.277 15.2236 137.753 14.6336H141.445C140.611 16.9938 138.468 18.646 135.491 18.646C131.561 18.646 129.18 15.9317 129.18 12.5093C129.18 9.08699 132.038 6.37267 135.491 6.37267C138.944 6.37267 141.802 9.08699 141.802 12.5093C141.802 12.8633 141.802 13.2174 141.683 13.6894H139.539H139.182V13.5715ZM115.01 5.6646L112.152 2.8323L115.01 0L117.868 2.8323L115.01 5.6646ZM113.104 14.2795V10.267V6.49069H117.153V10.267V14.2795V18.2919H113.104V14.2795ZM107.032 15.3416V11.5652C107.032 10.5031 106.079 9.55898 105.008 9.55898C103.936 9.55898 102.984 10.5031 102.984 11.5652V13.6894V14.2795V18.2919H98.9345V14.2795V10.267V6.49069H102.984V7.90683C103.817 6.84472 105.127 6.25466 106.556 6.25466C109.056 6.25466 111.08 8.26088 111.08 10.7391V14.5155V18.2919H107.032V15.3416ZM40.9448 15.3416V11.5652C40.9448 10.5031 39.9922 9.55898 38.9206 9.55898C37.8488 9.55898 36.8963 10.5031 36.8963 11.5652V13.6894V14.2795V18.2919H32.8477V14.2795V10.267V6.49069V2.71428H36.8963V6.49069V7.90683C37.7298 6.84472 39.0396 6.25466 40.4686 6.25466C42.9691 6.25466 44.9934 8.26088 44.9934 10.7391V14.5155V18.2919H40.9448V15.3416ZM82.7404 14.2795V18.2919H78.6918V16.1677V11.5652C78.6918 10.5031 77.7392 9.55898 76.6675 9.55898C75.5958 9.55898 74.6433 10.5031 74.6433 11.5652V15.3416V18.41H70.5946V15.3416V11.5652C70.5946 10.5031 69.6421 9.55898 68.5704 9.55898C67.4987 9.55898 66.5461 10.5031 66.5461 11.5652V13.6894V14.2795V18.2919H62.4975V14.2795V10.267V6.49069H66.5461V7.90683C67.3796 6.84472 68.6894 6.25466 70.1184 6.25466C71.6664 6.25466 72.9762 6.96273 73.8097 8.02481C74.7623 6.84472 76.1912 6.13664 77.7392 6.13664C80.4782 6.13664 82.8595 8.37892 82.8595 11.0932V14.2795H82.7404ZM125.012 6.49069H127.513V9.79505H125.012V13.3354C125.131 14.2795 125.846 15.1056 126.798 15.1056C127.036 15.1056 127.274 14.9876 127.513 14.8696V18.0559C126.917 18.41 126.203 18.5279 125.488 18.5279C122.988 18.5279 120.964 16.5218 120.964 14.0435V9.79505H118.94V6.49069H120.964V2.71428H125.012V6.49069ZM90.718 14.9876C92.1471 14.9876 93.3381 13.8075 93.3381 12.2733C93.3381 10.7391 92.1471 9.55898 90.718 9.55898C89.2898 9.55898 88.0988 10.7391 88.0988 12.2733C87.9798 13.8075 89.1708 14.9876 90.718 14.9876ZM96.9103 12.5093V18.2919H93.5761V17.2298C92.624 18.0559 91.433 18.41 90.361 18.41C86.9078 18.41 84.1695 15.8137 84.1695 12.3913C84.1695 8.96895 87.0268 6.25466 90.48 6.25466C93.9332 6.25466 96.7913 8.96895 96.7913 12.3913C96.9103 12.5093 96.9103 12.5093 96.9103 12.5093ZM55.5911 10.5031V6.49069H59.6397V10.5031V14.5155V18.2919H55.5911V16.8758C54.7576 17.9379 53.4478 18.5279 52.0189 18.5279C49.5182 18.5279 47.494 16.5218 47.494 14.0435V10.5031V6.49069H51.5426V9.44102V13.2174C51.5426 14.2795 52.4952 15.2236 53.5669 15.2236C54.6385 15.2236 55.5911 14.2795 55.5911 13.2174V11.2112V10.5031Z" fill="#808080"/>
</g>
</g>
</g>
</svg>
