<svg xmlns="http://www.w3.org/2000/svg" width="44" height="43" viewBox="0 0 44 43" fill="none">
  <path d="M22.266 38C22.1018 38 21.9383 38 21.7756 37.9924L25.1474 28.7249H29.788C30.6031 28.7249 31.4968 28.0985 31.7741 27.3338L35.4324 17.2849C36.0305 15.6402 35.0886 14.2942 33.3378 14.2942H26.9013L21.5021 29.1389L18.4351 37.5524C11.1697 35.8244 5.76599 29.2917 5.76599 21.5C5.76599 13.9314 10.8627 7.55292 17.811 5.61111L14.6515 14.2965L9.39752 28.7249H12.8946L17.3618 16.4629H19.9896L15.5224 28.7256H19.0179L23.1827 17.2849C23.7815 15.6402 22.8389 14.2942 21.0904 14.2942H18.1494L21.5243 5.01757C21.7702 5.00586 22.0175 5 22.266 5C31.3784 5 38.766 12.3876 38.766 21.5C38.766 30.6124 31.3784 38 22.266 38ZM32.2493 16.4538H29.6222L25.9426 26.5493H28.5704L32.2493 16.4538Z" fill="#808080"/>
</svg>