<svg width="141" height="29" viewBox="0 0 141 29" fill="none" xmlns="http://www.w3.org/2000/svg">
<g id="ERI_horizontal_RGB 1" clip-path="url(#clip0_946_44)">
<rect width="140" height="28" transform="translate(0.765991 0.5)" fill="white"/>
<g id="Group">
<g id="Group_2">
<path id="Vector" d="M1.04602 9.22229H12.3394V12.2526H5.04069V14.8868H12.0407V18.0368H5.04069V20.7539H12.4607V23.8118H1.04602V9.22229Z" fill="#808080"/>
<path id="Vector_2" d="M29.914 9.22229H33.9367V23.821H29.914V9.22229Z" fill="#808080"/>
<path id="Vector_3" d="M48.618 9.69206L48.3473 12.8144C45.0993 10.9539 40.1153 11.5526 40.0313 16.4157C39.938 21.2789 45.1647 21.9881 48.4687 20.3394L48.674 23.5263C42.8313 25.3223 35.85 23.4986 35.878 16.4157C35.906 9.48022 42.9433 7.56443 48.618 9.69206Z" fill="#808080"/>
<path id="Vector_4" d="M60.4621 9.46176L60.1914 12.5012C58.1661 11.396 54.3114 11.3683 54.3114 13.0999C54.3114 15.6604 61.1714 13.8091 61.1714 19.2986C61.1714 24.696 54.6381 24.7512 50.4007 23.5078L50.6994 20.2933C53.3501 21.5183 57.1114 21.7854 57.1114 19.667C57.1114 17.346 50.2234 18.6539 50.2234 13.4315C50.2234 9.1486 55.5994 8.0065 60.4621 9.46176Z" fill="#808080"/>
<path id="Vector_5" d="M72.5954 9.46176L72.3247 12.5012C70.2994 11.396 66.4447 11.3683 66.4447 13.0999C66.4447 15.6604 73.3047 13.8091 73.3047 19.2986C73.3047 24.696 66.7714 24.7512 62.534 23.5078L62.8327 20.2933C65.4834 21.5183 69.2447 21.7854 69.2447 19.667C69.2447 17.346 62.3567 18.6539 62.3567 13.4315C62.366 9.1486 67.7327 8.0065 72.5954 9.46176Z" fill="#808080"/>
<path id="Vector_6" d="M91.122 9.22229H96.218L101.071 18.6354V9.22229H104.777V23.821H99.97L94.8553 14.2236V23.821H91.122V9.22229Z" fill="#808080"/>
<path id="Vector_7" d="M81.8447 8.87231C86.026 8.87231 89.2087 11.2855 89.2087 16.5539C89.2087 21.5921 86.0073 24.1802 81.8447 24.1802C77.6913 24.1802 74.4993 21.6473 74.4993 16.5539C74.5087 11.2855 77.6727 8.87231 81.8447 8.87231ZM78.6247 16.5539C78.6247 18.7828 79.5953 21.2973 81.8447 21.2973C84.1033 21.2973 85.046 18.7828 85.0647 16.5539C85.0833 14.546 84.1033 11.8197 81.8447 11.8105C79.5953 11.8105 78.6247 14.3249 78.6247 16.5539Z" fill="#808080"/>
<path id="Vector_8" d="M19.1153 15.3749H21.318C22.3073 15.3933 23.2033 14.8039 23.194 13.7262C23.1847 12.7683 22.3913 12.096 21.374 12.1052H19.106L19.1153 15.3749ZM15.2607 9.22229H22.5127C24.482 9.22229 27.226 10.0789 27.226 13.1091C27.226 15.0526 26.33 16.1394 24.6407 16.6368C24.7153 16.6276 25.6113 17.0144 25.9753 18.1104C25.994 18.1473 28.0473 23.8118 28.0753 23.821H23.8007L22.2793 19.4368C22.046 18.7644 21.542 18.3131 20.814 18.3131C20.1887 18.3131 19.1993 18.2762 19.1993 18.3131V23.821H15.2607V9.22229Z" fill="#808080"/>
</g>
<g id="Group_3">
<path id="Vector_9" d="M140.346 2.51706C140.113 1.80785 139.599 1.25522 138.965 0.942058C138.33 0.6289 137.583 0.555215 136.333 0.969689L122.183 5.621C120.942 6.02627 120.382 6.53285 120.065 7.15916C119.747 7.78548 119.673 8.52232 119.915 9.24074C120.149 9.94995 120.662 10.5026 121.297 10.8157C121.931 11.1289 122.678 11.2026 123.929 10.7881L138.078 6.13679C139.319 5.73153 139.879 5.22495 140.197 4.59864C140.514 3.97232 140.589 3.23548 140.346 2.51706Z" fill="#808080"/>
<path id="Vector_10" d="M140.346 11.1382C140.113 10.4289 139.599 9.87631 138.965 9.56315C138.33 9.24999 137.583 9.17631 136.333 9.59078L122.183 14.2421C120.942 14.6474 120.382 15.1539 120.065 15.7803C119.747 16.4066 119.673 17.1434 119.915 17.8618C120.149 18.571 120.662 19.1237 121.297 19.4368C121.931 19.75 122.678 19.8237 123.929 19.4092L138.078 14.7579C139.319 14.3526 139.879 13.846 140.197 13.2197C140.514 12.5934 140.589 11.8566 140.346 11.1382Z" fill="#808080"/>
<path id="Vector_11" d="M140.346 19.7591C140.113 19.0499 139.599 18.4973 138.965 18.1841C138.33 17.871 137.583 17.7973 136.333 18.2118L122.183 22.8631C120.942 23.2683 120.382 23.7749 120.065 24.4012C119.747 25.0275 119.673 25.7644 119.915 26.4828C120.149 27.192 120.662 27.7446 121.297 28.0578C121.931 28.371 122.678 28.4446 123.929 28.0302L138.078 23.3789C139.319 22.9644 139.879 22.467 140.197 21.8407C140.514 21.2144 140.589 20.4775 140.346 19.7591Z" fill="#808080"/>
</g>
</g>
</g>
<defs>
<clipPath id="clip0_946_44">
<rect width="140" height="28" fill="white" transform="translate(0.765991 0.5)"/>
</clipPath>
</defs>
</svg>
