<svg xmlns="http://www.w3.org/2000/svg" width="140" height="33" viewBox="0 0 140 33" fill="none">
<g clip-path="url(#clip0_946_35)">
<path fill-rule="evenodd" clip-rule="evenodd" d="M45.766 12.1219V24.5H49.2459V13.726C49.2459 13.2965 49.5655 12.9815 50.0002 12.9815H54.4669V9.97227H47.941L45.766 12.1219ZM59.9773 13.726C59.9773 13.2965 60.2969 12.9815 60.7316 12.9815H65.43C65.8647 12.9815 66.1844 13.2965 66.1844 13.726V15.7319H59.9773V13.726ZM66.3873 21.205C66.1556 21.4339 66.0102 21.4915 65.7784 21.4915H60.7316C60.2969 21.4915 59.9773 21.1765 59.9773 20.7463V18.5399H69.6643V12.1503L67.49 9.97227H58.6724L56.4974 12.1219V22.3512L58.6724 24.5H67.5188L70.0414 22.007L67.7793 19.8298L66.3873 21.205ZM76.2781 12.9815H80.8023C81.0341 12.9815 81.1787 13.0384 81.4104 13.2673L82.629 14.472L84.9207 12.294L82.5715 9.97227H74.3052L72.1302 12.1219V15.9608C72.1302 16.9073 72.6815 17.6518 74.0735 17.8815L80.8599 19.0554C81.1499 19.113 81.3241 19.2567 81.3241 19.5716V20.7463C81.3241 21.1765 81.0053 21.4915 80.5698 21.4915H76.1326C75.9001 21.4915 75.7555 21.4339 75.523 21.205L74.131 19.8866L71.8401 22.007L74.3635 24.5H82.5419L84.7177 22.3512V18.2249C84.7177 17.2792 84.1664 16.5347 82.7736 16.305L75.9872 15.1304C75.6972 15.0727 75.523 14.9298 75.523 14.6141V13.726C75.523 13.2965 75.8426 12.9815 76.2781 12.9815ZM88.2272 7.88109H91.8238V4.5H88.2272V7.88109ZM86.3702 9.97227H91.7646V24.5H88.2847V13.6407C88.2847 13.2105 88.053 12.9815 87.6175 12.9815H86.3702V9.97227ZM104.063 20.7463C104.063 21.1765 103.744 21.4915 103.309 21.4915H98.6102C98.1747 21.4915 97.8559 21.1765 97.8559 20.7463V13.726C97.8559 13.2965 98.1747 12.9815 98.6102 12.9815H103.309C103.744 12.9815 104.063 13.2965 104.063 13.726V20.7463ZM107.544 4.5H103.947V9.97227H96.551L94.3752 12.1219V22.3512L96.551 24.5H105.368L107.544 22.3228V4.5ZM113.634 13.726C113.634 13.2965 113.953 12.9815 114.388 12.9815H119.087C119.522 12.9815 119.84 13.2965 119.84 13.726V15.7319H113.634V13.726ZM120.043 21.205C119.812 21.4339 119.666 21.4915 119.434 21.4915H114.388C113.953 21.4915 113.634 21.1765 113.634 20.7463V18.5399H123.321V12.1503L121.146 9.97227H112.328L110.153 12.1219V22.3512L112.328 24.5H121.175L123.697 22.007L121.435 19.8298L120.043 21.205ZM135.618 20.7463C135.618 21.1765 135.3 21.4915 134.864 21.4915H130.166C129.73 21.4915 129.412 21.1765 129.412 20.7463V13.726C129.412 13.2965 129.73 12.9815 130.166 12.9815H134.864C135.3 12.9815 135.618 13.2965 135.618 13.726V20.7463ZM136.923 9.97227H128.107L125.931 12.1219V22.3512L128.107 24.5H136.923L139.099 22.3228V12.1503L136.923 9.97227Z" fill="#808080"/>
<path fill-rule="evenodd" clip-rule="evenodd" d="M32.766 0.5H0.765991V32.5H32.766V0.5ZM16.766 24.5V16.5H24.766V8.5H8.76599V16.5V24.5H16.766Z" fill="#808080"/>
</g>
<defs>
<clipPath id="clip0_946_35">
<rect width="139" height="32" fill="white" transform="translate(0.765991 0.5)"/>
</clipPath>
</defs>
</svg>