<svg width="44" height="43" viewBox="0 0 44 43" fill="none" xmlns="http://www.w3.org/2000/svg">
<g id="HP_logo_black 1" clip-path="url(#clip0_946_40)">
<g id="Layer 2">
<g id="Layer 1">
<path id="Vector" d="M22.266 43C22.052 43 21.839 43 21.627 42.99L26.0205 30.9142H32.0674C33.1295 30.9142 34.294 30.098 34.6554 29.1016L39.4222 16.0075C40.2016 13.8645 38.9743 12.1107 36.6929 12.1107H28.3059L21.2706 31.4537L17.2742 42.4167C7.80724 40.1652 0.765991 31.6528 0.765991 21.5C0.765991 11.6379 7.4071 3.32653 16.461 0.796296L12.3441 12.1137L5.49798 30.9142H10.0548L15.8757 14.9365H19.2998L13.4789 30.9152H18.0337L23.4604 16.0075C24.2408 13.8645 23.0125 12.1107 20.7341 12.1107H16.9019L21.2995 0.0228935C21.62 0.00763117 21.9422 0 22.266 0C34.1398 0 43.766 9.62623 43.766 21.5C43.766 33.3738 34.1398 43 22.266 43ZM35.2745 14.9246H31.8514L27.0567 28.0794H30.4808L35.2745 14.9246Z" fill="#808080"/>
</g>
</g>
</g>
<defs>
<clipPath id="clip0_946_40">
<rect width="43" height="43" fill="white" transform="translate(0.765991)"/>
</clipPath>
</defs>
</svg>
