<svg xmlns="http://www.w3.org/2000/svg" width="99" height="27" viewBox="0 0 99 27" fill="none">
  <g clip-path="url(#clip0_946_59)">
    <mask id="mask0_946_59" style="mask-type:luminance" maskUnits="userSpaceOnUse" x="0" y="0" width="99" height="27">
      <path d="M98.766 0.5H0.765991V26.5H98.766V0.5Z" fill="white"/>
    </mask>
    <g mask="url(#mask0_946_59)">
      <path fill-rule="evenodd" clip-rule="evenodd" d="M98.2609 4.99588C97.9141 4.609 97.4502 4.41348 96.8234 4.41348C96.1966 4.41348 95.7181 4.6194 95.3838 5.0458C95.0515 5.45764 94.8782 6.07748 94.8782 6.88868V12.7688C94.1072 11.9431 93.3069 11.3503 92.4941 10.9509C91.9865 10.7076 91.389 10.5266 90.7224 10.4351C90.3359 10.3831 89.9367 10.356 89.4981 10.356C87.4609 10.356 85.8103 11.0528 84.5441 12.4464C83.2926 13.8401 82.6658 15.7745 82.6658 18.2601C82.6658 19.4353 82.8266 20.5314 83.1443 21.5361C83.466 22.5407 83.9152 23.4185 84.5295 24.1652C85.1417 24.914 85.8751 25.4797 86.7129 25.8937C87.5508 26.293 88.4575 26.4989 89.4416 26.4989C89.893 26.4989 90.3192 26.4615 90.7183 26.3845C90.9856 26.345 91.2363 26.2805 91.4913 26.2015C92.116 25.9956 92.7031 25.7002 93.2359 25.3258C93.7812 24.9389 94.3287 24.4356 94.874 23.8303V24.2172C94.874 24.9514 95.0599 25.5068 95.4192 25.9061C95.7933 26.293 96.2592 26.4989 96.8171 26.4989C97.3896 26.4989 97.8555 26.3055 98.2149 25.9332C98.5722 25.5463 98.7603 24.9785 98.7603 24.2193V6.68484C98.7665 5.94852 98.593 5.38068 98.2609 4.99588ZM94.1198 21.2157C93.7603 21.9625 93.2798 22.5178 92.6947 22.8797C92.0951 23.2417 91.4411 23.4205 90.7224 23.4205H90.7099C89.989 23.4205 89.3371 23.2271 88.7375 22.8548C88.1379 22.4679 87.6593 21.9001 87.3146 21.1533C86.9698 20.3921 86.7964 19.4769 86.7964 18.3932C86.7964 17.374 86.9552 16.4733 87.2896 15.7121C87.6092 14.9383 88.0751 14.3455 88.6622 13.9337C89.262 13.5073 89.9284 13.3138 90.6848 13.3138H90.7245C91.4307 13.3138 92.0825 13.5197 92.6822 13.9191C93.2819 14.3185 93.7603 14.9009 94.1198 15.6601C94.4791 16.4213 94.6525 17.3365 94.6525 18.3932C94.6525 19.5268 94.4791 20.469 94.1198 21.2157ZM81.1886 21.3842C80.9358 21.1658 80.589 21.0493 80.1627 21.0493C79.7762 21.0493 79.4837 21.1409 79.2705 21.3073C78.7502 21.7711 78.3386 22.1455 78.0169 22.4159C77.6993 22.6738 77.3379 22.9317 76.9534 23.1751C76.5816 23.4081 76.1804 23.589 75.7833 23.693C75.3696 23.8074 74.9308 23.8594 74.4378 23.8594C74.3312 23.8594 74.2247 23.8594 74.1306 23.8469C73.5164 23.8095 72.946 23.641 72.4278 23.3311C71.8135 22.9837 71.335 22.47 70.9611 21.7981C70.6017 21.1013 70.4158 20.3026 70.4032 19.3999H78.4327C79.5108 19.3999 80.3487 19.2439 80.9358 18.961C81.5354 18.6511 81.828 18.0063 81.828 17.0141C81.828 15.9305 81.5354 14.8738 80.9629 13.8297C80.3905 12.7959 79.538 11.9452 78.3804 11.29C77.2335 10.6327 75.8628 10.3103 74.2519 10.3103H74.1327C72.9481 10.3228 71.8553 10.5183 70.8838 10.8781C69.8725 11.265 69.0179 11.8204 68.3118 12.5276C67.6348 13.2493 67.1019 14.1125 66.7426 15.1193C66.3833 16.126 66.1953 17.2221 66.1953 18.3932C66.1953 20.8954 66.9286 22.8548 68.3932 24.3108C69.7764 25.6919 71.6945 26.4137 74.1306 26.4906C74.2644 26.5031 74.4086 26.5031 74.5569 26.5031C75.7019 26.5031 76.7257 26.3617 77.6179 26.0663C78.5101 25.7689 79.2434 25.4069 79.8305 24.9701C80.4134 24.5188 80.8542 24.0549 81.1468 23.5786C81.4394 23.1023 81.5877 22.6759 81.5877 22.3265C81.5877 21.925 81.4561 21.6026 81.1886 21.3842ZM71.6025 14.098C72.2565 13.4136 73.0943 13.0788 74.1202 13.0788H74.1348C75.1983 13.0788 76.0654 13.4136 76.7173 14.0834C77.3713 14.7553 77.7557 15.7745 77.8498 17.1389H70.4053C70.5369 15.7994 70.9381 14.7802 71.6025 14.098ZM63.7048 21.0473C63.3056 21.0473 63.0131 21.1388 62.8 21.3052C62.2943 21.769 61.8681 22.1434 61.5485 22.4138C61.2287 22.6717 60.882 22.9297 60.4954 23.173C60.111 23.406 59.7223 23.5869 59.3107 23.6909C58.9116 23.8053 58.4582 23.8573 57.9652 23.8573C57.8607 23.8573 57.7542 23.8573 57.6601 23.8449C57.0458 23.8074 56.4755 23.6389 55.9552 23.329C55.3576 22.9817 54.8645 22.4679 54.5052 21.7961C54.1312 21.0993 53.9453 20.3005 53.9306 19.3978H61.9726C63.0382 19.3978 63.8761 19.2418 64.4757 18.9589C65.0607 18.649 65.3553 18.0042 65.3553 17.0121C65.3553 15.9284 65.0753 14.8717 64.5029 13.8276C63.9304 12.7938 63.0654 11.9431 61.9204 11.2879C60.7732 10.6306 59.3901 10.3082 57.7939 10.3082H57.6601C56.4755 10.3207 55.3974 10.5162 54.4112 10.876C53.3978 11.2629 52.5453 11.8183 51.8538 12.5255C51.1622 13.2472 50.6293 14.1105 50.27 15.1172C49.9086 16.1239 49.7226 17.2201 49.7226 18.3911C49.7226 20.8933 50.4685 22.8527 51.9331 24.3087C53.3184 25.6898 55.2219 26.4116 57.658 26.4885C57.8044 26.501 57.9359 26.501 58.0843 26.501C59.2418 26.501 60.2551 26.3596 61.1452 26.0642C62.0374 25.7668 62.7707 25.4049 63.3557 24.9681C63.9554 24.5167 64.3816 24.0529 64.6742 23.5765C64.9667 23.1002 65.115 22.6738 65.115 22.3244C65.115 21.925 64.9814 21.6026 64.7285 21.3842C64.4652 21.1637 64.1164 21.0473 63.7048 21.0473ZM55.1299 14.098C55.7818 13.4136 56.6217 13.0788 57.6476 13.0788H57.6622C58.7257 13.0788 59.5928 13.4136 60.2447 14.0834C60.9091 14.7553 61.2831 15.7745 61.3897 17.1389H53.9327C54.0789 15.7994 54.4801 14.7802 55.1299 14.098ZM9.32037 23.8594V14.3684C9.59826 14.3933 9.86569 14.4058 10.1457 14.4058C11.4766 14.4058 12.7302 14.0585 13.7937 13.4386V23.8573C13.7937 24.7476 13.5806 25.4049 13.1669 25.8437C12.7553 26.2805 12.2079 26.4989 11.5435 26.4989C10.8895 26.4989 10.3713 26.2805 9.9451 25.8292C9.53349 25.3924 9.32037 24.7351 9.32037 23.8594ZM47.9989 4.99588C47.6521 4.609 47.1736 4.41348 46.574 4.41348C45.9471 4.41348 45.4686 4.6194 45.1344 5.0458C44.7896 5.45764 44.6287 6.07748 44.6287 6.88868V12.7688C43.8578 11.9431 43.0595 11.3503 42.2447 10.9509C41.7266 10.7076 41.1394 10.5266 40.4751 10.4351C40.0905 10.3831 39.6894 10.356 39.2506 10.356C37.2135 10.356 35.5483 11.0528 34.2968 12.4464C33.0453 13.8401 32.4184 15.7745 32.4184 18.2601C32.4184 19.4353 32.5793 20.5314 32.8843 21.5361C33.204 22.5407 33.67 23.4185 34.2842 24.1652C34.8964 24.914 35.6278 25.4797 36.4677 25.8937C37.3076 26.293 38.2101 26.4989 39.1964 26.4989C39.6352 26.4989 40.0614 26.4615 40.473 26.3845C40.7403 26.345 40.9932 26.2805 41.246 26.2015C41.8707 25.9956 42.4578 25.7002 42.9907 25.3258C43.536 24.9389 44.0709 24.4356 44.6266 23.8303V24.2172C44.6266 24.9514 44.8147 25.5068 45.174 25.9061C45.5335 26.293 46.0139 26.4989 46.5719 26.4989C47.1171 26.4989 47.5977 26.3055 47.9571 25.9332C48.3164 25.5463 48.4878 24.9785 48.4878 24.2193V6.68484C48.4899 5.94852 48.331 5.38068 47.9989 4.99588ZM43.8702 21.2157C43.5109 21.9625 43.0303 22.5178 42.4327 22.8797C41.8457 23.2417 41.1791 23.4205 40.4751 23.4205H40.4625C39.7437 23.4205 39.0898 23.2271 38.4922 22.8548C37.8801 22.4679 37.4141 21.9001 37.0673 21.1533C36.7225 20.3921 36.5491 19.4769 36.5491 18.3932C36.5491 17.374 36.7099 16.4733 37.0276 15.7121C37.3597 14.9383 37.8132 14.3455 38.4128 13.9337C38.9979 13.5073 39.6768 13.3138 40.4228 13.3138H40.4751C41.1812 13.3138 41.8331 13.5197 42.4202 13.9191C43.0324 14.3185 43.5109 14.9009 43.8702 15.6601C44.215 16.4213 44.4031 17.3365 44.4031 18.3932C44.4031 19.5268 44.215 20.469 43.8702 21.2157ZM20.3586 12.5255V13.0164C21.0898 12.0866 21.8755 11.4168 22.7279 10.978C23.5928 10.5536 24.5791 10.3332 25.697 10.3332C26.777 10.3332 27.7487 10.5661 28.5991 11.0175C29.4515 11.4668 30.0762 12.1136 30.5025 12.9519C30.7824 13.4407 30.9559 13.9711 31.0352 14.5389C31.1147 15.0922 31.1544 15.814 31.1544 16.6917V24.082C31.1544 24.8807 30.9538 25.486 30.5818 25.8853C30.2099 26.2972 29.7168 26.5031 29.1172 26.5031C28.505 26.5031 28.012 26.2972 27.6253 25.8729C27.2388 25.4589 27.0529 24.8557 27.0529 24.082V17.4613C27.0529 16.1468 26.8649 15.1421 26.493 14.4453C26.121 13.7506 25.3605 13.4012 24.2447 13.4012C23.5114 13.4012 22.847 13.6196 22.2474 14.0335C21.6477 14.4599 21.1964 15.0381 20.9164 15.7869C20.7158 16.3797 20.624 17.4759 20.624 19.1149V24.0799C20.624 24.8911 20.4253 25.4839 20.0388 25.8978C19.6523 26.2972 19.1613 26.5031 18.547 26.5031C17.9474 26.5031 17.4668 26.2972 17.0824 25.8729C16.6959 25.4589 16.5099 24.8557 16.5099 24.082V12.59C16.5099 11.8308 16.6833 11.2629 17.0302 10.901C17.3624 10.5287 17.8283 10.3332 18.428 10.3332C18.7873 10.3332 19.107 10.4101 19.3995 10.5786C19.692 10.745 19.9302 10.9904 20.1057 11.3253C20.277 11.6602 20.3586 12.0616 20.3586 12.5255ZM9.34545 1.11459C12.116 0.147389 15.2709 0.199389 17.6403 2.1837C18.0812 2.58306 18.5846 3.08642 18.7852 3.67922C19.0255 4.42804 17.9474 3.6002 17.7991 3.49828C17.026 3.00738 16.255 2.59554 15.39 2.31266C10.7307 0.921149 6.32212 3.43588 3.58086 7.34212C2.43588 9.06852 1.68998 10.8864 1.07779 12.8853C1.01093 13.1037 0.958699 13.3887 0.837515 13.5801C0.716331 13.8005 0.78528 12.9893 0.78528 12.9623C0.877213 12.1365 1.05063 11.3378 1.26584 10.5391C2.52991 6.2834 5.32549 2.73906 9.34545 1.11459ZM14.711 8.76068C14.711 10.5682 13.238 12.0346 11.4223 12.0346C9.60662 12.0346 8.13569 10.5682 8.13569 8.76068C8.13569 6.95316 9.60662 5.48676 11.4223 5.48676C13.238 5.48676 14.711 6.95108 14.711 8.76068Z" fill="#808080"/>
    </g>
  </g>
  <defs>
    <clipPath id="clip0_946_59">
      <rect width="98" height="26" fill="white" transform="translate(0.765991 0.5)"/>
    </clipPath>
  </defs>
</svg>