<svg xmlns="http://www.w3.org/2000/svg" width="140" height="29" viewBox="0 0 140 29" fill="none">
  <g clip-path="url(#clip0_946_44)">
    <path d="M0.279999 9.22229H11.5733V12.2526H4.27467V14.8868H11.2747V18.0368H4.27467V20.7539H11.6947V23.8118H0.279999V9.22229Z" fill="#808080"/>
    <path d="M29.148 9.22229H33.1707V23.821H29.148V9.22229Z" fill="#808080"/>
    <path d="M47.852 9.69206L47.5813 12.8144C44.3333 10.9539 39.3493 11.5526 39.2653 16.4157C39.172 21.2789 44.3987 21.9881 47.7027 20.3394L47.908 23.5263C42.0653 25.3223 35.084 23.4986 35.112 16.4157C35.14 9.48022 42.1773 7.56443 47.852 9.69206Z" fill="#808080"/>
    <path d="M59.696 9.46176L59.4253 12.5012C57.4 11.396 53.5453 11.3683 53.5453 13.0999C53.5453 15.6604 60.4053 13.8091 60.4053 19.2986C60.4053 24.696 53.872 24.7512 49.6347 23.5078L49.9333 20.2933C52.584 21.5183 56.3453 21.7854 56.3453 19.667C56.3453 17.346 49.4573 18.6539 49.4573 13.4315C49.4573 9.1486 54.8333 8.0065 59.696 9.46176Z" fill="#808080"/>
    <path d="M71.8293 9.46176L71.5587 12.5012C69.5333 11.396 65.6787 11.3683 65.6787 13.0999C65.6787 15.6604 72.5387 13.8091 72.5387 19.2986C72.5387 24.696 66.0053 24.7512 61.768 23.5078L62.0667 20.2933C64.7173 21.5183 68.4787 21.7854 68.4787 19.667C68.4787 17.346 61.5907 18.6539 61.5907 13.4315C61.6 9.1486 66.9667 8.0065 71.8293 9.46176Z" fill="#808080"/>
    <path d="M90.356 9.22229H95.452L100.305 18.6354V9.22229H104.011V23.821H99.204L94.0893 14.2236V23.821H90.356V9.22229Z" fill="#808080"/>
    <path d="M81.0787 8.87231C85.26 8.87231 88.4427 11.2855 88.4427 16.5539C88.4427 21.5921 85.2413 24.1802 81.0787 24.1802C76.9253 24.1802 73.7333 21.6473 73.7333 16.5539C73.7427 11.2855 76.9067 8.87231 81.0787 8.87231ZM77.8587 16.5539C77.8587 18.7828 78.8293 21.2973 81.0787 21.2973C83.3373 21.2973 84.28 18.7828 84.2987 16.5539C84.3173 14.546 83.3373 11.8197 81.0787 11.8105C78.8293 11.8105 77.8587 14.3249 77.8587 16.5539Z" fill="#808080"/>
    <path d="M18.3493 15.3749H20.552C21.5413 15.3933 22.4373 14.8039 22.428 13.7262C22.4187 12.7683 21.6253 12.096 20.608 12.1052H18.34L18.3493 15.3749ZM14.4947 9.22229H21.7467C23.716 9.22229 26.46 10.0789 26.46 13.1091C26.46 15.0526 25.564 16.1394 23.8747 16.6368C23.9493 16.6276 24.8453 17.0144 25.2093 18.1104C25.228 18.1473 27.2813 23.8118 27.3093 23.821H23.0347L21.5133 19.4368C21.28 18.7644 20.776 18.3131 20.048 18.3131C19.4227 18.3131 18.4333 18.2762 18.4333 18.3131V23.821H14.4947V9.22229Z" fill="#808080"/>
    <path d="M139.58 2.51706C139.347 1.80785 138.833 1.25522 138.199 0.942058C137.564 0.6289 136.817 0.555215 135.567 0.969689L121.417 5.621C120.176 6.02627 119.616 6.53285 119.299 7.15916C118.981 7.78548 118.907 8.52232 119.149 9.24074C119.383 9.94995 119.896 10.5026 120.531 10.8157C121.165 11.1289 121.912 11.2026 123.163 10.7881L137.312 6.13679C138.553 5.73153 139.113 5.22495 139.431 4.59864C139.748 3.97232 139.823 3.23548 139.58 2.51706Z" fill="#808080"/>
    <path d="M139.58 11.1382C139.347 10.4289 138.833 9.87631 138.199 9.56315C137.564 9.24999 136.817 9.17631 135.567 9.59078L121.417 14.2421C120.176 14.6474 119.616 15.1539 119.299 15.7803C118.981 16.4066 118.907 17.1434 119.149 17.8618C119.383 18.571 119.896 19.1237 120.531 19.4368C121.165 19.75 121.912 19.8237 123.163 19.4092L137.312 14.7579C138.553 14.3526 139.113 13.846 139.431 13.2197C139.748 12.5934 139.823 11.8566 139.58 11.1382Z" fill="#808080"/>
    <path d="M139.58 19.7591C139.347 19.0499 138.833 18.4973 138.199 18.1841C137.564 17.871 136.817 17.7973 135.567 18.2118L121.417 22.8631C120.176 23.2683 119.616 23.7749 119.299 24.4012C118.981 25.0275 118.907 25.7644 119.149 26.4828C119.383 27.192 119.896 27.7446 120.531 28.0578C121.165 28.371 121.912 28.4446 123.163 28.0302L137.312 23.3789C138.553 22.9644 139.113 22.467 139.431 21.8407C139.748 21.2144 139.823 20.4775 139.58 19.7591Z" fill="#808080"/>
  </g>
  <defs>
    <clipPath id="clip0_946_44">
      <rect width="140" height="28" fill="white" transform="translate(0 0.5)"/>
    </clipPath>
  </defs>
</svg>