<?xml version="1.0" encoding="UTF-8" standalone="no"?>
<svg width="18px" height="17px" viewBox="0 0 18 17" version="1.1" xmlns="http://www.w3.org/2000/svg" xmlns:xlink="http://www.w3.org/1999/xlink">
    <!-- Generator: Sketch 41.2 (35397) - http://www.bohemiancoding.com/sketch -->
    <title>Fill-1</title>
    <desc>Created with Sketch.</desc>
    <defs></defs>
    <g id="Page-1" stroke="none" stroke-width="1" fill="none" fill-rule="evenodd">
        <path d="M8.9239403,0.43503619 C13.6070632,0.43503619 17.4027219,4.2316155 17.4027219,8.9128972 C17.4027219,12.7251268 14.8885468,15.9490891 11.4270682,17.0160715 C11.0229221,16.8954721 11.0247633,16.5364357 11.0247633,16.5364357 C11.0247633,16.5364357 11.0560639,14.6694467 11.0560639,14.0158164 C11.0560639,13.3631067 10.4954148,12.6155746 10.4954148,12.6155746 C13.7939463,12.3513607 14.3223741,10.1888571 14.3223741,8.6330329 C14.3223741,7.0781293 13.4358305,6.237616 13.4358305,6.237616 C13.7469954,4.9156258 13.3732293,4.0603828 13.3732293,4.0603828 C11.864356,4.2316155 11.1186651,4.978227 11.1186651,4.978227 C11.1186651,4.978227 10.1382197,4.6201112 8.8935603,4.6201112 C7.648901,4.6201112 6.8387677,4.9616561 6.8387677,4.9616561 C5.6576301,3.93518033 4.5225229,4.0751124 4.5225229,4.0751124 C4.1496774,5.1328888 4.4985871,6.2845669 4.4985871,6.2845669 C3.5650926,7.2410766 3.5881078,8.8282014 3.5881078,8.8282014 C3.7289605,12.5851946 7.3920519,12.6431928 7.3920519,12.6431928 C6.8323234,13.1329552 6.9492404,13.8335364 6.9492404,13.8335364 C6.8903216,13.8445837 6.7964198,13.9035025 6.5754743,14.0084516 C6.3536083,14.1134007 5.886861,14.0323873 5.886861,14.0323873 C4.8824799,14.0323873 4.5924889,13.3078704 4.3816702,13.0519419 C4.1726926,12.7950928 3.9738417,12.5612589 3.716072,12.4093589 C3.4592229,12.2583795 2.713532,12.1064795 2.7834981,12.4563098 C2.8525435,12.8061401 3.4831587,12.6321455 3.8799399,13.6006231 C4.2767211,14.5691006 4.6495665,14.8600122 5.1752326,15.0588631 C5.699978,15.2567934 6.8433707,15.0818782 6.8433707,15.0818782 L6.8433707,16.7619842 C6.7384216,17.0068654 6.4585574,17.0068654 6.4585574,17.0068654 L6.4465895,17.0243569 C2.9731429,15.9638188 0.4451588,12.7334122 0.4451588,8.9128972 C0.4451588,4.2316155 4.2426587,0.43503619 8.9239403,0.43503619" id="Fill-1" fill="#26ABE8"></path>
    </g>
</svg>