<svg width="30px" height="30px" viewBox="48 0 30 30" version="1.1" xmlns="http://www.w3.org/2000/svg" xmlns:xlink="http://www.w3.org/1999/xlink">
    <defs></defs>
    <path d="M62.9239403,6.43503619 C67.6070632,6.43503619 71.4027219,10.2316155 71.4027219,14.9128972 C71.4027219,18.7251268 68.8885468,21.9490891 65.4270682,23.0160715 C65.0229221,22.8954721 65.0247633,22.5364357 65.0247633,22.5364357 C65.0247633,22.5364357 65.0560639,20.6694467 65.0560639,20.0158164 C65.0560639,19.3631067 64.4954148,18.6155746 64.4954148,18.6155746 C67.7939463,18.3513607 68.3223741,16.1888571 68.3223741,14.6330329 C68.3223741,13.0781293 67.4358305,12.237616 67.4358305,12.237616 C67.7469954,10.9156258 67.3732293,10.0603828 67.3732293,10.0603828 C65.864356,10.2316155 65.1186651,10.978227 65.1186651,10.978227 C65.1186651,10.978227 64.1382197,10.6201112 62.8935603,10.6201112 C61.648901,10.6201112 60.8387677,10.9616561 60.8387677,10.9616561 C59.6576301,9.93518033 58.5225229,10.0751124 58.5225229,10.0751124 C58.1496774,11.1328888 58.4985871,12.2845669 58.4985871,12.2845669 C57.5650926,13.2410766 57.5881078,14.8282014 57.5881078,14.8282014 C57.7289605,18.5851946 61.3920519,18.6431928 61.3920519,18.6431928 C60.8323234,19.1329552 60.9492404,19.8335364 60.9492404,19.8335364 C60.8903216,19.8445837 60.7964198,19.9035025 60.5754743,20.0084516 C60.3536083,20.1134007 59.886861,20.0323873 59.886861,20.0323873 C58.8824799,20.0323873 58.5924889,19.3078704 58.3816702,19.0519419 C58.1726926,18.7950928 57.9738417,18.5612589 57.716072,18.4093589 C57.4592229,18.2583795 56.713532,18.1064795 56.7834981,18.4563098 C56.8525435,18.8061401 57.4831587,18.6321455 57.8799399,19.6006231 C58.2767211,20.5691006 58.6495665,20.8600122 59.1752326,21.0588631 C59.699978,21.2567934 60.8433707,21.0818782 60.8433707,21.0818782 L60.8433707,22.7619842 C60.7384216,23.0068654 60.4585574,23.0068654 60.4585574,23.0068654 L60.4465895,23.0243569 C56.9731429,21.9638188 54.4451588,18.7334122 54.4451588,14.9128972 C54.4451588,10.2316155 58.2426587,6.43503619 62.9239403,6.43503619 M62.924861,29.4593931 C71.0593359,29.4593931 77.6545575,22.8641715 77.6545575,14.7296966 C77.6545575,6.59430103 71.0593359,0 62.924861,0 C54.790386,0 48.1951644,6.59430103 48.1951644,14.7296966 C48.1951644,22.8641715 54.790386,29.4593931 62.924861,29.4593931" id="Fill-1" stroke="none" fill="#FFFFFF" fill-rule="evenodd"></path>
</svg>
