<?xml version="1.0" encoding="UTF-8" standalone="no"?>
<svg width="1400px" height="738px" viewBox="0 0 1400 738" version="1.1" xmlns="http://www.w3.org/2000/svg" xmlns:xlink="http://www.w3.org/1999/xlink">
    <!-- Generator: Sketch 3.8.3 (29802) - http://www.bohemiancoding.com/sketch -->
    <title>Group 4</title>
    <desc>Created with Sketch.</desc>
    <defs></defs>
    <g id="Page-1" stroke="none" stroke-width="1" fill="none" fill-rule="evenodd" stroke-linecap="square" opacity="0.2">
        <g id="FS-home-desktop" transform="translate(-20.000000, -20.000000)" stroke="#98A3B3" stroke-width="2">
            <g id="//-Hero" transform="translate(20.000000, 20.000000)">
                <g id="::-BG">
                    <g id="Group-4" transform="translate(-22.000000, -22.000000)">
                        <g id="::-hero_grid_lines">
                            <path d="M2,818.758575 L1425.20419,0" id="Line" opacity="0.6"></path>
                            <path d="M16,818.758575 L1439.20419,0" id="Line" opacity="0.6" transform="translate(727.602096, 409.379288) scale(-1, 1) translate(-727.602096, -409.379288) "></path>
                            <path d="M2,549.904722 L944.284678,2" id="Line" opacity="0.6"></path>
                            <path d="M500,806.904722 L1442.28468,259" id="Line" opacity="0.6"></path>
                            <path d="M0,806.904722 L942.284678,259" id="Line" opacity="0.6" transform="translate(471.142339, 532.952361) scale(-1, 1) translate(-471.142339, -532.952361) "></path>
                            <path d="M499,549.904722 L1441.28468,2" id="Line" opacity="0.6" transform="translate(970.142339, 275.952361) scale(-1, 1) translate(-970.142339, -275.952361) "></path>
                            <path d="M485,2.62178226 L485,772.621782" id="Line-Copy-5"></path>
                            <path d="M959,2.62178226 L959,772.621782" id="Line-Copy-5"></path>
                            <path d="M722,-451 L722,989" id="Line-Copy-5" transform="translate(722.000000, 269.000000) rotate(-270.000000) translate(-722.000000, -269.000000) "></path>
                            <path d="M722,-180 L722,1260" id="Line-Copy-5" transform="translate(722.000000, 540.000000) rotate(-270.000000) translate(-722.000000, -540.000000) "></path>
                        </g>
                    </g>
                </g>
            </g>
        </g>
    </g>
</svg>