<?xml version="1.0" encoding="UTF-8" standalone="no"?>
<svg width="204px" height="166px" viewBox="0 0 204 166" version="1.1" xmlns="http://www.w3.org/2000/svg" xmlns:xlink="http://www.w3.org/1999/xlink">
    <!-- Generator: Sketch 41.2 (35397) - http://www.bohemiancoding.com/sketch -->
    <title>**icon_navigation</title>
    <desc>Created with Sketch.</desc>
    <defs></defs>
    <g id="Page-1" stroke="none" stroke-width="1" fill="none" fill-rule="evenodd">
        <g id="**icon_navigation" transform="translate(3.000000, 3.000000)" stroke="#26ABE8">
            <polygon id="Rectangle-1679" stroke-width="5" points="0 0 66.0869566 10.4347826 66.0869566 160 0 149.565217"></polygon>
            <polygon id="Rectangle-1679" stroke-width="5" points="132 0 198.086957 10.4347826 198.086957 160 132 149.565217"></polygon>
            <polygon id="Rectangle-1679" stroke-width="5" fill-opacity="0.249999985" fill="#FFFFFF" transform="translate(99.043478, 80.000000) scale(-1, 1) translate(-99.043478, -80.000000) " points="65.9999994 0 132.086956 10.4347826 132.086956 160 65.9999994 149.565217"></polygon>
            <path d="M16,24 L30.6764712,38.6764712" id="Path-3738" stroke-width="4"></path>
            <path d="M158,82 L172.676471,96.6764712" id="Path-3738" stroke-width="4"></path>
            <path d="M82,126 L96.6764712,140.676471" id="Path-3738" stroke-width="4"></path>
            <path d="M16.0000008,24 L30.676472,38.6764712" id="Path-3739" stroke-width="4" transform="translate(23.338236, 31.338236) scale(-1, 1) translate(-23.338236, -31.338236) "></path>
            <path d="M158.000001,82 L172.676472,96.6764712" id="Path-3739" stroke-width="4" transform="translate(165.338236, 89.338236) scale(-1, 1) translate(-165.338236, -89.338236) "></path>
            <path d="M82.0000008,126 L96.676472,140.676471" id="Path-3739" stroke-width="4" transform="translate(89.338236, 133.338236) scale(-1, 1) translate(-89.338236, -133.338236) "></path>
        </g>
    </g>
</svg>