<svg width="30px" height="30px" viewBox="0 0 30 30" version="1.1" xmlns="http://www.w3.org/2000/svg" xmlns:xlink="http://www.w3.org/1999/xlink">
    <defs></defs>
    <path d="M11.5734563,18.7232855 C11.5734563,18.7232855 9.02798062,18.6744934 8.29425761,16.2993299 C8.29425761,16.2993299 9.56653515,16.3978347 9.78655999,16.1529535 C9.78655999,16.1529535 7.04499522,15.4919584 7.02105947,12.627953 C7.02105947,12.627953 7.85328732,13.0440669 8.61186669,13.0689233 C8.61186669,13.0689233 5.96880677,11.1595864 7.57158187,8.30754886 C7.57158187,8.30754886 10.2404188,11.8445172 14.878432,12.0893985 C14.878432,12.0893985 14.2505787,9.99962275 16.1755659,8.40237128 C18.1014737,6.80143739 20.4840021,8.15656947 20.9406227,8.76048703 C20.9406227,8.76048703 22.2957548,8.54782704 23.2412172,7.91168827 C23.2412172,7.91168827 22.9318936,9.13333247 21.7894215,9.8688967 C21.7894215,9.8688967 23.1279827,9.69121973 23.7475505,9.33126277 C23.7475505,9.33126277 23.0948408,10.3761506 21.9689397,11.1752367 C21.9689397,11.1752367 22.4421312,15.5895426 18.6483137,19.2369837 C14.8535756,22.8853454 8.61186669,22.1258454 6.36006433,20.2165085 C6.36006433,20.2165085 9.41923819,20.5598946 11.5734563,18.7232855 M15.0533471,29.4593931 C23.1887427,29.4593931 29.7830437,22.8650921 29.7830437,14.7296966 C29.7830437,6.59522164 23.1887427,0 15.0533471,0 C6.9188722,0 0.323650559,6.59522164 0.323650559,14.7296966 C0.323650559,22.8650921 6.9188722,29.4593931 15.0533471,29.4593931" id="Fill-4" stroke="none" fill="#FFFFFF" fill-rule="evenodd"></path>
</svg>
