<svg width="249" height="187" viewBox="0 0 249 187" fill="none" xmlns="http://www.w3.org/2000/svg">
<path opacity="0.3" d="M227.183 87.5351C230.195 78.9556 227.651 69.6389 221.125 64.5114C211.017 56.6025 198.165 63.9083 197.295 64.411C188.962 69.3375 184.343 79.3579 185.548 89.948C180.327 83.5804 172.027 80.6314 164.128 82.3069C152.883 84.6865 148.632 95.1426 148.331 95.9133C129.79 86.027 113.256 85.8593 107.232 93.4334C104.052 97.4215 103.35 104.158 105.96 109.117C111.65 119.842 129.99 116.658 173.834 117.06C219.284 117.462 240.235 121.216 244.887 111.061C246.962 106.503 245.724 99.298 241.942 94.5059C236.955 88.1048 228.856 87.6021 227.183 87.5351Z" fill="#14315D"/>
<path d="M178.754 137.57C172.027 147.423 162.79 155.466 151.979 160.728C142.843 165.218 132.568 167.698 121.691 167.698C109.575 167.698 98.1956 164.582 88.2892 159.085C77.2781 152.986 68.1077 143.971 61.8155 133.079C67.9739 125.974 78.8175 120.679 87.0174 117.697L126.61 106.034L149.436 114.345C158.506 117.663 172.362 127.449 178.754 137.57Z" fill="#14315D"/>
<path opacity="0.3" d="M182.356 97.6508C197.591 134.129 159.295 167.698 121.69 167.698C84.0577 167.698 53.2764 136.652 50.5797 98.5275C48.814 73.5617 57.2212 33.4415 78.3718 24.6651C114.302 9.75648 162.027 48.9778 182.356 97.6508Z" fill="#14315D"/>
<path d="M149.937 81.871C149.937 85.9595 146.624 89.2775 142.541 89.2775C138.458 89.2775 135.144 85.9595 135.144 81.871C135.144 78.486 137.387 75.6374 140.499 74.7326C141.135 74.5316 141.838 74.4309 142.575 74.4309C143.646 74.4309 144.65 74.6656 145.587 75.0676C148.13 76.2408 149.937 78.8214 149.937 81.871Z" fill="#FFAC52"/>
<path fill-rule="evenodd" clip-rule="evenodd" d="M142.541 89.2775C142.881 89.2775 143.215 89.2544 143.542 89.2101L144.254 74.6266C143.714 74.4998 143.154 74.4309 142.575 74.4309C141.838 74.4309 141.135 74.5316 140.499 74.7326C137.387 75.6374 135.144 78.486 135.144 81.871C135.144 85.9595 138.458 89.2775 142.541 89.2775Z" fill="black" fill-opacity="0.46"/>
<path d="M110.981 81.871C110.981 85.9595 107.667 89.2775 103.584 89.2775C92.6548 89.2775 95.4451 72.5793 105.224 74.5986C108.504 75.3694 110.981 78.3187 110.981 81.871Z" fill="#FFAC52"/>
<path fill-rule="evenodd" clip-rule="evenodd" d="M103.584 89.2775C107.667 89.2775 110.98 85.9595 110.98 81.8711C110.98 78.3187 108.504 75.3694 105.224 74.5986L101.735 89.0438C102.326 89.1962 102.945 89.2775 103.584 89.2775Z" fill="black" fill-opacity="0.46"/>
<path d="M139.06 103.152L131.965 130.868C131.329 133.348 129.723 135.392 127.514 136.799C124.1 139.011 119.281 139.782 114.361 138.508C109.441 137.235 105.559 134.252 103.651 130.667C102.412 128.354 101.977 125.807 102.613 123.327L109.709 95.6116L139.06 103.152Z" fill="#FFAC52"/>
<path d="M144.683 59.4511L140.667 100.907C140.265 104.929 138.625 108.514 136.182 111.329C132.367 115.686 126.61 118.2 120.419 117.596C114.227 116.993 109.039 113.407 106.161 108.38C104.287 105.13 103.383 101.309 103.785 97.2875L107.834 55.7981L144.683 59.4511Z" fill="#FECC70"/>
<path d="M146.624 61.9976C147.997 64.4105 148.499 68.9683 146.959 72.588C146.591 73.4928 146.089 74.3306 145.52 75.068C144.616 74.6656 143.913 74.4312 142.843 74.4312C142.575 74.4312 142.274 74.4312 142.006 74.4646C141.57 74.4982 141.169 74.5986 140.767 74.6993C140.767 74.3306 140.801 73.8949 140.801 73.4258C140.801 68.7673 140.165 66.7568 140.366 65.0809C134.542 67.0918 126.51 68.1642 116.336 67.4268C113.524 67.2258 111.014 66.2204 108.972 64.7792C108.035 64.8462 105.93 72.9879 105.93 75.9064C103.944 75.5747 103.962 73.8303 101.208 74.8333C100.07 73.4258 98.932 71.6496 98.0282 69.9068C97.1915 68.2646 94.3803 62.467 95.8528 55.5633C96.2544 53.6194 97.1246 49.598 99.6681 48.8942C101.208 48.4585 102.848 49.3633 104.488 50.335C106.696 45.7439 112.085 42.6942 116.302 41.7221C122.661 40.2813 128.083 43.1969 132.166 44.2694C132.534 37.4997 138.123 32.1375 144.984 32.1375C152.08 32.1375 157.836 37.9017 157.836 45.0065C157.87 46.0119 156.866 55.5966 146.624 61.9976Z" fill="#26ABE8"/>
<path d="M126.902 93.193C126.132 94.4783 124.723 95.345 123.109 95.389C121.697 95.4151 120.403 94.7781 119.574 93.7733C119.614 91.9279 119.932 89.5321 120.347 87.1775C121.054 83.1984 121.939 79.5354 121.939 79.5354L124.023 79.4937C124.023 79.4937 125.138 83.344 125.971 87.3738C126.418 89.4249 126.763 91.5016 126.902 93.193Z" fill="#FFAC52"/>
<path fill-rule="evenodd" clip-rule="evenodd" d="M110.278 72.9415C104.909 72.9415 100.557 77.2996 100.557 82.6755C100.557 88.0511 104.909 92.4092 110.278 92.4092C115.646 92.4092 119.998 88.0511 119.998 82.6755C119.998 77.2996 115.646 72.9415 110.278 72.9415ZM99.181 82.6755C99.181 76.5388 104.149 71.564 110.278 71.564C116.406 71.564 121.374 76.5388 121.374 82.6755C121.374 88.8119 116.406 93.7867 110.278 93.7867C104.149 93.7867 99.181 88.8119 99.181 82.6755Z" fill="#131845"/>
<path fill-rule="evenodd" clip-rule="evenodd" d="M136.015 72.9415C130.646 72.9415 126.294 77.2996 126.294 82.6755C126.294 88.0511 130.646 92.4092 136.015 92.4092C141.383 92.4092 145.736 88.0511 145.736 82.6755C145.736 77.2996 141.383 72.9415 136.015 72.9415ZM124.918 82.6755C124.918 76.5388 129.886 71.564 136.015 71.564C142.143 71.564 147.111 76.5388 147.111 82.6755C147.111 88.8119 142.143 93.7867 136.015 93.7867C129.886 93.7867 124.918 88.8119 124.918 82.6755Z" fill="#131845"/>
<path fill-rule="evenodd" clip-rule="evenodd" d="M125.305 83.2122H120.653V80.5312H125.305V83.2122Z" fill="#131845"/>
<path d="M138.525 80.464C138.525 81.1344 138.324 81.7711 137.989 82.3072C137.42 83.212 136.416 83.8154 135.245 83.8824C135.211 83.8824 135.144 83.8824 135.111 83.8824C133.236 83.8824 131.697 82.3409 131.697 80.464C131.697 79.8943 131.831 79.3246 132.099 78.8555C132.5 78.0844 133.203 77.4814 134.073 77.2133C134.408 77.1127 134.743 77.0457 135.111 77.0457C136.985 77.0457 138.525 78.5538 138.525 80.464Z" fill="#131845"/>
<path d="M134.776 78.4201C134.776 79.1908 134.174 79.7942 133.404 79.7942C132.801 79.7942 132.266 79.3922 132.099 78.8558C132.5 78.085 133.203 77.4817 134.073 77.2136C134.508 77.4483 134.776 77.884 134.776 78.4201Z" fill="white"/>
<path d="M137.989 82.2739C137.42 83.2123 136.416 83.8157 135.245 83.849C134.709 83.5476 134.341 82.9443 134.341 82.2739C134.341 81.2687 135.144 80.4307 136.182 80.4307C137.22 80.4307 137.989 81.2687 137.989 82.2739Z" fill="white"/>
<path d="M113.725 80.464C113.725 81.1344 113.524 81.7711 113.189 82.3072C112.62 83.212 111.616 83.8154 110.445 83.8824C110.411 83.8824 110.344 83.8824 110.311 83.8824C108.437 83.8824 106.897 82.3409 106.897 80.464C106.897 79.8943 107.031 79.3246 107.299 78.8555C107.7 78.0844 108.403 77.4814 109.273 77.2133C109.608 77.1127 109.943 77.0457 110.311 77.0457C112.219 77.0457 113.725 78.5538 113.725 80.464Z" fill="#131845"/>
<path d="M110.01 78.4201C110.01 79.1908 109.407 79.7942 108.637 79.7942C108.035 79.7942 107.5 79.3922 107.332 78.8558C107.734 78.085 108.437 77.4817 109.307 77.2136C109.708 77.4483 110.01 77.884 110.01 78.4201Z" fill="white"/>
<path d="M113.189 82.2739C112.621 83.2123 111.616 83.8157 110.445 83.849C109.91 83.5476 109.541 82.9443 109.541 82.2739C109.541 81.2687 110.345 80.4307 111.382 80.4307C112.42 80.4307 113.189 81.2687 113.189 82.2739Z" fill="white"/>
<path opacity="0.6" d="M231.533 160.895H182.067C180.862 160.895 179.892 159.924 179.892 158.717V138.039C179.892 136.833 180.862 135.861 182.067 135.861H231.533C232.738 135.861 233.709 136.833 233.709 138.039V158.717C233.709 159.924 232.738 160.895 231.533 160.895Z" fill="#14315D"/>
<path opacity="0.6" d="M210.95 167.598H161.484C160.279 167.598 159.309 166.626 159.309 165.419V144.742C159.309 143.535 160.279 142.564 161.484 142.564H210.95C212.155 142.564 213.126 143.535 213.126 144.742V165.419C213.126 166.66 212.155 167.598 210.95 167.598Z" fill="#14315D"/>
<path opacity="0.5" d="M109.307 91.7239C115.055 91.7239 119.716 87.0576 119.716 81.3011C119.716 75.5449 115.055 70.8787 109.307 70.8787C103.558 70.8787 98.8984 75.5449 98.8984 81.3011C98.8984 87.0576 103.558 91.7239 109.307 91.7239Z" fill="#14315D"/>
<path opacity="0.5" d="M135.044 91.7239C140.793 91.7239 145.453 87.0576 145.453 81.3011C145.453 75.5449 140.793 70.8787 135.044 70.8787C129.296 70.8787 124.636 75.5449 124.636 81.3011C124.636 87.0576 129.296 91.7239 135.044 91.7239Z" fill="#14315D"/>
<path d="M117.072 106.972L122.828 108.313C122.828 108.313 121.389 109.921 121.255 109.888C121.121 109.854 115.164 108.011 115.164 108.011L117.072 106.972Z" fill="#FFAC52"/>
<path d="M124.502 102.985C124.267 103.856 123.899 105.063 122.761 105.532C122.527 105.632 122.293 105.699 121.991 105.733C120.385 105.934 118.779 104.593 118.712 103.253C118.712 103.152 118.712 103.052 118.745 102.918C118.779 102.683 118.846 102.415 118.912 102.18C119.113 101.476 119.414 100.806 119.816 100.236C120.619 99.0636 121.757 98.3932 122.828 98.5275C123.732 98.6615 124.368 99.3986 124.635 100.438C124.769 101.208 124.736 102.08 124.502 102.985Z" fill="#131845"/>
<path d="M124.568 100.471C122.828 100.471 121.121 100.37 119.783 100.27C120.586 99.0969 121.724 98.4269 122.795 98.5609C123.699 98.6949 124.334 99.4323 124.568 100.471Z" fill="white"/>
<path d="M122.761 105.565C122.527 105.666 122.293 105.733 121.991 105.767C120.385 105.968 118.778 104.627 118.711 103.286C119.883 103.789 121.958 104.862 122.761 105.565Z" fill="#EF5BD6"/>
<path opacity="0.87" d="M25.5692 84.9544H9.87253C8.39992 84.9544 7.19507 83.7479 7.19507 82.2734V66.5558C7.19507 65.081 8.39992 63.8745 9.87253 63.8745H25.5692C27.0418 63.8745 28.2466 65.081 28.2466 66.5558V82.2734C28.2466 83.7479 27.0418 84.9544 25.5692 84.9544Z" fill="#14315D"/>
<path opacity="0.87" d="M49.2986 84.9544H33.6019C32.1294 84.9544 30.9244 83.7479 30.9244 82.2734V66.5558C30.9244 65.081 32.1294 63.8745 33.6019 63.8745H49.2986C50.7711 63.8745 51.9759 65.081 51.9759 66.5558V82.2734C51.9759 83.7479 50.7711 84.9544 49.2986 84.9544Z" fill="#14315D"/>
<path opacity="0.87" d="M49.2986 108.715H33.6019C32.1294 108.715 30.9244 107.509 30.9244 106.034V90.3167C30.9244 88.8422 32.1294 87.6357 33.6019 87.6357H49.2986C50.7711 87.6357 51.9759 88.8422 51.9759 90.3167V106.034C51.9759 107.509 50.7711 108.715 49.2986 108.715Z" fill="#14315D"/>
<path d="M25.5692 132.476H9.87253C8.39992 132.476 7.19507 131.27 7.19507 129.795V114.077C7.19507 112.603 8.39992 111.396 9.87253 111.396H25.5692C27.0418 111.396 28.2466 112.603 28.2466 114.077V129.795C28.2466 131.303 27.0418 132.476 25.5692 132.476Z" fill="#26ABE8"/>
<path opacity="0.87" d="M25.5692 156.27H9.87253C8.39992 156.27 7.19507 155.064 7.19507 153.59V137.872C7.19507 136.397 8.39992 135.191 9.87253 135.191H25.5692C27.0418 135.191 28.2466 136.397 28.2466 137.872V153.59C28.2466 155.064 27.0418 156.27 25.5692 156.27Z" fill="#14315D"/>
<path opacity="0.87" d="M73.0273 156.27H57.3307C55.8579 156.27 54.653 155.064 54.653 153.59V137.872C54.653 136.397 55.8579 135.191 57.3307 135.191H73.0273C74.4999 135.191 75.7047 136.397 75.7047 137.872V153.59C75.7047 155.064 74.4999 156.27 73.0273 156.27Z" fill="#14315D"/>
<path opacity="0.87" d="M120.519 156.27H104.822C103.35 156.27 102.145 155.064 102.145 153.59V137.872C102.145 136.397 103.35 135.191 104.822 135.191H120.519C121.992 135.191 123.196 136.397 123.196 137.872V153.59C123.196 155.064 121.992 156.27 120.519 156.27Z" fill="#26ABE8"/>
<path opacity="0.87" d="M126.61 150.54H119.414C118.745 150.54 118.176 150.004 118.176 149.3V142.094C118.176 141.424 118.711 140.854 119.414 140.854H126.61C127.279 140.854 127.848 141.391 127.848 142.094V149.3C127.848 150.004 127.313 150.54 126.61 150.54Z" fill="#F74D7B"/>
<path opacity="0.87" d="M138.692 150.54H131.497C130.827 150.54 130.258 150.004 130.258 149.3V142.094C130.258 141.424 130.794 140.854 131.497 140.854H138.692C139.362 140.854 139.931 141.391 139.931 142.094V149.3C139.931 150.004 139.395 150.54 138.692 150.54Z" fill="#F74D7B"/>
<path opacity="0.87" d="M150.808 150.54H143.612C142.943 150.54 142.374 150.004 142.374 149.3V142.094C142.374 141.424 142.91 140.854 143.612 140.854H150.808C151.477 140.854 152.046 141.391 152.046 142.094V149.3C152.013 150.004 151.477 150.54 150.808 150.54Z" fill="#F74D7B"/>
<path opacity="0.67" d="M93.7442 96.8516H60.3427C57.1965 96.8516 54.653 94.3047 54.653 91.1547V57.7085C54.653 54.5582 57.1965 52.0112 60.3427 52.0112H93.7442C96.8903 52.0112 99.4338 54.5582 99.4338 57.7085V91.1547C99.4338 94.2714 96.8903 96.8516 93.7442 96.8516Z" fill="#14315D"/>
<path opacity="0.87" d="M96.7564 120.613H81.0598C79.5872 120.613 78.3824 119.406 78.3824 117.932V102.214C78.3824 100.739 79.5872 99.533 81.0598 99.533H96.7564C98.2292 99.533 99.4341 100.739 99.4341 102.214V117.932C99.4341 119.406 98.2626 120.613 96.7564 120.613Z" fill="#F74D7B"/>
<path opacity="0.8" d="M96.7564 180.031H81.0598C79.5872 180.031 78.3824 178.824 78.3824 177.35V161.632C78.3824 160.158 79.5872 158.951 81.0598 158.951H96.7564C98.2292 158.951 99.4341 160.158 99.4341 161.632V177.35C99.4341 178.824 98.2626 180.031 96.7564 180.031Z" fill="#26ABE8"/>
<path opacity="0.87" d="M144.248 180.031H128.551C127.078 180.031 125.874 178.824 125.874 177.35V161.632C125.874 160.158 127.078 158.951 128.551 158.951H144.248C145.72 158.951 146.925 160.158 146.925 161.632V177.35C146.925 178.824 145.72 180.031 144.248 180.031Z" fill="#14315D"/>
<path opacity="0.67" d="M114.633 120.612H103.965C102.964 120.612 102.145 119.792 102.145 118.79V108.108C102.145 107.105 102.964 106.285 103.965 106.285H114.633C115.634 106.285 116.453 107.105 116.453 108.108V118.79C116.453 119.792 115.634 120.612 114.633 120.612Z" fill="#F74D7B"/>
<path fill-rule="evenodd" clip-rule="evenodd" d="M22.2891 35.6236H7.16138V32.2722H22.2891V35.6236Z" fill="#F74D7B"/>
<path fill-rule="evenodd" clip-rule="evenodd" d="M22.2893 39.1092H7.16162V37.4333H22.2893V39.1092Z" fill="#F74D7B"/>
<path fill-rule="evenodd" clip-rule="evenodd" d="M33.6352 45.0405H7.16162V43.365H33.6352V45.0405Z" fill="#F74D7B"/>
<path fill-rule="evenodd" clip-rule="evenodd" d="M50.6369 48.8279H7.16162V47.1523H50.6369V48.8279Z" fill="#F74D7B"/>
<path fill-rule="evenodd" clip-rule="evenodd" d="M50.6369 52.5813H7.16162V50.9058H50.6369V52.5813Z" fill="#F74D7B"/>
<path fill-rule="evenodd" clip-rule="evenodd" d="M50.6369 56.3347H7.16162V54.6592H50.6369V56.3347Z" fill="#F74D7B"/>
<g opacity="0.3">
<path opacity="0.3" d="M179.624 134.085H164.496V137.436H179.624V134.085Z" fill="white"/>
</g>
<g opacity="0.3">
<path opacity="0.3" d="M179.624 139.246H164.496V140.922H179.624V139.246Z" fill="white"/>
</g>
<path d="M190.936 147.892H164.496V149.568H190.936V147.892Z" fill="#F74D7B"/>
<path d="M207.972 151.679H164.496V153.355H207.972V151.679Z" fill="#F74D7B"/>
<path d="M207.972 155.433H164.496V157.108H207.972V155.433Z" fill="#F74D7B"/>
<path d="M207.972 159.219H164.496V160.895H207.972V159.219Z" fill="#F74D7B"/>
<path d="M3.11188 75.0679L10.5753 71.2139V72.32L4.28328 75.47V75.5036L10.5753 78.654V79.7598L3.11188 75.9394V75.0679Z" fill="#F74D7B"/>
<path d="M23.5945 75.9394L16.1311 79.7931V78.6874L22.4901 75.537V75.5037L16.1311 72.3533V71.2476L23.5945 75.1013V75.9394Z" fill="#F74D7B"/>
<path d="M212.657 108.916L220.12 105.062V106.168L213.828 109.318V109.352L220.12 112.502V113.608L212.657 109.754V108.916Z" fill="#14315D"/>
<path d="M233.14 109.787L225.677 113.641V112.535L232.035 109.385V109.352L225.677 106.202V105.095L233.14 108.95V109.787Z" fill="#14315D"/>
<path fill-rule="evenodd" clip-rule="evenodd" d="M19.6116 95.1862C18.9618 95.1862 18.4168 95.7319 18.4168 96.3827V128.79C18.4168 129.441 18.9618 129.986 19.6116 129.986H37.2159C37.8913 129.986 38.4139 129.447 38.444 128.784V96.3827C38.444 95.7319 37.899 95.1862 37.2495 95.1862H19.6116ZM17.8611 96.3827C17.8611 95.4246 18.6549 94.6299 19.6116 94.6299H37.2495C38.2059 94.6299 38.9999 95.4246 38.9999 96.3827V128.796L38.9996 128.802C38.9604 129.744 38.2122 130.543 37.2159 130.543H19.6116C18.6549 130.543 17.8611 129.748 17.8611 128.79V96.3827Z" fill="#F74D7B"/>
<path d="M24.7324 105.565H21.6198C21.3521 105.565 21.1178 105.33 21.1178 105.062V101.945C21.1178 101.677 21.3521 101.443 21.6198 101.443H24.7324C25.0001 101.443 25.2344 101.677 25.2344 101.945V105.062C25.2344 105.364 25.0336 105.565 24.7324 105.565Z" fill="#F74D7B"/>
<path d="M29.9535 105.565H26.8744C26.6067 105.565 26.3724 105.33 26.3724 105.062V101.945C26.3724 101.677 26.6067 101.443 26.8744 101.443H29.987C30.2547 101.443 30.489 101.677 30.489 101.945V105.062C30.4555 105.364 30.2547 105.565 29.9535 105.565Z" fill="#F74D7B"/>
<path d="M35.208 105.565H32.0955C31.8275 105.565 31.5934 105.33 31.5934 105.062V101.945C31.5934 101.677 31.8275 101.443 32.0955 101.443H35.208C35.4757 101.443 35.71 101.677 35.71 101.945V105.062C35.71 105.364 35.4757 105.565 35.208 105.565Z" fill="#F74D7B"/>
<path d="M24.7324 113.039H21.6198C21.3521 113.039 21.1178 112.804 21.1178 112.536V109.419C21.1178 109.151 21.3521 108.917 21.6198 108.917H24.7324C25.0001 108.917 25.2344 109.151 25.2344 109.419V112.536C25.2344 112.804 25.0336 113.039 24.7324 113.039Z" fill="#F74D7B"/>
<path d="M29.9535 113.039H26.8744C26.6067 113.039 26.3724 112.804 26.3724 112.536V109.419C26.3724 109.151 26.6067 108.917 26.8744 108.917H29.987C30.2547 108.917 30.489 109.151 30.489 109.419V112.536C30.4555 112.804 30.2547 113.039 29.9535 113.039Z" fill="#F74D7B"/>
<path d="M35.208 113.039H32.0955C31.8275 113.039 31.5934 112.804 31.5934 112.536V109.419C31.5934 109.151 31.8275 108.917 32.0955 108.917H35.208C35.4757 108.917 35.71 109.151 35.71 109.419V112.536C35.71 112.804 35.4757 113.039 35.208 113.039Z" fill="#F74D7B"/>
<path d="M24.7324 120.479H21.6198C21.3521 120.479 21.1178 120.244 21.1178 119.976V116.859C21.1178 116.591 21.3521 116.356 21.6198 116.356H24.7324C25.0001 116.356 25.2344 116.591 25.2344 116.859V119.976C25.2344 120.278 25.0336 120.479 24.7324 120.479Z" fill="#F74D7B"/>
<path d="M29.9535 120.479H26.8744C26.6067 120.479 26.3724 120.244 26.3724 119.976V116.859C26.3724 116.591 26.6067 116.356 26.8744 116.356H29.987C30.2547 116.356 30.489 116.591 30.489 116.859V119.976C30.4555 120.278 30.2547 120.479 29.9535 120.479Z" fill="#F74D7B"/>
<path d="M35.208 120.479H32.0955C31.8275 120.479 31.5934 120.244 31.5934 119.976V116.859C31.5934 116.591 31.8275 116.356 32.0955 116.356H35.208C35.4757 116.356 35.71 116.591 35.71 116.859V119.976C35.71 120.278 35.4757 120.479 35.208 120.479Z" fill="#F74D7B"/>
<path d="M24.7324 127.952H21.6198C21.3521 127.952 21.1178 127.717 21.1178 127.449V124.332C21.1178 124.064 21.3521 123.83 21.6198 123.83H24.7324C25.0001 123.83 25.2344 124.064 25.2344 124.332V127.449C25.2344 127.717 25.0336 127.952 24.7324 127.952Z" fill="#F74D7B"/>
<path d="M29.9535 127.952H26.8744C26.6067 127.952 26.3724 127.717 26.3724 127.449V124.332C26.3724 124.064 26.6067 123.83 26.8744 123.83H29.987C30.2547 123.83 30.489 124.064 30.489 124.332V127.449C30.4555 127.717 30.2547 127.952 29.9535 127.952Z" fill="#F74D7B"/>
<path d="M35.208 127.952H32.0955C31.8275 127.952 31.5934 127.717 31.5934 127.449V124.332C31.5934 124.064 31.8275 123.83 32.0955 123.83H35.208C35.4757 123.83 35.71 124.064 35.71 124.332V127.449C35.71 127.717 35.4757 127.952 35.208 127.952Z" fill="#F74D7B"/>
<path d="M33.1329 96.8519H23.6948C23.2932 96.8519 22.9585 96.5169 22.9585 96.1145V94.707H33.8693V96.1145C33.8693 96.5169 33.5344 96.8519 33.1329 96.8519Z" fill="#F74D7B"/>
<path d="M21.3856 96.483H19.7456C19.5448 96.483 19.3774 96.3153 19.3774 96.1143C19.3774 95.9133 19.5448 95.7456 19.7456 95.7456H21.3856C21.5864 95.7456 21.7537 95.9133 21.7537 96.1143C21.7537 96.3153 21.5864 96.483 21.3856 96.483Z" fill="#F74D7B"/>
<path d="M37.0823 96.483H35.4424C35.2416 96.483 35.0742 96.3153 35.0742 96.1143C35.0742 95.9133 35.2416 95.7456 35.4424 95.7456H37.0823C37.2831 95.7456 37.4505 95.9133 37.4505 96.1143C37.4169 96.3153 37.2831 96.483 37.0823 96.483Z" fill="#F74D7B"/>
<path opacity="0.3" d="M35.978 99.8679H21.0178C20.6162 99.8679 20.3149 99.5329 20.3149 99.1642C20.3149 98.7622 20.6496 98.4604 21.0178 98.4604H35.978C36.3799 98.4604 36.6808 98.7955 36.6808 99.1642C36.6808 99.5329 36.3799 99.8679 35.978 99.8679Z" fill="#F74D7B"/>
<path d="M20.7499 176.948H12.2824C11.5126 176.948 10.9102 176.344 10.9102 175.574V167.095C10.9102 166.324 11.5126 165.721 12.2824 165.721H20.7499C21.5196 165.721 22.1221 166.324 22.1221 167.095V175.574C22.1221 176.311 21.5196 176.948 20.7499 176.948Z" fill="#14315D"/>
<path d="M35.0072 176.948H26.5398C25.7701 176.948 25.1677 176.344 25.1677 175.574V167.095C25.1677 166.324 25.7701 165.721 26.5398 165.721H35.0072C35.777 165.721 36.3795 166.324 36.3795 167.095V175.574C36.3795 176.311 35.777 176.948 35.0072 176.948Z" fill="#14315D"/>
<path d="M49.265 176.948H40.7977C40.0277 176.948 39.4254 176.344 39.4254 175.574V167.095C39.4254 166.324 40.0277 165.721 40.7977 165.721H49.265C50.035 165.721 50.6373 166.324 50.6373 167.095V175.574C50.6373 176.311 50.035 176.948 49.265 176.948Z" fill="#14315D"/>
<path d="M16.5328 178.791H10.9436V180.098H16.5328V178.791Z" fill="#14315D"/>
<path d="M19.4446 181.036H10.9436V182.343H19.4446V181.036Z" fill="#14315D"/>
<path d="M30.7906 178.791H25.2014V180.098H30.7906V178.791Z" fill="#14315D"/>
<path d="M33.7025 181.036H25.2014V182.343H33.7025V181.036Z" fill="#14315D"/>
<path d="M45.0482 178.791H39.4587V180.098H45.0482V178.791Z" fill="#14315D"/>
<path d="M47.9599 181.036H39.4587V182.343H47.9599V181.036Z" fill="#14315D"/>
<path opacity="0.79" d="M150.339 75.7717C146.423 76.3081 143.746 79.8605 142.909 83.9826C142.073 79.8605 138.793 76.5762 134.709 75.7717C137.989 74.934 140.299 72.7557 142.507 68.667C144.817 72.6887 146.49 74.1296 150.339 75.7717Z" fill="white"/>
<path opacity="0.79" d="M124.267 75.7717C120.351 76.3081 117.674 79.8605 116.837 83.9826C116 79.8605 112.721 76.5762 108.637 75.7717C111.917 74.934 114.227 72.7557 116.436 68.667C118.778 72.6887 120.452 74.1296 124.267 75.7717Z" fill="white"/>
<path d="M143.311 162.102H128.953V163.275H143.311V162.102Z" fill="#F74D7B"/>
<path d="M143.311 164.682H128.953V165.855H143.311V164.682Z" fill="#F74D7B"/>
<path d="M143.311 170.547H128.953V171.72H143.311V170.547Z" fill="#F74D7B"/>
<path d="M143.311 173.128H128.953V174.301H143.311V173.128Z" fill="#F74D7B"/>
<path d="M143.311 175.708H128.953V176.881H143.311V175.708Z" fill="#F74D7B"/>
<path d="M20.1474 140.855H11.9142C11.3787 140.855 10.9436 140.419 10.9436 139.882V139.346C10.9436 138.81 11.3787 138.374 11.9142 138.374H20.1808C20.7164 138.374 21.1514 138.81 21.1514 139.346V139.882C21.1514 140.385 20.7164 140.855 20.1474 140.855Z" fill="#F74D7B"/>
<path d="M36.9149 142.262H26.7069V143.099H36.9149V142.262Z" fill="#F74D7B"/>
<path d="M36.9145 144.072H26.7068V144.91H36.9145V144.072Z" fill="#F74D7B"/>
<path d="M40.4289 148.261H30.2211V149.098H40.4289V148.261Z" fill="#F74D7B"/>
<path d="M40.4292 150.104H30.2213V150.942H40.4292V150.104Z" fill="#F74D7B"/>
<path d="M40.4289 154.26H30.2211V155.098H40.4289V154.26Z" fill="#F74D7B"/>
<path d="M40.4292 156.103H30.2213V156.941H40.4292V156.103Z" fill="#F74D7B"/>
<path d="M40.4292 157.946H30.2213V158.784H40.4292V157.946Z" fill="#F74D7B"/>
<path d="M22.1221 142.664C23.2266 142.664 23.3939 142.061 23.3939 141.524C23.3939 141.089 23.327 140.653 23.2601 140.217C23.1931 139.782 23.1262 139.346 23.1262 138.91C23.1262 137.469 24.0633 136.866 25.3686 136.866H25.7032V137.737H25.4355C24.5319 137.737 24.1972 138.24 24.1972 139.078C24.1972 139.447 24.2306 139.815 24.2976 140.184C24.3645 140.586 24.398 140.955 24.398 141.357C24.398 142.362 23.9629 142.865 23.2935 143.033V143.066C23.9964 143.234 24.4314 143.77 24.398 144.775C24.398 145.211 24.3645 145.579 24.2976 145.948C24.2306 146.35 24.1972 146.686 24.1972 147.054C24.1972 147.925 24.5653 148.394 25.4355 148.394H25.7032V149.266H25.3686C24.0633 149.266 23.1262 148.696 23.1262 147.121C23.1262 146.686 23.1931 146.25 23.2601 145.848C23.327 145.412 23.3939 145.01 23.3939 144.574C23.3939 144.105 23.2266 143.435 22.1221 143.435V142.664Z" fill="#26ABE8"/>
<path d="M45.0478 158.214C43.9435 158.214 43.7761 158.817 43.7761 159.353C43.7761 159.789 43.843 160.225 43.9099 160.66C43.9768 161.096 44.0441 161.532 44.0441 161.967C44.0441 163.408 43.1069 164.012 41.8015 164.012H41.4669V163.14H41.7346C42.6382 163.14 42.9731 162.638 42.9731 161.8C42.9731 161.431 42.9394 161.062 42.8725 160.694C42.8056 160.292 42.772 159.923 42.772 159.521C42.772 158.516 43.2071 158.013 43.8766 157.845V157.812C43.1738 157.644 42.7387 157.108 42.772 156.103C42.772 155.667 42.8056 155.298 42.8725 154.93C42.9394 154.527 42.9731 154.192 42.9731 153.824C42.9731 152.952 42.6048 152.483 41.7346 152.483H41.4669V151.612H41.8015C43.1069 151.612 44.0441 152.182 44.0441 153.757C44.0441 154.192 43.9768 154.628 43.9099 155.03C43.843 155.466 43.7761 155.868 43.7761 156.304C43.7761 156.773 43.9435 157.443 45.0478 157.443V158.214Z" fill="#26ABE8"/>
<path d="M202.518 12.0075H189.668C188.836 12.0075 188.159 11.3303 188.159 10.4968V9.6633C188.159 8.82981 188.836 8.15259 189.668 8.15259H202.518C203.35 8.15259 204.027 8.82981 204.027 9.6633V10.4968C204.027 11.3303 203.35 12.0075 202.518 12.0075Z" fill="#26ABE8"/>
<path d="M228.53 14.1956H212.663V15.4979H228.53V14.1956Z" fill="#F74D7B"/>
<path d="M228.53 17.0608H212.663V18.3632H228.53V17.0608Z" fill="#F74D7B"/>
<path d="M234.045 23.5205H218.177V24.8228H234.045V23.5205Z" fill="#F74D7B"/>
<path d="M234.044 26.3857H218.177V27.6881H234.044V26.3857Z" fill="#F74D7B"/>
<path d="M234.045 32.8975H218.177V34.1996H234.045V32.8975Z" fill="#F74D7B"/>
<path d="M234.044 35.7102H218.177V37.0127H234.044V35.7102Z" fill="#F74D7B"/>
<path d="M234.044 38.5752H218.177V39.8776H234.044V38.5752Z" fill="#F74D7B"/>
<path d="M205.535 14.8206C207.252 14.8206 207.512 13.8829 207.512 13.0494C207.512 12.3721 207.408 11.695 207.304 11.0177C207.2 10.3405 207.096 9.66329 207.096 8.98607C207.096 6.74603 208.553 5.80835 210.581 5.80835H211.102V7.16279H210.686C209.281 7.16279 208.761 7.9442 208.761 9.24653C208.761 9.81956 208.813 10.3926 208.917 10.9656C209.021 11.5908 209.073 12.1638 209.073 12.7889C209.073 14.3517 208.396 15.1331 207.356 15.3936V15.4457C208.448 15.7061 209.125 16.5397 209.073 18.1024C209.073 18.7797 209.021 19.3527 208.917 19.9257C208.813 20.5509 208.761 21.0718 208.761 21.6448C208.761 22.9993 209.333 23.7286 210.686 23.7286H211.102V25.1351H210.581C208.553 25.1351 207.096 24.2495 207.096 21.8011C207.096 21.1239 207.2 20.4467 207.304 19.8215C207.408 19.1443 207.512 18.5192 207.512 17.842C207.512 17.1127 207.252 16.0708 205.535 16.0708V14.8206Z" fill="#F74D7B"/>
<path d="M241.172 39.0441C239.455 39.0441 239.195 39.9819 239.195 40.8153C239.195 41.4925 239.299 42.1698 239.403 42.847C239.507 43.5243 239.611 44.2015 239.611 44.8788C239.611 47.1187 238.154 48.0562 236.126 48.0562H235.605V46.702H236.021C237.426 46.702 237.947 45.9207 237.947 44.6182C237.947 44.0451 237.895 43.4722 237.79 42.8991C237.686 42.2739 237.634 41.701 237.634 41.0758C237.634 39.5131 238.311 38.7315 239.351 38.4712V38.4192C238.259 38.1586 237.582 37.3252 237.634 35.7622C237.634 35.085 237.686 34.5121 237.79 33.939C237.895 33.3138 237.947 32.793 237.947 32.2198C237.947 30.8655 237.374 30.1361 236.021 30.1361H235.605V28.7817H236.126C238.154 28.7817 239.611 29.6673 239.611 32.1157C239.611 32.793 239.507 33.4702 239.403 34.0951C239.299 34.7724 239.195 35.3976 239.195 36.0748C239.195 36.8041 239.455 37.846 241.172 37.846V39.0441Z" fill="#26ABE8"/>
<path d="M198.4 129.427C200.207 129.427 200.475 128.421 200.475 127.516C200.475 126.812 200.374 126.075 200.274 125.372C200.174 124.668 200.073 123.964 200.073 123.26C200.073 120.914 201.613 119.909 203.788 119.909H204.324V121.316H203.855C202.349 121.316 201.847 122.121 201.847 123.528C201.847 124.131 201.914 124.735 202.014 125.338C202.115 125.975 202.182 126.578 202.182 127.282C202.215 128.924 201.479 129.728 200.341 130.063V130.13C201.479 130.398 202.215 131.27 202.182 132.912C202.182 133.616 202.115 134.253 202.014 134.856C201.914 135.492 201.847 136.096 201.847 136.699C201.847 138.14 202.449 138.911 203.855 138.911H204.324V140.318H203.788C201.68 140.318 200.073 139.38 200.073 136.799C200.073 136.096 200.174 135.392 200.274 134.688C200.374 133.984 200.475 133.314 200.475 132.61C200.475 131.806 200.207 130.7 198.4 130.7V129.427Z" fill="#F74D7B"/>
<path d="M227.852 155.064C226.044 155.064 225.777 156.07 225.777 156.975C225.777 157.678 225.877 158.416 225.977 159.12C226.078 159.823 226.178 160.527 226.178 161.231C226.178 163.577 224.639 164.582 222.463 164.582H221.928V163.175H222.397C223.902 163.175 224.404 162.37 224.404 160.963C224.404 160.359 224.337 159.756 224.237 159.153C224.137 158.516 224.07 157.913 224.07 157.209C224.037 155.567 224.773 154.763 225.911 154.428V154.361C224.773 154.092 224.037 153.221 224.07 151.579C224.07 150.875 224.137 150.239 224.237 149.635C224.337 148.998 224.404 148.395 224.404 147.792C224.404 146.351 223.802 145.58 222.397 145.58H221.928V144.173H222.463C224.572 144.173 226.178 145.111 226.178 147.691C226.178 148.395 226.078 149.099 225.977 149.803C225.877 150.507 225.777 151.177 225.777 151.881C225.777 152.685 226.044 153.791 227.852 153.791V155.064Z" fill="#F74D7B"/>
<g opacity="0.9">
<path d="M80.4905 68.667H60.1083V79.4918H80.4905V68.667Z" fill="#F74D7B"/>
<path d="M95.451 68.667H83.2015V79.4918H95.451V68.667Z" fill="#F74D7B"/>
<path d="M95.451 82.2397H83.2015V93.0646H95.451V82.2397Z" fill="#F74D7B"/>
<path d="M67.5048 81.2012H60.1083V82.5083H67.5048V81.2012Z" fill="#F74D7B"/>
<path d="M67.5048 89.2444H60.1083V90.5512H67.5048V89.2444Z" fill="#F74D7B"/>
<path d="M67.5048 91.4895H60.1083V92.7963H67.5048V91.4895Z" fill="#F74D7B"/>
<path d="M80.4572 89.2444H70.2827V90.5512H80.4572V89.2444Z" fill="#F74D7B"/>
<path d="M80.4572 91.4895H70.2827V92.7963H80.4572V91.4895Z" fill="#F74D7B"/>
<path d="M80.4905 84.251H60.1083V85.5581H80.4905V84.251Z" fill="#F74D7B"/>
</g>
<path opacity="0.87" d="M230.898 57.9765H192.376C190.869 57.9765 189.665 56.7701 189.665 55.2619C189.665 53.7541 190.869 52.5476 192.376 52.5476H230.898C232.404 52.5476 233.609 53.7541 233.609 55.2619C233.609 56.7701 232.404 57.9765 230.898 57.9765Z" fill="#14315D"/>
<path opacity="0.87" d="M214.665 61.3276H191.873V73.4259H214.665V61.3276Z" fill="#14315D"/>
<path opacity="0.87" d="M231.399 61.3276H217.711V73.4259H231.399V61.3276Z" fill="#14315D"/>
<path opacity="0.87" d="M231.399 76.5093H217.711V88.6076H231.399V76.5093Z" fill="#14315D"/>
<path d="M200.173 75.3704H191.873V76.8449H200.173V75.3704Z" fill="#14315D"/>
<path d="M200.173 84.3513H191.873V85.8261H200.173V84.3513Z" fill="#14315D"/>
<path d="M200.173 86.865H191.873V88.3395H200.173V86.865Z" fill="#14315D"/>
<path d="M214.665 84.3513H203.253V85.8261H214.665V84.3513Z" fill="#14315D"/>
<path d="M214.665 86.865H203.253V88.3395H214.665V86.865Z" fill="#14315D"/>
<path d="M214.665 78.7883H191.873V80.2628H214.665V78.7883Z" fill="#14315D"/>
<path d="M231.433 90.9873H191.873V92.4618H231.433V90.9873Z" fill="#14315D"/>
<path d="M231.433 93.668H191.873V95.1425H231.433V93.668Z" fill="#14315D"/>
<path d="M104.722 19.0676H78.9844V22.4189H104.722V19.0676Z" fill="#14315D"/>
<path d="M87.6863 24.6643H78.9847V28.0156H87.6863V24.6643Z" fill="#14315D"/>
<path d="M98.1953 30.2273H78.9847V33.5786H98.1953V30.2273Z" fill="#14315D"/>
<path d="M137.923 19.0676H112.185V22.4189H137.923V19.0676Z" fill="#14315D"/>
<path d="M129.388 24.6643H120.686V28.0156H129.388V24.6643Z" fill="#14315D"/>
<path d="M134.643 30.2273H115.432V33.5786H134.643V30.2273Z" fill="#14315D"/>
<path d="M167.81 19.0676H142.073V22.4189H167.81V19.0676Z" fill="#14315D"/>
<path d="M167.81 24.6643H159.108V28.0156H167.81V24.6643Z" fill="#14315D"/>
<path d="M167.81 30.2273H148.599V33.5786H167.81V30.2273Z" fill="#14315D"/>
<path opacity="0.3" d="M173.901 42.661H75.3032C72.8935 42.661 70.9522 40.7174 70.9522 38.3045V11.0247C70.9522 8.61174 72.8935 6.66797 75.3032 6.66797H173.901C176.311 6.66797 178.252 8.61174 178.252 11.0247V38.2708C178.252 40.6837 176.311 42.661 173.901 42.661Z" fill="#14315D"/>
<g opacity="0.87">
<path opacity="0.5" d="M158.327 93.6205C159.617 93.6205 160.662 92.5733 160.662 91.2814C160.662 89.9896 159.617 88.9424 158.327 88.9424C157.037 88.9424 155.991 89.9896 155.991 91.2814C155.991 92.5733 157.037 93.6205 158.327 93.6205Z" fill="#F74D7B"/>
<path opacity="0.5" d="M179.155 92.4515H162.803C162.56 92.4515 162.365 92.2564 162.365 92.0127V90.6485C162.365 90.4048 162.56 90.2097 162.803 90.2097H179.155C179.398 90.2097 179.593 90.4048 179.593 90.6485V92.0127C179.642 92.2078 179.398 92.4515 179.155 92.4515Z" fill="#F74D7B"/>
<path opacity="0.5" d="M158.326 100.296C159.616 100.296 160.662 99.2491 160.662 97.9572C160.662 96.6654 159.616 95.6182 158.326 95.6182C157.036 95.6182 155.99 96.6654 155.99 97.9572C155.99 99.2491 157.036 100.296 158.326 100.296Z" fill="#F74D7B"/>
<path opacity="0.5" d="M179.155 99.1273H162.803C162.56 99.1273 162.365 98.9322 162.365 98.6885V97.324C162.365 97.0806 162.56 96.8855 162.803 96.8855H179.155C179.398 96.8855 179.593 97.0806 179.593 97.324V98.6885C179.642 98.8836 179.398 99.1273 179.155 99.1273Z" fill="#F74D7B"/>
<path opacity="0.5" d="M158.326 106.972C159.616 106.972 160.662 105.925 160.662 104.633C160.662 103.341 159.616 102.294 158.326 102.294C157.036 102.294 155.99 103.341 155.99 104.633C155.99 105.925 157.036 106.972 158.326 106.972Z" fill="#F74D7B"/>
<path opacity="0.5" d="M179.155 105.803H162.803C162.56 105.803 162.365 105.608 162.365 105.365V104C162.365 103.757 162.56 103.562 162.803 103.562H179.155C179.398 103.562 179.593 103.757 179.593 104V105.365C179.642 105.56 179.398 105.803 179.155 105.803Z" fill="#F74D7B"/>
</g>
<path opacity="0.9" d="M59.9387 63.8745H96.1875V65.786H59.9387V63.8745Z" fill="#F74D7B"/>
<path opacity="0.9" d="M59.9387 59.8987H96.1875V61.8101H59.9387V59.8987Z" fill="#F74D7B"/>
<path opacity="0.9" d="M59.9387 55.9224H96.1875V57.8338H59.9387V55.9224Z" fill="#F74D7B"/>
<path d="M190.476 172.417C190.476 173.172 189.864 173.784 189.11 173.784C188.356 173.784 187.745 173.172 187.745 172.417C187.745 171.662 188.356 171.05 189.11 171.05C189.864 171.05 190.476 171.662 190.476 172.417Z" fill="#26ABE8"/>
<path d="M202.99 172.417C202.99 173.172 202.379 173.784 201.625 173.784C200.871 173.784 200.26 173.172 200.26 172.417C200.26 171.662 200.871 171.05 201.625 171.05C202.379 171.05 202.99 171.662 202.99 172.417Z" fill="#26ABE8"/>
<path d="M215.505 172.417C215.505 173.172 214.894 173.784 214.14 173.784C213.386 173.784 212.775 173.172 212.775 172.417C212.775 171.662 213.386 171.05 214.14 171.05C214.894 171.05 215.505 171.662 215.505 172.417Z" fill="#26ABE8"/>
<path d="M209.248 172.417C209.248 173.172 208.637 173.784 207.883 173.784C207.129 173.784 206.517 173.172 206.517 172.417C206.517 171.662 207.129 171.05 207.883 171.05C208.637 171.05 209.248 171.662 209.248 172.417Z" fill="#26ABE8"/>
<path d="M196.733 172.417C196.733 173.172 196.122 173.784 195.368 173.784C194.614 173.784 194.002 173.172 194.002 172.417C194.002 171.662 194.614 171.05 195.368 171.05C196.122 171.05 196.733 171.662 196.733 172.417Z" fill="#26ABE8"/>
<path d="M225.002 172.416C225.002 174.067 223.666 175.405 222.017 175.405C220.368 175.405 219.032 174.067 219.032 172.416C219.032 170.766 220.368 169.427 222.017 169.427C223.666 169.427 225.002 170.766 225.002 172.416Z" fill="#26ABE8"/>
<path d="M50.3406 131.109C50.3406 131.864 49.7294 132.476 48.9752 132.476C48.221 132.476 47.6097 131.864 47.6097 131.109C47.6097 130.354 48.221 129.741 48.9752 129.741C49.7294 129.741 50.3406 130.354 50.3406 131.109Z" fill="#F74D7B"/>
<path d="M62.8554 131.109C62.8554 131.864 62.2441 132.476 61.4899 132.476C60.7357 132.476 60.1245 131.864 60.1245 131.109C60.1245 130.354 60.7357 129.741 61.4899 129.741C62.2441 129.741 62.8554 130.354 62.8554 131.109Z" fill="#F74D7B"/>
<path d="M75.3701 131.109C75.3701 131.864 74.7588 132.476 74.005 132.476C73.2508 132.476 72.6395 131.864 72.6395 131.109C72.6395 130.354 73.2508 129.741 74.005 129.741C74.7588 129.741 75.3701 130.354 75.3701 131.109Z" fill="#F74D7B"/>
<path d="M69.113 131.109C69.113 131.864 68.5018 132.476 67.7476 132.476C66.9934 132.476 66.3821 131.864 66.3821 131.109C66.3821 130.354 66.9934 129.741 67.7476 129.741C68.5018 129.741 69.113 130.354 69.113 131.109Z" fill="#F74D7B"/>
<path d="M56.5977 131.109C56.5977 131.864 55.9864 132.476 55.2323 132.476C54.4784 132.476 53.8671 131.864 53.8671 131.109C53.8671 130.354 54.4784 129.741 55.2323 129.741C55.9864 129.741 56.5977 130.354 56.5977 131.109Z" fill="#F74D7B"/>
<path d="M179.081 51.7812C178.328 51.7812 177.716 51.1691 177.716 50.4139C177.716 49.6587 178.328 49.0466 179.081 49.0466C179.836 49.0466 180.447 49.6587 180.447 50.4139C180.447 51.1691 179.836 51.7812 179.081 51.7812Z" fill="#F74D7B"/>
<path d="M179.082 64.3129C178.328 64.3129 177.716 63.7008 177.716 62.9456C177.716 62.1905 178.328 61.5784 179.082 61.5784C179.836 61.5784 180.447 62.1905 180.447 62.9456C180.447 63.7008 179.836 64.3129 179.082 64.3129Z" fill="#F74D7B"/>
<path d="M179.082 76.8442C178.328 76.8442 177.716 76.2321 177.716 75.4769C177.716 74.7217 178.328 74.1096 179.082 74.1096C179.836 74.1096 180.447 74.7217 180.447 75.4769C180.447 76.2321 179.836 76.8442 179.082 76.8442Z" fill="#F74D7B"/>
<path d="M179.082 70.5785C178.328 70.5785 177.716 69.9664 177.716 69.2112C177.716 68.4563 178.328 67.8442 179.082 67.8442C179.836 67.8442 180.447 68.4563 180.447 69.2112C180.447 69.9664 179.836 70.5785 179.082 70.5785Z" fill="#F74D7B"/>
<path d="M179.082 58.0472C178.328 58.0472 177.716 57.4351 177.716 56.68C177.716 55.9251 178.328 55.313 179.082 55.313C179.836 55.313 180.447 55.9251 180.447 56.68C180.447 57.4351 179.836 58.0472 179.082 58.0472Z" fill="#F74D7B"/>
<path d="M205.016 124.172H237.796V125.33H205.016V124.172Z" fill="#14315D"/>
<path d="M205.016 126.385H237.796V127.542H205.016V126.385Z" fill="#14315D"/>
<path d="M205.016 128.598H237.796V129.755H205.016V128.598Z" fill="#14315D"/>
<path d="M13.539 4.89648H46.3193V6.05383H13.539V4.89648Z" fill="#F74D7B"/>
<path d="M13.5389 7.10938H46.3193V8.26672H13.5389V7.10938Z" fill="#F74D7B"/>
<path d="M13.5389 9.32202H46.3193V10.4793H13.5389V9.32202Z" fill="#F74D7B"/>
<path opacity="0.3" d="M51.543 11.6741V30.2886H38.1412V11.6741H51.543Z" fill="#14315D"/>
<path fill-rule="evenodd" clip-rule="evenodd" d="M49.1473 29.8451V14.5819C49.1473 13.8415 48.5479 13.2414 47.8087 13.2414H37.7537C37.0145 13.2414 36.415 13.8415 36.415 14.5819V29.8451C36.415 30.5855 37.0145 31.1857 37.7537 31.1857H47.8087C48.5479 31.1857 49.1473 30.5855 49.1473 29.8451ZM49.4819 14.5819C49.4819 13.6565 48.7328 12.9062 47.8087 12.9062H37.7537C36.8296 12.9062 36.0804 13.6565 36.0804 14.5819V29.8451C36.0804 30.7706 36.8296 31.5208 37.7537 31.5208H47.8087C48.7328 31.5208 49.4819 30.7706 49.4819 29.8451V14.5819Z" fill="#26ABE8"/>
<path opacity="0.87" d="M39.8643 19.898H37.9389C37.7599 19.898 37.6077 19.7546 37.6077 19.5663V17.6384C37.6077 17.4591 37.7509 17.3066 37.9389 17.3066H39.8643C40.0433 17.3066 40.1958 17.4501 40.1958 17.6384V19.5663C40.1867 19.7546 40.0433 19.898 39.8643 19.898Z" fill="#14315D"/>
<path opacity="0.87" d="M43.4981 19.898H41.5727C41.3938 19.898 41.2416 19.7546 41.2416 19.5663V17.6384C41.2416 17.4591 41.3848 17.3066 41.5727 17.3066H43.4981C43.6771 17.3066 43.8296 17.4501 43.8296 17.6384V19.5663C43.8206 19.7546 43.6771 19.898 43.4981 19.898Z" fill="#14315D"/>
<path opacity="0.87" d="M47.132 19.898H45.2066C45.0276 19.898 44.8754 19.7546 44.8754 19.5663V17.6384C44.8754 17.4591 45.0186 17.3066 45.2066 17.3066H47.132C47.3113 17.3066 47.4635 17.4501 47.4635 17.6384V19.5663C47.4544 19.7546 47.3113 19.898 47.132 19.898Z" fill="#14315D"/>
<path opacity="0.87" d="M39.8643 23.5728H37.9389C37.7599 23.5728 37.6077 23.4294 37.6077 23.2411V21.3132C37.6077 21.1339 37.7509 20.9814 37.9389 20.9814H39.8643C40.0433 20.9814 40.1958 21.1249 40.1958 21.3132V23.2411C40.1867 23.4294 40.0433 23.5728 39.8643 23.5728Z" fill="#14315D"/>
<path opacity="0.87" d="M43.4981 23.5728H41.5727C41.3938 23.5728 41.2416 23.4294 41.2416 23.2411V21.3132C41.2416 21.1339 41.3848 20.9814 41.5727 20.9814H43.4981C43.6771 20.9814 43.8296 21.1249 43.8296 21.3132V23.2411C43.8206 23.4294 43.6771 23.5728 43.4981 23.5728Z" fill="#14315D"/>
<path opacity="0.87" d="M47.132 23.5728H45.2066C45.0276 23.5728 44.8754 23.4294 44.8754 23.2411V21.3132C44.8754 21.1339 45.0186 20.9814 45.2066 20.9814H47.132C47.3113 20.9814 47.4635 21.1249 47.4635 21.3132V23.2411C47.4544 23.4294 47.3113 23.5728 47.132 23.5728Z" fill="#14315D"/>
<path opacity="0.87" d="M39.8643 27.2471H37.9389C37.7599 27.2471 37.6077 27.1037 37.6077 26.9154V24.9875C37.6077 24.8082 37.7509 24.6558 37.9389 24.6558H39.8643C40.0433 24.6558 40.1958 24.7992 40.1958 24.9875V26.9154C40.1867 27.1037 40.0433 27.2471 39.8643 27.2471Z" fill="#14315D"/>
<path opacity="0.87" d="M43.4981 27.2471H41.5727C41.3938 27.2471 41.2416 27.1037 41.2416 26.9154V24.9875C41.2416 24.8082 41.3848 24.6558 41.5727 24.6558H43.4981C43.6771 24.6558 43.8296 24.7992 43.8296 24.9875V26.9154C43.8206 27.1037 43.6771 27.2471 43.4981 27.2471Z" fill="#14315D"/>
<path opacity="0.87" d="M47.132 27.2471H45.2066C45.0276 27.2471 44.8754 27.1037 44.8754 26.9154V24.9875C44.8754 24.8082 45.0186 24.6558 45.2066 24.6558H47.132C47.3113 24.6558 47.4635 24.7992 47.4635 24.9875V26.9154C47.4544 27.1037 47.3113 27.2471 47.132 27.2471Z" fill="#14315D"/>
<path d="M39.4146 12.9062H46.1475V14.263C46.1475 14.6331 45.8478 14.9332 45.478 14.9332H40.084C39.7143 14.9332 39.4146 14.6331 39.4146 14.263V12.9062Z" fill="#26ABE8"/>
<path d="M39.4146 29.1833H46.1475V29.7232H39.4146V29.1833Z" fill="#26ABE8"/>
<path opacity="0.87" d="M206.309 41.1973H202.862C202.542 41.1973 202.269 40.9404 202.269 40.6032V37.1521C202.269 36.8308 202.526 36.5581 202.862 36.5581H206.309C206.63 36.5581 206.902 36.8149 206.902 37.1521V40.6032C206.886 40.9404 206.63 41.1973 206.309 41.1973Z" fill="#F74D7B"/>
<path opacity="0.87" d="M200.897 41.1973H197.45C197.13 41.1973 196.857 40.9404 196.857 40.6032V37.1521C196.857 36.8308 197.114 36.5581 197.45 36.5581H200.897C201.218 36.5581 201.49 36.8149 201.49 37.1521V40.6032C201.474 40.9404 201.218 41.1973 200.897 41.1973Z" fill="#F74D7B"/>
<path opacity="0.87" d="M195.486 41.1973H192.039C191.718 41.1973 191.446 40.9404 191.446 40.6032V37.1521C191.446 36.8308 191.702 36.5581 192.039 36.5581H195.486C195.806 36.5581 196.079 36.8149 196.079 37.1521V40.6032C196.063 40.9404 195.806 41.1973 195.486 41.1973Z" fill="#F74D7B"/>
<path fill-rule="evenodd" clip-rule="evenodd" d="M199.351 42.8906V27.6273C199.351 26.887 198.752 26.2868 198.012 26.2868H187.958C187.218 26.2868 186.619 26.887 186.619 27.6273V42.8906C186.619 43.6308 187.218 44.231 187.958 44.231H198.012C198.752 44.231 199.351 43.6308 199.351 42.8906ZM199.686 27.6273C199.686 26.7019 198.937 25.9517 198.012 25.9517H187.958C187.033 25.9517 186.284 26.7019 186.284 27.6273V42.8906C186.284 43.8159 187.033 44.5661 187.958 44.5661H198.012C198.937 44.5661 199.686 43.8159 199.686 42.8906V27.6273Z" fill="#26ABE8"/>
<path opacity="0.87" d="M190.068 31.9118H188.143C187.964 31.9118 187.811 31.7681 187.811 31.5798V29.6521C187.811 29.4727 187.955 29.3203 188.143 29.3203H190.068C190.247 29.3203 190.399 29.4638 190.399 29.6521V31.5798C190.39 31.7681 190.247 31.9118 190.068 31.9118Z" fill="#F74D7B"/>
<path opacity="0.87" d="M193.702 31.9118H191.777C191.598 31.9118 191.446 31.7681 191.446 31.5798V29.6521C191.446 29.4727 191.589 29.3203 191.777 29.3203H193.702C193.881 29.3203 194.033 29.4638 194.033 29.6521V31.5798C194.025 31.7681 193.881 31.9118 193.702 31.9118Z" fill="#F74D7B"/>
<path opacity="0.87" d="M197.336 31.9118H195.41C195.231 31.9118 195.079 31.7681 195.079 31.5798V29.6521C195.079 29.4727 195.222 29.3203 195.41 29.3203H197.336C197.515 29.3203 197.667 29.4638 197.667 29.6521V31.5798C197.658 31.7681 197.515 31.9118 197.336 31.9118Z" fill="#F74D7B"/>
<path opacity="0.87" d="M190.068 35.5866H188.143C187.964 35.5866 187.811 35.4429 187.811 35.2547V33.327C187.811 33.1475 187.955 32.9951 188.143 32.9951H190.068C190.247 32.9951 190.399 33.1388 190.399 33.327V35.2547C190.39 35.4429 190.247 35.5866 190.068 35.5866Z" fill="#F74D7B"/>
<path opacity="0.87" d="M193.702 35.5866H191.777C191.598 35.5866 191.446 35.4429 191.446 35.2547V33.327C191.446 33.1475 191.589 32.9951 191.777 32.9951H193.702C193.881 32.9951 194.033 33.1388 194.033 33.327V35.2547C194.025 35.4429 193.881 35.5866 193.702 35.5866Z" fill="#F74D7B"/>
<path opacity="0.87" d="M197.336 35.5866H195.41C195.231 35.5866 195.079 35.4429 195.079 35.2547V33.327C195.079 33.1475 195.222 32.9951 195.41 32.9951H197.336C197.515 32.9951 197.667 33.1388 197.667 33.327V35.2547C197.658 35.4429 197.515 35.5866 197.336 35.5866Z" fill="#F74D7B"/>
<path d="M189.618 25.9517H196.351V27.3084C196.351 27.6785 196.052 27.9786 195.682 27.9786H190.288C189.918 27.9786 189.618 27.6785 189.618 27.3084V25.9517Z" fill="#26ABE8"/>
<path d="M189.618 42.229H196.351V42.7688H189.618V42.229Z" fill="#26ABE8"/>
</svg>
